M48
; DRILL file KiCad 10.0.5 date 2026-08-22T12:21:35
; FORMAT={-:-/ absolute / metric / decimal}
; #@! TF.CreationDate,2026-08-22T12:21:35+08:00
; #@! TF.GenerationSoftware,Kicad,Pcbnew,10.0.5
; #@! TF.FileFunction,Plated,1,4,PTH
FMAT,2
METRIC
; #@! TA.AperFunction,Plated,PTH,ViaDrill
T1C0.150
; #@! TA.AperFunction,Plated,PTH,ViaDrill
T2C0.200
; #@! TA.AperFunction,Plated,PTH,ViaDrill
T3C0.250
; #@! TA.AperFunction,Plated,PTH,ComponentDrill
T4C0.600
%
G90
G05
T1
X145.5Y-70.2
X147.1Y-110.6
X150.75Y-110.85
T2
X141.855Y-104.047
X143.0Y-115.362
X143.189Y-88.361
X143.27Y-107.302
X143.407Y-73.53
X143.42Y-69.737
X143.42Y-75.953
X143.422Y-74.649
X143.493Y-93.929
X143.59Y-92.901
X143.664Y-79.879
X143.745Y-89.779
X143.996Y-109.786
X144.088Y-97.099
X144.126Y-108.924
X144.3Y-118.822
X144.469Y-86.827
X144.7Y-67.91
X144.962Y-81.233
X145.157Y-79.489
X145.49Y-107.476
X145.558Y-67.903
X145.6Y-115.351
X145.658Y-97.55
X145.868Y-89.75
X146.0Y-119.66
X146.0Y-101.368
X146.478Y-67.91
X146.492Y-72.729
X146.498Y-72.007
X146.65Y-131.294
X146.791Y-87.961
X146.795Y-77.052
X146.829Y-79.696
X147.02Y-104.35
X148.047Y-101.373
X148.445Y-83.356
X148.648Y-101.361
X148.648Y-105.539
X148.823Y-89.5
X148.828Y-112.135
X148.91Y-97.567
X148.933Y-115.814
X149.028Y-98.382
X149.189Y-90.0
X149.687Y-115.688
X150.15Y-71.989
X150.177Y-111.098
X150.3Y-91.531
X150.3Y-114.677
X150.35Y-125.094
X150.5Y-79.698
X150.919Y-113.489
X151.09Y-102.635
X151.25Y-70.515
X151.275Y-69.875
X151.323Y-85.7
X151.5Y-120.631
X152.491Y-124.566
X152.963Y-113.614
X153.58Y-75.953
X153.99Y-112.79
X154.01Y-123.292
X154.254Y-82.988
X154.747Y-88.462
X154.813Y-118.72
X154.945Y-91.537
X154.95Y-112.792
T3
X142.673Y-104.025
X143.3Y-118.718
X143.584Y-133.737
X144.5Y-133.721
X145.551Y-112.156
X145.863Y-100.641
X145.959Y-92.744
X146.159Y-110.089
X147.138Y-103.162
X147.45Y-109.59
X148.125Y-108.58
X149.211Y-117.058
X151.279Y-104.22
X153.199Y-89.085
X153.199Y-90.737
T4
X150.075Y-98.68G85X151.075Y-98.68
G05
X150.075Y-107.32G85X151.075Y-107.32
G05
X153.75Y-98.68G85X155.05Y-98.68
G05
X153.75Y-107.32G85X155.05Y-107.32
G05
M30
