M48
; DRILL file KiCad 10.0.5 date 2026-08-23T10:12:00
; FORMAT={-:-/ absolute / metric / decimal}
; #@! TF.CreationDate,2026-08-23T10:12:00+08:00
; #@! TF.GenerationSoftware,Kicad,Pcbnew,10.0.5
; #@! TF.FileFunction,Plated,1,4,PTH
FMAT,2
METRIC
; #@! TA.AperFunction,Plated,PTH,ViaDrill
T1C0.300
; #@! TA.AperFunction,Plated,PTH,ComponentDrill
T2C0.600
%
G90
G05
T1
X129.489Y-97.198
X131.042Y-103.25
X131.129Y-106.25
X131.129Y-111.218
X134.65Y-105.272
X135.884Y-108.244
X143.781Y-91.377
X145.999Y-90.201
X148.746Y-86.538
X149.036Y-89.408
X150.594Y-97.358
X151.19Y-99.942
X151.283Y-84.834
X151.453Y-116.693
X152.404Y-111.332
X152.637Y-93.975
X153.238Y-91.659
X154.202Y-107.264
X155.028Y-112.006
X157.415Y-111.659
X157.967Y-110.416
X159.209Y-110.688
X160.88Y-91.133
X160.899Y-87.548
X161.426Y-94.618
X161.426Y-99.454
X162.29Y-93.381
X162.712Y-91.871
X162.872Y-110.455
X163.083Y-91.175
X164.712Y-109.181
X165.41Y-89.102
X166.003Y-87.346
X166.546Y-91.557
X167.376Y-86.211
X169.869Y-92.075
X171.06Y-89.375
X172.063Y-87.319
X173.025Y-88.498
T2
X126.45Y-100.68G85X125.15Y-100.68
G05
X126.45Y-109.32G85X125.15Y-109.32
G05
X130.125Y-100.68G85X129.125Y-100.68
G05
X130.125Y-109.32G85X129.125Y-109.32
G05
M30
