%TF.GenerationSoftware,KiCad,Pcbnew,10.0.5*%
%TF.CreationDate,2026-08-23T10:12:00+08:00*%
%TF.ProjectId,receiver-effects,72656365-6976-4657-922d-656666656374,rev?*%
%TF.SameCoordinates,Original*%
%TF.FileFunction,Drillmap*%
%TF.FilePolarity,Positive*%
%FSLAX45Y45*%
G04 Gerber Fmt 4.5, Leading zero omitted, Abs format (unit mm)*
G04 Created by KiCad (PCBNEW 10.0.5) date 2026-08-23 10:12:00*
%MOMM*%
%LPD*%
G01*
G04 APERTURE LIST*
%ADD10C,0.100000*%
%ADD11C,0.200000*%
G04 APERTURE END LIST*
D10*
X12350000Y-8370000D02*
X17380000Y-8370000D01*
X12350000Y-12600000D02*
X12350000Y-8370000D01*
X17380000Y-8370000D02*
X17380000Y-12600000D01*
X17380000Y-12600000D02*
X12350000Y-12600000D01*
D11*
D10*
X12933870Y-9704800D02*
X12963870Y-9734800D01*
X12963870Y-9704800D02*
X12933870Y-9734800D01*
X13089210Y-10310000D02*
X13119210Y-10340000D01*
X13119210Y-10310000D02*
X13089210Y-10340000D01*
X13097940Y-10610000D02*
X13127940Y-10640000D01*
X13127940Y-10610000D02*
X13097940Y-10640000D01*
X13097940Y-11106830D02*
X13127940Y-11136830D01*
X13127940Y-11106830D02*
X13097940Y-11136830D01*
X13450000Y-10512220D02*
X13480000Y-10542220D01*
X13480000Y-10512220D02*
X13450000Y-10542220D01*
X13573420Y-10809400D02*
X13603420Y-10839400D01*
X13603420Y-10809400D02*
X13573420Y-10839400D01*
X14363070Y-9122750D02*
X14393070Y-9152750D01*
X14393070Y-9122750D02*
X14363070Y-9152750D01*
X14584900Y-9005150D02*
X14614900Y-9035150D01*
X14614900Y-9005150D02*
X14584900Y-9035150D01*
X14859650Y-8638820D02*
X14889650Y-8668820D01*
X14889650Y-8638820D02*
X14859650Y-8668820D01*
X14888630Y-8925850D02*
X14918630Y-8955850D01*
X14918630Y-8925850D02*
X14888630Y-8955850D01*
X15044410Y-9720790D02*
X15074410Y-9750790D01*
X15074410Y-9720790D02*
X15044410Y-9750790D01*
X15104000Y-9979210D02*
X15134000Y-10009210D01*
X15134000Y-9979210D02*
X15104000Y-10009210D01*
X15113290Y-8468360D02*
X15143290Y-8498360D01*
X15143290Y-8468360D02*
X15113290Y-8498360D01*
X15130350Y-11654320D02*
X15160350Y-11684320D01*
X15160350Y-11654320D02*
X15130350Y-11684320D01*
X15225380Y-11118210D02*
X15255380Y-11148210D01*
X15255380Y-11118210D02*
X15225380Y-11148210D01*
X15248750Y-9382530D02*
X15278750Y-9412530D01*
X15278750Y-9382530D02*
X15248750Y-9412530D01*
X15308790Y-9150900D02*
X15338790Y-9180900D01*
X15338790Y-9150900D02*
X15308790Y-9180900D01*
X15405180Y-10711420D02*
X15435180Y-10741420D01*
X15435180Y-10711420D02*
X15405180Y-10741420D01*
X15487790Y-11185580D02*
X15517790Y-11215580D01*
X15517790Y-11185580D02*
X15487790Y-11215580D01*
X15726550Y-11150910D02*
X15756550Y-11180910D01*
X15756550Y-11150910D02*
X15726550Y-11180910D01*
X15781720Y-11026580D02*
X15811720Y-11056580D01*
X15811720Y-11026580D02*
X15781720Y-11056580D01*
X15905940Y-11053850D02*
X15935940Y-11083850D01*
X15935940Y-11053850D02*
X15905940Y-11083850D01*
X16073040Y-9098290D02*
X16103040Y-9128290D01*
X16103040Y-9098290D02*
X16073040Y-9128290D01*
X16074910Y-8739830D02*
X16104910Y-8769830D01*
X16104910Y-8739830D02*
X16074910Y-8769830D01*
X16127630Y-9446820D02*
X16157630Y-9476820D01*
X16157630Y-9446820D02*
X16127630Y-9476820D01*
X16127630Y-9930440D02*
X16157630Y-9960440D01*
X16157630Y-9930440D02*
X16127630Y-9960440D01*
X16213980Y-9323080D02*
X16243980Y-9353080D01*
X16243980Y-9323080D02*
X16213980Y-9353080D01*
X16256180Y-9172060D02*
X16286180Y-9202060D01*
X16286180Y-9172060D02*
X16256180Y-9202060D01*
X16272170Y-11030490D02*
X16302170Y-11060490D01*
X16302170Y-11030490D02*
X16272170Y-11060490D01*
X16293320Y-9102500D02*
X16323320Y-9132500D01*
X16323320Y-9102500D02*
X16293320Y-9132500D01*
X16456190Y-10903100D02*
X16486190Y-10933100D01*
X16486190Y-10903100D02*
X16456190Y-10933100D01*
X16526050Y-8895240D02*
X16556050Y-8925240D01*
X16556050Y-8895240D02*
X16526050Y-8925240D01*
X16585290Y-8719620D02*
X16615290Y-8749620D01*
X16615290Y-8719620D02*
X16585290Y-8749620D01*
X16639610Y-9140700D02*
X16669610Y-9170700D01*
X16669610Y-9140700D02*
X16639610Y-9170700D01*
X16722600Y-8606080D02*
X16752600Y-8636080D01*
X16752600Y-8606080D02*
X16722600Y-8636080D01*
X16971860Y-9192500D02*
X17001860Y-9222500D01*
X17001860Y-9192500D02*
X16971860Y-9222500D01*
X17090990Y-8922500D02*
X17120990Y-8952500D01*
X17120990Y-8922500D02*
X17090990Y-8952500D01*
X17191290Y-8716900D02*
X17221290Y-8746900D01*
X17221290Y-8716900D02*
X17191290Y-8746900D01*
X17287550Y-8834810D02*
X17317550Y-8864810D01*
X17317550Y-8834810D02*
X17287550Y-8864810D01*
X12610000Y-10068000D02*
G75*
G02*
X12550000Y-10068000I-30000J0D01*
G01*
X12550000Y-10068000D02*
G75*
G02*
X12610000Y-10068000I30000J0D01*
G01*
X12645000Y-10038000D02*
X12515000Y-10038000D01*
X12515000Y-10098000D02*
G75*
G02*
X12515000Y-10038000I0J30000D01*
G01*
X12515000Y-10098000D02*
X12645000Y-10098000D01*
X12645000Y-10098000D02*
G75*
G03*
X12645000Y-10038000I0J30000D01*
G01*
X12610000Y-10932000D02*
G75*
G02*
X12550000Y-10932000I-30000J0D01*
G01*
X12550000Y-10932000D02*
G75*
G02*
X12610000Y-10932000I30000J0D01*
G01*
X12645000Y-10902000D02*
X12515000Y-10902000D01*
X12515000Y-10962000D02*
G75*
G02*
X12515000Y-10902000I0J30000D01*
G01*
X12515000Y-10962000D02*
X12645000Y-10962000D01*
X12645000Y-10962000D02*
G75*
G03*
X12645000Y-10902000I0J30000D01*
G01*
X12992500Y-10068000D02*
G75*
G02*
X12932500Y-10068000I-30000J0D01*
G01*
X12932500Y-10068000D02*
G75*
G02*
X12992500Y-10068000I30000J0D01*
G01*
X13012500Y-10038000D02*
X12912500Y-10038000D01*
X12912500Y-10098000D02*
G75*
G02*
X12912500Y-10038000I0J30000D01*
G01*
X12912500Y-10098000D02*
X13012500Y-10098000D01*
X13012500Y-10098000D02*
G75*
G03*
X13012500Y-10038000I0J30000D01*
G01*
X12992500Y-10932000D02*
G75*
G02*
X12932500Y-10932000I-30000J0D01*
G01*
X12932500Y-10932000D02*
G75*
G02*
X12992500Y-10932000I30000J0D01*
G01*
X13012500Y-10902000D02*
X12912500Y-10902000D01*
X12912500Y-10962000D02*
G75*
G02*
X12912500Y-10902000I0J30000D01*
G01*
X12912500Y-10962000D02*
X13012500Y-10962000D01*
X13012500Y-10962000D02*
G75*
G03*
X13012500Y-10902000I0J30000D01*
G01*
D11*
X12605777Y-12916484D02*
X12605777Y-12716484D01*
X12605777Y-12716484D02*
X12653396Y-12716484D01*
X12653396Y-12716484D02*
X12681967Y-12726008D01*
X12681967Y-12726008D02*
X12701015Y-12745055D01*
X12701015Y-12745055D02*
X12710539Y-12764103D01*
X12710539Y-12764103D02*
X12720062Y-12802198D01*
X12720062Y-12802198D02*
X12720062Y-12830769D01*
X12720062Y-12830769D02*
X12710539Y-12868865D01*
X12710539Y-12868865D02*
X12701015Y-12887912D01*
X12701015Y-12887912D02*
X12681967Y-12906960D01*
X12681967Y-12906960D02*
X12653396Y-12916484D01*
X12653396Y-12916484D02*
X12605777Y-12916484D01*
X12805777Y-12916484D02*
X12805777Y-12783150D01*
X12805777Y-12821246D02*
X12815301Y-12802198D01*
X12815301Y-12802198D02*
X12824824Y-12792674D01*
X12824824Y-12792674D02*
X12843872Y-12783150D01*
X12843872Y-12783150D02*
X12862920Y-12783150D01*
X12929586Y-12916484D02*
X12929586Y-12783150D01*
X12929586Y-12716484D02*
X12920062Y-12726008D01*
X12920062Y-12726008D02*
X12929586Y-12735531D01*
X12929586Y-12735531D02*
X12939110Y-12726008D01*
X12939110Y-12726008D02*
X12929586Y-12716484D01*
X12929586Y-12716484D02*
X12929586Y-12735531D01*
X13053396Y-12916484D02*
X13034348Y-12906960D01*
X13034348Y-12906960D02*
X13024824Y-12887912D01*
X13024824Y-12887912D02*
X13024824Y-12716484D01*
X13158158Y-12916484D02*
X13139110Y-12906960D01*
X13139110Y-12906960D02*
X13129586Y-12887912D01*
X13129586Y-12887912D02*
X13129586Y-12716484D01*
X13386729Y-12916484D02*
X13386729Y-12716484D01*
X13386729Y-12716484D02*
X13453396Y-12859341D01*
X13453396Y-12859341D02*
X13520062Y-12716484D01*
X13520062Y-12716484D02*
X13520062Y-12916484D01*
X13701015Y-12916484D02*
X13701015Y-12811722D01*
X13701015Y-12811722D02*
X13691491Y-12792674D01*
X13691491Y-12792674D02*
X13672443Y-12783150D01*
X13672443Y-12783150D02*
X13634348Y-12783150D01*
X13634348Y-12783150D02*
X13615301Y-12792674D01*
X13701015Y-12906960D02*
X13681967Y-12916484D01*
X13681967Y-12916484D02*
X13634348Y-12916484D01*
X13634348Y-12916484D02*
X13615301Y-12906960D01*
X13615301Y-12906960D02*
X13605777Y-12887912D01*
X13605777Y-12887912D02*
X13605777Y-12868865D01*
X13605777Y-12868865D02*
X13615301Y-12849817D01*
X13615301Y-12849817D02*
X13634348Y-12840293D01*
X13634348Y-12840293D02*
X13681967Y-12840293D01*
X13681967Y-12840293D02*
X13701015Y-12830769D01*
X13796253Y-12783150D02*
X13796253Y-12983150D01*
X13796253Y-12792674D02*
X13815301Y-12783150D01*
X13815301Y-12783150D02*
X13853396Y-12783150D01*
X13853396Y-12783150D02*
X13872443Y-12792674D01*
X13872443Y-12792674D02*
X13881967Y-12802198D01*
X13881967Y-12802198D02*
X13891491Y-12821246D01*
X13891491Y-12821246D02*
X13891491Y-12878388D01*
X13891491Y-12878388D02*
X13881967Y-12897436D01*
X13881967Y-12897436D02*
X13872443Y-12906960D01*
X13872443Y-12906960D02*
X13853396Y-12916484D01*
X13853396Y-12916484D02*
X13815301Y-12916484D01*
X13815301Y-12916484D02*
X13796253Y-12906960D01*
X13977205Y-12897436D02*
X13986729Y-12906960D01*
X13986729Y-12906960D02*
X13977205Y-12916484D01*
X13977205Y-12916484D02*
X13967682Y-12906960D01*
X13967682Y-12906960D02*
X13977205Y-12897436D01*
X13977205Y-12897436D02*
X13977205Y-12916484D01*
X13977205Y-12792674D02*
X13986729Y-12802198D01*
X13986729Y-12802198D02*
X13977205Y-12811722D01*
X13977205Y-12811722D02*
X13967682Y-12802198D01*
X13967682Y-12802198D02*
X13977205Y-12792674D01*
X13977205Y-12792674D02*
X13977205Y-12811722D01*
D10*
X12315000Y-13230000D02*
X12345000Y-13260000D01*
X12345000Y-13230000D02*
X12315000Y-13260000D01*
D11*
X12643872Y-13136484D02*
X12662920Y-13136484D01*
X12662920Y-13136484D02*
X12681967Y-13146008D01*
X12681967Y-13146008D02*
X12691491Y-13155531D01*
X12691491Y-13155531D02*
X12701015Y-13174579D01*
X12701015Y-13174579D02*
X12710539Y-13212674D01*
X12710539Y-13212674D02*
X12710539Y-13260293D01*
X12710539Y-13260293D02*
X12701015Y-13298388D01*
X12701015Y-13298388D02*
X12691491Y-13317436D01*
X12691491Y-13317436D02*
X12681967Y-13326960D01*
X12681967Y-13326960D02*
X12662920Y-13336484D01*
X12662920Y-13336484D02*
X12643872Y-13336484D01*
X12643872Y-13336484D02*
X12624824Y-13326960D01*
X12624824Y-13326960D02*
X12615301Y-13317436D01*
X12615301Y-13317436D02*
X12605777Y-13298388D01*
X12605777Y-13298388D02*
X12596253Y-13260293D01*
X12596253Y-13260293D02*
X12596253Y-13212674D01*
X12596253Y-13212674D02*
X12605777Y-13174579D01*
X12605777Y-13174579D02*
X12615301Y-13155531D01*
X12615301Y-13155531D02*
X12624824Y-13146008D01*
X12624824Y-13146008D02*
X12643872Y-13136484D01*
X12796253Y-13317436D02*
X12805777Y-13326960D01*
X12805777Y-13326960D02*
X12796253Y-13336484D01*
X12796253Y-13336484D02*
X12786729Y-13326960D01*
X12786729Y-13326960D02*
X12796253Y-13317436D01*
X12796253Y-13317436D02*
X12796253Y-13336484D01*
X12872443Y-13136484D02*
X12996253Y-13136484D01*
X12996253Y-13136484D02*
X12929586Y-13212674D01*
X12929586Y-13212674D02*
X12958158Y-13212674D01*
X12958158Y-13212674D02*
X12977205Y-13222198D01*
X12977205Y-13222198D02*
X12986729Y-13231722D01*
X12986729Y-13231722D02*
X12996253Y-13250769D01*
X12996253Y-13250769D02*
X12996253Y-13298388D01*
X12996253Y-13298388D02*
X12986729Y-13317436D01*
X12986729Y-13317436D02*
X12977205Y-13326960D01*
X12977205Y-13326960D02*
X12958158Y-13336484D01*
X12958158Y-13336484D02*
X12901015Y-13336484D01*
X12901015Y-13336484D02*
X12881967Y-13326960D01*
X12881967Y-13326960D02*
X12872443Y-13317436D01*
X13120062Y-13136484D02*
X13139110Y-13136484D01*
X13139110Y-13136484D02*
X13158158Y-13146008D01*
X13158158Y-13146008D02*
X13167682Y-13155531D01*
X13167682Y-13155531D02*
X13177205Y-13174579D01*
X13177205Y-13174579D02*
X13186729Y-13212674D01*
X13186729Y-13212674D02*
X13186729Y-13260293D01*
X13186729Y-13260293D02*
X13177205Y-13298388D01*
X13177205Y-13298388D02*
X13167682Y-13317436D01*
X13167682Y-13317436D02*
X13158158Y-13326960D01*
X13158158Y-13326960D02*
X13139110Y-13336484D01*
X13139110Y-13336484D02*
X13120062Y-13336484D01*
X13120062Y-13336484D02*
X13101015Y-13326960D01*
X13101015Y-13326960D02*
X13091491Y-13317436D01*
X13091491Y-13317436D02*
X13081967Y-13298388D01*
X13081967Y-13298388D02*
X13072443Y-13260293D01*
X13072443Y-13260293D02*
X13072443Y-13212674D01*
X13072443Y-13212674D02*
X13081967Y-13174579D01*
X13081967Y-13174579D02*
X13091491Y-13155531D01*
X13091491Y-13155531D02*
X13101015Y-13146008D01*
X13101015Y-13146008D02*
X13120062Y-13136484D01*
X13310539Y-13136484D02*
X13329586Y-13136484D01*
X13329586Y-13136484D02*
X13348634Y-13146008D01*
X13348634Y-13146008D02*
X13358158Y-13155531D01*
X13358158Y-13155531D02*
X13367682Y-13174579D01*
X13367682Y-13174579D02*
X13377205Y-13212674D01*
X13377205Y-13212674D02*
X13377205Y-13260293D01*
X13377205Y-13260293D02*
X13367682Y-13298388D01*
X13367682Y-13298388D02*
X13358158Y-13317436D01*
X13358158Y-13317436D02*
X13348634Y-13326960D01*
X13348634Y-13326960D02*
X13329586Y-13336484D01*
X13329586Y-13336484D02*
X13310539Y-13336484D01*
X13310539Y-13336484D02*
X13291491Y-13326960D01*
X13291491Y-13326960D02*
X13281967Y-13317436D01*
X13281967Y-13317436D02*
X13272443Y-13298388D01*
X13272443Y-13298388D02*
X13262920Y-13260293D01*
X13262920Y-13260293D02*
X13262920Y-13212674D01*
X13262920Y-13212674D02*
X13272443Y-13174579D01*
X13272443Y-13174579D02*
X13281967Y-13155531D01*
X13281967Y-13155531D02*
X13291491Y-13146008D01*
X13291491Y-13146008D02*
X13310539Y-13136484D01*
X13462920Y-13336484D02*
X13462920Y-13203150D01*
X13462920Y-13222198D02*
X13472443Y-13212674D01*
X13472443Y-13212674D02*
X13491491Y-13203150D01*
X13491491Y-13203150D02*
X13520063Y-13203150D01*
X13520063Y-13203150D02*
X13539110Y-13212674D01*
X13539110Y-13212674D02*
X13548634Y-13231722D01*
X13548634Y-13231722D02*
X13548634Y-13336484D01*
X13548634Y-13231722D02*
X13558158Y-13212674D01*
X13558158Y-13212674D02*
X13577205Y-13203150D01*
X13577205Y-13203150D02*
X13605777Y-13203150D01*
X13605777Y-13203150D02*
X13624824Y-13212674D01*
X13624824Y-13212674D02*
X13634348Y-13231722D01*
X13634348Y-13231722D02*
X13634348Y-13336484D01*
X13729586Y-13336484D02*
X13729586Y-13203150D01*
X13729586Y-13222198D02*
X13739110Y-13212674D01*
X13739110Y-13212674D02*
X13758158Y-13203150D01*
X13758158Y-13203150D02*
X13786729Y-13203150D01*
X13786729Y-13203150D02*
X13805777Y-13212674D01*
X13805777Y-13212674D02*
X13815301Y-13231722D01*
X13815301Y-13231722D02*
X13815301Y-13336484D01*
X13815301Y-13231722D02*
X13824824Y-13212674D01*
X13824824Y-13212674D02*
X13843872Y-13203150D01*
X13843872Y-13203150D02*
X13872443Y-13203150D01*
X13872443Y-13203150D02*
X13891491Y-13212674D01*
X13891491Y-13212674D02*
X13901015Y-13231722D01*
X13901015Y-13231722D02*
X13901015Y-13336484D01*
X14291491Y-13126960D02*
X14120063Y-13384103D01*
X14548634Y-13136484D02*
X14567682Y-13136484D01*
X14567682Y-13136484D02*
X14586729Y-13146008D01*
X14586729Y-13146008D02*
X14596253Y-13155531D01*
X14596253Y-13155531D02*
X14605777Y-13174579D01*
X14605777Y-13174579D02*
X14615301Y-13212674D01*
X14615301Y-13212674D02*
X14615301Y-13260293D01*
X14615301Y-13260293D02*
X14605777Y-13298388D01*
X14605777Y-13298388D02*
X14596253Y-13317436D01*
X14596253Y-13317436D02*
X14586729Y-13326960D01*
X14586729Y-13326960D02*
X14567682Y-13336484D01*
X14567682Y-13336484D02*
X14548634Y-13336484D01*
X14548634Y-13336484D02*
X14529586Y-13326960D01*
X14529586Y-13326960D02*
X14520063Y-13317436D01*
X14520063Y-13317436D02*
X14510539Y-13298388D01*
X14510539Y-13298388D02*
X14501015Y-13260293D01*
X14501015Y-13260293D02*
X14501015Y-13212674D01*
X14501015Y-13212674D02*
X14510539Y-13174579D01*
X14510539Y-13174579D02*
X14520063Y-13155531D01*
X14520063Y-13155531D02*
X14529586Y-13146008D01*
X14529586Y-13146008D02*
X14548634Y-13136484D01*
X14701015Y-13317436D02*
X14710539Y-13326960D01*
X14710539Y-13326960D02*
X14701015Y-13336484D01*
X14701015Y-13336484D02*
X14691491Y-13326960D01*
X14691491Y-13326960D02*
X14701015Y-13317436D01*
X14701015Y-13317436D02*
X14701015Y-13336484D01*
X14834348Y-13136484D02*
X14853396Y-13136484D01*
X14853396Y-13136484D02*
X14872444Y-13146008D01*
X14872444Y-13146008D02*
X14881967Y-13155531D01*
X14881967Y-13155531D02*
X14891491Y-13174579D01*
X14891491Y-13174579D02*
X14901015Y-13212674D01*
X14901015Y-13212674D02*
X14901015Y-13260293D01*
X14901015Y-13260293D02*
X14891491Y-13298388D01*
X14891491Y-13298388D02*
X14881967Y-13317436D01*
X14881967Y-13317436D02*
X14872444Y-13326960D01*
X14872444Y-13326960D02*
X14853396Y-13336484D01*
X14853396Y-13336484D02*
X14834348Y-13336484D01*
X14834348Y-13336484D02*
X14815301Y-13326960D01*
X14815301Y-13326960D02*
X14805777Y-13317436D01*
X14805777Y-13317436D02*
X14796253Y-13298388D01*
X14796253Y-13298388D02*
X14786729Y-13260293D01*
X14786729Y-13260293D02*
X14786729Y-13212674D01*
X14786729Y-13212674D02*
X14796253Y-13174579D01*
X14796253Y-13174579D02*
X14805777Y-13155531D01*
X14805777Y-13155531D02*
X14815301Y-13146008D01*
X14815301Y-13146008D02*
X14834348Y-13136484D01*
X15091491Y-13336484D02*
X14977206Y-13336484D01*
X15034348Y-13336484D02*
X15034348Y-13136484D01*
X15034348Y-13136484D02*
X15015301Y-13165055D01*
X15015301Y-13165055D02*
X14996253Y-13184103D01*
X14996253Y-13184103D02*
X14977206Y-13193627D01*
X15281967Y-13336484D02*
X15167682Y-13336484D01*
X15224825Y-13336484D02*
X15224825Y-13136484D01*
X15224825Y-13136484D02*
X15205777Y-13165055D01*
X15205777Y-13165055D02*
X15186729Y-13184103D01*
X15186729Y-13184103D02*
X15167682Y-13193627D01*
X15396253Y-13222198D02*
X15377206Y-13212674D01*
X15377206Y-13212674D02*
X15367682Y-13203150D01*
X15367682Y-13203150D02*
X15358158Y-13184103D01*
X15358158Y-13184103D02*
X15358158Y-13174579D01*
X15358158Y-13174579D02*
X15367682Y-13155531D01*
X15367682Y-13155531D02*
X15377206Y-13146008D01*
X15377206Y-13146008D02*
X15396253Y-13136484D01*
X15396253Y-13136484D02*
X15434348Y-13136484D01*
X15434348Y-13136484D02*
X15453396Y-13146008D01*
X15453396Y-13146008D02*
X15462920Y-13155531D01*
X15462920Y-13155531D02*
X15472444Y-13174579D01*
X15472444Y-13174579D02*
X15472444Y-13184103D01*
X15472444Y-13184103D02*
X15462920Y-13203150D01*
X15462920Y-13203150D02*
X15453396Y-13212674D01*
X15453396Y-13212674D02*
X15434348Y-13222198D01*
X15434348Y-13222198D02*
X15396253Y-13222198D01*
X15396253Y-13222198D02*
X15377206Y-13231722D01*
X15377206Y-13231722D02*
X15367682Y-13241246D01*
X15367682Y-13241246D02*
X15358158Y-13260293D01*
X15358158Y-13260293D02*
X15358158Y-13298388D01*
X15358158Y-13298388D02*
X15367682Y-13317436D01*
X15367682Y-13317436D02*
X15377206Y-13326960D01*
X15377206Y-13326960D02*
X15396253Y-13336484D01*
X15396253Y-13336484D02*
X15434348Y-13336484D01*
X15434348Y-13336484D02*
X15453396Y-13326960D01*
X15453396Y-13326960D02*
X15462920Y-13317436D01*
X15462920Y-13317436D02*
X15472444Y-13298388D01*
X15472444Y-13298388D02*
X15472444Y-13260293D01*
X15472444Y-13260293D02*
X15462920Y-13241246D01*
X15462920Y-13241246D02*
X15453396Y-13231722D01*
X15453396Y-13231722D02*
X15434348Y-13222198D01*
X15548634Y-13136484D02*
X15548634Y-13174579D01*
X15624825Y-13136484D02*
X15624825Y-13174579D01*
X15920063Y-13412674D02*
X15910539Y-13403150D01*
X15910539Y-13403150D02*
X15891491Y-13374579D01*
X15891491Y-13374579D02*
X15881968Y-13355531D01*
X15881968Y-13355531D02*
X15872444Y-13326960D01*
X15872444Y-13326960D02*
X15862920Y-13279341D01*
X15862920Y-13279341D02*
X15862920Y-13241246D01*
X15862920Y-13241246D02*
X15872444Y-13193627D01*
X15872444Y-13193627D02*
X15881968Y-13165055D01*
X15881968Y-13165055D02*
X15891491Y-13146008D01*
X15891491Y-13146008D02*
X15910539Y-13117436D01*
X15910539Y-13117436D02*
X15920063Y-13107912D01*
X15977206Y-13136484D02*
X16101015Y-13136484D01*
X16101015Y-13136484D02*
X16034348Y-13212674D01*
X16034348Y-13212674D02*
X16062920Y-13212674D01*
X16062920Y-13212674D02*
X16081968Y-13222198D01*
X16081968Y-13222198D02*
X16091491Y-13231722D01*
X16091491Y-13231722D02*
X16101015Y-13250769D01*
X16101015Y-13250769D02*
X16101015Y-13298388D01*
X16101015Y-13298388D02*
X16091491Y-13317436D01*
X16091491Y-13317436D02*
X16081968Y-13326960D01*
X16081968Y-13326960D02*
X16062920Y-13336484D01*
X16062920Y-13336484D02*
X16005777Y-13336484D01*
X16005777Y-13336484D02*
X15986729Y-13326960D01*
X15986729Y-13326960D02*
X15977206Y-13317436D01*
X16196253Y-13336484D02*
X16234348Y-13336484D01*
X16234348Y-13336484D02*
X16253396Y-13326960D01*
X16253396Y-13326960D02*
X16262920Y-13317436D01*
X16262920Y-13317436D02*
X16281968Y-13288865D01*
X16281968Y-13288865D02*
X16291491Y-13250769D01*
X16291491Y-13250769D02*
X16291491Y-13174579D01*
X16291491Y-13174579D02*
X16281968Y-13155531D01*
X16281968Y-13155531D02*
X16272444Y-13146008D01*
X16272444Y-13146008D02*
X16253396Y-13136484D01*
X16253396Y-13136484D02*
X16215301Y-13136484D01*
X16215301Y-13136484D02*
X16196253Y-13146008D01*
X16196253Y-13146008D02*
X16186729Y-13155531D01*
X16186729Y-13155531D02*
X16177206Y-13174579D01*
X16177206Y-13174579D02*
X16177206Y-13222198D01*
X16177206Y-13222198D02*
X16186729Y-13241246D01*
X16186729Y-13241246D02*
X16196253Y-13250769D01*
X16196253Y-13250769D02*
X16215301Y-13260293D01*
X16215301Y-13260293D02*
X16253396Y-13260293D01*
X16253396Y-13260293D02*
X16272444Y-13250769D01*
X16272444Y-13250769D02*
X16281968Y-13241246D01*
X16281968Y-13241246D02*
X16291491Y-13222198D01*
X16529587Y-13336484D02*
X16529587Y-13136484D01*
X16615301Y-13336484D02*
X16615301Y-13231722D01*
X16615301Y-13231722D02*
X16605777Y-13212674D01*
X16605777Y-13212674D02*
X16586730Y-13203150D01*
X16586730Y-13203150D02*
X16558158Y-13203150D01*
X16558158Y-13203150D02*
X16539110Y-13212674D01*
X16539110Y-13212674D02*
X16529587Y-13222198D01*
X16739110Y-13336484D02*
X16720063Y-13326960D01*
X16720063Y-13326960D02*
X16710539Y-13317436D01*
X16710539Y-13317436D02*
X16701015Y-13298388D01*
X16701015Y-13298388D02*
X16701015Y-13241246D01*
X16701015Y-13241246D02*
X16710539Y-13222198D01*
X16710539Y-13222198D02*
X16720063Y-13212674D01*
X16720063Y-13212674D02*
X16739110Y-13203150D01*
X16739110Y-13203150D02*
X16767682Y-13203150D01*
X16767682Y-13203150D02*
X16786730Y-13212674D01*
X16786730Y-13212674D02*
X16796253Y-13222198D01*
X16796253Y-13222198D02*
X16805777Y-13241246D01*
X16805777Y-13241246D02*
X16805777Y-13298388D01*
X16805777Y-13298388D02*
X16796253Y-13317436D01*
X16796253Y-13317436D02*
X16786730Y-13326960D01*
X16786730Y-13326960D02*
X16767682Y-13336484D01*
X16767682Y-13336484D02*
X16739110Y-13336484D01*
X16920063Y-13336484D02*
X16901015Y-13326960D01*
X16901015Y-13326960D02*
X16891492Y-13307912D01*
X16891492Y-13307912D02*
X16891492Y-13136484D01*
X17072444Y-13326960D02*
X17053396Y-13336484D01*
X17053396Y-13336484D02*
X17015301Y-13336484D01*
X17015301Y-13336484D02*
X16996253Y-13326960D01*
X16996253Y-13326960D02*
X16986730Y-13307912D01*
X16986730Y-13307912D02*
X16986730Y-13231722D01*
X16986730Y-13231722D02*
X16996253Y-13212674D01*
X16996253Y-13212674D02*
X17015301Y-13203150D01*
X17015301Y-13203150D02*
X17053396Y-13203150D01*
X17053396Y-13203150D02*
X17072444Y-13212674D01*
X17072444Y-13212674D02*
X17081968Y-13231722D01*
X17081968Y-13231722D02*
X17081968Y-13250769D01*
X17081968Y-13250769D02*
X16986730Y-13269817D01*
X17158158Y-13326960D02*
X17177206Y-13336484D01*
X17177206Y-13336484D02*
X17215301Y-13336484D01*
X17215301Y-13336484D02*
X17234349Y-13326960D01*
X17234349Y-13326960D02*
X17243873Y-13307912D01*
X17243873Y-13307912D02*
X17243873Y-13298388D01*
X17243873Y-13298388D02*
X17234349Y-13279341D01*
X17234349Y-13279341D02*
X17215301Y-13269817D01*
X17215301Y-13269817D02*
X17186730Y-13269817D01*
X17186730Y-13269817D02*
X17167682Y-13260293D01*
X17167682Y-13260293D02*
X17158158Y-13241246D01*
X17158158Y-13241246D02*
X17158158Y-13231722D01*
X17158158Y-13231722D02*
X17167682Y-13212674D01*
X17167682Y-13212674D02*
X17186730Y-13203150D01*
X17186730Y-13203150D02*
X17215301Y-13203150D01*
X17215301Y-13203150D02*
X17234349Y-13212674D01*
X17310539Y-13412674D02*
X17320063Y-13403150D01*
X17320063Y-13403150D02*
X17339111Y-13374579D01*
X17339111Y-13374579D02*
X17348634Y-13355531D01*
X17348634Y-13355531D02*
X17358158Y-13326960D01*
X17358158Y-13326960D02*
X17367682Y-13279341D01*
X17367682Y-13279341D02*
X17367682Y-13241246D01*
X17367682Y-13241246D02*
X17358158Y-13193627D01*
X17358158Y-13193627D02*
X17348634Y-13165055D01*
X17348634Y-13165055D02*
X17339111Y-13146008D01*
X17339111Y-13146008D02*
X17320063Y-13117436D01*
X17320063Y-13117436D02*
X17310539Y-13107912D01*
D10*
X12345000Y-13509000D02*
G75*
G02*
X12285000Y-13509000I-30000J0D01*
G01*
X12285000Y-13509000D02*
G75*
G02*
X12345000Y-13509000I30000J0D01*
G01*
D11*
X12643872Y-13400484D02*
X12662920Y-13400484D01*
X12662920Y-13400484D02*
X12681967Y-13410008D01*
X12681967Y-13410008D02*
X12691491Y-13419531D01*
X12691491Y-13419531D02*
X12701015Y-13438579D01*
X12701015Y-13438579D02*
X12710539Y-13476674D01*
X12710539Y-13476674D02*
X12710539Y-13524293D01*
X12710539Y-13524293D02*
X12701015Y-13562388D01*
X12701015Y-13562388D02*
X12691491Y-13581436D01*
X12691491Y-13581436D02*
X12681967Y-13590960D01*
X12681967Y-13590960D02*
X12662920Y-13600484D01*
X12662920Y-13600484D02*
X12643872Y-13600484D01*
X12643872Y-13600484D02*
X12624824Y-13590960D01*
X12624824Y-13590960D02*
X12615301Y-13581436D01*
X12615301Y-13581436D02*
X12605777Y-13562388D01*
X12605777Y-13562388D02*
X12596253Y-13524293D01*
X12596253Y-13524293D02*
X12596253Y-13476674D01*
X12596253Y-13476674D02*
X12605777Y-13438579D01*
X12605777Y-13438579D02*
X12615301Y-13419531D01*
X12615301Y-13419531D02*
X12624824Y-13410008D01*
X12624824Y-13410008D02*
X12643872Y-13400484D01*
X12796253Y-13581436D02*
X12805777Y-13590960D01*
X12805777Y-13590960D02*
X12796253Y-13600484D01*
X12796253Y-13600484D02*
X12786729Y-13590960D01*
X12786729Y-13590960D02*
X12796253Y-13581436D01*
X12796253Y-13581436D02*
X12796253Y-13600484D01*
X12977205Y-13400484D02*
X12939110Y-13400484D01*
X12939110Y-13400484D02*
X12920062Y-13410008D01*
X12920062Y-13410008D02*
X12910539Y-13419531D01*
X12910539Y-13419531D02*
X12891491Y-13448103D01*
X12891491Y-13448103D02*
X12881967Y-13486198D01*
X12881967Y-13486198D02*
X12881967Y-13562388D01*
X12881967Y-13562388D02*
X12891491Y-13581436D01*
X12891491Y-13581436D02*
X12901015Y-13590960D01*
X12901015Y-13590960D02*
X12920062Y-13600484D01*
X12920062Y-13600484D02*
X12958158Y-13600484D01*
X12958158Y-13600484D02*
X12977205Y-13590960D01*
X12977205Y-13590960D02*
X12986729Y-13581436D01*
X12986729Y-13581436D02*
X12996253Y-13562388D01*
X12996253Y-13562388D02*
X12996253Y-13514769D01*
X12996253Y-13514769D02*
X12986729Y-13495722D01*
X12986729Y-13495722D02*
X12977205Y-13486198D01*
X12977205Y-13486198D02*
X12958158Y-13476674D01*
X12958158Y-13476674D02*
X12920062Y-13476674D01*
X12920062Y-13476674D02*
X12901015Y-13486198D01*
X12901015Y-13486198D02*
X12891491Y-13495722D01*
X12891491Y-13495722D02*
X12881967Y-13514769D01*
X13120062Y-13400484D02*
X13139110Y-13400484D01*
X13139110Y-13400484D02*
X13158158Y-13410008D01*
X13158158Y-13410008D02*
X13167682Y-13419531D01*
X13167682Y-13419531D02*
X13177205Y-13438579D01*
X13177205Y-13438579D02*
X13186729Y-13476674D01*
X13186729Y-13476674D02*
X13186729Y-13524293D01*
X13186729Y-13524293D02*
X13177205Y-13562388D01*
X13177205Y-13562388D02*
X13167682Y-13581436D01*
X13167682Y-13581436D02*
X13158158Y-13590960D01*
X13158158Y-13590960D02*
X13139110Y-13600484D01*
X13139110Y-13600484D02*
X13120062Y-13600484D01*
X13120062Y-13600484D02*
X13101015Y-13590960D01*
X13101015Y-13590960D02*
X13091491Y-13581436D01*
X13091491Y-13581436D02*
X13081967Y-13562388D01*
X13081967Y-13562388D02*
X13072443Y-13524293D01*
X13072443Y-13524293D02*
X13072443Y-13476674D01*
X13072443Y-13476674D02*
X13081967Y-13438579D01*
X13081967Y-13438579D02*
X13091491Y-13419531D01*
X13091491Y-13419531D02*
X13101015Y-13410008D01*
X13101015Y-13410008D02*
X13120062Y-13400484D01*
X13310539Y-13400484D02*
X13329586Y-13400484D01*
X13329586Y-13400484D02*
X13348634Y-13410008D01*
X13348634Y-13410008D02*
X13358158Y-13419531D01*
X13358158Y-13419531D02*
X13367682Y-13438579D01*
X13367682Y-13438579D02*
X13377205Y-13476674D01*
X13377205Y-13476674D02*
X13377205Y-13524293D01*
X13377205Y-13524293D02*
X13367682Y-13562388D01*
X13367682Y-13562388D02*
X13358158Y-13581436D01*
X13358158Y-13581436D02*
X13348634Y-13590960D01*
X13348634Y-13590960D02*
X13329586Y-13600484D01*
X13329586Y-13600484D02*
X13310539Y-13600484D01*
X13310539Y-13600484D02*
X13291491Y-13590960D01*
X13291491Y-13590960D02*
X13281967Y-13581436D01*
X13281967Y-13581436D02*
X13272443Y-13562388D01*
X13272443Y-13562388D02*
X13262920Y-13524293D01*
X13262920Y-13524293D02*
X13262920Y-13476674D01*
X13262920Y-13476674D02*
X13272443Y-13438579D01*
X13272443Y-13438579D02*
X13281967Y-13419531D01*
X13281967Y-13419531D02*
X13291491Y-13410008D01*
X13291491Y-13410008D02*
X13310539Y-13400484D01*
X13462920Y-13600484D02*
X13462920Y-13467150D01*
X13462920Y-13486198D02*
X13472443Y-13476674D01*
X13472443Y-13476674D02*
X13491491Y-13467150D01*
X13491491Y-13467150D02*
X13520063Y-13467150D01*
X13520063Y-13467150D02*
X13539110Y-13476674D01*
X13539110Y-13476674D02*
X13548634Y-13495722D01*
X13548634Y-13495722D02*
X13548634Y-13600484D01*
X13548634Y-13495722D02*
X13558158Y-13476674D01*
X13558158Y-13476674D02*
X13577205Y-13467150D01*
X13577205Y-13467150D02*
X13605777Y-13467150D01*
X13605777Y-13467150D02*
X13624824Y-13476674D01*
X13624824Y-13476674D02*
X13634348Y-13495722D01*
X13634348Y-13495722D02*
X13634348Y-13600484D01*
X13729586Y-13600484D02*
X13729586Y-13467150D01*
X13729586Y-13486198D02*
X13739110Y-13476674D01*
X13739110Y-13476674D02*
X13758158Y-13467150D01*
X13758158Y-13467150D02*
X13786729Y-13467150D01*
X13786729Y-13467150D02*
X13805777Y-13476674D01*
X13805777Y-13476674D02*
X13815301Y-13495722D01*
X13815301Y-13495722D02*
X13815301Y-13600484D01*
X13815301Y-13495722D02*
X13824824Y-13476674D01*
X13824824Y-13476674D02*
X13843872Y-13467150D01*
X13843872Y-13467150D02*
X13872443Y-13467150D01*
X13872443Y-13467150D02*
X13891491Y-13476674D01*
X13891491Y-13476674D02*
X13901015Y-13495722D01*
X13901015Y-13495722D02*
X13901015Y-13600484D01*
X14291491Y-13390960D02*
X14120063Y-13648103D01*
X14548634Y-13400484D02*
X14567682Y-13400484D01*
X14567682Y-13400484D02*
X14586729Y-13410008D01*
X14586729Y-13410008D02*
X14596253Y-13419531D01*
X14596253Y-13419531D02*
X14605777Y-13438579D01*
X14605777Y-13438579D02*
X14615301Y-13476674D01*
X14615301Y-13476674D02*
X14615301Y-13524293D01*
X14615301Y-13524293D02*
X14605777Y-13562388D01*
X14605777Y-13562388D02*
X14596253Y-13581436D01*
X14596253Y-13581436D02*
X14586729Y-13590960D01*
X14586729Y-13590960D02*
X14567682Y-13600484D01*
X14567682Y-13600484D02*
X14548634Y-13600484D01*
X14548634Y-13600484D02*
X14529586Y-13590960D01*
X14529586Y-13590960D02*
X14520063Y-13581436D01*
X14520063Y-13581436D02*
X14510539Y-13562388D01*
X14510539Y-13562388D02*
X14501015Y-13524293D01*
X14501015Y-13524293D02*
X14501015Y-13476674D01*
X14501015Y-13476674D02*
X14510539Y-13438579D01*
X14510539Y-13438579D02*
X14520063Y-13419531D01*
X14520063Y-13419531D02*
X14529586Y-13410008D01*
X14529586Y-13410008D02*
X14548634Y-13400484D01*
X14701015Y-13581436D02*
X14710539Y-13590960D01*
X14710539Y-13590960D02*
X14701015Y-13600484D01*
X14701015Y-13600484D02*
X14691491Y-13590960D01*
X14691491Y-13590960D02*
X14701015Y-13581436D01*
X14701015Y-13581436D02*
X14701015Y-13600484D01*
X14834348Y-13400484D02*
X14853396Y-13400484D01*
X14853396Y-13400484D02*
X14872444Y-13410008D01*
X14872444Y-13410008D02*
X14881967Y-13419531D01*
X14881967Y-13419531D02*
X14891491Y-13438579D01*
X14891491Y-13438579D02*
X14901015Y-13476674D01*
X14901015Y-13476674D02*
X14901015Y-13524293D01*
X14901015Y-13524293D02*
X14891491Y-13562388D01*
X14891491Y-13562388D02*
X14881967Y-13581436D01*
X14881967Y-13581436D02*
X14872444Y-13590960D01*
X14872444Y-13590960D02*
X14853396Y-13600484D01*
X14853396Y-13600484D02*
X14834348Y-13600484D01*
X14834348Y-13600484D02*
X14815301Y-13590960D01*
X14815301Y-13590960D02*
X14805777Y-13581436D01*
X14805777Y-13581436D02*
X14796253Y-13562388D01*
X14796253Y-13562388D02*
X14786729Y-13524293D01*
X14786729Y-13524293D02*
X14786729Y-13476674D01*
X14786729Y-13476674D02*
X14796253Y-13438579D01*
X14796253Y-13438579D02*
X14805777Y-13419531D01*
X14805777Y-13419531D02*
X14815301Y-13410008D01*
X14815301Y-13410008D02*
X14834348Y-13400484D01*
X14977206Y-13419531D02*
X14986729Y-13410008D01*
X14986729Y-13410008D02*
X15005777Y-13400484D01*
X15005777Y-13400484D02*
X15053396Y-13400484D01*
X15053396Y-13400484D02*
X15072444Y-13410008D01*
X15072444Y-13410008D02*
X15081967Y-13419531D01*
X15081967Y-13419531D02*
X15091491Y-13438579D01*
X15091491Y-13438579D02*
X15091491Y-13457627D01*
X15091491Y-13457627D02*
X15081967Y-13486198D01*
X15081967Y-13486198D02*
X14967682Y-13600484D01*
X14967682Y-13600484D02*
X15091491Y-13600484D01*
X15158158Y-13400484D02*
X15281967Y-13400484D01*
X15281967Y-13400484D02*
X15215301Y-13476674D01*
X15215301Y-13476674D02*
X15243872Y-13476674D01*
X15243872Y-13476674D02*
X15262920Y-13486198D01*
X15262920Y-13486198D02*
X15272444Y-13495722D01*
X15272444Y-13495722D02*
X15281967Y-13514769D01*
X15281967Y-13514769D02*
X15281967Y-13562388D01*
X15281967Y-13562388D02*
X15272444Y-13581436D01*
X15272444Y-13581436D02*
X15262920Y-13590960D01*
X15262920Y-13590960D02*
X15243872Y-13600484D01*
X15243872Y-13600484D02*
X15186729Y-13600484D01*
X15186729Y-13600484D02*
X15167682Y-13590960D01*
X15167682Y-13590960D02*
X15158158Y-13581436D01*
X15453396Y-13400484D02*
X15415301Y-13400484D01*
X15415301Y-13400484D02*
X15396253Y-13410008D01*
X15396253Y-13410008D02*
X15386729Y-13419531D01*
X15386729Y-13419531D02*
X15367682Y-13448103D01*
X15367682Y-13448103D02*
X15358158Y-13486198D01*
X15358158Y-13486198D02*
X15358158Y-13562388D01*
X15358158Y-13562388D02*
X15367682Y-13581436D01*
X15367682Y-13581436D02*
X15377206Y-13590960D01*
X15377206Y-13590960D02*
X15396253Y-13600484D01*
X15396253Y-13600484D02*
X15434348Y-13600484D01*
X15434348Y-13600484D02*
X15453396Y-13590960D01*
X15453396Y-13590960D02*
X15462920Y-13581436D01*
X15462920Y-13581436D02*
X15472444Y-13562388D01*
X15472444Y-13562388D02*
X15472444Y-13514769D01*
X15472444Y-13514769D02*
X15462920Y-13495722D01*
X15462920Y-13495722D02*
X15453396Y-13486198D01*
X15453396Y-13486198D02*
X15434348Y-13476674D01*
X15434348Y-13476674D02*
X15396253Y-13476674D01*
X15396253Y-13476674D02*
X15377206Y-13486198D01*
X15377206Y-13486198D02*
X15367682Y-13495722D01*
X15367682Y-13495722D02*
X15358158Y-13514769D01*
X15548634Y-13400484D02*
X15548634Y-13438579D01*
X15624825Y-13400484D02*
X15624825Y-13438579D01*
X15920063Y-13676674D02*
X15910539Y-13667150D01*
X15910539Y-13667150D02*
X15891491Y-13638579D01*
X15891491Y-13638579D02*
X15881968Y-13619531D01*
X15881968Y-13619531D02*
X15872444Y-13590960D01*
X15872444Y-13590960D02*
X15862920Y-13543341D01*
X15862920Y-13543341D02*
X15862920Y-13505246D01*
X15862920Y-13505246D02*
X15872444Y-13457627D01*
X15872444Y-13457627D02*
X15881968Y-13429055D01*
X15881968Y-13429055D02*
X15891491Y-13410008D01*
X15891491Y-13410008D02*
X15910539Y-13381436D01*
X15910539Y-13381436D02*
X15920063Y-13371912D01*
X16034348Y-13400484D02*
X16053396Y-13400484D01*
X16053396Y-13400484D02*
X16072444Y-13410008D01*
X16072444Y-13410008D02*
X16081968Y-13419531D01*
X16081968Y-13419531D02*
X16091491Y-13438579D01*
X16091491Y-13438579D02*
X16101015Y-13476674D01*
X16101015Y-13476674D02*
X16101015Y-13524293D01*
X16101015Y-13524293D02*
X16091491Y-13562388D01*
X16091491Y-13562388D02*
X16081968Y-13581436D01*
X16081968Y-13581436D02*
X16072444Y-13590960D01*
X16072444Y-13590960D02*
X16053396Y-13600484D01*
X16053396Y-13600484D02*
X16034348Y-13600484D01*
X16034348Y-13600484D02*
X16015301Y-13590960D01*
X16015301Y-13590960D02*
X16005777Y-13581436D01*
X16005777Y-13581436D02*
X15996253Y-13562388D01*
X15996253Y-13562388D02*
X15986729Y-13524293D01*
X15986729Y-13524293D02*
X15986729Y-13476674D01*
X15986729Y-13476674D02*
X15996253Y-13438579D01*
X15996253Y-13438579D02*
X16005777Y-13419531D01*
X16005777Y-13419531D02*
X16015301Y-13410008D01*
X16015301Y-13410008D02*
X16034348Y-13400484D01*
X16339110Y-13600484D02*
X16339110Y-13400484D01*
X16424825Y-13600484D02*
X16424825Y-13495722D01*
X16424825Y-13495722D02*
X16415301Y-13476674D01*
X16415301Y-13476674D02*
X16396253Y-13467150D01*
X16396253Y-13467150D02*
X16367682Y-13467150D01*
X16367682Y-13467150D02*
X16348634Y-13476674D01*
X16348634Y-13476674D02*
X16339110Y-13486198D01*
X16548634Y-13600484D02*
X16529587Y-13590960D01*
X16529587Y-13590960D02*
X16520063Y-13581436D01*
X16520063Y-13581436D02*
X16510539Y-13562388D01*
X16510539Y-13562388D02*
X16510539Y-13505246D01*
X16510539Y-13505246D02*
X16520063Y-13486198D01*
X16520063Y-13486198D02*
X16529587Y-13476674D01*
X16529587Y-13476674D02*
X16548634Y-13467150D01*
X16548634Y-13467150D02*
X16577206Y-13467150D01*
X16577206Y-13467150D02*
X16596253Y-13476674D01*
X16596253Y-13476674D02*
X16605777Y-13486198D01*
X16605777Y-13486198D02*
X16615301Y-13505246D01*
X16615301Y-13505246D02*
X16615301Y-13562388D01*
X16615301Y-13562388D02*
X16605777Y-13581436D01*
X16605777Y-13581436D02*
X16596253Y-13590960D01*
X16596253Y-13590960D02*
X16577206Y-13600484D01*
X16577206Y-13600484D02*
X16548634Y-13600484D01*
X16729587Y-13600484D02*
X16710539Y-13590960D01*
X16710539Y-13590960D02*
X16701015Y-13571912D01*
X16701015Y-13571912D02*
X16701015Y-13400484D01*
X16881968Y-13590960D02*
X16862920Y-13600484D01*
X16862920Y-13600484D02*
X16824825Y-13600484D01*
X16824825Y-13600484D02*
X16805777Y-13590960D01*
X16805777Y-13590960D02*
X16796253Y-13571912D01*
X16796253Y-13571912D02*
X16796253Y-13495722D01*
X16796253Y-13495722D02*
X16805777Y-13476674D01*
X16805777Y-13476674D02*
X16824825Y-13467150D01*
X16824825Y-13467150D02*
X16862920Y-13467150D01*
X16862920Y-13467150D02*
X16881968Y-13476674D01*
X16881968Y-13476674D02*
X16891492Y-13495722D01*
X16891492Y-13495722D02*
X16891492Y-13514769D01*
X16891492Y-13514769D02*
X16796253Y-13533817D01*
X16967682Y-13590960D02*
X16986730Y-13600484D01*
X16986730Y-13600484D02*
X17024825Y-13600484D01*
X17024825Y-13600484D02*
X17043873Y-13590960D01*
X17043873Y-13590960D02*
X17053396Y-13571912D01*
X17053396Y-13571912D02*
X17053396Y-13562388D01*
X17053396Y-13562388D02*
X17043873Y-13543341D01*
X17043873Y-13543341D02*
X17024825Y-13533817D01*
X17024825Y-13533817D02*
X16996253Y-13533817D01*
X16996253Y-13533817D02*
X16977206Y-13524293D01*
X16977206Y-13524293D02*
X16967682Y-13505246D01*
X16967682Y-13505246D02*
X16967682Y-13495722D01*
X16967682Y-13495722D02*
X16977206Y-13476674D01*
X16977206Y-13476674D02*
X16996253Y-13467150D01*
X16996253Y-13467150D02*
X17024825Y-13467150D01*
X17024825Y-13467150D02*
X17043873Y-13476674D01*
X17291492Y-13524293D02*
X17443873Y-13524293D01*
X17367682Y-13600484D02*
X17367682Y-13448103D01*
X17777206Y-13467150D02*
X17777206Y-13600484D01*
X17729587Y-13390960D02*
X17681968Y-13533817D01*
X17681968Y-13533817D02*
X17805777Y-13533817D01*
X18024825Y-13590960D02*
X18043873Y-13600484D01*
X18043873Y-13600484D02*
X18081968Y-13600484D01*
X18081968Y-13600484D02*
X18101016Y-13590960D01*
X18101016Y-13590960D02*
X18110539Y-13571912D01*
X18110539Y-13571912D02*
X18110539Y-13562388D01*
X18110539Y-13562388D02*
X18101016Y-13543341D01*
X18101016Y-13543341D02*
X18081968Y-13533817D01*
X18081968Y-13533817D02*
X18053396Y-13533817D01*
X18053396Y-13533817D02*
X18034349Y-13524293D01*
X18034349Y-13524293D02*
X18024825Y-13505246D01*
X18024825Y-13505246D02*
X18024825Y-13495722D01*
X18024825Y-13495722D02*
X18034349Y-13476674D01*
X18034349Y-13476674D02*
X18053396Y-13467150D01*
X18053396Y-13467150D02*
X18081968Y-13467150D01*
X18081968Y-13467150D02*
X18101016Y-13476674D01*
X18224825Y-13600484D02*
X18205777Y-13590960D01*
X18205777Y-13590960D02*
X18196254Y-13571912D01*
X18196254Y-13571912D02*
X18196254Y-13400484D01*
X18329587Y-13600484D02*
X18310539Y-13590960D01*
X18310539Y-13590960D02*
X18301016Y-13581436D01*
X18301016Y-13581436D02*
X18291492Y-13562388D01*
X18291492Y-13562388D02*
X18291492Y-13505246D01*
X18291492Y-13505246D02*
X18301016Y-13486198D01*
X18301016Y-13486198D02*
X18310539Y-13476674D01*
X18310539Y-13476674D02*
X18329587Y-13467150D01*
X18329587Y-13467150D02*
X18358158Y-13467150D01*
X18358158Y-13467150D02*
X18377206Y-13476674D01*
X18377206Y-13476674D02*
X18386730Y-13486198D01*
X18386730Y-13486198D02*
X18396254Y-13505246D01*
X18396254Y-13505246D02*
X18396254Y-13562388D01*
X18396254Y-13562388D02*
X18386730Y-13581436D01*
X18386730Y-13581436D02*
X18377206Y-13590960D01*
X18377206Y-13590960D02*
X18358158Y-13600484D01*
X18358158Y-13600484D02*
X18329587Y-13600484D01*
X18453397Y-13467150D02*
X18529587Y-13467150D01*
X18481968Y-13400484D02*
X18481968Y-13571912D01*
X18481968Y-13571912D02*
X18491492Y-13590960D01*
X18491492Y-13590960D02*
X18510539Y-13600484D01*
X18510539Y-13600484D02*
X18529587Y-13600484D01*
X18586730Y-13590960D02*
X18605777Y-13600484D01*
X18605777Y-13600484D02*
X18643873Y-13600484D01*
X18643873Y-13600484D02*
X18662920Y-13590960D01*
X18662920Y-13590960D02*
X18672444Y-13571912D01*
X18672444Y-13571912D02*
X18672444Y-13562388D01*
X18672444Y-13562388D02*
X18662920Y-13543341D01*
X18662920Y-13543341D02*
X18643873Y-13533817D01*
X18643873Y-13533817D02*
X18615301Y-13533817D01*
X18615301Y-13533817D02*
X18596254Y-13524293D01*
X18596254Y-13524293D02*
X18586730Y-13505246D01*
X18586730Y-13505246D02*
X18586730Y-13495722D01*
X18586730Y-13495722D02*
X18596254Y-13476674D01*
X18596254Y-13476674D02*
X18615301Y-13467150D01*
X18615301Y-13467150D02*
X18643873Y-13467150D01*
X18643873Y-13467150D02*
X18662920Y-13476674D01*
X18739111Y-13676674D02*
X18748635Y-13667150D01*
X18748635Y-13667150D02*
X18767682Y-13638579D01*
X18767682Y-13638579D02*
X18777206Y-13619531D01*
X18777206Y-13619531D02*
X18786730Y-13590960D01*
X18786730Y-13590960D02*
X18796254Y-13543341D01*
X18796254Y-13543341D02*
X18796254Y-13505246D01*
X18796254Y-13505246D02*
X18786730Y-13457627D01*
X18786730Y-13457627D02*
X18777206Y-13429055D01*
X18777206Y-13429055D02*
X18767682Y-13410008D01*
X18767682Y-13410008D02*
X18748635Y-13381436D01*
X18748635Y-13381436D02*
X18739111Y-13371912D01*
M02*
