%TF.GenerationSoftware,KiCad,Pcbnew,10.0.5*%
%TF.CreationDate,2026-08-23T12:29:17+08:00*%
%TF.ProjectId,receiver-effects,72656365-6976-4657-922d-656666656374,rev?*%
%TF.SameCoordinates,Original*%
%TF.FileFunction,Copper,L4,Bot*%
%TF.FilePolarity,Positive*%
%FSLAX46Y46*%
G04 Gerber Fmt 4.6, Leading zero omitted, Abs format (unit mm)*
G04 Created by KiCad (PCBNEW 10.0.5) date 2026-08-23 12:29:17*
%MOMM*%
%LPD*%
G01*
G04 APERTURE LIST*
%TA.AperFunction,ComponentPad*%
%ADD10O,2.100000X1.000000*%
%TD*%
%TA.AperFunction,ComponentPad*%
%ADD11O,1.800000X1.000000*%
%TD*%
%TA.AperFunction,ViaPad*%
%ADD12C,0.700000*%
%TD*%
%TA.AperFunction,ViaPad*%
%ADD13C,0.600000*%
%TD*%
%TA.AperFunction,Conductor*%
%ADD14C,0.200000*%
%TD*%
%TA.AperFunction,Conductor*%
%ADD15C,0.150000*%
%TD*%
%TA.AperFunction,Conductor*%
%ADD16C,0.500000*%
%TD*%
%TA.AperFunction,Conductor*%
%ADD17C,0.800000*%
%TD*%
G04 APERTURE END LIST*
D10*
%TO.P,J1,SH,SHIELD*%
%TO.N,USB_SHIELD*%
X125280000Y-103680000D03*
D11*
X121100000Y-103680000D03*
D10*
X125280000Y-112320000D03*
D11*
X121100000Y-112320000D03*
%TD*%
D12*
%TO.N,3V3*%
X143700000Y-104000000D03*
D13*
X153490000Y-91500000D03*
X166000000Y-101500000D03*
X147875000Y-87000000D03*
X140060000Y-117600000D03*
X144500000Y-117600000D03*
X130500000Y-100000000D03*
D12*
X168100000Y-93800000D03*
D13*
X174900000Y-104100000D03*
X166500000Y-102500000D03*
X151500000Y-88450000D03*
%TO.N,AUDIO_GAIN_SLOT*%
X158200000Y-114700000D03*
X159900000Y-115750000D03*
%TO.N,AUDIO_SD_CTRL*%
X166500000Y-88800000D03*
X166700000Y-97500000D03*
%TO.N,GND*%
X148500000Y-104000000D03*
X158500000Y-104000000D03*
X169200000Y-90400000D03*
X171300000Y-83200000D03*
X130500000Y-105500000D03*
X164500000Y-114200000D03*
X147500000Y-118000000D03*
X138000000Y-118000000D03*
X130500000Y-110500000D03*
X176250000Y-85375000D03*
X127000000Y-104000000D03*
X135880000Y-109500000D03*
X158500000Y-125000000D03*
X148500000Y-120000000D03*
X160500000Y-118000000D03*
X147900000Y-87800000D03*
X140000000Y-113500000D03*
X133500000Y-104000000D03*
X162500000Y-113000000D03*
X171700000Y-99000000D03*
X133500000Y-120000000D03*
X139500000Y-112500000D03*
%TO.N,I2S_BCLK*%
X168200000Y-85300000D03*
X168100000Y-103500000D03*
%TO.N,I2S_DOUT*%
X161062500Y-113300000D03*
X166800000Y-87800000D03*
%TO.N,I2S_LRCLK*%
X163500000Y-113000000D03*
X167400000Y-86800000D03*
%TO.N,PWR_GOOD_N*%
X171590000Y-88240000D03*
X158430000Y-113050000D03*
%TO.N,RESET_N*%
X177380000Y-91300000D03*
X141500000Y-129400000D03*
%TO.N,RGB_B_N*%
X169500000Y-106500000D03*
X169500000Y-95200000D03*
%TO.N,RGB_G_N*%
X169100000Y-105500000D03*
X169100000Y-96000000D03*
%TO.N,RGB_R_N*%
X168700000Y-104500000D03*
X168700000Y-96800000D03*
%TO.N,SWDCLK*%
X138500000Y-128000000D03*
X173000000Y-99500000D03*
%TO.N,SWDIO*%
X175800000Y-99500000D03*
X135500000Y-128800000D03*
%TO.N,TFT_BL_3V3*%
X152500000Y-84000000D03*
X139125000Y-84000000D03*
%TO.N,TFT_BL_GATE_CTRL*%
X177000000Y-80650000D03*
X151500000Y-80650000D03*
%TO.N,TFT_CS_N*%
X171300000Y-81850000D03*
X173000000Y-81850000D03*
%TO.N,TFT_DC*%
X150000000Y-98000000D03*
X141625000Y-86500000D03*
X167500000Y-85800000D03*
X176000000Y-83000000D03*
%TO.N,TFT_MOSI*%
X170500000Y-82500000D03*
X174000000Y-82500000D03*
X145375000Y-86200000D03*
X152500000Y-96400000D03*
%TO.N,TFT_RESET_N*%
X175000000Y-81250000D03*
X168200000Y-83200000D03*
X152000000Y-97200000D03*
X142300000Y-97200000D03*
%TO.N,USB_DM_PROT*%
X134100000Y-108950000D03*
X166500000Y-84800000D03*
%TO.N,USB_DM_RAW*%
X124300000Y-108250000D03*
X128100000Y-108900000D03*
%TO.N,USB_DP_PROT*%
X167500000Y-82000000D03*
X134100000Y-107050000D03*
%TO.N,USB_DP_RAW*%
X127200000Y-108750000D03*
X127800000Y-107450000D03*
%TO.N,USB_VBUS_5V*%
X170400000Y-85800000D03*
D12*
X135500000Y-112500000D03*
X170400000Y-106500000D03*
X159000000Y-120500000D03*
D13*
X162900000Y-118250000D03*
D12*
X132500000Y-108000000D03*
X160500000Y-122500000D03*
X135900000Y-118000000D03*
X128000000Y-123000000D03*
X164300000Y-124000000D03*
D13*
X163700000Y-118250000D03*
%TO.N,USB_VBUS_RAW*%
X126800000Y-110400000D03*
X130300000Y-116000000D03*
X126800000Y-105600000D03*
X127600000Y-115500000D03*
%TD*%
%TO.N,3V3*%
D14*
X140060000Y-117600000D02*
X144500000Y-117600000D01*
%TO.N,AUDIO_GAIN_SLOT*%
D15*
X158200000Y-114700000D02*
X159900000Y-115750000D01*
%TO.N,AUDIO_SD_CTRL*%
X166500000Y-88800000D02*
X166500000Y-96800000D01*
X166500000Y-96800000D02*
X166700000Y-97500000D01*
%TO.N,I2S_BCLK*%
X168100000Y-86000000D02*
X168100000Y-92800000D01*
X168900000Y-94400000D02*
X168100000Y-94800000D01*
X168100000Y-94800000D02*
X168100000Y-103500000D01*
X168900000Y-93200000D02*
X168900000Y-94400000D01*
X168100000Y-92800000D02*
X168900000Y-93200000D01*
X168200000Y-85300000D02*
X168100000Y-86000000D01*
%TO.N,I2S_DOUT*%
X162500000Y-109000000D02*
X161062500Y-113300000D01*
X165000000Y-105000000D02*
X162500000Y-109000000D01*
X166800000Y-87800000D02*
X165700000Y-88400000D01*
X165700000Y-100400000D02*
X165000000Y-101000000D01*
X165700000Y-88400000D02*
X165700000Y-100400000D01*
X165000000Y-101000000D02*
X165000000Y-105000000D01*
%TO.N,I2S_LRCLK*%
X167400000Y-86800000D02*
X167400000Y-104500000D01*
X167400000Y-104500000D02*
X166000000Y-108500000D01*
X166000000Y-108500000D02*
X163500000Y-113000000D01*
%TO.N,PWR_GOOD_N*%
X163850000Y-113500000D02*
X164470000Y-113500000D01*
X164470000Y-113500000D02*
X172320000Y-105650000D01*
X172320000Y-105650000D02*
X172320000Y-88970000D01*
X158430000Y-113050000D02*
X159280000Y-113900000D01*
X163450000Y-113900000D02*
X163850000Y-113500000D01*
X172320000Y-88970000D02*
X171590000Y-88240000D01*
X159280000Y-113900000D02*
X163450000Y-113900000D01*
%TO.N,RESET_N*%
X141500000Y-129400000D02*
X177380000Y-129400000D01*
X177380000Y-129400000D02*
X177380000Y-91300000D01*
%TO.N,RGB_B_N*%
X169725000Y-106100000D02*
X169500000Y-106500000D01*
X169500000Y-95200000D02*
X169725000Y-95600000D01*
X169725000Y-95600000D02*
X169725000Y-106100000D01*
%TO.N,RGB_G_N*%
X169100000Y-96000000D02*
X169325000Y-96400000D01*
X169325000Y-105100000D02*
X169100000Y-105500000D01*
X169325000Y-96400000D02*
X169325000Y-105100000D01*
%TO.N,RGB_R_N*%
X168700000Y-96800000D02*
X168700000Y-104500000D01*
%TO.N,SWDCLK*%
X138500000Y-128000000D02*
X173000000Y-128000000D01*
X173000000Y-128000000D02*
X173000000Y-99500000D01*
%TO.N,SWDIO*%
X175800000Y-125000000D02*
X175800000Y-99500000D01*
X135500000Y-128800000D02*
X173700000Y-128800000D01*
X173700000Y-125000000D02*
X175800000Y-125000000D01*
X173700000Y-128800000D02*
X173700000Y-125000000D01*
%TO.N,TFT_BL_3V3*%
X139125000Y-84000000D02*
X152500000Y-84000000D01*
%TO.N,TFT_BL_GATE_CTRL*%
X177000000Y-80650000D02*
X151500000Y-80650000D01*
%TO.N,TFT_CS_N*%
X171300000Y-81850000D02*
X173000000Y-81850000D01*
%TO.N,TFT_DC*%
X167200000Y-85000000D02*
X168000000Y-83900000D01*
X169500000Y-83900000D02*
X174500000Y-83900000D01*
X174500000Y-83900000D02*
X174500000Y-83000000D01*
X167500000Y-85800000D02*
X167200000Y-85000000D01*
X141625000Y-86500000D02*
X141625000Y-98000000D01*
X141625000Y-98000000D02*
X150000000Y-98000000D01*
X168000000Y-83900000D02*
X169500000Y-83900000D01*
X174500000Y-83000000D02*
X176000000Y-83000000D01*
%TO.N,TFT_MOSI*%
X145375000Y-96400000D02*
X152500000Y-96400000D01*
X170500000Y-82500000D02*
X174000000Y-82500000D01*
X145375000Y-86200000D02*
X145375000Y-96400000D01*
%TO.N,TFT_RESET_N*%
X168700000Y-81250000D02*
X175000000Y-81250000D01*
X168200000Y-83200000D02*
X168700000Y-81250000D01*
X142300000Y-97200000D02*
X152000000Y-97200000D01*
%TO.N,USB_DM_PROT*%
D14*
X161500000Y-92000000D02*
X166500000Y-84800000D01*
X153500000Y-100000000D02*
X161500000Y-92000000D01*
X134100000Y-108950000D02*
X138500000Y-104000000D01*
X138500000Y-104000000D02*
X153500000Y-100000000D01*
%TO.N,USB_DM_RAW*%
X127700000Y-109500000D02*
X128100000Y-108900000D01*
X124300000Y-108250000D02*
X124700000Y-109500000D01*
X124700000Y-109500000D02*
X127700000Y-109500000D01*
%TO.N,USB_DP_PROT*%
X162500000Y-89000000D02*
X167500000Y-82000000D01*
X134100000Y-107050000D02*
X138500000Y-102000000D01*
X138500000Y-102000000D02*
X153500000Y-98000000D01*
X153500000Y-98000000D02*
X162500000Y-89000000D01*
%TO.N,USB_DP_RAW*%
X127400000Y-108000000D02*
X127800000Y-107450000D01*
X127200000Y-108750000D02*
X127400000Y-108000000D01*
%TO.N,USB_SHIELD*%
D16*
X121100000Y-112320000D02*
X125280000Y-112320000D01*
X121100000Y-103680000D02*
X125280000Y-103680000D01*
X121100000Y-103680000D02*
X121100000Y-112320000D01*
%TO.N,USB_VBUS_5V*%
D17*
X170400000Y-85800000D02*
X170400000Y-106500000D01*
%TO.N,USB_VBUS_RAW*%
X127500000Y-114000000D02*
X130300000Y-116000000D01*
X128500000Y-110400000D02*
X128500000Y-113000000D01*
X127600000Y-115500000D02*
X127500000Y-114000000D01*
X131500000Y-102300000D02*
X131500000Y-113000000D01*
X131500000Y-113000000D02*
X130300000Y-116000000D01*
X126800000Y-110400000D02*
X128500000Y-110400000D01*
X128500000Y-113000000D02*
X127500000Y-114000000D01*
X128700000Y-105600000D02*
X128700000Y-102300000D01*
X128700000Y-102300000D02*
X131500000Y-102300000D01*
X126800000Y-105600000D02*
X128700000Y-105600000D01*
%TD*%
%TA.AperFunction,Conductor*%
%TO.N,GND*%
G36*
X151048010Y-80322174D02*
G01*
X151069684Y-80374500D01*
X151059770Y-80411500D01*
X151033610Y-80456809D01*
X151033606Y-80456818D01*
X150999500Y-80584105D01*
X150999500Y-80715894D01*
X151033606Y-80843181D01*
X151033607Y-80843184D01*
X151033608Y-80843186D01*
X151099500Y-80957314D01*
X151192686Y-81050500D01*
X151306814Y-81116392D01*
X151434105Y-81150499D01*
X151434106Y-81150500D01*
X151434108Y-81150500D01*
X151565894Y-81150500D01*
X151565894Y-81150499D01*
X151693186Y-81116392D01*
X151807314Y-81050500D01*
X151900500Y-80957314D01*
X151900503Y-80957309D01*
X151902702Y-80954445D01*
X151951755Y-80926132D01*
X151961405Y-80925500D01*
X168451015Y-80925500D01*
X168503341Y-80947174D01*
X168525015Y-80999500D01*
X168510203Y-81043913D01*
X168505263Y-81050499D01*
X168494519Y-81064816D01*
X168487659Y-81072724D01*
X168466443Y-81093941D01*
X168462343Y-81103838D01*
X168453172Y-81119921D01*
X168446744Y-81128488D01*
X168439291Y-81157554D01*
X168435978Y-81167487D01*
X168429095Y-81184108D01*
X168424500Y-81195201D01*
X168424500Y-81205905D01*
X168422181Y-81224285D01*
X168047732Y-82684633D01*
X168013741Y-82729936D01*
X168009513Y-82732049D01*
X167892685Y-82799500D01*
X167799500Y-82892685D01*
X167733610Y-83006809D01*
X167733606Y-83006818D01*
X167699500Y-83134105D01*
X167699500Y-83265894D01*
X167733606Y-83393181D01*
X167733610Y-83393190D01*
X167799500Y-83507314D01*
X167848959Y-83556773D01*
X167870633Y-83609099D01*
X167848959Y-83661425D01*
X167834503Y-83675881D01*
X167820814Y-83686668D01*
X167809424Y-83693640D01*
X167793319Y-83715784D01*
X167785802Y-83724581D01*
X167766443Y-83743941D01*
X167761334Y-83756275D01*
X167752814Y-83771478D01*
X167105754Y-84661185D01*
X167057449Y-84690754D01*
X167002383Y-84677506D01*
X166974430Y-84636814D01*
X166966392Y-84606814D01*
X166900500Y-84492686D01*
X166807314Y-84399500D01*
X166693190Y-84333610D01*
X166693181Y-84333606D01*
X166565894Y-84299500D01*
X166565892Y-84299500D01*
X166434108Y-84299500D01*
X166377003Y-84314801D01*
X166320851Y-84307408D01*
X166286372Y-84262474D01*
X166293765Y-84206322D01*
X166297628Y-84200320D01*
X167292637Y-82807309D01*
X167489652Y-82531488D01*
X167537703Y-82501507D01*
X167549868Y-82500500D01*
X167565894Y-82500500D01*
X167565894Y-82500499D01*
X167693186Y-82466392D01*
X167807314Y-82400500D01*
X167900500Y-82307314D01*
X167966392Y-82193186D01*
X168000499Y-82065894D01*
X168000500Y-82065894D01*
X168000500Y-81934106D01*
X168000499Y-81934105D01*
X167999871Y-81931763D01*
X167966392Y-81806814D01*
X167900500Y-81692686D01*
X167807314Y-81599500D01*
X167734246Y-81557314D01*
X167693190Y-81533610D01*
X167693181Y-81533606D01*
X167565894Y-81499500D01*
X167565892Y-81499500D01*
X167434108Y-81499500D01*
X167434106Y-81499500D01*
X167306818Y-81533606D01*
X167306809Y-81533610D01*
X167192685Y-81599500D01*
X167099500Y-81692685D01*
X167033610Y-81806809D01*
X167033606Y-81806818D01*
X166999500Y-81934105D01*
X166999500Y-82065891D01*
X167013414Y-82117822D01*
X167006020Y-82173975D01*
X167002151Y-82179986D01*
X162273487Y-88800117D01*
X162265597Y-88809431D01*
X153358638Y-97716389D01*
X153325379Y-97735564D01*
X150382775Y-98520258D01*
X150326631Y-98512799D01*
X150292207Y-98467824D01*
X150299666Y-98411680D01*
X150311378Y-98396435D01*
X150400500Y-98307314D01*
X150466392Y-98193186D01*
X150500499Y-98065894D01*
X150500500Y-98065894D01*
X150500500Y-97934106D01*
X150500499Y-97934105D01*
X150491494Y-97900499D01*
X150466392Y-97806814D01*
X150400500Y-97692686D01*
X150309640Y-97601826D01*
X150287966Y-97549500D01*
X150309640Y-97497174D01*
X150361966Y-97475500D01*
X151538595Y-97475500D01*
X151590921Y-97497174D01*
X151597298Y-97504445D01*
X151599496Y-97507309D01*
X151599498Y-97507311D01*
X151599500Y-97507314D01*
X151692686Y-97600500D01*
X151806814Y-97666392D01*
X151934105Y-97700499D01*
X151934106Y-97700500D01*
X151934108Y-97700500D01*
X152065894Y-97700500D01*
X152065894Y-97700499D01*
X152193186Y-97666392D01*
X152307314Y-97600500D01*
X152400500Y-97507314D01*
X152466392Y-97393186D01*
X152500499Y-97265894D01*
X152500500Y-97265894D01*
X152500500Y-97134106D01*
X152500499Y-97134105D01*
X152466393Y-97006818D01*
X152466392Y-97006814D01*
X152466389Y-97006809D01*
X152464736Y-97002817D01*
X152464738Y-96946179D01*
X152504787Y-96906132D01*
X152533104Y-96900500D01*
X152565894Y-96900500D01*
X152565894Y-96900499D01*
X152693186Y-96866392D01*
X152807314Y-96800500D01*
X152900500Y-96707314D01*
X152966392Y-96593186D01*
X153000499Y-96465894D01*
X153000500Y-96465894D01*
X153000500Y-96334106D01*
X153000499Y-96334105D01*
X153000366Y-96333610D01*
X152966392Y-96206814D01*
X152900500Y-96092686D01*
X152807314Y-95999500D01*
X152693190Y-95933610D01*
X152693181Y-95933606D01*
X152565894Y-95899500D01*
X152565892Y-95899500D01*
X152434108Y-95899500D01*
X152434106Y-95899500D01*
X152306818Y-95933606D01*
X152306809Y-95933610D01*
X152192685Y-95999500D01*
X152099496Y-96092690D01*
X152097298Y-96095555D01*
X152048245Y-96123868D01*
X152038595Y-96124500D01*
X145724500Y-96124500D01*
X145672174Y-96102826D01*
X145650500Y-96050500D01*
X145650500Y-91434105D01*
X152989500Y-91434105D01*
X152989500Y-91565894D01*
X153023606Y-91693181D01*
X153023610Y-91693190D01*
X153027831Y-91700501D01*
X153089500Y-91807314D01*
X153182686Y-91900500D01*
X153296814Y-91966392D01*
X153424105Y-92000499D01*
X153424106Y-92000500D01*
X153424108Y-92000500D01*
X153555894Y-92000500D01*
X153555894Y-92000499D01*
X153683186Y-91966392D01*
X153797314Y-91900500D01*
X153890500Y-91807314D01*
X153956392Y-91693186D01*
X153990499Y-91565894D01*
X153990500Y-91565894D01*
X153990500Y-91434106D01*
X153990499Y-91434105D01*
X153956393Y-91306818D01*
X153956392Y-91306814D01*
X153890500Y-91192686D01*
X153797314Y-91099500D01*
X153683190Y-91033610D01*
X153683181Y-91033606D01*
X153555894Y-90999500D01*
X153555892Y-90999500D01*
X153424108Y-90999500D01*
X153424106Y-90999500D01*
X153296818Y-91033606D01*
X153296809Y-91033610D01*
X153182685Y-91099500D01*
X153089500Y-91192685D01*
X153023610Y-91306809D01*
X153023606Y-91306818D01*
X152989500Y-91434105D01*
X145650500Y-91434105D01*
X145650500Y-88384105D01*
X150999500Y-88384105D01*
X150999500Y-88515894D01*
X151033606Y-88643181D01*
X151033610Y-88643190D01*
X151070098Y-88706389D01*
X151099500Y-88757314D01*
X151192686Y-88850500D01*
X151306814Y-88916392D01*
X151434105Y-88950499D01*
X151434106Y-88950500D01*
X151434108Y-88950500D01*
X151565894Y-88950500D01*
X151565894Y-88950499D01*
X151693186Y-88916392D01*
X151807314Y-88850500D01*
X151900500Y-88757314D01*
X151966392Y-88643186D01*
X152000499Y-88515894D01*
X152000500Y-88515894D01*
X152000500Y-88384106D01*
X152000499Y-88384105D01*
X151997109Y-88371455D01*
X151966392Y-88256814D01*
X151900500Y-88142686D01*
X151807314Y-88049500D01*
X151693642Y-87983871D01*
X151693190Y-87983610D01*
X151693181Y-87983606D01*
X151565894Y-87949500D01*
X151565892Y-87949500D01*
X151434108Y-87949500D01*
X151434106Y-87949500D01*
X151306818Y-87983606D01*
X151306809Y-87983610D01*
X151192685Y-88049500D01*
X151099500Y-88142685D01*
X151033610Y-88256809D01*
X151033606Y-88256818D01*
X150999500Y-88384105D01*
X145650500Y-88384105D01*
X145650500Y-86934105D01*
X147374500Y-86934105D01*
X147374500Y-87065894D01*
X147408606Y-87193181D01*
X147408610Y-87193190D01*
X147414093Y-87202687D01*
X147474500Y-87307314D01*
X147567686Y-87400500D01*
X147681814Y-87466392D01*
X147809105Y-87500499D01*
X147809106Y-87500500D01*
X147809108Y-87500500D01*
X147940894Y-87500500D01*
X147940894Y-87500499D01*
X148068186Y-87466392D01*
X148182314Y-87400500D01*
X148275500Y-87307314D01*
X148341392Y-87193186D01*
X148375499Y-87065894D01*
X148375500Y-87065894D01*
X148375500Y-86934106D01*
X148375499Y-86934105D01*
X148341393Y-86806818D01*
X148341392Y-86806814D01*
X148275500Y-86692686D01*
X148182314Y-86599500D01*
X148124107Y-86565894D01*
X148068190Y-86533610D01*
X148068181Y-86533606D01*
X147940894Y-86499500D01*
X147940892Y-86499500D01*
X147809108Y-86499500D01*
X147809106Y-86499500D01*
X147681818Y-86533606D01*
X147681809Y-86533610D01*
X147567685Y-86599500D01*
X147474500Y-86692685D01*
X147408610Y-86806809D01*
X147408606Y-86806818D01*
X147374500Y-86934105D01*
X145650500Y-86934105D01*
X145650500Y-86661404D01*
X145672174Y-86609078D01*
X145679456Y-86602693D01*
X145682312Y-86600501D01*
X145682311Y-86600501D01*
X145682314Y-86600500D01*
X145775500Y-86507314D01*
X145841392Y-86393186D01*
X145875499Y-86265894D01*
X145875500Y-86265894D01*
X145875500Y-86134106D01*
X145875499Y-86134105D01*
X145868320Y-86107314D01*
X145841392Y-86006814D01*
X145775500Y-85892686D01*
X145682314Y-85799500D01*
X145604824Y-85754761D01*
X145568190Y-85733610D01*
X145568181Y-85733606D01*
X145440894Y-85699500D01*
X145440892Y-85699500D01*
X145309108Y-85699500D01*
X145309106Y-85699500D01*
X145181818Y-85733606D01*
X145181809Y-85733610D01*
X145067685Y-85799500D01*
X144974500Y-85892685D01*
X144908610Y-86006809D01*
X144908606Y-86006818D01*
X144874500Y-86134105D01*
X144874500Y-86265894D01*
X144908606Y-86393181D01*
X144908610Y-86393190D01*
X144974500Y-86507314D01*
X145067687Y-86600501D01*
X145070544Y-86602693D01*
X145098866Y-86651740D01*
X145099500Y-86661404D01*
X145099500Y-96454800D01*
X145141443Y-96556058D01*
X145218942Y-96633557D01*
X145320200Y-96675500D01*
X145429800Y-96675500D01*
X151638034Y-96675500D01*
X151690360Y-96697174D01*
X151712034Y-96749500D01*
X151690360Y-96801826D01*
X151599496Y-96892690D01*
X151597298Y-96895555D01*
X151548245Y-96923868D01*
X151538595Y-96924500D01*
X142761405Y-96924500D01*
X142709079Y-96902826D01*
X142702702Y-96895555D01*
X142700503Y-96892690D01*
X142700501Y-96892688D01*
X142700500Y-96892686D01*
X142607314Y-96799500D01*
X142541349Y-96761415D01*
X142493190Y-96733610D01*
X142493181Y-96733606D01*
X142365894Y-96699500D01*
X142365892Y-96699500D01*
X142234108Y-96699500D01*
X142234106Y-96699500D01*
X142106818Y-96733606D01*
X142106809Y-96733610D01*
X142011500Y-96788637D01*
X141955347Y-96796029D01*
X141910414Y-96761551D01*
X141900500Y-96724551D01*
X141900500Y-86961404D01*
X141922174Y-86909078D01*
X141929456Y-86902693D01*
X141932312Y-86900501D01*
X141932311Y-86900501D01*
X141932314Y-86900500D01*
X142025500Y-86807314D01*
X142091392Y-86693186D01*
X142125499Y-86565894D01*
X142125500Y-86565894D01*
X142125500Y-86434106D01*
X142125499Y-86434105D01*
X142091393Y-86306818D01*
X142091392Y-86306814D01*
X142025500Y-86192686D01*
X141932314Y-86099500D01*
X141818190Y-86033610D01*
X141818181Y-86033606D01*
X141690894Y-85999500D01*
X141690892Y-85999500D01*
X141559108Y-85999500D01*
X141559106Y-85999500D01*
X141431818Y-86033606D01*
X141431809Y-86033610D01*
X141317685Y-86099500D01*
X141224500Y-86192685D01*
X141158610Y-86306809D01*
X141158606Y-86306818D01*
X141124500Y-86434105D01*
X141124500Y-86565894D01*
X141158606Y-86693181D01*
X141158610Y-86693190D01*
X141224500Y-86807314D01*
X141317687Y-86900501D01*
X141320544Y-86902693D01*
X141348866Y-86951740D01*
X141349500Y-86961404D01*
X141349500Y-97945200D01*
X141349500Y-98054800D01*
X141391443Y-98156058D01*
X141468942Y-98233557D01*
X141570200Y-98275500D01*
X149538595Y-98275500D01*
X149590921Y-98297174D01*
X149597298Y-98304445D01*
X149599496Y-98307309D01*
X149599498Y-98307311D01*
X149599500Y-98307314D01*
X149692686Y-98400500D01*
X149806814Y-98466392D01*
X149927461Y-98498719D01*
X149972394Y-98533197D01*
X149979787Y-98589349D01*
X149945308Y-98634283D01*
X149927375Y-98641698D01*
X138457398Y-101700359D01*
X138443413Y-101702682D01*
X138441475Y-101702816D01*
X138439909Y-101702924D01*
X138414879Y-101711510D01*
X138409939Y-101713014D01*
X138384343Y-101719840D01*
X138384342Y-101719841D01*
X138381290Y-101721598D01*
X138368398Y-101727456D01*
X138365071Y-101728597D01*
X138365068Y-101728599D01*
X138343098Y-101743380D01*
X138338718Y-101746109D01*
X138315778Y-101759317D01*
X138315775Y-101759320D01*
X138313280Y-101761809D01*
X138302342Y-101770803D01*
X138299424Y-101772766D01*
X138282033Y-101792726D01*
X138278507Y-101796498D01*
X138259760Y-101815201D01*
X138259759Y-101815203D01*
X138257993Y-101818252D01*
X138249753Y-101829773D01*
X134159637Y-106524112D01*
X134108922Y-106549326D01*
X134103844Y-106549500D01*
X134034106Y-106549500D01*
X133906818Y-106583606D01*
X133906809Y-106583610D01*
X133792685Y-106649500D01*
X133699500Y-106742685D01*
X133633610Y-106856809D01*
X133633606Y-106856818D01*
X133599500Y-106984105D01*
X133599500Y-107115894D01*
X133633606Y-107243181D01*
X133633607Y-107243184D01*
X133633608Y-107243186D01*
X133699500Y-107357314D01*
X133792686Y-107450500D01*
X133906814Y-107516392D01*
X134034105Y-107550499D01*
X134034106Y-107550500D01*
X134034108Y-107550500D01*
X134165894Y-107550500D01*
X134165894Y-107550499D01*
X134293186Y-107516392D01*
X134407314Y-107450500D01*
X134500500Y-107357314D01*
X134566392Y-107243186D01*
X134600499Y-107115894D01*
X134600500Y-107115894D01*
X134600500Y-106984108D01*
X134600225Y-106983082D01*
X134600295Y-106982549D01*
X134599867Y-106979297D01*
X134600738Y-106979182D01*
X134607616Y-106926929D01*
X134615910Y-106915315D01*
X138651346Y-102283733D01*
X138688065Y-102260848D01*
X153534557Y-98301785D01*
X153535356Y-98301627D01*
X153539561Y-98300500D01*
X153539562Y-98300500D01*
X153577246Y-98290401D01*
X153577345Y-98290414D01*
X153577336Y-98290378D01*
X153615646Y-98280162D01*
X153615645Y-98280162D01*
X153615654Y-98280160D01*
X153615661Y-98280155D01*
X153615897Y-98280058D01*
X153615979Y-98280023D01*
X153615988Y-98280021D01*
X153649789Y-98260506D01*
X153649794Y-98260515D01*
X153649860Y-98260464D01*
X153684224Y-98240680D01*
X153684228Y-98240675D01*
X153684500Y-98240465D01*
X153684511Y-98240460D01*
X153712231Y-98212739D01*
X153740239Y-98184799D01*
X153740241Y-98184795D01*
X153743362Y-98181682D01*
X153743890Y-98181079D01*
X162699687Y-89225282D01*
X162704960Y-89220495D01*
X162721532Y-89206855D01*
X162726514Y-89199879D01*
X162734399Y-89190571D01*
X162740460Y-89184511D01*
X162751188Y-89165927D01*
X162755053Y-89159924D01*
X162790971Y-89109640D01*
X165865284Y-84805601D01*
X165913334Y-84775621D01*
X165968512Y-84788398D01*
X165998493Y-84836448D01*
X165999500Y-84848614D01*
X165999500Y-84865892D01*
X166008505Y-84899500D01*
X166015362Y-84925092D01*
X166007968Y-84981245D01*
X166004664Y-84986453D01*
X161272284Y-91801081D01*
X161263829Y-91811198D01*
X153358638Y-99716389D01*
X153325379Y-99735564D01*
X138459212Y-103699874D01*
X138444502Y-103702245D01*
X138442866Y-103702341D01*
X138442862Y-103702341D01*
X138442860Y-103702342D01*
X138415962Y-103711271D01*
X138411733Y-103712536D01*
X138384347Y-103719839D01*
X138384335Y-103719845D01*
X138382916Y-103720662D01*
X138369328Y-103726755D01*
X138367771Y-103727271D01*
X138367770Y-103727272D01*
X138344110Y-103742852D01*
X138340341Y-103745175D01*
X138315778Y-103759318D01*
X138315770Y-103759324D01*
X138314604Y-103760488D01*
X138303062Y-103769883D01*
X138301696Y-103770782D01*
X138301685Y-103770791D01*
X138282870Y-103791958D01*
X138279829Y-103795179D01*
X138259759Y-103815202D01*
X138259758Y-103815203D01*
X138258933Y-103816629D01*
X138250208Y-103828701D01*
X134164911Y-108424663D01*
X134113948Y-108449372D01*
X134109603Y-108449500D01*
X134034106Y-108449500D01*
X133906818Y-108483606D01*
X133906809Y-108483610D01*
X133792685Y-108549500D01*
X133699500Y-108642685D01*
X133633610Y-108756809D01*
X133633606Y-108756818D01*
X133599500Y-108884105D01*
X133599500Y-109015894D01*
X133633606Y-109143181D01*
X133633610Y-109143190D01*
X133653607Y-109177826D01*
X133699500Y-109257314D01*
X133792686Y-109350500D01*
X133906814Y-109416392D01*
X134034105Y-109450499D01*
X134034106Y-109450500D01*
X134034108Y-109450500D01*
X134165894Y-109450500D01*
X134165894Y-109450499D01*
X134293186Y-109416392D01*
X134407314Y-109350500D01*
X134500500Y-109257314D01*
X134566392Y-109143186D01*
X134600499Y-109015894D01*
X134600500Y-109015894D01*
X134600500Y-108884106D01*
X134599867Y-108879297D01*
X134602814Y-108878908D01*
X134608948Y-108832048D01*
X134617751Y-108819840D01*
X138649869Y-104283708D01*
X138686108Y-104261371D01*
X139938042Y-103927522D01*
X143149500Y-103927522D01*
X143149500Y-104072477D01*
X143187014Y-104212481D01*
X143187016Y-104212486D01*
X143206395Y-104246051D01*
X143259491Y-104338015D01*
X143361985Y-104440509D01*
X143487515Y-104512984D01*
X143487516Y-104512984D01*
X143487518Y-104512985D01*
X143557520Y-104531742D01*
X143627522Y-104550499D01*
X143627523Y-104550500D01*
X143627525Y-104550500D01*
X143772477Y-104550500D01*
X143772477Y-104550499D01*
X143912485Y-104512984D01*
X144038015Y-104440509D01*
X144140509Y-104338015D01*
X144212984Y-104212485D01*
X144250499Y-104072477D01*
X144250500Y-104072477D01*
X144250500Y-103927523D01*
X144250499Y-103927522D01*
X144245351Y-103908311D01*
X144212984Y-103787515D01*
X144200414Y-103765744D01*
X144178203Y-103727273D01*
X144140509Y-103661985D01*
X144038015Y-103559491D01*
X143912486Y-103487016D01*
X143912481Y-103487014D01*
X143772477Y-103449500D01*
X143772475Y-103449500D01*
X143627525Y-103449500D01*
X143627523Y-103449500D01*
X143487518Y-103487014D01*
X143487513Y-103487016D01*
X143361984Y-103559491D01*
X143259491Y-103661984D01*
X143187016Y-103787513D01*
X143187014Y-103787518D01*
X143149500Y-103927522D01*
X139938042Y-103927522D01*
X153534557Y-100301785D01*
X153535356Y-100301627D01*
X153539561Y-100300500D01*
X153539562Y-100300500D01*
X153577246Y-100290401D01*
X153577345Y-100290414D01*
X153577336Y-100290378D01*
X153615646Y-100280162D01*
X153615645Y-100280162D01*
X153615654Y-100280160D01*
X153615661Y-100280155D01*
X153615897Y-100280058D01*
X153615979Y-100280023D01*
X153615988Y-100280021D01*
X153649789Y-100260506D01*
X153649794Y-100260515D01*
X153649860Y-100260464D01*
X153684224Y-100240680D01*
X153684228Y-100240675D01*
X153684500Y-100240465D01*
X153684511Y-100240460D01*
X153712231Y-100212739D01*
X153740239Y-100184799D01*
X153740241Y-100184795D01*
X153743362Y-100181682D01*
X153743890Y-100181079D01*
X161701446Y-92223523D01*
X161705978Y-92219356D01*
X161724249Y-92203905D01*
X161724249Y-92203904D01*
X161724256Y-92203899D01*
X161727721Y-92198908D01*
X161736172Y-92188798D01*
X161740460Y-92184511D01*
X161752432Y-92163772D01*
X161755735Y-92158567D01*
X161865505Y-92000499D01*
X165639538Y-86565892D01*
X166496206Y-85332291D01*
X166543855Y-85301675D01*
X166556987Y-85300500D01*
X166565894Y-85300500D01*
X166565894Y-85300499D01*
X166693186Y-85266392D01*
X166807314Y-85200500D01*
X166852334Y-85155480D01*
X166904659Y-85133805D01*
X166956985Y-85155479D01*
X166973948Y-85181822D01*
X167081787Y-85469391D01*
X167079866Y-85525995D01*
X167076585Y-85532373D01*
X167033610Y-85606809D01*
X167033606Y-85606818D01*
X166999500Y-85734105D01*
X166999500Y-85865894D01*
X167033606Y-85993181D01*
X167033610Y-85993190D01*
X167056946Y-86033608D01*
X167099500Y-86107314D01*
X167192686Y-86200500D01*
X167204024Y-86207046D01*
X167238503Y-86251980D01*
X167231110Y-86308132D01*
X167204024Y-86335218D01*
X167092685Y-86399500D01*
X166999500Y-86492685D01*
X166933610Y-86606809D01*
X166933606Y-86606818D01*
X166899500Y-86734105D01*
X166899500Y-86865894D01*
X166933606Y-86993181D01*
X166933610Y-86993190D01*
X166999500Y-87107314D01*
X167092687Y-87200501D01*
X167095544Y-87202693D01*
X167123866Y-87251740D01*
X167124500Y-87261404D01*
X167124500Y-87281250D01*
X167102826Y-87333576D01*
X167050500Y-87355250D01*
X167013500Y-87345336D01*
X166993190Y-87333610D01*
X166993181Y-87333606D01*
X166865894Y-87299500D01*
X166865892Y-87299500D01*
X166734108Y-87299500D01*
X166734106Y-87299500D01*
X166606818Y-87333606D01*
X166606809Y-87333610D01*
X166492685Y-87399500D01*
X166399500Y-87492685D01*
X166333610Y-87606809D01*
X166333606Y-87606818D01*
X166299837Y-87732845D01*
X166265359Y-87777778D01*
X166263794Y-87778656D01*
X165584456Y-88149204D01*
X165577343Y-88152606D01*
X165543942Y-88166442D01*
X165543940Y-88166443D01*
X165540777Y-88169607D01*
X165523898Y-88182236D01*
X165519968Y-88184379D01*
X165497270Y-88212519D01*
X165492001Y-88218382D01*
X165466443Y-88243941D01*
X165466441Y-88243944D01*
X165464727Y-88248081D01*
X165453970Y-88266201D01*
X165451161Y-88269683D01*
X165451156Y-88269693D01*
X165440958Y-88304368D01*
X165438332Y-88311805D01*
X165424500Y-88345198D01*
X165424500Y-88349670D01*
X165421494Y-88370547D01*
X165420233Y-88374833D01*
X165420233Y-88374835D01*
X165420233Y-88374836D01*
X165420233Y-88374837D01*
X165422873Y-88399500D01*
X165424080Y-88410773D01*
X165424500Y-88418649D01*
X165424500Y-100239252D01*
X165402826Y-100291578D01*
X165398659Y-100295437D01*
X164862973Y-100754596D01*
X164846912Y-100764458D01*
X164843938Y-100766445D01*
X164814680Y-100795702D01*
X164810516Y-100799559D01*
X164779099Y-100826488D01*
X164776920Y-100829263D01*
X164768412Y-100840993D01*
X164766440Y-100843945D01*
X164750609Y-100882164D01*
X164748238Y-100887320D01*
X164729516Y-100924229D01*
X164728558Y-100927646D01*
X164725185Y-100941752D01*
X164724500Y-100945198D01*
X164724500Y-100986584D01*
X164724282Y-100992260D01*
X164721109Y-101033506D01*
X164721537Y-101037067D01*
X164724500Y-101055670D01*
X164724500Y-104899764D01*
X164713252Y-104938984D01*
X162280922Y-108830712D01*
X162274032Y-108840024D01*
X162256088Y-108860677D01*
X162256086Y-108860681D01*
X162251846Y-108873364D01*
X162244420Y-108889115D01*
X162237334Y-108900453D01*
X162237333Y-108900456D01*
X162232815Y-108927436D01*
X162230013Y-108938675D01*
X160946305Y-112778635D01*
X160909159Y-112821389D01*
X160895276Y-112826651D01*
X160869317Y-112833606D01*
X160869312Y-112833608D01*
X160755185Y-112899500D01*
X160662000Y-112992685D01*
X160596110Y-113106809D01*
X160596106Y-113106818D01*
X160562000Y-113234105D01*
X160562000Y-113365894D01*
X160596106Y-113493181D01*
X160596110Y-113493190D01*
X160607836Y-113513500D01*
X160615228Y-113569653D01*
X160580750Y-113614586D01*
X160543750Y-113624500D01*
X159424768Y-113624500D01*
X159372442Y-113602826D01*
X158951070Y-113181454D01*
X158929396Y-113129128D01*
X158930029Y-113119469D01*
X158930500Y-113115891D01*
X158930500Y-112984106D01*
X158930499Y-112984105D01*
X158918817Y-112940508D01*
X158896392Y-112856814D01*
X158830500Y-112742686D01*
X158737314Y-112649500D01*
X158650712Y-112599500D01*
X158623190Y-112583610D01*
X158623181Y-112583606D01*
X158495894Y-112549500D01*
X158495892Y-112549500D01*
X158364108Y-112549500D01*
X158364106Y-112549500D01*
X158236818Y-112583606D01*
X158236809Y-112583610D01*
X158122685Y-112649500D01*
X158029500Y-112742685D01*
X157963610Y-112856809D01*
X157963606Y-112856818D01*
X157929500Y-112984105D01*
X157929500Y-113115894D01*
X157963606Y-113243181D01*
X157963610Y-113243190D01*
X157977882Y-113267910D01*
X158029500Y-113357314D01*
X158122686Y-113450500D01*
X158236814Y-113516392D01*
X158364105Y-113550499D01*
X158364106Y-113550500D01*
X158364108Y-113550500D01*
X158495891Y-113550500D01*
X158495892Y-113550500D01*
X158495892Y-113550499D01*
X158499469Y-113550029D01*
X158554177Y-113564688D01*
X158561454Y-113571070D01*
X159123942Y-114133558D01*
X159225200Y-114175500D01*
X159225201Y-114175500D01*
X163504798Y-114175500D01*
X163504800Y-114175500D01*
X163606058Y-114133557D01*
X163683557Y-114056058D01*
X163683556Y-114056058D01*
X163942442Y-113797174D01*
X163994768Y-113775500D01*
X164524798Y-113775500D01*
X164524800Y-113775500D01*
X164626058Y-113733557D01*
X164703557Y-113656058D01*
X164703556Y-113656058D01*
X164738517Y-113621097D01*
X164738516Y-113621097D01*
X172553557Y-105806059D01*
X172582133Y-105737068D01*
X172622181Y-105697020D01*
X172678818Y-105697020D01*
X172718867Y-105737068D01*
X172724500Y-105765387D01*
X172724500Y-127650500D01*
X172702826Y-127702826D01*
X172650500Y-127724500D01*
X138961405Y-127724500D01*
X138909079Y-127702826D01*
X138902702Y-127695555D01*
X138900503Y-127692690D01*
X138900501Y-127692688D01*
X138900500Y-127692686D01*
X138807314Y-127599500D01*
X138700104Y-127537602D01*
X138693190Y-127533610D01*
X138693181Y-127533606D01*
X138565894Y-127499500D01*
X138565892Y-127499500D01*
X138434108Y-127499500D01*
X138434106Y-127499500D01*
X138306818Y-127533606D01*
X138306809Y-127533610D01*
X138192685Y-127599500D01*
X138099500Y-127692685D01*
X138033610Y-127806809D01*
X138033606Y-127806818D01*
X137999500Y-127934105D01*
X137999500Y-128065894D01*
X138033606Y-128193181D01*
X138033610Y-128193190D01*
X138099500Y-128307314D01*
X138190360Y-128398174D01*
X138212034Y-128450500D01*
X138190360Y-128502826D01*
X138138034Y-128524500D01*
X135961405Y-128524500D01*
X135909079Y-128502826D01*
X135902702Y-128495555D01*
X135900503Y-128492690D01*
X135900501Y-128492688D01*
X135900500Y-128492686D01*
X135807314Y-128399500D01*
X135805017Y-128398174D01*
X135693190Y-128333610D01*
X135693181Y-128333606D01*
X135565894Y-128299500D01*
X135565892Y-128299500D01*
X135434108Y-128299500D01*
X135434106Y-128299500D01*
X135306818Y-128333606D01*
X135306809Y-128333610D01*
X135192685Y-128399500D01*
X135099500Y-128492685D01*
X135033610Y-128606809D01*
X135033606Y-128606818D01*
X134999500Y-128734105D01*
X134999500Y-128865894D01*
X135033606Y-128993181D01*
X135033607Y-128993184D01*
X135033608Y-128993186D01*
X135099500Y-129107314D01*
X135192686Y-129200500D01*
X135306814Y-129266392D01*
X135434105Y-129300499D01*
X135434106Y-129300500D01*
X135434108Y-129300500D01*
X135565894Y-129300500D01*
X135565894Y-129300499D01*
X135693186Y-129266392D01*
X135807314Y-129200500D01*
X135900500Y-129107314D01*
X135900503Y-129107309D01*
X135902702Y-129104445D01*
X135951755Y-129076132D01*
X135961405Y-129075500D01*
X140981250Y-129075500D01*
X141033576Y-129097174D01*
X141055250Y-129149500D01*
X141045336Y-129186500D01*
X141033610Y-129206809D01*
X141033606Y-129206818D01*
X140999500Y-129334105D01*
X140999500Y-129334108D01*
X140999500Y-129465892D01*
X141023659Y-129556056D01*
X141033609Y-129593189D01*
X141035263Y-129597181D01*
X141035263Y-129653818D01*
X140995215Y-129693867D01*
X140966896Y-129699500D01*
X118874500Y-129699500D01*
X118822174Y-129677826D01*
X118800500Y-129625500D01*
X118800500Y-126889776D01*
X120099500Y-126889776D01*
X120099500Y-127110223D01*
X120133984Y-127327948D01*
X120133987Y-127327961D01*
X120202103Y-127537602D01*
X120202104Y-127537605D01*
X120202105Y-127537606D01*
X120302185Y-127734022D01*
X120431758Y-127912365D01*
X120587635Y-128068242D01*
X120708504Y-128156058D01*
X120759606Y-128193186D01*
X120765978Y-128197815D01*
X120962394Y-128297895D01*
X120962397Y-128297896D01*
X120962396Y-128297896D01*
X121172038Y-128366012D01*
X121172044Y-128366013D01*
X121172049Y-128366015D01*
X121280913Y-128383257D01*
X121389776Y-128400500D01*
X121389778Y-128400500D01*
X121610224Y-128400500D01*
X121697313Y-128386706D01*
X121827951Y-128366015D01*
X121827958Y-128366012D01*
X121827961Y-128366012D01*
X121927697Y-128333606D01*
X122037606Y-128297895D01*
X122234022Y-128197815D01*
X122412365Y-128068242D01*
X122568242Y-127912365D01*
X122697815Y-127734022D01*
X122797895Y-127537606D01*
X122866015Y-127327951D01*
X122900500Y-127110222D01*
X122900500Y-126889778D01*
X122866015Y-126672049D01*
X122866013Y-126672044D01*
X122866012Y-126672038D01*
X122797896Y-126462397D01*
X122797895Y-126462396D01*
X122797895Y-126462394D01*
X122697815Y-126265978D01*
X122568242Y-126087635D01*
X122412365Y-125931758D01*
X122308441Y-125856253D01*
X122234024Y-125802186D01*
X122037602Y-125702103D01*
X122037603Y-125702103D01*
X121827961Y-125633987D01*
X121827948Y-125633984D01*
X121610224Y-125599500D01*
X121610222Y-125599500D01*
X121389778Y-125599500D01*
X121389776Y-125599500D01*
X121172051Y-125633984D01*
X121172038Y-125633987D01*
X120962397Y-125702103D01*
X120765976Y-125802186D01*
X120765975Y-125802186D01*
X120587639Y-125931755D01*
X120587635Y-125931758D01*
X120431758Y-126087635D01*
X120431755Y-126087638D01*
X120431755Y-126087639D01*
X120302186Y-126265975D01*
X120302186Y-126265976D01*
X120202103Y-126462397D01*
X120133987Y-126672038D01*
X120133984Y-126672051D01*
X120099500Y-126889776D01*
X118800500Y-126889776D01*
X118800500Y-123927522D01*
X163749500Y-123927522D01*
X163749500Y-124072477D01*
X163787014Y-124212481D01*
X163787016Y-124212486D01*
X163859491Y-124338015D01*
X163961985Y-124440509D01*
X164087515Y-124512984D01*
X164087516Y-124512984D01*
X164087518Y-124512985D01*
X164157520Y-124531742D01*
X164227522Y-124550499D01*
X164227523Y-124550500D01*
X164227525Y-124550500D01*
X164372477Y-124550500D01*
X164372477Y-124550499D01*
X164512485Y-124512984D01*
X164638015Y-124440509D01*
X164740509Y-124338015D01*
X164812984Y-124212485D01*
X164850499Y-124072477D01*
X164850500Y-124072477D01*
X164850500Y-123927523D01*
X164850499Y-123927522D01*
X164812985Y-123787518D01*
X164812983Y-123787513D01*
X164740508Y-123661984D01*
X164638015Y-123559491D01*
X164512486Y-123487016D01*
X164512481Y-123487014D01*
X164372477Y-123449500D01*
X164372475Y-123449500D01*
X164227525Y-123449500D01*
X164227523Y-123449500D01*
X164087518Y-123487014D01*
X164087513Y-123487016D01*
X163961984Y-123559491D01*
X163859491Y-123661984D01*
X163787016Y-123787513D01*
X163787014Y-123787518D01*
X163749500Y-123927522D01*
X118800500Y-123927522D01*
X118800500Y-122927522D01*
X127449500Y-122927522D01*
X127449500Y-123072477D01*
X127487014Y-123212481D01*
X127487016Y-123212486D01*
X127559491Y-123338015D01*
X127661985Y-123440509D01*
X127787515Y-123512984D01*
X127787516Y-123512984D01*
X127787518Y-123512985D01*
X127857520Y-123531742D01*
X127927522Y-123550499D01*
X127927523Y-123550500D01*
X127927525Y-123550500D01*
X128072477Y-123550500D01*
X128072477Y-123550499D01*
X128212485Y-123512984D01*
X128338015Y-123440509D01*
X128440509Y-123338015D01*
X128512984Y-123212485D01*
X128550499Y-123072477D01*
X128550500Y-123072477D01*
X128550500Y-122927523D01*
X128550499Y-122927522D01*
X128512985Y-122787518D01*
X128512983Y-122787513D01*
X128440508Y-122661984D01*
X128338015Y-122559491D01*
X128212488Y-122487017D01*
X128212481Y-122487014D01*
X128072477Y-122449500D01*
X128072475Y-122449500D01*
X127927525Y-122449500D01*
X127927523Y-122449500D01*
X127787518Y-122487014D01*
X127787513Y-122487016D01*
X127661984Y-122559491D01*
X127559491Y-122661984D01*
X127487016Y-122787513D01*
X127487014Y-122787518D01*
X127449500Y-122927522D01*
X118800500Y-122927522D01*
X118800500Y-122427522D01*
X159949500Y-122427522D01*
X159949500Y-122572477D01*
X159987014Y-122712481D01*
X159987016Y-122712486D01*
X160030336Y-122787518D01*
X160059491Y-122838015D01*
X160161985Y-122940509D01*
X160287515Y-123012984D01*
X160287516Y-123012984D01*
X160287518Y-123012985D01*
X160357520Y-123031742D01*
X160427522Y-123050499D01*
X160427523Y-123050500D01*
X160427525Y-123050500D01*
X160572477Y-123050500D01*
X160572477Y-123050499D01*
X160712485Y-123012984D01*
X160838015Y-122940509D01*
X160940509Y-122838015D01*
X161012984Y-122712485D01*
X161050499Y-122572477D01*
X161050500Y-122572477D01*
X161050500Y-122427523D01*
X161050499Y-122427522D01*
X161012985Y-122287518D01*
X161012983Y-122287513D01*
X160940508Y-122161984D01*
X160838015Y-122059491D01*
X160712486Y-121987016D01*
X160712481Y-121987014D01*
X160572477Y-121949500D01*
X160572475Y-121949500D01*
X160427525Y-121949500D01*
X160427523Y-121949500D01*
X160287518Y-121987014D01*
X160287513Y-121987016D01*
X160161984Y-122059491D01*
X160059491Y-122161984D01*
X159987016Y-122287513D01*
X159987014Y-122287518D01*
X159949500Y-122427522D01*
X118800500Y-122427522D01*
X118800500Y-120427522D01*
X158449500Y-120427522D01*
X158449500Y-120572477D01*
X158487014Y-120712481D01*
X158487016Y-120712486D01*
X158559491Y-120838015D01*
X158661985Y-120940509D01*
X158787515Y-121012984D01*
X158787516Y-121012984D01*
X158787518Y-121012985D01*
X158857520Y-121031742D01*
X158927522Y-121050499D01*
X158927523Y-121050500D01*
X158927525Y-121050500D01*
X159072477Y-121050500D01*
X159072477Y-121050499D01*
X159212485Y-121012984D01*
X159338015Y-120940509D01*
X159440509Y-120838015D01*
X159512984Y-120712485D01*
X159550499Y-120572477D01*
X159550500Y-120572477D01*
X159550500Y-120427523D01*
X159550499Y-120427522D01*
X159512985Y-120287518D01*
X159512983Y-120287513D01*
X159440508Y-120161984D01*
X159338015Y-120059491D01*
X159212486Y-119987016D01*
X159212481Y-119987014D01*
X159072477Y-119949500D01*
X159072475Y-119949500D01*
X158927525Y-119949500D01*
X158927523Y-119949500D01*
X158787518Y-119987014D01*
X158787513Y-119987016D01*
X158661984Y-120059491D01*
X158559491Y-120161984D01*
X158487016Y-120287513D01*
X158487014Y-120287518D01*
X158449500Y-120427522D01*
X118800500Y-120427522D01*
X118800500Y-117927522D01*
X135349500Y-117927522D01*
X135349500Y-118072477D01*
X135387014Y-118212481D01*
X135387016Y-118212486D01*
X135446718Y-118315892D01*
X135459491Y-118338015D01*
X135561985Y-118440509D01*
X135687515Y-118512984D01*
X135687516Y-118512984D01*
X135687518Y-118512985D01*
X135757520Y-118531742D01*
X135827522Y-118550499D01*
X135827523Y-118550500D01*
X135827525Y-118550500D01*
X135972477Y-118550500D01*
X135972477Y-118550499D01*
X136112485Y-118512984D01*
X136238015Y-118440509D01*
X136340509Y-118338015D01*
X136412984Y-118212485D01*
X136420588Y-118184108D01*
X136420589Y-118184105D01*
X162399500Y-118184105D01*
X162399500Y-118315894D01*
X162433606Y-118443181D01*
X162433610Y-118443190D01*
X162495565Y-118550499D01*
X162499500Y-118557314D01*
X162592686Y-118650500D01*
X162706814Y-118716392D01*
X162834105Y-118750499D01*
X162834106Y-118750500D01*
X162834108Y-118750500D01*
X162965894Y-118750500D01*
X162965894Y-118750499D01*
X163093186Y-118716392D01*
X163207314Y-118650500D01*
X163247674Y-118610140D01*
X163300000Y-118588466D01*
X163352326Y-118610140D01*
X163392686Y-118650500D01*
X163506814Y-118716392D01*
X163634105Y-118750499D01*
X163634106Y-118750500D01*
X163634108Y-118750500D01*
X163765894Y-118750500D01*
X163765894Y-118750499D01*
X163893186Y-118716392D01*
X164007314Y-118650500D01*
X164100500Y-118557314D01*
X164166392Y-118443186D01*
X164200499Y-118315894D01*
X164200500Y-118315894D01*
X164200500Y-118184106D01*
X164200499Y-118184105D01*
X164178097Y-118100500D01*
X164166392Y-118056814D01*
X164100500Y-117942686D01*
X164007314Y-117849500D01*
X163893190Y-117783610D01*
X163893181Y-117783606D01*
X163765894Y-117749500D01*
X163765892Y-117749500D01*
X163634108Y-117749500D01*
X163634106Y-117749500D01*
X163506818Y-117783606D01*
X163506809Y-117783610D01*
X163392685Y-117849500D01*
X163352326Y-117889860D01*
X163300000Y-117911534D01*
X163247674Y-117889860D01*
X163207314Y-117849500D01*
X163093190Y-117783610D01*
X163093181Y-117783606D01*
X162965894Y-117749500D01*
X162965892Y-117749500D01*
X162834108Y-117749500D01*
X162834106Y-117749500D01*
X162706818Y-117783606D01*
X162706809Y-117783610D01*
X162592685Y-117849500D01*
X162499500Y-117942685D01*
X162433610Y-118056809D01*
X162433606Y-118056818D01*
X162399500Y-118184105D01*
X136420589Y-118184105D01*
X136427020Y-118160105D01*
X136450499Y-118072477D01*
X136450500Y-118072477D01*
X136450500Y-117927523D01*
X136450499Y-117927522D01*
X136443258Y-117900500D01*
X136412984Y-117787515D01*
X136410729Y-117783610D01*
X136391036Y-117749500D01*
X136340509Y-117661985D01*
X136238015Y-117559491D01*
X136194046Y-117534105D01*
X139559500Y-117534105D01*
X139559500Y-117665894D01*
X139593606Y-117793181D01*
X139593607Y-117793184D01*
X139593608Y-117793186D01*
X139659500Y-117907314D01*
X139752686Y-118000500D01*
X139866814Y-118066392D01*
X139994105Y-118100499D01*
X139994106Y-118100500D01*
X139994108Y-118100500D01*
X140125894Y-118100500D01*
X140125894Y-118100499D01*
X140253186Y-118066392D01*
X140367314Y-118000500D01*
X140445640Y-117922174D01*
X140497966Y-117900500D01*
X144062034Y-117900500D01*
X144114360Y-117922174D01*
X144192686Y-118000500D01*
X144306814Y-118066392D01*
X144434105Y-118100499D01*
X144434106Y-118100500D01*
X144434108Y-118100500D01*
X144565894Y-118100500D01*
X144565894Y-118100499D01*
X144693186Y-118066392D01*
X144807314Y-118000500D01*
X144900500Y-117907314D01*
X144966392Y-117793186D01*
X145000499Y-117665894D01*
X145000500Y-117665894D01*
X145000500Y-117534106D01*
X145000499Y-117534105D01*
X144977829Y-117449500D01*
X144966392Y-117406814D01*
X144900500Y-117292686D01*
X144807314Y-117199500D01*
X144693190Y-117133610D01*
X144693181Y-117133606D01*
X144565894Y-117099500D01*
X144565892Y-117099500D01*
X144434108Y-117099500D01*
X144434106Y-117099500D01*
X144306818Y-117133606D01*
X144306809Y-117133610D01*
X144192685Y-117199500D01*
X144114360Y-117277826D01*
X144062034Y-117299500D01*
X140497966Y-117299500D01*
X140445640Y-117277826D01*
X140367314Y-117199500D01*
X140253190Y-117133610D01*
X140253181Y-117133606D01*
X140125894Y-117099500D01*
X140125892Y-117099500D01*
X139994108Y-117099500D01*
X139994106Y-117099500D01*
X139866818Y-117133606D01*
X139866809Y-117133610D01*
X139752685Y-117199500D01*
X139659500Y-117292685D01*
X139593610Y-117406809D01*
X139593606Y-117406818D01*
X139559500Y-117534105D01*
X136194046Y-117534105D01*
X136112486Y-117487016D01*
X136112481Y-117487014D01*
X135972477Y-117449500D01*
X135972475Y-117449500D01*
X135827525Y-117449500D01*
X135827523Y-117449500D01*
X135687518Y-117487014D01*
X135687513Y-117487016D01*
X135561984Y-117559491D01*
X135459491Y-117661984D01*
X135387016Y-117787513D01*
X135387014Y-117787518D01*
X135349500Y-117927522D01*
X118800500Y-117927522D01*
X118800500Y-103611007D01*
X119999500Y-103611007D01*
X119999500Y-103748993D01*
X120003834Y-103770782D01*
X120026418Y-103884322D01*
X120026421Y-103884332D01*
X120079223Y-104011808D01*
X120079224Y-104011810D01*
X120079225Y-104011811D01*
X120155886Y-104126542D01*
X120253458Y-104224114D01*
X120368189Y-104300775D01*
X120368190Y-104300775D01*
X120368191Y-104300776D01*
X120495667Y-104353578D01*
X120495672Y-104353580D01*
X120589936Y-104372330D01*
X120637029Y-104403795D01*
X120649500Y-104444908D01*
X120649500Y-111555091D01*
X120627826Y-111607417D01*
X120589937Y-111627669D01*
X120495677Y-111646418D01*
X120495667Y-111646421D01*
X120368191Y-111699223D01*
X120253461Y-111775883D01*
X120155883Y-111873461D01*
X120079223Y-111988191D01*
X120026421Y-112115667D01*
X120026418Y-112115677D01*
X119999500Y-112251008D01*
X119999500Y-112388991D01*
X120026418Y-112524322D01*
X120026421Y-112524332D01*
X120079223Y-112651808D01*
X120145677Y-112751264D01*
X120155886Y-112766542D01*
X120253458Y-112864114D01*
X120368189Y-112940775D01*
X120368190Y-112940775D01*
X120368191Y-112940776D01*
X120493511Y-112992685D01*
X120495672Y-112993580D01*
X120631007Y-113020500D01*
X120631009Y-113020500D01*
X121568991Y-113020500D01*
X121568993Y-113020500D01*
X121704328Y-112993580D01*
X121831811Y-112940775D01*
X121946542Y-112864114D01*
X122018482Y-112792174D01*
X122070808Y-112770500D01*
X124159192Y-112770500D01*
X124211518Y-112792174D01*
X124283458Y-112864114D01*
X124398189Y-112940775D01*
X124398190Y-112940775D01*
X124398191Y-112940776D01*
X124523511Y-112992685D01*
X124525672Y-112993580D01*
X124661007Y-113020500D01*
X124661009Y-113020500D01*
X125898991Y-113020500D01*
X125898993Y-113020500D01*
X126034328Y-112993580D01*
X126161811Y-112940775D01*
X126276542Y-112864114D01*
X126374114Y-112766542D01*
X126450775Y-112651811D01*
X126503580Y-112524328D01*
X126530500Y-112388993D01*
X126530500Y-112251007D01*
X126503580Y-112115672D01*
X126450775Y-111988189D01*
X126374114Y-111873458D01*
X126276542Y-111775886D01*
X126161811Y-111699225D01*
X126161810Y-111699224D01*
X126161808Y-111699223D01*
X126034332Y-111646421D01*
X126034322Y-111646418D01*
X125940061Y-111627669D01*
X125898993Y-111619500D01*
X124661007Y-111619500D01*
X124622642Y-111627131D01*
X124525677Y-111646418D01*
X124525667Y-111646421D01*
X124398191Y-111699223D01*
X124283461Y-111775883D01*
X124211518Y-111847826D01*
X124159192Y-111869500D01*
X122070808Y-111869500D01*
X122018482Y-111847826D01*
X121946542Y-111775886D01*
X121831811Y-111699225D01*
X121831810Y-111699224D01*
X121831808Y-111699223D01*
X121704332Y-111646421D01*
X121704322Y-111646418D01*
X121610063Y-111627669D01*
X121562971Y-111596203D01*
X121550500Y-111555091D01*
X121550500Y-110820814D01*
X124254500Y-110820814D01*
X124254500Y-110959185D01*
X124290310Y-111092831D01*
X124290312Y-111092836D01*
X124359495Y-111212665D01*
X124457335Y-111310505D01*
X124577164Y-111379688D01*
X124710814Y-111415499D01*
X124710815Y-111415500D01*
X124710817Y-111415500D01*
X124849185Y-111415500D01*
X124849185Y-111415499D01*
X124982836Y-111379688D01*
X125102665Y-111310505D01*
X125200505Y-111212665D01*
X125269688Y-111092836D01*
X125305499Y-110959185D01*
X125305500Y-110959185D01*
X125305500Y-110820815D01*
X125305499Y-110820814D01*
X125269689Y-110687168D01*
X125269688Y-110687164D01*
X125200505Y-110567335D01*
X125102665Y-110469495D01*
X124982836Y-110400312D01*
X124982831Y-110400310D01*
X124849185Y-110364500D01*
X124849183Y-110364500D01*
X124710817Y-110364500D01*
X124710815Y-110364500D01*
X124577168Y-110400310D01*
X124577163Y-110400312D01*
X124457334Y-110469495D01*
X124359495Y-110567334D01*
X124290312Y-110687163D01*
X124290310Y-110687168D01*
X124254500Y-110820814D01*
X121550500Y-110820814D01*
X121550500Y-108184105D01*
X123799500Y-108184105D01*
X123799500Y-108315894D01*
X123833606Y-108443181D01*
X123833610Y-108443190D01*
X123874534Y-108514072D01*
X123899500Y-108557314D01*
X123992686Y-108650500D01*
X124106814Y-108716392D01*
X124106815Y-108716392D01*
X124111015Y-108718817D01*
X124110221Y-108720190D01*
X124146194Y-108756164D01*
X124148306Y-108761929D01*
X124411061Y-109583036D01*
X124412049Y-109586395D01*
X124419979Y-109615989D01*
X124419980Y-109615992D01*
X124421079Y-109618646D01*
X124424629Y-109626667D01*
X124425853Y-109629263D01*
X124442396Y-109654987D01*
X124444241Y-109658013D01*
X124459538Y-109684508D01*
X124461276Y-109686773D01*
X124466793Y-109693618D01*
X124468652Y-109695814D01*
X124491291Y-109716382D01*
X124493856Y-109718827D01*
X124515490Y-109740461D01*
X124517769Y-109742209D01*
X124524836Y-109747369D01*
X124527214Y-109749019D01*
X124554412Y-109763029D01*
X124557503Y-109764716D01*
X124584011Y-109780021D01*
X124584013Y-109780021D01*
X124586687Y-109781129D01*
X124594852Y-109784284D01*
X124597549Y-109785252D01*
X124597553Y-109785254D01*
X124627474Y-109791752D01*
X124630852Y-109792571D01*
X124660438Y-109800500D01*
X124660441Y-109800500D01*
X124663251Y-109800870D01*
X124672010Y-109801811D01*
X124674866Y-109802047D01*
X124674873Y-109802049D01*
X124705418Y-109800585D01*
X124708960Y-109800500D01*
X126371612Y-109800500D01*
X126423938Y-109822174D01*
X126445612Y-109874500D01*
X126423938Y-109926826D01*
X126319480Y-110031283D01*
X126240424Y-110168214D01*
X126240421Y-110168220D01*
X126199500Y-110320940D01*
X126199500Y-110479059D01*
X126240421Y-110631779D01*
X126240422Y-110631781D01*
X126240423Y-110631784D01*
X126319480Y-110768716D01*
X126431284Y-110880520D01*
X126568216Y-110959577D01*
X126720940Y-111000499D01*
X126720941Y-111000500D01*
X126720943Y-111000500D01*
X127825500Y-111000500D01*
X127877826Y-111022174D01*
X127899500Y-111074500D01*
X127899500Y-112720612D01*
X127877826Y-112772938D01*
X127122089Y-113528674D01*
X127110948Y-113537828D01*
X127100140Y-113545067D01*
X127100138Y-113545069D01*
X127084397Y-113563058D01*
X127075743Y-113571455D01*
X127057303Y-113586636D01*
X127043798Y-113605542D01*
X127035912Y-113614851D01*
X127019482Y-113631282D01*
X127019480Y-113631284D01*
X127012975Y-113642550D01*
X127004587Y-113654268D01*
X126996021Y-113664058D01*
X126996017Y-113664064D01*
X126985474Y-113685503D01*
X126979289Y-113695853D01*
X126965403Y-113715295D01*
X126965399Y-113715302D01*
X126957251Y-113737053D01*
X126952041Y-113748092D01*
X126940423Y-113768214D01*
X126937055Y-113780781D01*
X126931987Y-113794270D01*
X126926246Y-113805947D01*
X126926244Y-113805953D01*
X126921609Y-113829390D01*
X126918312Y-113840992D01*
X126909933Y-113863357D01*
X126909931Y-113863366D01*
X126907689Y-113886486D01*
X126905514Y-113898492D01*
X126899499Y-113920942D01*
X126899499Y-113933953D01*
X126898093Y-113948309D01*
X126895571Y-113961061D01*
X126895570Y-113961067D01*
X126897159Y-113984896D01*
X126896978Y-113996956D01*
X126894673Y-114020738D01*
X126898492Y-114043652D01*
X126899499Y-114055818D01*
X126899499Y-114079057D01*
X126902866Y-114091624D01*
X126905223Y-114105853D01*
X127006089Y-115618827D01*
X127006090Y-115618830D01*
X127057077Y-115768489D01*
X127057079Y-115768492D01*
X127057080Y-115768494D01*
X127145071Y-115899863D01*
X127264064Y-116003983D01*
X127335008Y-116038869D01*
X127405949Y-116073755D01*
X127405950Y-116073755D01*
X127405952Y-116073756D01*
X127561063Y-116104429D01*
X127561066Y-116104428D01*
X127561067Y-116104429D01*
X127594278Y-116102214D01*
X127718827Y-116093912D01*
X127868493Y-116042920D01*
X127999863Y-115954929D01*
X128103982Y-115835936D01*
X128173756Y-115694048D01*
X128204429Y-115538938D01*
X128193983Y-115382259D01*
X128212128Y-115328609D01*
X128262896Y-115303502D01*
X128310831Y-115317122D01*
X128824608Y-115684105D01*
X129921093Y-116467309D01*
X129944912Y-116484322D01*
X129946229Y-116485285D01*
X129984422Y-116513859D01*
X130003577Y-116528189D01*
X130003578Y-116528189D01*
X130007805Y-116530561D01*
X130007702Y-116530743D01*
X130010921Y-116532503D01*
X130011020Y-116532319D01*
X130015295Y-116534596D01*
X130015298Y-116534598D01*
X130082383Y-116559730D01*
X130083904Y-116560319D01*
X130150382Y-116586911D01*
X130150387Y-116586911D01*
X130155085Y-116588109D01*
X130155033Y-116588312D01*
X130158583Y-116589176D01*
X130158631Y-116588972D01*
X130163355Y-116590065D01*
X130163363Y-116590068D01*
X130234721Y-116596986D01*
X130236237Y-116597151D01*
X130307384Y-116605637D01*
X130307384Y-116605636D01*
X130307386Y-116605637D01*
X130312235Y-116605578D01*
X130312237Y-116605789D01*
X130315897Y-116605703D01*
X130315890Y-116605493D01*
X130320732Y-116605326D01*
X130320740Y-116605327D01*
X130391422Y-116593545D01*
X130392963Y-116593306D01*
X130463884Y-116583089D01*
X130463885Y-116583088D01*
X130463887Y-116583088D01*
X130468556Y-116581776D01*
X130468613Y-116581978D01*
X130472122Y-116580950D01*
X130472061Y-116580749D01*
X130476703Y-116579333D01*
X130519791Y-116559730D01*
X130541920Y-116549662D01*
X130543337Y-116549036D01*
X130609214Y-116520805D01*
X130609218Y-116520801D01*
X130613384Y-116518329D01*
X130613490Y-116518508D01*
X130616624Y-116516600D01*
X130616514Y-116516423D01*
X130620623Y-116513859D01*
X130620623Y-116513858D01*
X130620625Y-116513858D01*
X130675990Y-116468278D01*
X130677101Y-116467384D01*
X130733472Y-116423028D01*
X130733473Y-116423025D01*
X130733477Y-116423023D01*
X130736862Y-116419555D01*
X130737012Y-116419701D01*
X130739536Y-116417057D01*
X130739382Y-116416914D01*
X130742691Y-116413369D01*
X130742690Y-116413369D01*
X130742696Y-116413365D01*
X130784367Y-116355023D01*
X130785278Y-116353779D01*
X130828189Y-116296423D01*
X130828191Y-116296417D01*
X130830564Y-116292191D01*
X130830748Y-116292294D01*
X130832505Y-116289080D01*
X130832318Y-116288981D01*
X130834593Y-116284708D01*
X130834598Y-116284702D01*
X130859736Y-116217596D01*
X130860289Y-116216168D01*
X131493115Y-114634105D01*
X157699500Y-114634105D01*
X157699500Y-114765894D01*
X157733606Y-114893181D01*
X157733607Y-114893184D01*
X157733608Y-114893186D01*
X157799500Y-115007314D01*
X157892686Y-115100500D01*
X158006814Y-115166392D01*
X158134105Y-115200499D01*
X158134106Y-115200500D01*
X158134108Y-115200500D01*
X158265894Y-115200500D01*
X158265894Y-115200499D01*
X158388590Y-115167623D01*
X158444741Y-115175015D01*
X158446596Y-115176123D01*
X159364387Y-115742993D01*
X159397516Y-115788929D01*
X159399500Y-115805951D01*
X159399500Y-115815894D01*
X159433606Y-115943181D01*
X159433607Y-115943184D01*
X159433608Y-115943186D01*
X159499500Y-116057314D01*
X159592686Y-116150500D01*
X159706814Y-116216392D01*
X159834105Y-116250499D01*
X159834106Y-116250500D01*
X159834108Y-116250500D01*
X159965894Y-116250500D01*
X159965894Y-116250499D01*
X160093186Y-116216392D01*
X160207314Y-116150500D01*
X160300500Y-116057314D01*
X160366392Y-115943186D01*
X160400499Y-115815894D01*
X160400500Y-115815894D01*
X160400500Y-115684106D01*
X160400499Y-115684105D01*
X160366393Y-115556818D01*
X160366392Y-115556814D01*
X160300500Y-115442686D01*
X160207314Y-115349500D01*
X160151234Y-115317122D01*
X160093190Y-115283610D01*
X160093181Y-115283606D01*
X159965894Y-115249500D01*
X159965892Y-115249500D01*
X159834108Y-115249500D01*
X159834106Y-115249500D01*
X159711411Y-115282376D01*
X159655258Y-115274984D01*
X159653372Y-115273857D01*
X158735614Y-114707006D01*
X158702484Y-114661069D01*
X158700500Y-114644047D01*
X158700500Y-114634106D01*
X158700499Y-114634105D01*
X158666393Y-114506818D01*
X158666392Y-114506814D01*
X158600500Y-114392686D01*
X158507314Y-114299500D01*
X158393190Y-114233610D01*
X158393181Y-114233606D01*
X158265894Y-114199500D01*
X158265892Y-114199500D01*
X158134108Y-114199500D01*
X158134106Y-114199500D01*
X158006818Y-114233606D01*
X158006809Y-114233610D01*
X157892685Y-114299500D01*
X157799500Y-114392685D01*
X157733610Y-114506809D01*
X157733606Y-114506818D01*
X157699500Y-114634105D01*
X131493115Y-114634105D01*
X132039595Y-113267905D01*
X132044211Y-113258397D01*
X132059577Y-113231784D01*
X132069666Y-113194125D01*
X132072432Y-113185811D01*
X132086911Y-113149617D01*
X132090549Y-113119104D01*
X132092549Y-113108726D01*
X132093061Y-113106818D01*
X132095864Y-113096355D01*
X132100500Y-113079059D01*
X132100500Y-113040081D01*
X132101021Y-113031316D01*
X132105637Y-112992618D01*
X132101256Y-112962206D01*
X132100500Y-112951655D01*
X132100500Y-112427522D01*
X134949500Y-112427522D01*
X134949500Y-112572477D01*
X134987014Y-112712481D01*
X134987016Y-112712486D01*
X135040058Y-112804356D01*
X135059491Y-112838015D01*
X135161985Y-112940509D01*
X135287515Y-113012984D01*
X135287516Y-113012984D01*
X135287518Y-113012985D01*
X135355930Y-113031316D01*
X135427522Y-113050499D01*
X135427523Y-113050500D01*
X135427525Y-113050500D01*
X135572477Y-113050500D01*
X135572477Y-113050499D01*
X135712485Y-113012984D01*
X135838015Y-112940509D01*
X135940509Y-112838015D01*
X136012984Y-112712485D01*
X136050499Y-112572477D01*
X136050500Y-112572477D01*
X136050500Y-112427523D01*
X136050499Y-112427522D01*
X136012985Y-112287518D01*
X136012983Y-112287513D01*
X135940508Y-112161984D01*
X135838015Y-112059491D01*
X135712486Y-111987016D01*
X135712481Y-111987014D01*
X135572477Y-111949500D01*
X135572475Y-111949500D01*
X135427525Y-111949500D01*
X135427523Y-111949500D01*
X135287518Y-111987014D01*
X135287513Y-111987016D01*
X135161984Y-112059491D01*
X135059491Y-112161984D01*
X134987016Y-112287513D01*
X134987014Y-112287518D01*
X134949500Y-112427522D01*
X132100500Y-112427522D01*
X132100500Y-108533182D01*
X132122174Y-108480856D01*
X132174500Y-108459182D01*
X132211497Y-108469094D01*
X132287515Y-108512984D01*
X132287517Y-108512984D01*
X132287518Y-108512985D01*
X132303189Y-108517184D01*
X132427522Y-108550499D01*
X132427523Y-108550500D01*
X132427525Y-108550500D01*
X132572477Y-108550500D01*
X132572477Y-108550499D01*
X132712485Y-108512984D01*
X132838015Y-108440509D01*
X132940509Y-108338015D01*
X133012984Y-108212485D01*
X133050499Y-108072477D01*
X133050500Y-108072477D01*
X133050500Y-107927523D01*
X133050499Y-107927522D01*
X133046015Y-107910789D01*
X133017489Y-107804329D01*
X133012985Y-107787518D01*
X133012983Y-107787513D01*
X132940508Y-107661984D01*
X132838015Y-107559491D01*
X132712486Y-107487016D01*
X132712481Y-107487014D01*
X132572477Y-107449500D01*
X132572475Y-107449500D01*
X132427525Y-107449500D01*
X132427523Y-107449500D01*
X132287518Y-107487014D01*
X132287513Y-107487016D01*
X132211500Y-107530903D01*
X132155347Y-107538295D01*
X132110414Y-107503817D01*
X132100500Y-107466817D01*
X132100500Y-102220941D01*
X132100499Y-102220940D01*
X132092928Y-102192686D01*
X132059577Y-102068216D01*
X131980520Y-101931284D01*
X131868716Y-101819480D01*
X131731784Y-101740423D01*
X131731781Y-101740422D01*
X131731779Y-101740421D01*
X131579059Y-101699500D01*
X131579057Y-101699500D01*
X128779057Y-101699500D01*
X128620943Y-101699500D01*
X128620941Y-101699500D01*
X128468220Y-101740421D01*
X128468214Y-101740424D01*
X128331283Y-101819480D01*
X128219480Y-101931283D01*
X128140424Y-102068214D01*
X128140421Y-102068220D01*
X128099500Y-102220940D01*
X128099500Y-104925500D01*
X128077826Y-104977826D01*
X128025500Y-104999500D01*
X126720941Y-104999500D01*
X126568220Y-105040421D01*
X126568214Y-105040424D01*
X126431283Y-105119480D01*
X126319480Y-105231283D01*
X126240424Y-105368214D01*
X126240421Y-105368220D01*
X126199500Y-105520940D01*
X126199500Y-105679059D01*
X126240421Y-105831779D01*
X126240422Y-105831781D01*
X126240423Y-105831784D01*
X126319480Y-105968716D01*
X126431284Y-106080520D01*
X126568216Y-106159577D01*
X126720940Y-106200499D01*
X126720941Y-106200500D01*
X126720943Y-106200500D01*
X128779059Y-106200500D01*
X128779059Y-106200499D01*
X128931784Y-106159577D01*
X129068716Y-106080520D01*
X129180520Y-105968716D01*
X129259577Y-105831784D01*
X129300499Y-105679059D01*
X129300500Y-105679059D01*
X129300500Y-102974500D01*
X129322174Y-102922174D01*
X129374500Y-102900500D01*
X130825500Y-102900500D01*
X130877826Y-102922174D01*
X130899500Y-102974500D01*
X130899500Y-112870103D01*
X130894207Y-112897586D01*
X130061562Y-114979197D01*
X130022005Y-115019731D01*
X129965372Y-115020421D01*
X129949843Y-115011930D01*
X128602713Y-114049695D01*
X128496943Y-113974145D01*
X128466963Y-113926096D01*
X128479740Y-113870918D01*
X128487623Y-113861611D01*
X128980520Y-113368716D01*
X129059577Y-113231784D01*
X129067337Y-113202826D01*
X129081594Y-113149616D01*
X129100500Y-113079059D01*
X129100501Y-113079059D01*
X129100501Y-112916413D01*
X129100500Y-112916395D01*
X129100500Y-110320941D01*
X129100499Y-110320940D01*
X129059578Y-110168220D01*
X129059577Y-110168216D01*
X128980520Y-110031284D01*
X128868716Y-109919480D01*
X128731784Y-109840423D01*
X128731781Y-109840422D01*
X128731779Y-109840421D01*
X128579059Y-109799500D01*
X128579057Y-109799500D01*
X128002243Y-109799500D01*
X127949917Y-109777826D01*
X127928243Y-109725500D01*
X127938156Y-109688502D01*
X127954208Y-109660697D01*
X127956709Y-109656668D01*
X128105521Y-109433452D01*
X128152581Y-109401937D01*
X128162252Y-109400979D01*
X128165886Y-109400500D01*
X128165892Y-109400500D01*
X128293186Y-109366392D01*
X128407314Y-109300500D01*
X128500500Y-109207314D01*
X128566392Y-109093186D01*
X128600499Y-108965894D01*
X128600500Y-108965894D01*
X128600500Y-108834106D01*
X128600499Y-108834105D01*
X128595619Y-108815894D01*
X128566392Y-108706814D01*
X128500500Y-108592686D01*
X128407314Y-108499500D01*
X128339316Y-108460241D01*
X128293190Y-108433610D01*
X128293181Y-108433606D01*
X128165894Y-108399500D01*
X128165892Y-108399500D01*
X128034108Y-108399500D01*
X128034106Y-108399500D01*
X127906818Y-108433606D01*
X127906809Y-108433610D01*
X127792685Y-108499500D01*
X127759831Y-108532354D01*
X127707505Y-108554027D01*
X127655179Y-108532352D01*
X127643423Y-108517031D01*
X127610634Y-108460240D01*
X127603220Y-108404175D01*
X127672385Y-108144805D01*
X127684037Y-108120353D01*
X127785404Y-107980974D01*
X127833709Y-107951405D01*
X127845250Y-107950500D01*
X127865894Y-107950500D01*
X127865894Y-107950499D01*
X127993186Y-107916392D01*
X128107314Y-107850500D01*
X128200500Y-107757314D01*
X128266392Y-107643186D01*
X128300499Y-107515894D01*
X128300500Y-107515894D01*
X128300500Y-107384106D01*
X128300499Y-107384105D01*
X128293320Y-107357314D01*
X128266392Y-107256814D01*
X128200500Y-107142686D01*
X128107314Y-107049500D01*
X128022442Y-107000499D01*
X127993190Y-106983610D01*
X127993181Y-106983606D01*
X127865894Y-106949500D01*
X127865892Y-106949500D01*
X127734108Y-106949500D01*
X127734106Y-106949500D01*
X127606818Y-106983606D01*
X127606809Y-106983610D01*
X127492685Y-107049500D01*
X127399500Y-107142685D01*
X127333610Y-107256809D01*
X127333606Y-107256818D01*
X127299500Y-107384105D01*
X127299500Y-107384108D01*
X127299500Y-107515892D01*
X127303522Y-107530903D01*
X127312170Y-107563178D01*
X127304777Y-107619330D01*
X127300537Y-107625855D01*
X127174124Y-107799672D01*
X127166672Y-107808405D01*
X127159320Y-107815776D01*
X127159319Y-107815777D01*
X127159318Y-107815777D01*
X127149522Y-107832790D01*
X127145244Y-107839383D01*
X127133707Y-107855247D01*
X127133707Y-107855248D01*
X127129974Y-107864958D01*
X127125037Y-107875317D01*
X127119840Y-107884344D01*
X127114780Y-107903315D01*
X127112354Y-107910789D01*
X127105315Y-107929101D01*
X127105314Y-107929106D01*
X127104220Y-107939461D01*
X127102131Y-107950749D01*
X127022473Y-108249466D01*
X126988049Y-108294441D01*
X126987973Y-108294484D01*
X126892686Y-108349499D01*
X126799500Y-108442685D01*
X126733610Y-108556809D01*
X126733606Y-108556818D01*
X126699500Y-108684105D01*
X126699500Y-108815894D01*
X126733606Y-108943181D01*
X126733610Y-108943190D01*
X126799500Y-109057314D01*
X126815360Y-109073174D01*
X126837034Y-109125500D01*
X126815360Y-109177826D01*
X126763034Y-109199500D01*
X124973367Y-109199500D01*
X124921041Y-109177826D01*
X124902888Y-109148053D01*
X124818425Y-108884106D01*
X124719071Y-108573625D01*
X124723766Y-108517184D01*
X124725455Y-108514089D01*
X124766392Y-108443186D01*
X124800500Y-108315892D01*
X124800500Y-108184108D01*
X124800500Y-108184106D01*
X124800499Y-108184105D01*
X124766393Y-108056818D01*
X124766392Y-108056814D01*
X124700500Y-107942686D01*
X124607314Y-107849500D01*
X124548904Y-107815777D01*
X124493190Y-107783610D01*
X124493181Y-107783606D01*
X124365894Y-107749500D01*
X124365892Y-107749500D01*
X124234108Y-107749500D01*
X124234106Y-107749500D01*
X124106818Y-107783606D01*
X124106809Y-107783610D01*
X123992685Y-107849500D01*
X123899500Y-107942685D01*
X123833610Y-108056809D01*
X123833606Y-108056818D01*
X123799500Y-108184105D01*
X121550500Y-108184105D01*
X121550500Y-105040814D01*
X124254500Y-105040814D01*
X124254500Y-105179185D01*
X124290310Y-105312831D01*
X124290312Y-105312836D01*
X124359495Y-105432665D01*
X124457335Y-105530505D01*
X124577164Y-105599688D01*
X124710814Y-105635499D01*
X124710815Y-105635500D01*
X124710817Y-105635500D01*
X124849185Y-105635500D01*
X124849185Y-105635499D01*
X124982836Y-105599688D01*
X125102665Y-105530505D01*
X125200505Y-105432665D01*
X125269688Y-105312836D01*
X125305499Y-105179185D01*
X125305500Y-105179185D01*
X125305500Y-105040815D01*
X125305499Y-105040814D01*
X125300700Y-105022905D01*
X125269688Y-104907164D01*
X125200505Y-104787335D01*
X125102665Y-104689495D01*
X124982836Y-104620312D01*
X124982831Y-104620310D01*
X124849185Y-104584500D01*
X124849183Y-104584500D01*
X124710817Y-104584500D01*
X124710815Y-104584500D01*
X124577168Y-104620310D01*
X124577163Y-104620312D01*
X124457334Y-104689495D01*
X124359495Y-104787334D01*
X124290312Y-104907163D01*
X124290310Y-104907168D01*
X124254500Y-105040814D01*
X121550500Y-105040814D01*
X121550500Y-104444908D01*
X121572174Y-104392582D01*
X121610062Y-104372330D01*
X121704328Y-104353580D01*
X121831811Y-104300775D01*
X121946542Y-104224114D01*
X122018482Y-104152174D01*
X122070808Y-104130500D01*
X124159192Y-104130500D01*
X124211518Y-104152174D01*
X124283458Y-104224114D01*
X124398189Y-104300775D01*
X124398190Y-104300775D01*
X124398191Y-104300776D01*
X124525667Y-104353578D01*
X124525672Y-104353580D01*
X124661007Y-104380500D01*
X124661009Y-104380500D01*
X125898991Y-104380500D01*
X125898993Y-104380500D01*
X126034328Y-104353580D01*
X126161811Y-104300775D01*
X126276542Y-104224114D01*
X126374114Y-104126542D01*
X126450775Y-104011811D01*
X126503580Y-103884328D01*
X126530500Y-103748993D01*
X126530500Y-103611007D01*
X126503580Y-103475672D01*
X126450775Y-103348189D01*
X126374114Y-103233458D01*
X126276542Y-103135886D01*
X126247807Y-103116686D01*
X126161808Y-103059223D01*
X126034332Y-103006421D01*
X126034322Y-103006418D01*
X125943694Y-102988391D01*
X125898993Y-102979500D01*
X124661007Y-102979500D01*
X124622642Y-102987131D01*
X124525677Y-103006418D01*
X124525667Y-103006421D01*
X124398191Y-103059223D01*
X124283461Y-103135883D01*
X124211518Y-103207826D01*
X124159192Y-103229500D01*
X122070808Y-103229500D01*
X122018482Y-103207826D01*
X122003342Y-103192686D01*
X121946542Y-103135886D01*
X121917807Y-103116686D01*
X121831808Y-103059223D01*
X121704332Y-103006421D01*
X121704322Y-103006418D01*
X121613694Y-102988391D01*
X121568993Y-102979500D01*
X120631007Y-102979500D01*
X120592642Y-102987131D01*
X120495677Y-103006418D01*
X120495667Y-103006421D01*
X120368191Y-103059223D01*
X120253461Y-103135883D01*
X120155883Y-103233461D01*
X120079223Y-103348191D01*
X120026421Y-103475667D01*
X120026418Y-103475677D01*
X120009747Y-103559491D01*
X119999500Y-103611007D01*
X118800500Y-103611007D01*
X118800500Y-99934105D01*
X129999500Y-99934105D01*
X129999500Y-100065894D01*
X130033606Y-100193181D01*
X130033610Y-100193190D01*
X130079855Y-100273288D01*
X130099500Y-100307314D01*
X130192686Y-100400500D01*
X130306814Y-100466392D01*
X130434105Y-100500499D01*
X130434106Y-100500500D01*
X130434108Y-100500500D01*
X130565894Y-100500500D01*
X130565894Y-100500499D01*
X130693186Y-100466392D01*
X130807314Y-100400500D01*
X130900500Y-100307314D01*
X130966392Y-100193186D01*
X131000499Y-100065894D01*
X131000500Y-100065894D01*
X131000500Y-99934106D01*
X131000499Y-99934105D01*
X130966393Y-99806818D01*
X130966392Y-99806814D01*
X130900500Y-99692686D01*
X130807314Y-99599500D01*
X130749107Y-99565894D01*
X130693190Y-99533610D01*
X130693181Y-99533606D01*
X130565894Y-99499500D01*
X130565892Y-99499500D01*
X130434108Y-99499500D01*
X130434106Y-99499500D01*
X130306818Y-99533606D01*
X130306809Y-99533610D01*
X130192685Y-99599500D01*
X130099500Y-99692685D01*
X130033610Y-99806809D01*
X130033606Y-99806818D01*
X129999500Y-99934105D01*
X118800500Y-99934105D01*
X118800500Y-82889776D01*
X120099500Y-82889776D01*
X120099500Y-83110223D01*
X120133984Y-83327948D01*
X120133987Y-83327961D01*
X120202103Y-83537602D01*
X120202104Y-83537605D01*
X120202105Y-83537606D01*
X120297333Y-83724500D01*
X120302186Y-83734023D01*
X120302186Y-83734024D01*
X120324242Y-83764381D01*
X120431758Y-83912365D01*
X120587635Y-84068242D01*
X120677534Y-84133557D01*
X120759606Y-84193186D01*
X120765978Y-84197815D01*
X120962394Y-84297895D01*
X120962397Y-84297896D01*
X120962396Y-84297896D01*
X121172038Y-84366012D01*
X121172044Y-84366013D01*
X121172049Y-84366015D01*
X121280913Y-84383257D01*
X121389776Y-84400500D01*
X121389778Y-84400500D01*
X121610224Y-84400500D01*
X121697313Y-84386706D01*
X121827951Y-84366015D01*
X121827958Y-84366012D01*
X121827961Y-84366012D01*
X121927697Y-84333606D01*
X122037606Y-84297895D01*
X122234022Y-84197815D01*
X122412365Y-84068242D01*
X122546502Y-83934105D01*
X138624500Y-83934105D01*
X138624500Y-84065894D01*
X138658606Y-84193181D01*
X138658610Y-84193190D01*
X138719989Y-84299500D01*
X138724500Y-84307314D01*
X138817686Y-84400500D01*
X138931814Y-84466392D01*
X139059105Y-84500499D01*
X139059106Y-84500500D01*
X139059108Y-84500500D01*
X139190894Y-84500500D01*
X139190894Y-84500499D01*
X139318186Y-84466392D01*
X139432314Y-84400500D01*
X139525500Y-84307314D01*
X139525503Y-84307309D01*
X139527702Y-84304445D01*
X139576755Y-84276132D01*
X139586405Y-84275500D01*
X152038595Y-84275500D01*
X152090921Y-84297174D01*
X152097298Y-84304445D01*
X152099496Y-84307309D01*
X152099498Y-84307311D01*
X152099500Y-84307314D01*
X152192686Y-84400500D01*
X152306814Y-84466392D01*
X152434105Y-84500499D01*
X152434106Y-84500500D01*
X152434108Y-84500500D01*
X152565894Y-84500500D01*
X152565894Y-84500499D01*
X152693186Y-84466392D01*
X152807314Y-84400500D01*
X152900500Y-84307314D01*
X152966392Y-84193186D01*
X153000499Y-84065894D01*
X153000500Y-84065894D01*
X153000500Y-83934106D01*
X153000499Y-83934105D01*
X152966393Y-83806818D01*
X152966392Y-83806814D01*
X152900500Y-83692686D01*
X152807314Y-83599500D01*
X152700104Y-83537602D01*
X152693190Y-83533610D01*
X152693181Y-83533606D01*
X152565894Y-83499500D01*
X152565892Y-83499500D01*
X152434108Y-83499500D01*
X152434106Y-83499500D01*
X152306818Y-83533606D01*
X152306809Y-83533610D01*
X152192685Y-83599500D01*
X152099496Y-83692690D01*
X152097298Y-83695555D01*
X152048245Y-83723868D01*
X152038595Y-83724500D01*
X139586405Y-83724500D01*
X139534079Y-83702826D01*
X139527702Y-83695555D01*
X139525503Y-83692690D01*
X139525501Y-83692688D01*
X139525500Y-83692686D01*
X139432314Y-83599500D01*
X139325104Y-83537602D01*
X139318190Y-83533610D01*
X139318181Y-83533606D01*
X139190894Y-83499500D01*
X139190892Y-83499500D01*
X139059108Y-83499500D01*
X139059106Y-83499500D01*
X138931818Y-83533606D01*
X138931809Y-83533610D01*
X138817685Y-83599500D01*
X138724500Y-83692685D01*
X138658610Y-83806809D01*
X138658606Y-83806818D01*
X138624500Y-83934105D01*
X122546502Y-83934105D01*
X122568242Y-83912365D01*
X122697815Y-83734022D01*
X122797895Y-83537606D01*
X122844821Y-83393181D01*
X122866012Y-83327961D01*
X122866012Y-83327958D01*
X122866015Y-83327951D01*
X122900500Y-83110222D01*
X122900500Y-82889778D01*
X122900500Y-82889776D01*
X156099500Y-82889776D01*
X156099500Y-83110223D01*
X156133984Y-83327948D01*
X156133987Y-83327961D01*
X156202103Y-83537602D01*
X156202104Y-83537605D01*
X156202105Y-83537606D01*
X156297333Y-83724500D01*
X156302186Y-83734023D01*
X156302186Y-83734024D01*
X156324242Y-83764381D01*
X156431758Y-83912365D01*
X156587635Y-84068242D01*
X156677534Y-84133557D01*
X156759606Y-84193186D01*
X156765978Y-84197815D01*
X156962394Y-84297895D01*
X156962397Y-84297896D01*
X156962396Y-84297896D01*
X157172038Y-84366012D01*
X157172044Y-84366013D01*
X157172049Y-84366015D01*
X157280913Y-84383257D01*
X157389776Y-84400500D01*
X157389778Y-84400500D01*
X157610224Y-84400500D01*
X157697313Y-84386706D01*
X157827951Y-84366015D01*
X157827958Y-84366012D01*
X157827961Y-84366012D01*
X157927697Y-84333606D01*
X158037606Y-84297895D01*
X158234022Y-84197815D01*
X158412365Y-84068242D01*
X158568242Y-83912365D01*
X158697815Y-83734022D01*
X158797895Y-83537606D01*
X158844821Y-83393181D01*
X158866012Y-83327961D01*
X158866012Y-83327958D01*
X158866015Y-83327951D01*
X158900500Y-83110222D01*
X158900500Y-82889778D01*
X158900217Y-82887993D01*
X158875183Y-82729936D01*
X158866015Y-82672049D01*
X158866013Y-82672044D01*
X158866012Y-82672038D01*
X158797896Y-82462397D01*
X158797895Y-82462396D01*
X158797895Y-82462394D01*
X158697815Y-82265978D01*
X158568242Y-82087635D01*
X158412365Y-81931758D01*
X158240399Y-81806818D01*
X158234024Y-81802186D01*
X158065647Y-81716393D01*
X158037606Y-81702105D01*
X158037605Y-81702104D01*
X158037602Y-81702103D01*
X158037603Y-81702103D01*
X157827961Y-81633987D01*
X157827948Y-81633984D01*
X157610224Y-81599500D01*
X157610222Y-81599500D01*
X157389778Y-81599500D01*
X157389776Y-81599500D01*
X157172051Y-81633984D01*
X157172038Y-81633987D01*
X156962397Y-81702103D01*
X156765976Y-81802186D01*
X156765975Y-81802186D01*
X156609470Y-81915894D01*
X156587635Y-81931758D01*
X156431758Y-82087635D01*
X156431755Y-82087638D01*
X156431755Y-82087639D01*
X156302186Y-82265975D01*
X156302186Y-82265976D01*
X156202103Y-82462397D01*
X156133987Y-82672038D01*
X156133984Y-82672051D01*
X156099500Y-82889776D01*
X122900500Y-82889776D01*
X122900217Y-82887993D01*
X122875183Y-82729936D01*
X122866015Y-82672049D01*
X122866013Y-82672044D01*
X122866012Y-82672038D01*
X122797896Y-82462397D01*
X122797895Y-82462396D01*
X122797895Y-82462394D01*
X122697815Y-82265978D01*
X122568242Y-82087635D01*
X122412365Y-81931758D01*
X122240399Y-81806818D01*
X122234024Y-81802186D01*
X122065647Y-81716393D01*
X122037606Y-81702105D01*
X122037605Y-81702104D01*
X122037602Y-81702103D01*
X122037603Y-81702103D01*
X121827961Y-81633987D01*
X121827948Y-81633984D01*
X121610224Y-81599500D01*
X121610222Y-81599500D01*
X121389778Y-81599500D01*
X121389776Y-81599500D01*
X121172051Y-81633984D01*
X121172038Y-81633987D01*
X120962397Y-81702103D01*
X120765976Y-81802186D01*
X120765975Y-81802186D01*
X120609470Y-81915894D01*
X120587635Y-81931758D01*
X120431758Y-82087635D01*
X120431755Y-82087638D01*
X120431755Y-82087639D01*
X120302186Y-82265975D01*
X120302186Y-82265976D01*
X120202103Y-82462397D01*
X120133987Y-82672038D01*
X120133984Y-82672051D01*
X120099500Y-82889776D01*
X118800500Y-82889776D01*
X118800500Y-80374500D01*
X118822174Y-80322174D01*
X118874500Y-80300500D01*
X150995684Y-80300500D01*
X151048010Y-80322174D01*
G37*
%TD.AperFunction*%
%TA.AperFunction,Conductor*%
G36*
X178177826Y-80322174D02*
G01*
X178199500Y-80374500D01*
X178199500Y-129625500D01*
X178177826Y-129677826D01*
X178125500Y-129699500D01*
X177648766Y-129699500D01*
X177596440Y-129677826D01*
X177574766Y-129625500D01*
X177596439Y-129573175D01*
X177613557Y-129556058D01*
X177655500Y-129454800D01*
X177655500Y-91761404D01*
X177677174Y-91709078D01*
X177684456Y-91702693D01*
X177687312Y-91700501D01*
X177687311Y-91700501D01*
X177687314Y-91700500D01*
X177780500Y-91607314D01*
X177846392Y-91493186D01*
X177880499Y-91365894D01*
X177880500Y-91365894D01*
X177880500Y-91234106D01*
X177880499Y-91234105D01*
X177846393Y-91106818D01*
X177846392Y-91106814D01*
X177780500Y-90992686D01*
X177687314Y-90899500D01*
X177573190Y-90833610D01*
X177573181Y-90833606D01*
X177445894Y-90799500D01*
X177445892Y-90799500D01*
X177314108Y-90799500D01*
X177314106Y-90799500D01*
X177186818Y-90833606D01*
X177186809Y-90833610D01*
X177072685Y-90899500D01*
X176979500Y-90992685D01*
X176913610Y-91106809D01*
X176913606Y-91106818D01*
X176879500Y-91234105D01*
X176879500Y-91365894D01*
X176913606Y-91493181D01*
X176913610Y-91493190D01*
X176979500Y-91607314D01*
X177072687Y-91700501D01*
X177075544Y-91702693D01*
X177103866Y-91751740D01*
X177104500Y-91761404D01*
X177104500Y-129050500D01*
X177082826Y-129102826D01*
X177030500Y-129124500D01*
X173943766Y-129124500D01*
X173891440Y-129102826D01*
X173869766Y-129050500D01*
X173891439Y-128998175D01*
X173933557Y-128956058D01*
X173975500Y-128854800D01*
X173975500Y-127267575D01*
X173997174Y-127215249D01*
X174049500Y-127193575D01*
X174101826Y-127215249D01*
X174122589Y-127255999D01*
X174133984Y-127327948D01*
X174133987Y-127327961D01*
X174202103Y-127537602D01*
X174202104Y-127537605D01*
X174202105Y-127537606D01*
X174302185Y-127734022D01*
X174431758Y-127912365D01*
X174587635Y-128068242D01*
X174708504Y-128156058D01*
X174759606Y-128193186D01*
X174765978Y-128197815D01*
X174962394Y-128297895D01*
X174962397Y-128297896D01*
X174962396Y-128297896D01*
X175172038Y-128366012D01*
X175172044Y-128366013D01*
X175172049Y-128366015D01*
X175280913Y-128383257D01*
X175389776Y-128400500D01*
X175389778Y-128400500D01*
X175610224Y-128400500D01*
X175697313Y-128386706D01*
X175827951Y-128366015D01*
X175827958Y-128366012D01*
X175827961Y-128366012D01*
X175927697Y-128333606D01*
X176037606Y-128297895D01*
X176234022Y-128197815D01*
X176412365Y-128068242D01*
X176568242Y-127912365D01*
X176697815Y-127734022D01*
X176797895Y-127537606D01*
X176866015Y-127327951D01*
X176900500Y-127110222D01*
X176900500Y-126889778D01*
X176866015Y-126672049D01*
X176866013Y-126672044D01*
X176866012Y-126672038D01*
X176797896Y-126462397D01*
X176797895Y-126462396D01*
X176797895Y-126462394D01*
X176697815Y-126265978D01*
X176568242Y-126087635D01*
X176412365Y-125931758D01*
X176308441Y-125856253D01*
X176234024Y-125802186D01*
X176037602Y-125702103D01*
X176037603Y-125702103D01*
X175827961Y-125633987D01*
X175827948Y-125633984D01*
X175610224Y-125599500D01*
X175610222Y-125599500D01*
X175389778Y-125599500D01*
X175389776Y-125599500D01*
X175172051Y-125633984D01*
X175172038Y-125633987D01*
X174962397Y-125702103D01*
X174765976Y-125802186D01*
X174765975Y-125802186D01*
X174587639Y-125931755D01*
X174587635Y-125931758D01*
X174431758Y-126087635D01*
X174431755Y-126087638D01*
X174431755Y-126087639D01*
X174302186Y-126265975D01*
X174302186Y-126265976D01*
X174202103Y-126462397D01*
X174133987Y-126672038D01*
X174133984Y-126672051D01*
X174122589Y-126744000D01*
X174092996Y-126792291D01*
X174037924Y-126805513D01*
X173989633Y-126775920D01*
X173975500Y-126732424D01*
X173975500Y-125349500D01*
X173997174Y-125297174D01*
X174049500Y-125275500D01*
X175854798Y-125275500D01*
X175854800Y-125275500D01*
X175956058Y-125233557D01*
X176033557Y-125156058D01*
X176075500Y-125054800D01*
X176075500Y-99961404D01*
X176097174Y-99909078D01*
X176104456Y-99902693D01*
X176107312Y-99900501D01*
X176107311Y-99900501D01*
X176107314Y-99900500D01*
X176200500Y-99807314D01*
X176266392Y-99693186D01*
X176300499Y-99565894D01*
X176300500Y-99565894D01*
X176300500Y-99434106D01*
X176300499Y-99434105D01*
X176266393Y-99306818D01*
X176266392Y-99306814D01*
X176200500Y-99192686D01*
X176107314Y-99099500D01*
X176046585Y-99064438D01*
X175993190Y-99033610D01*
X175993181Y-99033606D01*
X175865894Y-98999500D01*
X175865892Y-98999500D01*
X175734108Y-98999500D01*
X175734106Y-98999500D01*
X175606818Y-99033606D01*
X175606809Y-99033610D01*
X175492685Y-99099500D01*
X175399500Y-99192685D01*
X175333610Y-99306809D01*
X175333606Y-99306818D01*
X175299500Y-99434105D01*
X175299500Y-99565894D01*
X175333606Y-99693181D01*
X175333610Y-99693190D01*
X175399500Y-99807314D01*
X175492687Y-99900501D01*
X175495544Y-99902693D01*
X175523866Y-99951740D01*
X175524500Y-99961404D01*
X175524500Y-103934796D01*
X175502826Y-103987122D01*
X175450500Y-104008796D01*
X175398174Y-103987122D01*
X175379022Y-103953949D01*
X175366393Y-103906818D01*
X175366392Y-103906814D01*
X175300500Y-103792686D01*
X175207314Y-103699500D01*
X175093190Y-103633610D01*
X175093181Y-103633606D01*
X174965894Y-103599500D01*
X174965892Y-103599500D01*
X174834108Y-103599500D01*
X174834106Y-103599500D01*
X174706818Y-103633606D01*
X174706809Y-103633610D01*
X174592685Y-103699500D01*
X174499500Y-103792685D01*
X174433610Y-103906809D01*
X174433606Y-103906818D01*
X174399500Y-104034105D01*
X174399500Y-104165894D01*
X174433606Y-104293181D01*
X174433610Y-104293190D01*
X174468477Y-104353581D01*
X174499500Y-104407314D01*
X174592686Y-104500500D01*
X174706814Y-104566392D01*
X174834105Y-104600499D01*
X174834106Y-104600500D01*
X174834108Y-104600500D01*
X174965894Y-104600500D01*
X174965894Y-104600499D01*
X175093186Y-104566392D01*
X175207314Y-104500500D01*
X175300500Y-104407314D01*
X175366392Y-104293186D01*
X175379022Y-104246049D01*
X175413500Y-104201117D01*
X175469652Y-104193724D01*
X175514586Y-104228203D01*
X175524500Y-104265203D01*
X175524500Y-124650500D01*
X175502826Y-124702826D01*
X175450500Y-124724500D01*
X173754800Y-124724500D01*
X173645200Y-124724500D01*
X173603258Y-124741873D01*
X173543943Y-124766442D01*
X173466442Y-124843943D01*
X173424500Y-124945200D01*
X173424500Y-128450500D01*
X173402826Y-128502826D01*
X173350500Y-128524500D01*
X138861966Y-128524500D01*
X138809640Y-128502826D01*
X138787966Y-128450500D01*
X138809640Y-128398174D01*
X138900500Y-128307314D01*
X138900503Y-128307309D01*
X138902702Y-128304445D01*
X138951755Y-128276132D01*
X138961405Y-128275500D01*
X173054798Y-128275500D01*
X173054800Y-128275500D01*
X173156058Y-128233557D01*
X173233557Y-128156058D01*
X173275500Y-128054800D01*
X173275500Y-99961404D01*
X173297174Y-99909078D01*
X173304456Y-99902693D01*
X173307312Y-99900501D01*
X173307311Y-99900501D01*
X173307314Y-99900500D01*
X173400500Y-99807314D01*
X173466392Y-99693186D01*
X173500499Y-99565894D01*
X173500500Y-99565894D01*
X173500500Y-99434106D01*
X173500499Y-99434105D01*
X173466393Y-99306818D01*
X173466392Y-99306814D01*
X173400500Y-99192686D01*
X173307314Y-99099500D01*
X173246585Y-99064438D01*
X173193190Y-99033610D01*
X173193181Y-99033606D01*
X173065894Y-98999500D01*
X173065892Y-98999500D01*
X172934108Y-98999500D01*
X172934106Y-98999500D01*
X172806818Y-99033606D01*
X172806809Y-99033610D01*
X172706500Y-99091524D01*
X172650347Y-99098916D01*
X172605414Y-99064438D01*
X172595500Y-99027438D01*
X172595500Y-88915200D01*
X172553557Y-88813942D01*
X172476058Y-88736443D01*
X172111070Y-88371455D01*
X172089396Y-88319129D01*
X172090029Y-88309470D01*
X172090500Y-88305892D01*
X172090500Y-88174106D01*
X172090499Y-88174105D01*
X172084738Y-88152606D01*
X172056392Y-88046814D01*
X171990500Y-87932686D01*
X171897314Y-87839500D01*
X171783190Y-87773610D01*
X171783181Y-87773606D01*
X171655894Y-87739500D01*
X171655892Y-87739500D01*
X171524108Y-87739500D01*
X171524106Y-87739500D01*
X171396818Y-87773606D01*
X171396809Y-87773610D01*
X171282685Y-87839500D01*
X171189500Y-87932685D01*
X171138586Y-88020871D01*
X171093652Y-88055350D01*
X171037500Y-88047957D01*
X171003021Y-88003023D01*
X171000500Y-87983871D01*
X171000500Y-85720941D01*
X171000499Y-85720940D01*
X170959578Y-85568220D01*
X170959577Y-85568216D01*
X170880520Y-85431284D01*
X170768716Y-85319480D01*
X170631784Y-85240423D01*
X170631781Y-85240422D01*
X170631779Y-85240421D01*
X170479059Y-85199500D01*
X170479057Y-85199500D01*
X170320943Y-85199500D01*
X170320941Y-85199500D01*
X170168220Y-85240421D01*
X170168214Y-85240424D01*
X170031283Y-85319480D01*
X169919480Y-85431283D01*
X169840424Y-85568214D01*
X169840421Y-85568220D01*
X169799500Y-85720940D01*
X169799500Y-94666896D01*
X169777826Y-94719222D01*
X169725500Y-94740896D01*
X169697183Y-94735264D01*
X169693181Y-94733606D01*
X169565894Y-94699500D01*
X169565892Y-94699500D01*
X169434108Y-94699500D01*
X169434106Y-94699500D01*
X169306818Y-94733606D01*
X169306809Y-94733610D01*
X169192685Y-94799500D01*
X169099500Y-94892685D01*
X169033610Y-95006809D01*
X169033606Y-95006818D01*
X168999500Y-95134105D01*
X168999500Y-95134108D01*
X168999500Y-95265892D01*
X169033608Y-95393186D01*
X169033609Y-95393187D01*
X169038613Y-95401855D01*
X169046004Y-95458008D01*
X169011525Y-95502941D01*
X168993679Y-95510332D01*
X168906818Y-95533606D01*
X168906809Y-95533610D01*
X168792685Y-95599500D01*
X168699500Y-95692685D01*
X168633610Y-95806809D01*
X168633606Y-95806818D01*
X168599500Y-95934105D01*
X168599500Y-95934108D01*
X168599500Y-96065892D01*
X168633608Y-96193186D01*
X168633609Y-96193187D01*
X168638613Y-96201855D01*
X168646004Y-96258008D01*
X168611525Y-96302941D01*
X168593679Y-96310332D01*
X168506818Y-96333606D01*
X168506809Y-96333610D01*
X168486500Y-96345336D01*
X168430347Y-96352728D01*
X168385414Y-96318250D01*
X168375500Y-96281250D01*
X168375500Y-95016003D01*
X168397174Y-94963677D01*
X168416406Y-94949815D01*
X168710712Y-94802662D01*
X169012130Y-94651952D01*
X169016883Y-94649783D01*
X169056058Y-94633557D01*
X169056059Y-94633556D01*
X169062117Y-94629508D01*
X169062145Y-94629550D01*
X169066494Y-94626415D01*
X169066464Y-94626376D01*
X169072220Y-94621908D01*
X169072220Y-94621907D01*
X169072222Y-94621907D01*
X169100011Y-94589864D01*
X169103576Y-94586038D01*
X169133556Y-94556059D01*
X169137606Y-94549998D01*
X169137647Y-94550025D01*
X169140467Y-94545462D01*
X169140424Y-94545438D01*
X169144032Y-94539109D01*
X169157441Y-94498879D01*
X169159272Y-94493976D01*
X169166376Y-94476826D01*
X169175500Y-94454800D01*
X169175500Y-94454795D01*
X169176922Y-94447652D01*
X169176969Y-94447661D01*
X169177828Y-94442368D01*
X169177780Y-94442362D01*
X169178691Y-94435135D01*
X169175686Y-94392846D01*
X169175500Y-94387600D01*
X169175500Y-93212398D01*
X169175686Y-93207153D01*
X169178691Y-93164867D01*
X169178689Y-93164862D01*
X169177779Y-93157635D01*
X169177827Y-93157628D01*
X169176969Y-93152339D01*
X169176922Y-93152349D01*
X169175500Y-93145204D01*
X169175500Y-93145200D01*
X169166265Y-93122905D01*
X169159275Y-93106029D01*
X169157440Y-93101112D01*
X169144033Y-93060893D01*
X169140424Y-93054562D01*
X169140465Y-93054538D01*
X169137645Y-93049974D01*
X169137605Y-93050001D01*
X169133556Y-93043941D01*
X169103581Y-93013966D01*
X169100004Y-93010125D01*
X169072223Y-92978094D01*
X169066463Y-92973623D01*
X169066492Y-92973585D01*
X169062147Y-92970453D01*
X169062120Y-92970494D01*
X169056059Y-92966444D01*
X169056058Y-92966443D01*
X169016900Y-92950222D01*
X169012127Y-92948044D01*
X168416406Y-92650184D01*
X168379297Y-92607397D01*
X168375500Y-92583996D01*
X168375500Y-86024835D01*
X168376244Y-86014370D01*
X168393627Y-85892686D01*
X168408241Y-85790387D01*
X168437097Y-85741653D01*
X168444492Y-85736769D01*
X168507314Y-85700500D01*
X168600500Y-85607314D01*
X168666392Y-85493186D01*
X168700499Y-85365894D01*
X168700500Y-85365894D01*
X168700500Y-85234106D01*
X168700499Y-85234105D01*
X168666393Y-85106818D01*
X168666392Y-85106814D01*
X168600500Y-84992686D01*
X168507314Y-84899500D01*
X168393190Y-84833610D01*
X168393181Y-84833606D01*
X168265894Y-84799500D01*
X168265892Y-84799500D01*
X168134108Y-84799500D01*
X168134106Y-84799500D01*
X168006818Y-84833606D01*
X168006809Y-84833610D01*
X167892685Y-84899500D01*
X167799500Y-84992685D01*
X167733610Y-85106809D01*
X167733606Y-85106818D01*
X167710273Y-85193900D01*
X167675795Y-85238833D01*
X167619642Y-85246225D01*
X167574709Y-85211747D01*
X167569507Y-85200730D01*
X167566946Y-85193900D01*
X167524011Y-85079407D01*
X167525932Y-85022805D01*
X167533450Y-85009905D01*
X168118128Y-84205974D01*
X168166433Y-84176406D01*
X168177974Y-84175500D01*
X174554798Y-84175500D01*
X174554800Y-84175500D01*
X174656058Y-84133557D01*
X174733557Y-84056058D01*
X174775500Y-83954800D01*
X174775500Y-83349500D01*
X174797174Y-83297174D01*
X174849500Y-83275500D01*
X175538595Y-83275500D01*
X175590921Y-83297174D01*
X175597298Y-83304445D01*
X175599496Y-83307309D01*
X175599498Y-83307311D01*
X175599500Y-83307314D01*
X175692686Y-83400500D01*
X175806814Y-83466392D01*
X175934105Y-83500499D01*
X175934106Y-83500500D01*
X175934108Y-83500500D01*
X176065894Y-83500500D01*
X176065894Y-83500499D01*
X176193186Y-83466392D01*
X176307314Y-83400500D01*
X176400500Y-83307314D01*
X176466392Y-83193186D01*
X176500499Y-83065894D01*
X176500500Y-83065894D01*
X176500500Y-82934106D01*
X176500499Y-82934105D01*
X176491494Y-82900499D01*
X176466392Y-82806814D01*
X176400500Y-82692686D01*
X176307314Y-82599500D01*
X176249107Y-82565894D01*
X176193190Y-82533610D01*
X176193181Y-82533606D01*
X176065894Y-82499500D01*
X176065892Y-82499500D01*
X175934108Y-82499500D01*
X175934106Y-82499500D01*
X175806818Y-82533606D01*
X175806809Y-82533610D01*
X175692685Y-82599500D01*
X175599496Y-82692690D01*
X175597298Y-82695555D01*
X175548245Y-82723868D01*
X175538595Y-82724500D01*
X174554440Y-82724500D01*
X174502114Y-82702826D01*
X174480440Y-82650500D01*
X174482960Y-82631351D01*
X174500500Y-82565892D01*
X174500500Y-82434108D01*
X174500500Y-82434106D01*
X174500499Y-82434105D01*
X174491494Y-82400499D01*
X174466392Y-82306814D01*
X174400500Y-82192686D01*
X174307314Y-82099500D01*
X174249107Y-82065894D01*
X174193190Y-82033610D01*
X174193181Y-82033606D01*
X174065894Y-81999500D01*
X174065892Y-81999500D01*
X173934108Y-81999500D01*
X173934106Y-81999500D01*
X173806818Y-82033606D01*
X173806809Y-82033610D01*
X173692685Y-82099500D01*
X173599496Y-82192690D01*
X173597298Y-82195555D01*
X173548245Y-82223868D01*
X173538595Y-82224500D01*
X173489882Y-82224500D01*
X173437556Y-82202826D01*
X173415882Y-82150500D01*
X173425796Y-82113500D01*
X173453281Y-82065894D01*
X173466392Y-82043186D01*
X173500499Y-81915894D01*
X173500500Y-81915894D01*
X173500500Y-81784106D01*
X173500499Y-81784105D01*
X173491494Y-81750499D01*
X173466392Y-81656814D01*
X173454664Y-81636500D01*
X173447272Y-81580347D01*
X173481750Y-81535414D01*
X173518750Y-81525500D01*
X174538595Y-81525500D01*
X174590921Y-81547174D01*
X174597298Y-81554445D01*
X174599496Y-81557309D01*
X174599498Y-81557311D01*
X174599500Y-81557314D01*
X174692686Y-81650500D01*
X174806814Y-81716392D01*
X174934105Y-81750499D01*
X174934106Y-81750500D01*
X174934108Y-81750500D01*
X175065894Y-81750500D01*
X175065894Y-81750499D01*
X175193186Y-81716392D01*
X175307314Y-81650500D01*
X175400500Y-81557314D01*
X175466392Y-81443186D01*
X175500499Y-81315894D01*
X175500500Y-81315894D01*
X175500500Y-81184106D01*
X175500499Y-81184105D01*
X175494746Y-81162636D01*
X175466392Y-81056814D01*
X175454664Y-81036500D01*
X175447272Y-80980347D01*
X175481750Y-80935414D01*
X175518750Y-80925500D01*
X176538595Y-80925500D01*
X176590921Y-80947174D01*
X176597298Y-80954445D01*
X176599496Y-80957309D01*
X176599498Y-80957311D01*
X176599500Y-80957314D01*
X176692686Y-81050500D01*
X176806814Y-81116392D01*
X176934105Y-81150499D01*
X176934106Y-81150500D01*
X176934108Y-81150500D01*
X177065894Y-81150500D01*
X177065894Y-81150499D01*
X177193186Y-81116392D01*
X177307314Y-81050500D01*
X177400500Y-80957314D01*
X177466392Y-80843186D01*
X177500499Y-80715894D01*
X177500500Y-80715894D01*
X177500500Y-80584106D01*
X177500499Y-80584105D01*
X177466393Y-80456818D01*
X177466392Y-80456814D01*
X177440230Y-80411500D01*
X177432837Y-80355347D01*
X177467316Y-80310414D01*
X177504316Y-80300500D01*
X178125500Y-80300500D01*
X178177826Y-80322174D01*
G37*
%TD.AperFunction*%
%TA.AperFunction,Conductor*%
G36*
X166101826Y-89109640D02*
G01*
X166192687Y-89200501D01*
X166195544Y-89202693D01*
X166223866Y-89251740D01*
X166224500Y-89261404D01*
X166224500Y-96779988D01*
X166224016Y-96788436D01*
X166220045Y-96822992D01*
X166220045Y-96822995D01*
X166221653Y-96828622D01*
X166224500Y-96848951D01*
X166224500Y-96854801D01*
X166237810Y-96886934D01*
X166240596Y-96894923D01*
X166308389Y-97132200D01*
X166301924Y-97188467D01*
X166301322Y-97189529D01*
X166233610Y-97306809D01*
X166233606Y-97306818D01*
X166199500Y-97434105D01*
X166199500Y-97565894D01*
X166233606Y-97693181D01*
X166233610Y-97693190D01*
X166247004Y-97716389D01*
X166299500Y-97807314D01*
X166392686Y-97900500D01*
X166506814Y-97966392D01*
X166634105Y-98000499D01*
X166634106Y-98000500D01*
X166634108Y-98000500D01*
X166765894Y-98000500D01*
X166765894Y-98000499D01*
X166893186Y-97966392D01*
X167007314Y-97900500D01*
X167007314Y-97900499D01*
X167011514Y-97898075D01*
X167012628Y-97900006D01*
X167060157Y-97887270D01*
X167109207Y-97915587D01*
X167124500Y-97960637D01*
X167124500Y-102334796D01*
X167102826Y-102387122D01*
X167050500Y-102408796D01*
X166998174Y-102387122D01*
X166979022Y-102353949D01*
X166966393Y-102306818D01*
X166966392Y-102306814D01*
X166900500Y-102192686D01*
X166807314Y-102099500D01*
X166707126Y-102041656D01*
X166693190Y-102033610D01*
X166693181Y-102033606D01*
X166565894Y-101999500D01*
X166565892Y-101999500D01*
X166434108Y-101999500D01*
X166392428Y-102010668D01*
X166336276Y-102003275D01*
X166301797Y-101958341D01*
X166309190Y-101902189D01*
X166320946Y-101886867D01*
X166400500Y-101807314D01*
X166466392Y-101693186D01*
X166500499Y-101565894D01*
X166500500Y-101565894D01*
X166500500Y-101434106D01*
X166500499Y-101434105D01*
X166466393Y-101306818D01*
X166466392Y-101306814D01*
X166400500Y-101192686D01*
X166307314Y-101099500D01*
X166193190Y-101033610D01*
X166193181Y-101033606D01*
X166065894Y-100999500D01*
X166065892Y-100999500D01*
X165934108Y-100999500D01*
X165934106Y-100999500D01*
X165806818Y-101033606D01*
X165806809Y-101033610D01*
X165692685Y-101099500D01*
X165599500Y-101192685D01*
X165533610Y-101306809D01*
X165533606Y-101306818D01*
X165499500Y-101434105D01*
X165499500Y-101565894D01*
X165533606Y-101693181D01*
X165533610Y-101693190D01*
X165576126Y-101766830D01*
X165599500Y-101807314D01*
X165692686Y-101900500D01*
X165806814Y-101966392D01*
X165934105Y-102000499D01*
X165934106Y-102000500D01*
X165934108Y-102000500D01*
X166065893Y-102000500D01*
X166079988Y-101996723D01*
X166107570Y-101989332D01*
X166163722Y-101996723D01*
X166198201Y-102041656D01*
X166190810Y-102097809D01*
X166179049Y-102113136D01*
X166099500Y-102192685D01*
X166033610Y-102306809D01*
X166033606Y-102306818D01*
X165999500Y-102434105D01*
X165999500Y-102565894D01*
X166033606Y-102693181D01*
X166033607Y-102693184D01*
X166033608Y-102693186D01*
X166099500Y-102807314D01*
X166192686Y-102900500D01*
X166306814Y-102966392D01*
X166434105Y-103000499D01*
X166434106Y-103000500D01*
X166434108Y-103000500D01*
X166565894Y-103000500D01*
X166565894Y-103000499D01*
X166693186Y-102966392D01*
X166807314Y-102900500D01*
X166900500Y-102807314D01*
X166966392Y-102693186D01*
X166979022Y-102646049D01*
X167013500Y-102601117D01*
X167069652Y-102593724D01*
X167114586Y-102628203D01*
X167124500Y-102665203D01*
X167124500Y-104440601D01*
X167120346Y-104465047D01*
X165749829Y-108380810D01*
X165744671Y-108392302D01*
X163483162Y-112463016D01*
X163438803Y-112498231D01*
X163437627Y-112498556D01*
X163306818Y-112533606D01*
X163306809Y-112533610D01*
X163192685Y-112599500D01*
X163099500Y-112692685D01*
X163033610Y-112806809D01*
X163033606Y-112806818D01*
X162999500Y-112934105D01*
X162999500Y-113065894D01*
X163033606Y-113193181D01*
X163033610Y-113193190D01*
X163062478Y-113243190D01*
X163099500Y-113307314D01*
X163192686Y-113400500D01*
X163306814Y-113466392D01*
X163330633Y-113472774D01*
X163375565Y-113507251D01*
X163382959Y-113563404D01*
X163363810Y-113596574D01*
X163357563Y-113602822D01*
X163305239Y-113624500D01*
X161581250Y-113624500D01*
X161528924Y-113602826D01*
X161507250Y-113550500D01*
X161517164Y-113513500D01*
X161524669Y-113500500D01*
X161528892Y-113493186D01*
X161562999Y-113365894D01*
X161563000Y-113365894D01*
X161563000Y-113234106D01*
X161562999Y-113234105D01*
X161560425Y-113224500D01*
X161528892Y-113106814D01*
X161475051Y-113013560D01*
X161467659Y-112957409D01*
X161468949Y-112953121D01*
X162748152Y-109126636D01*
X162755577Y-109110887D01*
X165212531Y-105179760D01*
X165222953Y-105166660D01*
X165233557Y-105156058D01*
X165243413Y-105132261D01*
X165249014Y-105121389D01*
X165262668Y-105099544D01*
X165265144Y-105084750D01*
X165269763Y-105068649D01*
X165275500Y-105054800D01*
X165275500Y-105029057D01*
X165276516Y-105016836D01*
X165280767Y-104991449D01*
X165280767Y-104991448D01*
X165277394Y-104976835D01*
X165275500Y-104960196D01*
X165275500Y-101160747D01*
X165297174Y-101108421D01*
X165301333Y-101104568D01*
X165837026Y-100645402D01*
X165853060Y-100635559D01*
X165856054Y-100633558D01*
X165856058Y-100633557D01*
X165885307Y-100604306D01*
X165889477Y-100600445D01*
X165920900Y-100573512D01*
X165920901Y-100573508D01*
X165923123Y-100570681D01*
X165931547Y-100559065D01*
X165933553Y-100556061D01*
X165933557Y-100556058D01*
X165949396Y-100517815D01*
X165951767Y-100512664D01*
X165970483Y-100475774D01*
X165970483Y-100475771D01*
X165970485Y-100475769D01*
X165970485Y-100475766D01*
X165971459Y-100472290D01*
X165974798Y-100458327D01*
X165975500Y-100454800D01*
X165975500Y-100413416D01*
X165975718Y-100407740D01*
X165976275Y-100400499D01*
X165978891Y-100366491D01*
X165978889Y-100366485D01*
X165978463Y-100362939D01*
X165975500Y-100344329D01*
X165975500Y-89161966D01*
X165997174Y-89109640D01*
X166049500Y-89087966D01*
X166101826Y-89109640D01*
G37*
%TD.AperFunction*%
%TA.AperFunction,Conductor*%
G36*
X171126826Y-88443802D02*
G01*
X171138584Y-88459126D01*
X171189500Y-88547314D01*
X171282686Y-88640500D01*
X171396814Y-88706392D01*
X171524105Y-88740499D01*
X171524106Y-88740500D01*
X171524108Y-88740500D01*
X171655892Y-88740500D01*
X171659470Y-88740029D01*
X171714178Y-88754688D01*
X171721455Y-88761070D01*
X172022826Y-89062441D01*
X172044500Y-89114767D01*
X172044500Y-105505231D01*
X172022826Y-105557557D01*
X171126826Y-106453557D01*
X171074500Y-106475231D01*
X171022174Y-106453557D01*
X171000500Y-106401231D01*
X171000500Y-88496128D01*
X171022174Y-88443802D01*
X171074500Y-88422128D01*
X171126826Y-88443802D01*
G37*
%TD.AperFunction*%
%TA.AperFunction,Conductor*%
G36*
X170833576Y-81547174D02*
G01*
X170855250Y-81599500D01*
X170845336Y-81636500D01*
X170833610Y-81656809D01*
X170833606Y-81656818D01*
X170799500Y-81784105D01*
X170799500Y-81915894D01*
X170810032Y-81955200D01*
X170802640Y-82011353D01*
X170757707Y-82045831D01*
X170701555Y-82038439D01*
X170693193Y-82033611D01*
X170693181Y-82033606D01*
X170565894Y-81999500D01*
X170565892Y-81999500D01*
X170434108Y-81999500D01*
X170434106Y-81999500D01*
X170306818Y-82033606D01*
X170306809Y-82033610D01*
X170192685Y-82099500D01*
X170099500Y-82192685D01*
X170033610Y-82306809D01*
X170033606Y-82306818D01*
X169999500Y-82434105D01*
X169999500Y-82565894D01*
X170033606Y-82693181D01*
X170033610Y-82693190D01*
X170056946Y-82733608D01*
X170099500Y-82807314D01*
X170192686Y-82900500D01*
X170306814Y-82966392D01*
X170434105Y-83000499D01*
X170434106Y-83000500D01*
X170434108Y-83000500D01*
X170565894Y-83000500D01*
X170565894Y-83000499D01*
X170693186Y-82966392D01*
X170807314Y-82900500D01*
X170900500Y-82807314D01*
X170900503Y-82807309D01*
X170902702Y-82804445D01*
X170951755Y-82776132D01*
X170961405Y-82775500D01*
X173538595Y-82775500D01*
X173590921Y-82797174D01*
X173597298Y-82804445D01*
X173599496Y-82807309D01*
X173599498Y-82807311D01*
X173599500Y-82807314D01*
X173692686Y-82900500D01*
X173806814Y-82966392D01*
X173934105Y-83000499D01*
X173934106Y-83000500D01*
X173934108Y-83000500D01*
X174065891Y-83000500D01*
X174065892Y-83000500D01*
X174131348Y-82982961D01*
X174187500Y-82990354D01*
X174221979Y-83035287D01*
X174224500Y-83054440D01*
X174224500Y-83550500D01*
X174202826Y-83602826D01*
X174150500Y-83624500D01*
X168660637Y-83624500D01*
X168608311Y-83602826D01*
X168586637Y-83550500D01*
X168599577Y-83512381D01*
X168598075Y-83511514D01*
X168604434Y-83500500D01*
X168666392Y-83393186D01*
X168700499Y-83265894D01*
X168700500Y-83265894D01*
X168700500Y-83134106D01*
X168700499Y-83134105D01*
X168666393Y-83006818D01*
X168666392Y-83006814D01*
X168600500Y-82892686D01*
X168600499Y-82892685D01*
X168600498Y-82892683D01*
X168597547Y-82888837D01*
X168598646Y-82887993D01*
X168578980Y-82840514D01*
X168581297Y-82822142D01*
X168899510Y-81581119D01*
X168933501Y-81535817D01*
X168971191Y-81525500D01*
X170781250Y-81525500D01*
X170833576Y-81547174D01*
G37*
%TD.AperFunction*%
%TD*%
M02*
