%TF.GenerationSoftware,KiCad,Pcbnew,10.0.5*%
%TF.CreationDate,2026-08-23T11:17:48+08:00*%
%TF.ProjectId,receiver-effects,72656365-6976-4657-922d-656666656374,rev?*%
%TF.SameCoordinates,Original*%
%TF.FileFunction,Copper,L3,Inr*%
%TF.FilePolarity,Positive*%
%FSLAX46Y46*%
G04 Gerber Fmt 4.6, Leading zero omitted, Abs format (unit mm)*
G04 Created by KiCad (PCBNEW 10.0.5) date 2026-08-23 11:17:48*
%MOMM*%
%LPD*%
G01*
G04 APERTURE LIST*
%TA.AperFunction,ComponentPad*%
%ADD10O,2.100000X1.000000*%
%TD*%
%TA.AperFunction,ComponentPad*%
%ADD11O,1.800000X1.000000*%
%TD*%
%TA.AperFunction,ViaPad*%
%ADD12C,0.600000*%
%TD*%
%TA.AperFunction,ViaPad*%
%ADD13C,0.700000*%
%TD*%
G04 APERTURE END LIST*
D10*
%TO.N,USB_SHIELD*%
%TO.C,J1*%
X125280000Y-103680000D03*
D11*
X121100000Y-103680000D03*
D10*
X125280000Y-112320000D03*
D11*
X121100000Y-112320000D03*
%TD*%
D12*
%TO.N,3V3*%
X147875000Y-87000000D03*
X174900000Y-104100000D03*
X166500000Y-102500000D03*
D13*
X168100000Y-93800000D03*
D12*
X144500000Y-117600000D03*
X130500000Y-100000000D03*
X151500000Y-88450000D03*
X166000000Y-101500000D03*
D13*
X143700000Y-104000000D03*
D12*
X153490000Y-91500000D03*
X140060000Y-117600000D03*
%TO.N,AUDIO_GAIN_SLOT*%
X158200000Y-114700000D03*
X159900000Y-115750000D03*
%TO.N,AUDIO_SD_CTRL*%
X166700000Y-97500000D03*
X166500000Y-88800000D03*
%TO.N,GND*%
X158500000Y-104000000D03*
X133500000Y-120000000D03*
X147900000Y-87800000D03*
X169200000Y-90400000D03*
X127000000Y-104000000D03*
X171700000Y-99000000D03*
X138000000Y-118000000D03*
X140000000Y-113500000D03*
X139500000Y-112500000D03*
X130500000Y-110500000D03*
X160500000Y-118000000D03*
X158500000Y-125000000D03*
X162500000Y-113000000D03*
X133500000Y-104000000D03*
X130500000Y-105500000D03*
X148500000Y-104000000D03*
X164500000Y-114200000D03*
X171300000Y-83200000D03*
X148500000Y-120000000D03*
X147500000Y-118000000D03*
X176250000Y-85375000D03*
%TO.N,I2S_BCLK*%
X168100000Y-103500000D03*
X168200000Y-85300000D03*
%TO.N,I2S_DOUT*%
X166800000Y-87800000D03*
X161062500Y-113300000D03*
%TO.N,I2S_LRCLK*%
X167400000Y-86800000D03*
X163500000Y-113000000D03*
%TO.N,PWR_GOOD_N*%
X171590000Y-88240000D03*
X158430000Y-113050000D03*
%TO.N,RESET_N*%
X141500000Y-129400000D03*
X177380000Y-91300000D03*
%TO.N,RGB_B_N*%
X169500000Y-106500000D03*
X169500000Y-95200000D03*
%TO.N,RGB_G_N*%
X169100000Y-96000000D03*
X169100000Y-105500000D03*
%TO.N,RGB_R_N*%
X168700000Y-96800000D03*
X168700000Y-104500000D03*
%TO.N,SWDCLK*%
X138500000Y-128000000D03*
X173000000Y-99500000D03*
%TO.N,SWDIO*%
X135500000Y-128800000D03*
X175800000Y-99500000D03*
%TO.N,TFT_BL_3V3*%
X152500000Y-84000000D03*
X139125000Y-84000000D03*
%TO.N,TFT_BL_GATE_CTRL*%
X151500000Y-80650000D03*
X177000000Y-80650000D03*
%TO.N,TFT_CS_N*%
X173000000Y-81850000D03*
X171300000Y-81850000D03*
%TO.N,TFT_DC*%
X141625000Y-86500000D03*
X167500000Y-85800000D03*
X150000000Y-98000000D03*
X176000000Y-83000000D03*
%TO.N,TFT_MOSI*%
X174000000Y-82500000D03*
X145375000Y-86200000D03*
X152500000Y-96400000D03*
X170500000Y-82500000D03*
%TO.N,TFT_RESET_N*%
X175000000Y-81250000D03*
X142300000Y-97200000D03*
X168200000Y-83200000D03*
X152000000Y-97200000D03*
%TO.N,USB_DM_PROT*%
X166500000Y-84800000D03*
X134100000Y-108950000D03*
%TO.N,USB_DM_RAW*%
X128100000Y-108900000D03*
X124300000Y-108250000D03*
%TO.N,USB_DP_PROT*%
X167500000Y-82000000D03*
X134100000Y-107050000D03*
%TO.N,USB_DP_RAW*%
X127200000Y-108750000D03*
X127800000Y-107450000D03*
D13*
%TO.N,USB_VBUS_5V*%
X170400000Y-106500000D03*
X159000000Y-120500000D03*
D12*
X162900000Y-118250000D03*
D13*
X160500000Y-122500000D03*
D12*
X163700000Y-118250000D03*
X170400000Y-85800000D03*
D13*
X132700000Y-108000000D03*
X164300000Y-124000000D03*
X128000000Y-123000000D03*
X135900000Y-118000000D03*
X135500000Y-112500000D03*
D12*
%TO.N,USB_VBUS_RAW*%
X126800000Y-110400000D03*
X130300000Y-116000000D03*
X126800000Y-105600000D03*
X127600000Y-115500000D03*
%TD*%
%TA.AperFunction,Conductor*%
%TO.N,3V3*%
G36*
X151009275Y-80306129D02*
G01*
X151019687Y-80310442D01*
X151059736Y-80350484D01*
X151060082Y-80351318D01*
X151063181Y-80398768D01*
X151062289Y-80402096D01*
X151054898Y-80419938D01*
X151033610Y-80456809D01*
X151033608Y-80456814D01*
X151033606Y-80456818D01*
X150999500Y-80584105D01*
X150999500Y-80715894D01*
X151033606Y-80843181D01*
X151033607Y-80843184D01*
X151033608Y-80843186D01*
X151099500Y-80957314D01*
X151192686Y-81050500D01*
X151306814Y-81116392D01*
X151429424Y-81149244D01*
X151433122Y-81150500D01*
X151565894Y-81150500D01*
X151575508Y-81150500D01*
X151583364Y-81145839D01*
X151584186Y-81145597D01*
X151693186Y-81116392D01*
X151694775Y-81115474D01*
X151695298Y-81115173D01*
X151695299Y-81115172D01*
X151807314Y-81050500D01*
X151900500Y-80957314D01*
X151966392Y-80843186D01*
X151995367Y-80735045D01*
X152000500Y-80726156D01*
X152000500Y-80583121D01*
X151999244Y-80579424D01*
X151966542Y-80457377D01*
X151966405Y-80456847D01*
X151966393Y-80456816D01*
X151947589Y-80424247D01*
X151938308Y-80396903D01*
X151936838Y-80385734D01*
X151951449Y-80331092D01*
X151951497Y-80331028D01*
X151951977Y-80330403D01*
X151991593Y-80303909D01*
X151994921Y-80303018D01*
X152014059Y-80300500D01*
X176480965Y-80300500D01*
X176509275Y-80306129D01*
X176519687Y-80310442D01*
X176559736Y-80350484D01*
X176560082Y-80351318D01*
X176563181Y-80398768D01*
X176562289Y-80402096D01*
X176554898Y-80419938D01*
X176533610Y-80456809D01*
X176533608Y-80456814D01*
X176533606Y-80456818D01*
X176499500Y-80584105D01*
X176499500Y-80715894D01*
X176533606Y-80843181D01*
X176533607Y-80843184D01*
X176533608Y-80843186D01*
X176599500Y-80957314D01*
X176692686Y-81050500D01*
X176806814Y-81116392D01*
X176929424Y-81149244D01*
X176933122Y-81150500D01*
X177065894Y-81150500D01*
X177076157Y-81150500D01*
X177085045Y-81145367D01*
X177193186Y-81116392D01*
X177307314Y-81050500D01*
X177400500Y-80957314D01*
X177466392Y-80843186D01*
X177495367Y-80735045D01*
X177500500Y-80726156D01*
X177500500Y-80583121D01*
X177499244Y-80579424D01*
X177466542Y-80457377D01*
X177466405Y-80456847D01*
X177466393Y-80456816D01*
X177447589Y-80424247D01*
X177438308Y-80396903D01*
X177436838Y-80385734D01*
X177451449Y-80331092D01*
X177451497Y-80331028D01*
X177451977Y-80330403D01*
X177491593Y-80303909D01*
X177494921Y-80303018D01*
X177514059Y-80300500D01*
X178110781Y-80300500D01*
X178139091Y-80306129D01*
X178149503Y-80310442D01*
X178189552Y-80350484D01*
X178189898Y-80351318D01*
X178193867Y-80360900D01*
X178199500Y-80389218D01*
X178199500Y-104661281D01*
X178193867Y-104689599D01*
X178189556Y-104700007D01*
X178149508Y-104740055D01*
X178149507Y-104740056D01*
X178139099Y-104744367D01*
X178110781Y-104750000D01*
X169262326Y-104750000D01*
X169234011Y-104744368D01*
X169223602Y-104740057D01*
X169183553Y-104700013D01*
X169181628Y-104695366D01*
X169178523Y-104647912D01*
X169185918Y-104620311D01*
X169195367Y-104585047D01*
X169200500Y-104576157D01*
X169200500Y-104433121D01*
X169199241Y-104429412D01*
X169191494Y-104400500D01*
X169191494Y-104400499D01*
X169186135Y-104380500D01*
X169166392Y-104306814D01*
X169100500Y-104192686D01*
X169007314Y-104099500D01*
X169007311Y-104099498D01*
X169007310Y-104099497D01*
X168949107Y-104065894D01*
X168893190Y-104033610D01*
X168893183Y-104033607D01*
X168893184Y-104033607D01*
X168893182Y-104033606D01*
X168893181Y-104033606D01*
X168765894Y-103999500D01*
X168765893Y-103999500D01*
X168634107Y-103999500D01*
X168634106Y-103999500D01*
X168588175Y-104011807D01*
X168506814Y-104033607D01*
X168506796Y-104033616D01*
X168392688Y-104099497D01*
X168299497Y-104192688D01*
X168233616Y-104306796D01*
X168233608Y-104306814D01*
X168233606Y-104306818D01*
X168200758Y-104429412D01*
X168199500Y-104434106D01*
X168199500Y-104565896D01*
X168220061Y-104642628D01*
X168221950Y-104671442D01*
X168220479Y-104682613D01*
X168192162Y-104731658D01*
X168189165Y-104733959D01*
X168188190Y-104734707D01*
X168143140Y-104750000D01*
X125208541Y-104750000D01*
X125180223Y-104744367D01*
X125155094Y-104733958D01*
X125131088Y-104717918D01*
X125102665Y-104689495D01*
X125030641Y-104647912D01*
X124982836Y-104620312D01*
X124982831Y-104620310D01*
X124849185Y-104584500D01*
X124849184Y-104584500D01*
X124710816Y-104584500D01*
X124710815Y-104584500D01*
X124577168Y-104620310D01*
X124577166Y-104620310D01*
X124577165Y-104620311D01*
X124457334Y-104689494D01*
X124428911Y-104717918D01*
X124404905Y-104733958D01*
X124379775Y-104744367D01*
X124351459Y-104750000D01*
X118889219Y-104750000D01*
X118860904Y-104744368D01*
X118850495Y-104740057D01*
X118810446Y-104700013D01*
X118806129Y-104689591D01*
X118800500Y-104661281D01*
X118800500Y-103611008D01*
X119999500Y-103611008D01*
X119999500Y-103748991D01*
X120006183Y-103782591D01*
X120026417Y-103884320D01*
X120026420Y-103884331D01*
X120026422Y-103884336D01*
X120079222Y-104011807D01*
X120140062Y-104102861D01*
X120155880Y-104126534D01*
X120155886Y-104126542D01*
X120253458Y-104224114D01*
X120368189Y-104300775D01*
X120368190Y-104300775D01*
X120368191Y-104300776D01*
X120368194Y-104300777D01*
X120368800Y-104301182D01*
X120371540Y-104302163D01*
X120495667Y-104353578D01*
X120495672Y-104353580D01*
X120631007Y-104380500D01*
X120631009Y-104380500D01*
X121568991Y-104380500D01*
X121568993Y-104380500D01*
X121704328Y-104353580D01*
X121831811Y-104300775D01*
X121946542Y-104224114D01*
X122044114Y-104126542D01*
X122120775Y-104011811D01*
X122173580Y-103884328D01*
X122200500Y-103748993D01*
X122200500Y-103611008D01*
X124029500Y-103611008D01*
X124029500Y-103748991D01*
X124036183Y-103782591D01*
X124056417Y-103884320D01*
X124056420Y-103884331D01*
X124056422Y-103884336D01*
X124109222Y-104011807D01*
X124170062Y-104102861D01*
X124185880Y-104126534D01*
X124185886Y-104126542D01*
X124283458Y-104224114D01*
X124398189Y-104300775D01*
X124398190Y-104300775D01*
X124398191Y-104300776D01*
X124398194Y-104300777D01*
X124398800Y-104301182D01*
X124401540Y-104302163D01*
X124525667Y-104353578D01*
X124525672Y-104353580D01*
X124661007Y-104380500D01*
X124661009Y-104380500D01*
X125898991Y-104380500D01*
X125898993Y-104380500D01*
X126034328Y-104353580D01*
X126161811Y-104300775D01*
X126276542Y-104224114D01*
X126374114Y-104126542D01*
X126376294Y-104123278D01*
X126396709Y-104102862D01*
X126404227Y-104097838D01*
X126459776Y-104086790D01*
X126505489Y-104116264D01*
X126509636Y-104122051D01*
X126520964Y-104146002D01*
X126533599Y-104193158D01*
X126533604Y-104193174D01*
X126533606Y-104193181D01*
X126533607Y-104193184D01*
X126533608Y-104193186D01*
X126599500Y-104307314D01*
X126692686Y-104400500D01*
X126806814Y-104466392D01*
X126929424Y-104499244D01*
X126933122Y-104500500D01*
X127065894Y-104500500D01*
X127076157Y-104500500D01*
X127085045Y-104495367D01*
X127193186Y-104466392D01*
X127307314Y-104400500D01*
X127400500Y-104307314D01*
X127466392Y-104193186D01*
X127495367Y-104085045D01*
X127500500Y-104076156D01*
X127500500Y-103936546D01*
X127500500Y-103934106D01*
X127500499Y-103934105D01*
X132999500Y-103934105D01*
X132999500Y-104065894D01*
X133033606Y-104193181D01*
X133033607Y-104193184D01*
X133033608Y-104193186D01*
X133099500Y-104307314D01*
X133192686Y-104400500D01*
X133306814Y-104466392D01*
X133429424Y-104499244D01*
X133433122Y-104500500D01*
X133565894Y-104500500D01*
X133576157Y-104500500D01*
X133585045Y-104495367D01*
X133693186Y-104466392D01*
X133807314Y-104400500D01*
X133900500Y-104307314D01*
X133966392Y-104193186D01*
X133995367Y-104085045D01*
X134000500Y-104076156D01*
X134000500Y-103936546D01*
X134000500Y-103934106D01*
X134000499Y-103934105D01*
X147999500Y-103934105D01*
X147999500Y-104065894D01*
X148033606Y-104193181D01*
X148033607Y-104193184D01*
X148033608Y-104193186D01*
X148099500Y-104307314D01*
X148192686Y-104400500D01*
X148306814Y-104466392D01*
X148429424Y-104499244D01*
X148433122Y-104500500D01*
X148565894Y-104500500D01*
X148576157Y-104500500D01*
X148585045Y-104495367D01*
X148693186Y-104466392D01*
X148807314Y-104400500D01*
X148900500Y-104307314D01*
X148966392Y-104193186D01*
X148995367Y-104085045D01*
X149000500Y-104076156D01*
X149000500Y-103936546D01*
X149000500Y-103934106D01*
X149000499Y-103934105D01*
X157999500Y-103934105D01*
X157999500Y-104065894D01*
X158033606Y-104193181D01*
X158033607Y-104193184D01*
X158033608Y-104193186D01*
X158099500Y-104307314D01*
X158192686Y-104400500D01*
X158306814Y-104466392D01*
X158429424Y-104499244D01*
X158433122Y-104500500D01*
X158565894Y-104500500D01*
X158576157Y-104500500D01*
X158585045Y-104495367D01*
X158693186Y-104466392D01*
X158807314Y-104400500D01*
X158900500Y-104307314D01*
X158966392Y-104193186D01*
X158995367Y-104085045D01*
X159000500Y-104076156D01*
X159000500Y-103933121D01*
X158999241Y-103929412D01*
X158998614Y-103927073D01*
X158991494Y-103900499D01*
X158966392Y-103806814D01*
X158900500Y-103692686D01*
X158807314Y-103599500D01*
X158807311Y-103599498D01*
X158807310Y-103599497D01*
X158749107Y-103565894D01*
X158693190Y-103533610D01*
X158693181Y-103533606D01*
X158693180Y-103533605D01*
X158693179Y-103533605D01*
X158570508Y-103500735D01*
X158570503Y-103500735D01*
X158565894Y-103499500D01*
X158565893Y-103499500D01*
X158434107Y-103499500D01*
X158434106Y-103499500D01*
X158333707Y-103526401D01*
X158306814Y-103533607D01*
X158306796Y-103533616D01*
X158192688Y-103599497D01*
X158099497Y-103692688D01*
X158033616Y-103806796D01*
X158033608Y-103806814D01*
X158033606Y-103806818D01*
X157999500Y-103934105D01*
X149000499Y-103934105D01*
X148991494Y-103900499D01*
X148966392Y-103806814D01*
X148900500Y-103692686D01*
X148807314Y-103599500D01*
X148807311Y-103599498D01*
X148807310Y-103599497D01*
X148749107Y-103565894D01*
X148693190Y-103533610D01*
X148693183Y-103533607D01*
X148693184Y-103533607D01*
X148693182Y-103533606D01*
X148693181Y-103533606D01*
X148565894Y-103499500D01*
X148565893Y-103499500D01*
X148434107Y-103499500D01*
X148434106Y-103499500D01*
X148333707Y-103526401D01*
X148306814Y-103533607D01*
X148306796Y-103533616D01*
X148192688Y-103599497D01*
X148099497Y-103692688D01*
X148033616Y-103806796D01*
X148033608Y-103806814D01*
X148033606Y-103806818D01*
X147999500Y-103934105D01*
X134000499Y-103934105D01*
X133991494Y-103900499D01*
X133966392Y-103806814D01*
X133900500Y-103692686D01*
X133807314Y-103599500D01*
X133807311Y-103599498D01*
X133807310Y-103599497D01*
X133749107Y-103565894D01*
X133693190Y-103533610D01*
X133693183Y-103533607D01*
X133693184Y-103533607D01*
X133693182Y-103533606D01*
X133693181Y-103533606D01*
X133565894Y-103499500D01*
X133565893Y-103499500D01*
X133434107Y-103499500D01*
X133434106Y-103499500D01*
X133333707Y-103526401D01*
X133306814Y-103533607D01*
X133306796Y-103533616D01*
X133192688Y-103599497D01*
X133099497Y-103692688D01*
X133033616Y-103806796D01*
X133033608Y-103806814D01*
X133033606Y-103806818D01*
X132999500Y-103934105D01*
X127500499Y-103934105D01*
X127491494Y-103900499D01*
X127466392Y-103806814D01*
X127400500Y-103692686D01*
X127307314Y-103599500D01*
X127307311Y-103599498D01*
X127307310Y-103599497D01*
X127249107Y-103565894D01*
X127193190Y-103533610D01*
X127193183Y-103533607D01*
X127193184Y-103533607D01*
X127193182Y-103533606D01*
X127193181Y-103533606D01*
X127065894Y-103499500D01*
X127065893Y-103499500D01*
X126934107Y-103499500D01*
X126934106Y-103499500D01*
X126833707Y-103526401D01*
X126806814Y-103533607D01*
X126806796Y-103533616D01*
X126692687Y-103599497D01*
X126663799Y-103628385D01*
X126639791Y-103644425D01*
X126629672Y-103648616D01*
X126573035Y-103648614D01*
X126536092Y-103615128D01*
X126533659Y-103610576D01*
X126526348Y-103590137D01*
X126521525Y-103565891D01*
X126503580Y-103475672D01*
X126486363Y-103434106D01*
X126486363Y-103434105D01*
X167599500Y-103434105D01*
X167599500Y-103565894D01*
X167633606Y-103693181D01*
X167633607Y-103693184D01*
X167633608Y-103693186D01*
X167699500Y-103807314D01*
X167792686Y-103900500D01*
X167906814Y-103966392D01*
X168029424Y-103999244D01*
X168033122Y-104000500D01*
X168165894Y-104000500D01*
X168176157Y-104000500D01*
X168185045Y-103995367D01*
X168293186Y-103966392D01*
X168407314Y-103900500D01*
X168500500Y-103807314D01*
X168566392Y-103693186D01*
X168595367Y-103585045D01*
X168600500Y-103576156D01*
X168600500Y-103433121D01*
X168599244Y-103429424D01*
X168566542Y-103307377D01*
X168566405Y-103306847D01*
X168566393Y-103306816D01*
X168566389Y-103306809D01*
X168500500Y-103192686D01*
X168407314Y-103099500D01*
X168407311Y-103099498D01*
X168407310Y-103099497D01*
X168337556Y-103059225D01*
X168337555Y-103059224D01*
X168293208Y-103033619D01*
X168293193Y-103033612D01*
X168293190Y-103033610D01*
X168293183Y-103033607D01*
X168293184Y-103033607D01*
X168293182Y-103033606D01*
X168293181Y-103033606D01*
X168165894Y-102999500D01*
X168165893Y-102999500D01*
X168034107Y-102999500D01*
X168034106Y-102999500D01*
X167933707Y-103026401D01*
X167906814Y-103033607D01*
X167906796Y-103033616D01*
X167792688Y-103099497D01*
X167699497Y-103192688D01*
X167633616Y-103306796D01*
X167633608Y-103306814D01*
X167633606Y-103306818D01*
X167599500Y-103434105D01*
X126486363Y-103434105D01*
X126450776Y-103348191D01*
X126423131Y-103306818D01*
X126374114Y-103233458D01*
X126276542Y-103135886D01*
X126276536Y-103135882D01*
X126162905Y-103059956D01*
X126161956Y-103059297D01*
X126161808Y-103059223D01*
X126161794Y-103059217D01*
X126034336Y-103006422D01*
X126034331Y-103006420D01*
X126034318Y-103006416D01*
X126034319Y-103006416D01*
X125943694Y-102988391D01*
X125943694Y-102988390D01*
X125898993Y-102979500D01*
X124661007Y-102979500D01*
X124622642Y-102987131D01*
X124525678Y-103006417D01*
X124525668Y-103006420D01*
X124525662Y-103006422D01*
X124398191Y-103059222D01*
X124283461Y-103135882D01*
X124283460Y-103135884D01*
X124185884Y-103233460D01*
X124185882Y-103233461D01*
X124109222Y-103348191D01*
X124056422Y-103475662D01*
X124056420Y-103475668D01*
X124056417Y-103475678D01*
X124033651Y-103590137D01*
X124029500Y-103611008D01*
X122200500Y-103611008D01*
X122200500Y-103611007D01*
X122173580Y-103475672D01*
X122156363Y-103434106D01*
X122120776Y-103348191D01*
X122093131Y-103306818D01*
X122044114Y-103233458D01*
X121946542Y-103135886D01*
X121946536Y-103135882D01*
X121832905Y-103059956D01*
X121831956Y-103059297D01*
X121831808Y-103059223D01*
X121831794Y-103059217D01*
X121704336Y-103006422D01*
X121704331Y-103006420D01*
X121704318Y-103006416D01*
X121704319Y-103006416D01*
X121613694Y-102988391D01*
X121613694Y-102988390D01*
X121568993Y-102979500D01*
X120631007Y-102979500D01*
X120592642Y-102987131D01*
X120495678Y-103006417D01*
X120495668Y-103006420D01*
X120495662Y-103006422D01*
X120368191Y-103059222D01*
X120253461Y-103135882D01*
X120253460Y-103135884D01*
X120155884Y-103233460D01*
X120155882Y-103233461D01*
X120079222Y-103348191D01*
X120026422Y-103475662D01*
X120026420Y-103475668D01*
X120026417Y-103475678D01*
X120003651Y-103590137D01*
X119999500Y-103611008D01*
X118800500Y-103611008D01*
X118800500Y-98934105D01*
X171199500Y-98934105D01*
X171199500Y-99065894D01*
X171233606Y-99193181D01*
X171233607Y-99193184D01*
X171233608Y-99193186D01*
X171299500Y-99307314D01*
X171392686Y-99400500D01*
X171506814Y-99466392D01*
X171629424Y-99499244D01*
X171633122Y-99500500D01*
X171765894Y-99500500D01*
X171776157Y-99500500D01*
X171785045Y-99495367D01*
X171893186Y-99466392D01*
X171949109Y-99434105D01*
X172499500Y-99434105D01*
X172499500Y-99565894D01*
X172533606Y-99693181D01*
X172533607Y-99693184D01*
X172533608Y-99693186D01*
X172599500Y-99807314D01*
X172692686Y-99900500D01*
X172806814Y-99966392D01*
X172929424Y-99999244D01*
X172933122Y-100000500D01*
X173065894Y-100000500D01*
X173076157Y-100000500D01*
X173085045Y-99995367D01*
X173193186Y-99966392D01*
X173307314Y-99900500D01*
X173400500Y-99807314D01*
X173466392Y-99693186D01*
X173495367Y-99585045D01*
X173500500Y-99576156D01*
X173500500Y-99436546D01*
X173500500Y-99434106D01*
X173500499Y-99434105D01*
X175299500Y-99434105D01*
X175299500Y-99565894D01*
X175333606Y-99693181D01*
X175333607Y-99693184D01*
X175333608Y-99693186D01*
X175399500Y-99807314D01*
X175492686Y-99900500D01*
X175606814Y-99966392D01*
X175729424Y-99999244D01*
X175733122Y-100000500D01*
X175865894Y-100000500D01*
X175876157Y-100000500D01*
X175885045Y-99995367D01*
X175993186Y-99966392D01*
X176107314Y-99900500D01*
X176200500Y-99807314D01*
X176266392Y-99693186D01*
X176295367Y-99585045D01*
X176300500Y-99576156D01*
X176300500Y-99433121D01*
X176299241Y-99429412D01*
X176298614Y-99427073D01*
X176291494Y-99400499D01*
X176266392Y-99306814D01*
X176200500Y-99192686D01*
X176107314Y-99099500D01*
X176107311Y-99099498D01*
X176107310Y-99099497D01*
X176049107Y-99065894D01*
X175993190Y-99033610D01*
X175993183Y-99033607D01*
X175993184Y-99033607D01*
X175993182Y-99033606D01*
X175993181Y-99033606D01*
X175865894Y-98999500D01*
X175865893Y-98999500D01*
X175734107Y-98999500D01*
X175734106Y-98999500D01*
X175633707Y-99026401D01*
X175606814Y-99033607D01*
X175606796Y-99033616D01*
X175492688Y-99099497D01*
X175399497Y-99192688D01*
X175333616Y-99306796D01*
X175333608Y-99306814D01*
X175333606Y-99306818D01*
X175299500Y-99434105D01*
X173500499Y-99434105D01*
X173491494Y-99400499D01*
X173466392Y-99306814D01*
X173400500Y-99192686D01*
X173307314Y-99099500D01*
X173307311Y-99099498D01*
X173307310Y-99099497D01*
X173249107Y-99065894D01*
X173193190Y-99033610D01*
X173193183Y-99033607D01*
X173193184Y-99033607D01*
X173193182Y-99033606D01*
X173193181Y-99033606D01*
X173065894Y-98999500D01*
X173065893Y-98999500D01*
X172934107Y-98999500D01*
X172934106Y-98999500D01*
X172833707Y-99026401D01*
X172806814Y-99033607D01*
X172806796Y-99033616D01*
X172692688Y-99099497D01*
X172599497Y-99192688D01*
X172533616Y-99306796D01*
X172533608Y-99306814D01*
X172533606Y-99306818D01*
X172499500Y-99434105D01*
X171949109Y-99434105D01*
X172007314Y-99400500D01*
X172100500Y-99307314D01*
X172166392Y-99193186D01*
X172195367Y-99085045D01*
X172200500Y-99076156D01*
X172200500Y-98933121D01*
X172199244Y-98929424D01*
X172166542Y-98807377D01*
X172166405Y-98806847D01*
X172166393Y-98806816D01*
X172166389Y-98806809D01*
X172100500Y-98692686D01*
X172007314Y-98599500D01*
X172007311Y-98599498D01*
X172007310Y-98599497D01*
X171893202Y-98533616D01*
X171893193Y-98533611D01*
X171893190Y-98533610D01*
X171893183Y-98533607D01*
X171893184Y-98533607D01*
X171893182Y-98533606D01*
X171893181Y-98533606D01*
X171765894Y-98499500D01*
X171765893Y-98499500D01*
X171634107Y-98499500D01*
X171634106Y-98499500D01*
X171533707Y-98526401D01*
X171506814Y-98533607D01*
X171506796Y-98533616D01*
X171392688Y-98599497D01*
X171299497Y-98692688D01*
X171233616Y-98806796D01*
X171233608Y-98806814D01*
X171233606Y-98806818D01*
X171199500Y-98934105D01*
X118800500Y-98934105D01*
X118800500Y-97934105D01*
X149499500Y-97934105D01*
X149499500Y-98065894D01*
X149533606Y-98193181D01*
X149533607Y-98193184D01*
X149533608Y-98193186D01*
X149599500Y-98307314D01*
X149692686Y-98400500D01*
X149806814Y-98466392D01*
X149929424Y-98499244D01*
X149933122Y-98500500D01*
X150065894Y-98500500D01*
X150076157Y-98500500D01*
X150085045Y-98495367D01*
X150193186Y-98466392D01*
X150307314Y-98400500D01*
X150400500Y-98307314D01*
X150466392Y-98193186D01*
X150495367Y-98085045D01*
X150500500Y-98076156D01*
X150500500Y-97933121D01*
X150499241Y-97929412D01*
X150491494Y-97900500D01*
X150491494Y-97900499D01*
X150466392Y-97806814D01*
X150400500Y-97692686D01*
X150307314Y-97599500D01*
X150307311Y-97599498D01*
X150307310Y-97599497D01*
X150249107Y-97565894D01*
X150193190Y-97533610D01*
X150193183Y-97533607D01*
X150193184Y-97533607D01*
X150193182Y-97533606D01*
X150193181Y-97533606D01*
X150065894Y-97499500D01*
X150065893Y-97499500D01*
X149934107Y-97499500D01*
X149934106Y-97499500D01*
X149833707Y-97526401D01*
X149806814Y-97533607D01*
X149806796Y-97533616D01*
X149692688Y-97599497D01*
X149599497Y-97692688D01*
X149533623Y-97806785D01*
X149533612Y-97806804D01*
X149533610Y-97806809D01*
X149533606Y-97806818D01*
X149499500Y-97934105D01*
X118800500Y-97934105D01*
X118800500Y-97134105D01*
X141799500Y-97134105D01*
X141799500Y-97265894D01*
X141810628Y-97307424D01*
X141833607Y-97393184D01*
X141833608Y-97393186D01*
X141833610Y-97393191D01*
X141857233Y-97434106D01*
X141899497Y-97507310D01*
X141899498Y-97507311D01*
X141899500Y-97507314D01*
X141992686Y-97600500D01*
X142106814Y-97666392D01*
X142229424Y-97699244D01*
X142233122Y-97700500D01*
X142365894Y-97700500D01*
X142376157Y-97700500D01*
X142385045Y-97695367D01*
X142493186Y-97666392D01*
X142607314Y-97600500D01*
X142700500Y-97507314D01*
X142766392Y-97393186D01*
X142795367Y-97285045D01*
X142800500Y-97276156D01*
X142800500Y-97136548D01*
X142800500Y-97134106D01*
X142800499Y-97134105D01*
X151499500Y-97134105D01*
X151499500Y-97265894D01*
X151510628Y-97307424D01*
X151533607Y-97393184D01*
X151533608Y-97393186D01*
X151533610Y-97393191D01*
X151557233Y-97434106D01*
X151599497Y-97507310D01*
X151599498Y-97507311D01*
X151599500Y-97507314D01*
X151692686Y-97600500D01*
X151806814Y-97666392D01*
X151929424Y-97699244D01*
X151933122Y-97700500D01*
X152065894Y-97700500D01*
X152076157Y-97700500D01*
X152085045Y-97695367D01*
X152193186Y-97666392D01*
X152307314Y-97600500D01*
X152400500Y-97507314D01*
X152442767Y-97434105D01*
X166199500Y-97434105D01*
X166199500Y-97565894D01*
X166233474Y-97692688D01*
X166233607Y-97693184D01*
X166233608Y-97693186D01*
X166233610Y-97693191D01*
X166237830Y-97700500D01*
X166299208Y-97806809D01*
X166299500Y-97807314D01*
X166392686Y-97900500D01*
X166506814Y-97966392D01*
X166629424Y-97999244D01*
X166633122Y-98000500D01*
X166765894Y-98000500D01*
X166776157Y-98000500D01*
X166785045Y-97995367D01*
X166893186Y-97966392D01*
X167007314Y-97900500D01*
X167100500Y-97807314D01*
X167166392Y-97693186D01*
X167195367Y-97585045D01*
X167200500Y-97576156D01*
X167200500Y-97433121D01*
X167199244Y-97429424D01*
X167166542Y-97307377D01*
X167166405Y-97306847D01*
X167166393Y-97306816D01*
X167166389Y-97306809D01*
X167100500Y-97192686D01*
X167007314Y-97099500D01*
X167007311Y-97099498D01*
X167007310Y-97099497D01*
X166893202Y-97033616D01*
X166893193Y-97033611D01*
X166893190Y-97033610D01*
X166893181Y-97033606D01*
X166765894Y-96999500D01*
X166765893Y-96999500D01*
X166634107Y-96999500D01*
X166634106Y-96999500D01*
X166533707Y-97026401D01*
X166506814Y-97033607D01*
X166506796Y-97033616D01*
X166392688Y-97099497D01*
X166299497Y-97192688D01*
X166233616Y-97306796D01*
X166233608Y-97306814D01*
X166233606Y-97306818D01*
X166199500Y-97434105D01*
X152442767Y-97434105D01*
X152466392Y-97393186D01*
X152495539Y-97284404D01*
X152495707Y-97283819D01*
X152497053Y-97282125D01*
X152500500Y-97276156D01*
X152500500Y-97132316D01*
X152499242Y-97129414D01*
X152493320Y-97107313D01*
X152493319Y-97107312D01*
X152491226Y-97099500D01*
X152467256Y-97010038D01*
X152464736Y-96990894D01*
X152464736Y-96976830D01*
X152486409Y-96924508D01*
X152488755Y-96922162D01*
X152541070Y-96900500D01*
X152576157Y-96900500D01*
X152585045Y-96895367D01*
X152693186Y-96866392D01*
X152807314Y-96800500D01*
X152873709Y-96734105D01*
X168199500Y-96734105D01*
X168199500Y-96865894D01*
X168233606Y-96993181D01*
X168233610Y-96993190D01*
X168256946Y-97033608D01*
X168299500Y-97107314D01*
X168392686Y-97200500D01*
X168506814Y-97266392D01*
X168629424Y-97299244D01*
X168633122Y-97300500D01*
X168765894Y-97300500D01*
X168776157Y-97300500D01*
X168785045Y-97295367D01*
X168893186Y-97266392D01*
X169007314Y-97200500D01*
X169100500Y-97107314D01*
X169166392Y-96993186D01*
X169195367Y-96885045D01*
X169200500Y-96876156D01*
X169200500Y-96734107D01*
X169200495Y-96734090D01*
X169166393Y-96606818D01*
X169166392Y-96606815D01*
X169166392Y-96606814D01*
X169166389Y-96606809D01*
X169164535Y-96602332D01*
X169165710Y-96601845D01*
X169159465Y-96583551D01*
X169157994Y-96572375D01*
X169172652Y-96517677D01*
X169175703Y-96513700D01*
X169215256Y-96487272D01*
X169293186Y-96466392D01*
X169407314Y-96400500D01*
X169500500Y-96307314D01*
X169566392Y-96193186D01*
X169595367Y-96085045D01*
X169600500Y-96076156D01*
X169600500Y-95934107D01*
X169600495Y-95934090D01*
X169566393Y-95806818D01*
X169566392Y-95806815D01*
X169566392Y-95806814D01*
X169566389Y-95806809D01*
X169564535Y-95802332D01*
X169565710Y-95801845D01*
X169559465Y-95783551D01*
X169557994Y-95772375D01*
X169572652Y-95717677D01*
X169575703Y-95713700D01*
X169615256Y-95687272D01*
X169693186Y-95666392D01*
X169807314Y-95600500D01*
X169900500Y-95507314D01*
X169966392Y-95393186D01*
X169995367Y-95285045D01*
X170000500Y-95276156D01*
X170000500Y-95133121D01*
X169999244Y-95129424D01*
X169966542Y-95007377D01*
X169966405Y-95006847D01*
X169966393Y-95006816D01*
X169966389Y-95006809D01*
X169900500Y-94892686D01*
X169807314Y-94799500D01*
X169807311Y-94799498D01*
X169807310Y-94799497D01*
X169693202Y-94733616D01*
X169693193Y-94733611D01*
X169693190Y-94733610D01*
X169693183Y-94733607D01*
X169693184Y-94733607D01*
X169693182Y-94733606D01*
X169693181Y-94733606D01*
X169565894Y-94699500D01*
X169565893Y-94699500D01*
X169434107Y-94699500D01*
X169434106Y-94699500D01*
X169333707Y-94726401D01*
X169306814Y-94733607D01*
X169306796Y-94733616D01*
X169192688Y-94799497D01*
X169099497Y-94892688D01*
X169033616Y-95006796D01*
X169033608Y-95006814D01*
X169033606Y-95006818D01*
X169000757Y-95129416D01*
X168999500Y-95134106D01*
X168999500Y-95265894D01*
X169033607Y-95393185D01*
X169035465Y-95397670D01*
X169034320Y-95398143D01*
X169040534Y-95416450D01*
X169042004Y-95427618D01*
X169027344Y-95482325D01*
X169027342Y-95482327D01*
X169024293Y-95486300D01*
X168984741Y-95512726D01*
X168906819Y-95533605D01*
X168906818Y-95533605D01*
X168906815Y-95533607D01*
X168906796Y-95533616D01*
X168792688Y-95599497D01*
X168699497Y-95692688D01*
X168633616Y-95806796D01*
X168633608Y-95806814D01*
X168633606Y-95806818D01*
X168599503Y-95934096D01*
X168599500Y-95934106D01*
X168599500Y-96065894D01*
X168633607Y-96193185D01*
X168635465Y-96197670D01*
X168634320Y-96198143D01*
X168640534Y-96216450D01*
X168642004Y-96227618D01*
X168627344Y-96282325D01*
X168627342Y-96282327D01*
X168624293Y-96286300D01*
X168584741Y-96312726D01*
X168506819Y-96333605D01*
X168506818Y-96333605D01*
X168506815Y-96333607D01*
X168506796Y-96333616D01*
X168392688Y-96399497D01*
X168299497Y-96492688D01*
X168233616Y-96606796D01*
X168233608Y-96606814D01*
X168233606Y-96606818D01*
X168199500Y-96734105D01*
X152873709Y-96734105D01*
X152900500Y-96707314D01*
X152904105Y-96701068D01*
X152909194Y-96692257D01*
X152940150Y-96638637D01*
X152966392Y-96593186D01*
X152995367Y-96485045D01*
X153000500Y-96476156D01*
X153000500Y-96333121D01*
X152999244Y-96329423D01*
X152966392Y-96206814D01*
X152900500Y-96092686D01*
X152807314Y-95999500D01*
X152807311Y-95999498D01*
X152807310Y-95999497D01*
X152694054Y-95934109D01*
X152694057Y-95934103D01*
X152694032Y-95934096D01*
X152693190Y-95933610D01*
X152693181Y-95933606D01*
X152565894Y-95899500D01*
X152565893Y-95899500D01*
X152434107Y-95899500D01*
X152434106Y-95899500D01*
X152333707Y-95926401D01*
X152306814Y-95933607D01*
X152306796Y-95933616D01*
X152192688Y-95999497D01*
X152099497Y-96092688D01*
X152033616Y-96206796D01*
X152033608Y-96206814D01*
X152033606Y-96206818D01*
X151999500Y-96334105D01*
X151999500Y-96465894D01*
X152031025Y-96583547D01*
X152032742Y-96589956D01*
X152035263Y-96609108D01*
X152035263Y-96623166D01*
X152013600Y-96675481D01*
X152011267Y-96677815D01*
X151958946Y-96699500D01*
X151934106Y-96699500D01*
X151833707Y-96726401D01*
X151806814Y-96733607D01*
X151806796Y-96733616D01*
X151692688Y-96799497D01*
X151599497Y-96892688D01*
X151533616Y-97006796D01*
X151533608Y-97006814D01*
X151533606Y-97006818D01*
X151499500Y-97134105D01*
X142800499Y-97134105D01*
X142793320Y-97107314D01*
X142766392Y-97006814D01*
X142700500Y-96892686D01*
X142607314Y-96799500D01*
X142607311Y-96799498D01*
X142607310Y-96799497D01*
X142494054Y-96734109D01*
X142494057Y-96734103D01*
X142494032Y-96734096D01*
X142493190Y-96733610D01*
X142493181Y-96733606D01*
X142365894Y-96699500D01*
X142365893Y-96699500D01*
X142234107Y-96699500D01*
X142234106Y-96699500D01*
X142133707Y-96726401D01*
X142106814Y-96733607D01*
X142106796Y-96733616D01*
X141992688Y-96799497D01*
X141899497Y-96892688D01*
X141833616Y-97006796D01*
X141833608Y-97006814D01*
X141833606Y-97006818D01*
X141799500Y-97134105D01*
X118800500Y-97134105D01*
X118800500Y-91234105D01*
X176879500Y-91234105D01*
X176879500Y-91365894D01*
X176913606Y-91493181D01*
X176913607Y-91493184D01*
X176913608Y-91493186D01*
X176979500Y-91607314D01*
X177072686Y-91700500D01*
X177186814Y-91766392D01*
X177309424Y-91799244D01*
X177313122Y-91800500D01*
X177445894Y-91800500D01*
X177456157Y-91800500D01*
X177465045Y-91795367D01*
X177573186Y-91766392D01*
X177687314Y-91700500D01*
X177780500Y-91607314D01*
X177846392Y-91493186D01*
X177875367Y-91385045D01*
X177880500Y-91376156D01*
X177880500Y-91233121D01*
X177879244Y-91229424D01*
X177846542Y-91107377D01*
X177846405Y-91106847D01*
X177846393Y-91106816D01*
X177846389Y-91106809D01*
X177780500Y-90992686D01*
X177687314Y-90899500D01*
X177629971Y-90866393D01*
X177629970Y-90866392D01*
X177573208Y-90833619D01*
X177573193Y-90833612D01*
X177573190Y-90833610D01*
X177573183Y-90833607D01*
X177573184Y-90833607D01*
X177573182Y-90833606D01*
X177573181Y-90833606D01*
X177445894Y-90799500D01*
X177445893Y-90799500D01*
X177314107Y-90799500D01*
X177314106Y-90799500D01*
X177213707Y-90826401D01*
X177186814Y-90833607D01*
X177186796Y-90833616D01*
X177072688Y-90899497D01*
X176979497Y-90992688D01*
X176913616Y-91106796D01*
X176913608Y-91106814D01*
X176913606Y-91106818D01*
X176879500Y-91234105D01*
X118800500Y-91234105D01*
X118800500Y-90334105D01*
X168699500Y-90334105D01*
X168699500Y-90465894D01*
X168733606Y-90593181D01*
X168733607Y-90593184D01*
X168733608Y-90593186D01*
X168799500Y-90707314D01*
X168892686Y-90800500D01*
X169006814Y-90866392D01*
X169129424Y-90899244D01*
X169133122Y-90900500D01*
X169265894Y-90900500D01*
X169276157Y-90900500D01*
X169285045Y-90895367D01*
X169393186Y-90866392D01*
X169507314Y-90800500D01*
X169600500Y-90707314D01*
X169666392Y-90593186D01*
X169695367Y-90485045D01*
X169700500Y-90476156D01*
X169700500Y-90333121D01*
X169699244Y-90329424D01*
X169666542Y-90207377D01*
X169666405Y-90206847D01*
X169666393Y-90206816D01*
X169666389Y-90206809D01*
X169600500Y-90092686D01*
X169507314Y-89999500D01*
X169507311Y-89999498D01*
X169507310Y-89999497D01*
X169393202Y-89933616D01*
X169393193Y-89933611D01*
X169393190Y-89933610D01*
X169393183Y-89933607D01*
X169393184Y-89933607D01*
X169393182Y-89933606D01*
X169393181Y-89933606D01*
X169265894Y-89899500D01*
X169265893Y-89899500D01*
X169134107Y-89899500D01*
X169134106Y-89899500D01*
X169033707Y-89926401D01*
X169006814Y-89933607D01*
X169006796Y-89933616D01*
X168892688Y-89999497D01*
X168799497Y-90092688D01*
X168733616Y-90206796D01*
X168733608Y-90206814D01*
X168733606Y-90206818D01*
X168699500Y-90334105D01*
X118800500Y-90334105D01*
X118800500Y-88734105D01*
X165999500Y-88734105D01*
X165999500Y-88865894D01*
X166033606Y-88993181D01*
X166033607Y-88993184D01*
X166033608Y-88993186D01*
X166099500Y-89107314D01*
X166192686Y-89200500D01*
X166306814Y-89266392D01*
X166429424Y-89299244D01*
X166433122Y-89300500D01*
X166565894Y-89300500D01*
X166576157Y-89300500D01*
X166585045Y-89295367D01*
X166693186Y-89266392D01*
X166807314Y-89200500D01*
X166900500Y-89107314D01*
X166966392Y-88993186D01*
X166995367Y-88885045D01*
X167000500Y-88876156D01*
X167000500Y-88733121D01*
X166999241Y-88729412D01*
X166993073Y-88706393D01*
X166993073Y-88706392D01*
X166993072Y-88706389D01*
X166966392Y-88606814D01*
X166900500Y-88492686D01*
X166842652Y-88434838D01*
X166826612Y-88410832D01*
X166822301Y-88400425D01*
X166822289Y-88343815D01*
X166822622Y-88343010D01*
X166853996Y-88307220D01*
X166856987Y-88305493D01*
X166874820Y-88298107D01*
X166993186Y-88266392D01*
X167107314Y-88200500D01*
X167133709Y-88174105D01*
X171089500Y-88174105D01*
X171089500Y-88305894D01*
X171123606Y-88433181D01*
X171123607Y-88433184D01*
X171123608Y-88433186D01*
X171189500Y-88547314D01*
X171282686Y-88640500D01*
X171396814Y-88706392D01*
X171519424Y-88739244D01*
X171523122Y-88740500D01*
X171655894Y-88740500D01*
X171666157Y-88740500D01*
X171675045Y-88735367D01*
X171783186Y-88706392D01*
X171897314Y-88640500D01*
X171990500Y-88547314D01*
X172056392Y-88433186D01*
X172085367Y-88325045D01*
X172090500Y-88316156D01*
X172090500Y-88173121D01*
X172089244Y-88169424D01*
X172056542Y-88047377D01*
X172056405Y-88046847D01*
X172056393Y-88046816D01*
X172056389Y-88046809D01*
X171990500Y-87932686D01*
X171897314Y-87839500D01*
X171897311Y-87839498D01*
X171897310Y-87839497D01*
X171783202Y-87773616D01*
X171783193Y-87773611D01*
X171783190Y-87773610D01*
X171783183Y-87773607D01*
X171783184Y-87773607D01*
X171783182Y-87773606D01*
X171783181Y-87773606D01*
X171655894Y-87739500D01*
X171655893Y-87739500D01*
X171524107Y-87739500D01*
X171524106Y-87739500D01*
X171423707Y-87766401D01*
X171396814Y-87773607D01*
X171396796Y-87773616D01*
X171282688Y-87839497D01*
X171189497Y-87932688D01*
X171123616Y-88046796D01*
X171123608Y-88046814D01*
X171123606Y-88046818D01*
X171089500Y-88174105D01*
X167133709Y-88174105D01*
X167200500Y-88107314D01*
X167266392Y-87993186D01*
X167295367Y-87885045D01*
X167300500Y-87876156D01*
X167300500Y-87733121D01*
X167299244Y-87729424D01*
X167266542Y-87607377D01*
X167266405Y-87606847D01*
X167266393Y-87606816D01*
X167266389Y-87606809D01*
X167200500Y-87492686D01*
X167107314Y-87399500D01*
X167107311Y-87399498D01*
X167107310Y-87399497D01*
X166993202Y-87333616D01*
X166993193Y-87333611D01*
X166993190Y-87333610D01*
X166993183Y-87333607D01*
X166993184Y-87333607D01*
X166993182Y-87333606D01*
X166993181Y-87333606D01*
X166865894Y-87299500D01*
X166865893Y-87299500D01*
X166734107Y-87299500D01*
X166734106Y-87299500D01*
X166633707Y-87326401D01*
X166606814Y-87333607D01*
X166606796Y-87333616D01*
X166492688Y-87399497D01*
X166399497Y-87492688D01*
X166333616Y-87606796D01*
X166333608Y-87606814D01*
X166333606Y-87606818D01*
X166299500Y-87734105D01*
X166299500Y-87865894D01*
X166333606Y-87993181D01*
X166333607Y-87993183D01*
X166333616Y-87993202D01*
X166399498Y-88107311D01*
X166399500Y-88107314D01*
X166457346Y-88165161D01*
X166473387Y-88189168D01*
X166477698Y-88199576D01*
X166477698Y-88256213D01*
X166477697Y-88256216D01*
X166477366Y-88257015D01*
X166446001Y-88292778D01*
X166443022Y-88294498D01*
X166425174Y-88301891D01*
X166306820Y-88333605D01*
X166306818Y-88333605D01*
X166306815Y-88333607D01*
X166306796Y-88333616D01*
X166192688Y-88399497D01*
X166099497Y-88492688D01*
X166033616Y-88606796D01*
X166033608Y-88606814D01*
X166033606Y-88606818D01*
X165999500Y-88734105D01*
X118800500Y-88734105D01*
X118800500Y-87734105D01*
X147399500Y-87734105D01*
X147399500Y-87865894D01*
X147433606Y-87993181D01*
X147433607Y-87993183D01*
X147433616Y-87993202D01*
X147499497Y-88107310D01*
X147499498Y-88107311D01*
X147499500Y-88107314D01*
X147592686Y-88200500D01*
X147706814Y-88266392D01*
X147829424Y-88299244D01*
X147833122Y-88300500D01*
X147965894Y-88300500D01*
X147976157Y-88300500D01*
X147985045Y-88295367D01*
X148093186Y-88266392D01*
X148207314Y-88200500D01*
X148300500Y-88107314D01*
X148366392Y-87993186D01*
X148395367Y-87885045D01*
X148400500Y-87876156D01*
X148400500Y-87733121D01*
X148399244Y-87729424D01*
X148366542Y-87607377D01*
X148366405Y-87606847D01*
X148366393Y-87606816D01*
X148366389Y-87606809D01*
X148300500Y-87492686D01*
X148207314Y-87399500D01*
X148207311Y-87399498D01*
X148207310Y-87399497D01*
X148093202Y-87333616D01*
X148093193Y-87333611D01*
X148093190Y-87333610D01*
X148093183Y-87333607D01*
X148093184Y-87333607D01*
X148093182Y-87333606D01*
X148093181Y-87333606D01*
X147965894Y-87299500D01*
X147965893Y-87299500D01*
X147834107Y-87299500D01*
X147834106Y-87299500D01*
X147733707Y-87326401D01*
X147706814Y-87333607D01*
X147706796Y-87333616D01*
X147592688Y-87399497D01*
X147499497Y-87492688D01*
X147433616Y-87606796D01*
X147433608Y-87606814D01*
X147433606Y-87606818D01*
X147399500Y-87734105D01*
X118800500Y-87734105D01*
X118800500Y-86434105D01*
X141124500Y-86434105D01*
X141124500Y-86565894D01*
X141151182Y-86665474D01*
X141158607Y-86693184D01*
X141158608Y-86693186D01*
X141158610Y-86693191D01*
X141182233Y-86734106D01*
X141224497Y-86807310D01*
X141224498Y-86807311D01*
X141224500Y-86807314D01*
X141317686Y-86900500D01*
X141431814Y-86966392D01*
X141554424Y-86999244D01*
X141558122Y-87000500D01*
X141690894Y-87000500D01*
X141701157Y-87000500D01*
X141710045Y-86995367D01*
X141818186Y-86966392D01*
X141932314Y-86900500D01*
X142025500Y-86807314D01*
X142067767Y-86734105D01*
X166899500Y-86734105D01*
X166899500Y-86865894D01*
X166926428Y-86966391D01*
X166933607Y-86993183D01*
X166933616Y-86993202D01*
X166999497Y-87107310D01*
X166999498Y-87107311D01*
X166999500Y-87107314D01*
X167092686Y-87200500D01*
X167206814Y-87266392D01*
X167329424Y-87299244D01*
X167333122Y-87300500D01*
X167465894Y-87300500D01*
X167476157Y-87300500D01*
X167485045Y-87295367D01*
X167593186Y-87266392D01*
X167707314Y-87200500D01*
X167800500Y-87107314D01*
X167866392Y-86993186D01*
X167895367Y-86885045D01*
X167900500Y-86876156D01*
X167900500Y-86733121D01*
X167899241Y-86729412D01*
X167891494Y-86700500D01*
X167891494Y-86700499D01*
X167889536Y-86693190D01*
X167866392Y-86606814D01*
X167800500Y-86492686D01*
X167707314Y-86399500D01*
X167707311Y-86399498D01*
X167707309Y-86399496D01*
X167703460Y-86396542D01*
X167703846Y-86396038D01*
X167687010Y-86381271D01*
X167680152Y-86372333D01*
X167665495Y-86317649D01*
X167665608Y-86316789D01*
X167686650Y-86274104D01*
X167689088Y-86271666D01*
X167704409Y-86259911D01*
X167807314Y-86200500D01*
X167900500Y-86107314D01*
X167966392Y-85993186D01*
X167995367Y-85885045D01*
X168000500Y-85876156D01*
X168000500Y-85875856D01*
X168006129Y-85847547D01*
X168010443Y-85837132D01*
X168050482Y-85797086D01*
X168055128Y-85795161D01*
X168102588Y-85792054D01*
X168119739Y-85796650D01*
X168134107Y-85800500D01*
X168265894Y-85800500D01*
X168276157Y-85800500D01*
X168285045Y-85795367D01*
X168393186Y-85766392D01*
X168449109Y-85734105D01*
X169899500Y-85734105D01*
X169899500Y-85865894D01*
X169933606Y-85993181D01*
X169933610Y-85993190D01*
X169956946Y-86033608D01*
X169999500Y-86107314D01*
X170092686Y-86200500D01*
X170206814Y-86266392D01*
X170329424Y-86299244D01*
X170333122Y-86300500D01*
X170465894Y-86300500D01*
X170476157Y-86300500D01*
X170485045Y-86295367D01*
X170593186Y-86266392D01*
X170707314Y-86200500D01*
X170800500Y-86107314D01*
X170866392Y-85993186D01*
X170895367Y-85885045D01*
X170900500Y-85876156D01*
X170900500Y-85733121D01*
X170899244Y-85729423D01*
X170866392Y-85606814D01*
X170800500Y-85492686D01*
X170707314Y-85399500D01*
X170707309Y-85399497D01*
X170653536Y-85368451D01*
X170653491Y-85368425D01*
X170593186Y-85333608D01*
X170593183Y-85333607D01*
X170593181Y-85333606D01*
X170501741Y-85309105D01*
X175749500Y-85309105D01*
X175749500Y-85440894D01*
X175783606Y-85568181D01*
X175783610Y-85568190D01*
X175846392Y-85676931D01*
X175846391Y-85676931D01*
X175846396Y-85676937D01*
X175849497Y-85682310D01*
X175849499Y-85682313D01*
X175849500Y-85682314D01*
X175942686Y-85775500D01*
X176056814Y-85841392D01*
X176179424Y-85874244D01*
X176183122Y-85875500D01*
X176315894Y-85875500D01*
X176326157Y-85875500D01*
X176335045Y-85870367D01*
X176443186Y-85841392D01*
X176557314Y-85775500D01*
X176650500Y-85682314D01*
X176716392Y-85568186D01*
X176745367Y-85460045D01*
X176750500Y-85451156D01*
X176750500Y-85308120D01*
X176749239Y-85304405D01*
X176748841Y-85302920D01*
X176748193Y-85300500D01*
X176716392Y-85181814D01*
X176650500Y-85067686D01*
X176557314Y-84974500D01*
X176557311Y-84974498D01*
X176557310Y-84974497D01*
X176443202Y-84908616D01*
X176443193Y-84908611D01*
X176443190Y-84908610D01*
X176443183Y-84908607D01*
X176443184Y-84908607D01*
X176443182Y-84908606D01*
X176443181Y-84908606D01*
X176315894Y-84874500D01*
X176315893Y-84874500D01*
X176184107Y-84874500D01*
X176184106Y-84874500D01*
X176144740Y-84885048D01*
X176056814Y-84908607D01*
X176056796Y-84908616D01*
X175942688Y-84974497D01*
X175849497Y-85067688D01*
X175783616Y-85181796D01*
X175783608Y-85181814D01*
X175783606Y-85181818D01*
X175749500Y-85309105D01*
X170501741Y-85309105D01*
X170465894Y-85299500D01*
X170465892Y-85299500D01*
X170334107Y-85299500D01*
X170334106Y-85299500D01*
X170233707Y-85326401D01*
X170206814Y-85333607D01*
X170206796Y-85333616D01*
X170092688Y-85399497D01*
X169999497Y-85492688D01*
X169933616Y-85606796D01*
X169933608Y-85606814D01*
X169933606Y-85606818D01*
X169899500Y-85734105D01*
X168449109Y-85734105D01*
X168507314Y-85700500D01*
X168600500Y-85607314D01*
X168666392Y-85493186D01*
X168695367Y-85385045D01*
X168700500Y-85376156D01*
X168700500Y-85233121D01*
X168699241Y-85229412D01*
X168691494Y-85200500D01*
X168691494Y-85200499D01*
X168666392Y-85106814D01*
X168600500Y-84992686D01*
X168507314Y-84899500D01*
X168507311Y-84899498D01*
X168507310Y-84899497D01*
X168449107Y-84865894D01*
X168393190Y-84833610D01*
X168393183Y-84833607D01*
X168393184Y-84833607D01*
X168393182Y-84833606D01*
X168393181Y-84833606D01*
X168265894Y-84799500D01*
X168265893Y-84799500D01*
X168134107Y-84799500D01*
X168134106Y-84799500D01*
X168033707Y-84826401D01*
X168006814Y-84833607D01*
X168006796Y-84833616D01*
X167892688Y-84899497D01*
X167799497Y-84992688D01*
X167733616Y-85106796D01*
X167733608Y-85106814D01*
X167733606Y-85106818D01*
X167700758Y-85229412D01*
X167698245Y-85238790D01*
X167697904Y-85238698D01*
X167694854Y-85250075D01*
X167689556Y-85262866D01*
X167649512Y-85302914D01*
X167649500Y-85302920D01*
X167644873Y-85304836D01*
X167597410Y-85307945D01*
X167565892Y-85299500D01*
X167565891Y-85299500D01*
X167434107Y-85299500D01*
X167434106Y-85299500D01*
X167333707Y-85326401D01*
X167306814Y-85333607D01*
X167306796Y-85333616D01*
X167192688Y-85399497D01*
X167099497Y-85492688D01*
X167033616Y-85606796D01*
X167033608Y-85606814D01*
X167033606Y-85606818D01*
X166999500Y-85734105D01*
X166999500Y-85865894D01*
X167033606Y-85993181D01*
X167033610Y-85993190D01*
X167056946Y-86033608D01*
X167099500Y-86107314D01*
X167192687Y-86200501D01*
X167196533Y-86203452D01*
X167196145Y-86203957D01*
X167212985Y-86218724D01*
X167219844Y-86227663D01*
X167234502Y-86282360D01*
X167234389Y-86283219D01*
X167213347Y-86325894D01*
X167210912Y-86328329D01*
X167195586Y-86340089D01*
X167092688Y-86399497D01*
X166999497Y-86492688D01*
X166933616Y-86606796D01*
X166933608Y-86606814D01*
X166933606Y-86606818D01*
X166899500Y-86734105D01*
X142067767Y-86734105D01*
X142091392Y-86693186D01*
X142120367Y-86585045D01*
X142125500Y-86576156D01*
X142125500Y-86433121D01*
X142124244Y-86429424D01*
X142091542Y-86307377D01*
X142091405Y-86306847D01*
X142091393Y-86306816D01*
X142091389Y-86306809D01*
X142025500Y-86192686D01*
X141966919Y-86134105D01*
X144874500Y-86134105D01*
X144874500Y-86265894D01*
X144908545Y-86392952D01*
X144908607Y-86393184D01*
X144908608Y-86393186D01*
X144908610Y-86393191D01*
X144932233Y-86434106D01*
X144974497Y-86507310D01*
X144974498Y-86507311D01*
X144974500Y-86507314D01*
X145067686Y-86600500D01*
X145181814Y-86666392D01*
X145304424Y-86699244D01*
X145308122Y-86700500D01*
X145440894Y-86700500D01*
X145450508Y-86700500D01*
X145458364Y-86695839D01*
X145459186Y-86695597D01*
X145568186Y-86666392D01*
X145569775Y-86665474D01*
X145570298Y-86665173D01*
X145570299Y-86665172D01*
X145682314Y-86600500D01*
X145775500Y-86507314D01*
X145841392Y-86393186D01*
X145870367Y-86285045D01*
X145875500Y-86276156D01*
X145875500Y-86133120D01*
X145874242Y-86129414D01*
X145868320Y-86107313D01*
X145868319Y-86107312D01*
X145866226Y-86099500D01*
X145841392Y-86006814D01*
X145775500Y-85892686D01*
X145682314Y-85799500D01*
X145682313Y-85799499D01*
X145665269Y-85789659D01*
X145665269Y-85789658D01*
X145568191Y-85733610D01*
X145568186Y-85733608D01*
X145568184Y-85733607D01*
X145568182Y-85733606D01*
X145568181Y-85733606D01*
X145440894Y-85699500D01*
X145440893Y-85699500D01*
X145309107Y-85699500D01*
X145309106Y-85699500D01*
X145208707Y-85726401D01*
X145181814Y-85733607D01*
X145181796Y-85733616D01*
X145067688Y-85799497D01*
X144974497Y-85892688D01*
X144908616Y-86006796D01*
X144908608Y-86006814D01*
X144908606Y-86006818D01*
X144874500Y-86134105D01*
X141966919Y-86134105D01*
X141932314Y-86099500D01*
X141932311Y-86099498D01*
X141932310Y-86099497D01*
X141818202Y-86033616D01*
X141818193Y-86033611D01*
X141818190Y-86033610D01*
X141818181Y-86033606D01*
X141690894Y-85999500D01*
X141690893Y-85999500D01*
X141559107Y-85999500D01*
X141559106Y-85999500D01*
X141458707Y-86026401D01*
X141431814Y-86033607D01*
X141431796Y-86033616D01*
X141317688Y-86099497D01*
X141224497Y-86192688D01*
X141158616Y-86306796D01*
X141158608Y-86306814D01*
X141158606Y-86306818D01*
X141124500Y-86434105D01*
X118800500Y-86434105D01*
X118800500Y-84734105D01*
X165999500Y-84734105D01*
X165999500Y-84865894D01*
X166033606Y-84993181D01*
X166033607Y-84993184D01*
X166033608Y-84993186D01*
X166099500Y-85107314D01*
X166192686Y-85200500D01*
X166306814Y-85266392D01*
X166429424Y-85299244D01*
X166433122Y-85300500D01*
X166565894Y-85300500D01*
X166576157Y-85300500D01*
X166585045Y-85295367D01*
X166693186Y-85266392D01*
X166807314Y-85200500D01*
X166900500Y-85107314D01*
X166966392Y-84993186D01*
X166995367Y-84885045D01*
X167000500Y-84876156D01*
X167000500Y-84733121D01*
X166999244Y-84729424D01*
X166966542Y-84607377D01*
X166966405Y-84606847D01*
X166966393Y-84606816D01*
X166966389Y-84606809D01*
X166900500Y-84492686D01*
X166807314Y-84399500D01*
X166807311Y-84399498D01*
X166807310Y-84399497D01*
X166693202Y-84333616D01*
X166693193Y-84333611D01*
X166693190Y-84333610D01*
X166693181Y-84333606D01*
X166565894Y-84299500D01*
X166565893Y-84299500D01*
X166434107Y-84299500D01*
X166434106Y-84299500D01*
X166333707Y-84326401D01*
X166306814Y-84333607D01*
X166306796Y-84333616D01*
X166192688Y-84399497D01*
X166099497Y-84492688D01*
X166033616Y-84606796D01*
X166033608Y-84606814D01*
X166033606Y-84606818D01*
X165999500Y-84734105D01*
X118800500Y-84734105D01*
X118800500Y-82889776D01*
X120099500Y-82889776D01*
X120099500Y-83110223D01*
X120127189Y-83285048D01*
X120133985Y-83327953D01*
X120133991Y-83327977D01*
X120202100Y-83537594D01*
X120202313Y-83538234D01*
X120203490Y-83540325D01*
X120302185Y-83734022D01*
X120431758Y-83912365D01*
X120587635Y-84068242D01*
X120736472Y-84176377D01*
X120736473Y-84176379D01*
X120759602Y-84193184D01*
X120759603Y-84193184D01*
X120762709Y-84195440D01*
X120765978Y-84197815D01*
X120765987Y-84197819D01*
X120765991Y-84197822D01*
X120914491Y-84273487D01*
X120924946Y-84285728D01*
X120967333Y-84299500D01*
X121169720Y-84365259D01*
X121171284Y-84365825D01*
X121171456Y-84365876D01*
X121171896Y-84365991D01*
X121199557Y-84370371D01*
X121280913Y-84383257D01*
X121389775Y-84400500D01*
X121610224Y-84400500D01*
X121610225Y-84400500D01*
X121631996Y-84397051D01*
X121697313Y-84386706D01*
X121827951Y-84366015D01*
X121827950Y-84366015D01*
X121828090Y-84365993D01*
X121829147Y-84365669D01*
X121829825Y-84365473D01*
X121831135Y-84364980D01*
X121927697Y-84333606D01*
X122037606Y-84297895D01*
X122234022Y-84197815D01*
X122412365Y-84068242D01*
X122546502Y-83934105D01*
X138624500Y-83934105D01*
X138624500Y-84065894D01*
X138658606Y-84193181D01*
X138658610Y-84193190D01*
X138719989Y-84299500D01*
X138724500Y-84307314D01*
X138817686Y-84400500D01*
X138931814Y-84466392D01*
X139054424Y-84499244D01*
X139058122Y-84500500D01*
X139190894Y-84500500D01*
X139201157Y-84500500D01*
X139210045Y-84495367D01*
X139318186Y-84466392D01*
X139432314Y-84400500D01*
X139525500Y-84307314D01*
X139582563Y-84208478D01*
X139591391Y-84193188D01*
X139591391Y-84193187D01*
X139591392Y-84193186D01*
X139620367Y-84085045D01*
X139625500Y-84076156D01*
X139625500Y-83936545D01*
X139625500Y-83934106D01*
X139625499Y-83934105D01*
X151999500Y-83934105D01*
X151999500Y-84065894D01*
X152033606Y-84193181D01*
X152033610Y-84193190D01*
X152094989Y-84299500D01*
X152099500Y-84307314D01*
X152192686Y-84400500D01*
X152306814Y-84466392D01*
X152429424Y-84499244D01*
X152433122Y-84500500D01*
X152565894Y-84500500D01*
X152576157Y-84500500D01*
X152585045Y-84495367D01*
X152693186Y-84466392D01*
X152807314Y-84400500D01*
X152900500Y-84307314D01*
X152957563Y-84208478D01*
X152966391Y-84193188D01*
X152966391Y-84193187D01*
X152966392Y-84193186D01*
X152995367Y-84085045D01*
X153000500Y-84076156D01*
X153000500Y-83933121D01*
X152999244Y-83929424D01*
X152966542Y-83807377D01*
X152966405Y-83806847D01*
X152966393Y-83806816D01*
X152966389Y-83806809D01*
X152900500Y-83692686D01*
X152807314Y-83599500D01*
X152700104Y-83537602D01*
X152700104Y-83537601D01*
X152700102Y-83537601D01*
X152693195Y-83533613D01*
X152693196Y-83533613D01*
X152693190Y-83533610D01*
X152693181Y-83533606D01*
X152565894Y-83499500D01*
X152565893Y-83499500D01*
X152434107Y-83499500D01*
X152434106Y-83499500D01*
X152333707Y-83526401D01*
X152306814Y-83533607D01*
X152306796Y-83533616D01*
X152192688Y-83599497D01*
X152099497Y-83692688D01*
X152033616Y-83806796D01*
X152033608Y-83806814D01*
X152033606Y-83806818D01*
X151999500Y-83934105D01*
X139625499Y-83934105D01*
X139591542Y-83807377D01*
X139591405Y-83806847D01*
X139591393Y-83806816D01*
X139591389Y-83806809D01*
X139525500Y-83692686D01*
X139432314Y-83599500D01*
X139325104Y-83537602D01*
X139325104Y-83537601D01*
X139325102Y-83537601D01*
X139318195Y-83533613D01*
X139318196Y-83533613D01*
X139318190Y-83533610D01*
X139318181Y-83533606D01*
X139190894Y-83499500D01*
X139190893Y-83499500D01*
X139059107Y-83499500D01*
X139059106Y-83499500D01*
X138958707Y-83526401D01*
X138931814Y-83533607D01*
X138931796Y-83533616D01*
X138817688Y-83599497D01*
X138724497Y-83692688D01*
X138658616Y-83806796D01*
X138658608Y-83806814D01*
X138658606Y-83806818D01*
X138624500Y-83934105D01*
X122546502Y-83934105D01*
X122568242Y-83912365D01*
X122697815Y-83734022D01*
X122797895Y-83537606D01*
X122799192Y-83533616D01*
X122866012Y-83327961D01*
X122866014Y-83327953D01*
X122866015Y-83327951D01*
X122896716Y-83134111D01*
X122896717Y-83134107D01*
X122896717Y-83134105D01*
X122900500Y-83110223D01*
X122900500Y-82892576D01*
X122900500Y-82889776D01*
X156099500Y-82889776D01*
X156099500Y-83110223D01*
X156127189Y-83285048D01*
X156133985Y-83327953D01*
X156133991Y-83327977D01*
X156202100Y-83537594D01*
X156202313Y-83538234D01*
X156203490Y-83540325D01*
X156302185Y-83734022D01*
X156431758Y-83912365D01*
X156587635Y-84068242D01*
X156736472Y-84176377D01*
X156736473Y-84176379D01*
X156759602Y-84193184D01*
X156759603Y-84193184D01*
X156762709Y-84195440D01*
X156765978Y-84197815D01*
X156765987Y-84197819D01*
X156765991Y-84197822D01*
X156914491Y-84273487D01*
X156924946Y-84285728D01*
X156967333Y-84299500D01*
X157169720Y-84365259D01*
X157171284Y-84365825D01*
X157171456Y-84365876D01*
X157171896Y-84365991D01*
X157199557Y-84370371D01*
X157280913Y-84383257D01*
X157389775Y-84400500D01*
X157610224Y-84400500D01*
X157610225Y-84400500D01*
X157631996Y-84397051D01*
X157697313Y-84386706D01*
X157827951Y-84366015D01*
X157827950Y-84366015D01*
X157828090Y-84365993D01*
X157829147Y-84365669D01*
X157829825Y-84365473D01*
X157831135Y-84364980D01*
X157927697Y-84333606D01*
X158037606Y-84297895D01*
X158234022Y-84197815D01*
X158412365Y-84068242D01*
X158568242Y-83912365D01*
X158697815Y-83734022D01*
X158797895Y-83537606D01*
X158799192Y-83533616D01*
X158866012Y-83327961D01*
X158866014Y-83327953D01*
X158866015Y-83327951D01*
X158896717Y-83134110D01*
X158896725Y-83134111D01*
X158896726Y-83134105D01*
X167699500Y-83134105D01*
X167699500Y-83265894D01*
X167733606Y-83393181D01*
X167733610Y-83393190D01*
X167775872Y-83466389D01*
X167799500Y-83507314D01*
X167892686Y-83600500D01*
X168006814Y-83666392D01*
X168129424Y-83699244D01*
X168133122Y-83700500D01*
X168265894Y-83700500D01*
X168276157Y-83700500D01*
X168285045Y-83695367D01*
X168393186Y-83666392D01*
X168507314Y-83600500D01*
X168600500Y-83507314D01*
X168666392Y-83393186D01*
X168695367Y-83285045D01*
X168700500Y-83276156D01*
X168700500Y-83133121D01*
X168699244Y-83129424D01*
X168666542Y-83007377D01*
X168666405Y-83006847D01*
X168666393Y-83006816D01*
X168666389Y-83006809D01*
X168600500Y-82892686D01*
X168507314Y-82799500D01*
X168430205Y-82754981D01*
X168430204Y-82754980D01*
X168393207Y-82733619D01*
X168393196Y-82733613D01*
X168393190Y-82733610D01*
X168393181Y-82733606D01*
X168265894Y-82699500D01*
X168265893Y-82699500D01*
X168134107Y-82699500D01*
X168134106Y-82699500D01*
X168055728Y-82720501D01*
X168006814Y-82733607D01*
X168006796Y-82733616D01*
X167892688Y-82799497D01*
X167799497Y-82892688D01*
X167733616Y-83006796D01*
X167733608Y-83006814D01*
X167733606Y-83006818D01*
X167699500Y-83134105D01*
X158896726Y-83134105D01*
X158898694Y-83125151D01*
X158900500Y-83118853D01*
X158900500Y-82889775D01*
X158879150Y-82754982D01*
X158879150Y-82754981D01*
X158875765Y-82733607D01*
X158866015Y-82672049D01*
X158866014Y-82672047D01*
X158865990Y-82671894D01*
X158865876Y-82671456D01*
X158865825Y-82671284D01*
X158865257Y-82669715D01*
X158798794Y-82465159D01*
X158798001Y-82462350D01*
X158796581Y-82459814D01*
X158744532Y-82357665D01*
X158697815Y-82265978D01*
X158568242Y-82087635D01*
X158414712Y-81934105D01*
X166999500Y-81934105D01*
X166999500Y-82065894D01*
X167033606Y-82193181D01*
X167033610Y-82193190D01*
X167097441Y-82303747D01*
X167097444Y-82303753D01*
X167099497Y-82307310D01*
X167099500Y-82307314D01*
X167192686Y-82400500D01*
X167306814Y-82466392D01*
X167429424Y-82499244D01*
X167433122Y-82500500D01*
X167565894Y-82500500D01*
X167576157Y-82500500D01*
X167585045Y-82495367D01*
X167693186Y-82466392D01*
X167749109Y-82434105D01*
X169999500Y-82434105D01*
X169999500Y-82565894D01*
X170033606Y-82693181D01*
X170033610Y-82693190D01*
X170056946Y-82733608D01*
X170099500Y-82807314D01*
X170192686Y-82900500D01*
X170306814Y-82966392D01*
X170429424Y-82999244D01*
X170433122Y-83000500D01*
X170565894Y-83000500D01*
X170576157Y-83000500D01*
X170585045Y-82995367D01*
X170693186Y-82966392D01*
X170704656Y-82959769D01*
X170731991Y-82950489D01*
X170739894Y-82949449D01*
X170794601Y-82964107D01*
X170822920Y-83013155D01*
X170823960Y-83021053D01*
X170822072Y-83049866D01*
X170799500Y-83134107D01*
X170799500Y-83134108D01*
X170799500Y-83265894D01*
X170833606Y-83393181D01*
X170833610Y-83393190D01*
X170875872Y-83466389D01*
X170899500Y-83507314D01*
X170992686Y-83600500D01*
X171106814Y-83666392D01*
X171229424Y-83699244D01*
X171233122Y-83700500D01*
X171365894Y-83700500D01*
X171376157Y-83700500D01*
X171385045Y-83695367D01*
X171493186Y-83666392D01*
X171607314Y-83600500D01*
X171700500Y-83507314D01*
X171766392Y-83393186D01*
X171795367Y-83285045D01*
X171800500Y-83276156D01*
X171800500Y-83133121D01*
X171799244Y-83129424D01*
X171766542Y-83007377D01*
X171766405Y-83006847D01*
X171766393Y-83006816D01*
X171766389Y-83006809D01*
X171700500Y-82892686D01*
X171607314Y-82799500D01*
X171530205Y-82754981D01*
X171530204Y-82754980D01*
X171493207Y-82733619D01*
X171493196Y-82733613D01*
X171493190Y-82733610D01*
X171493181Y-82733606D01*
X171365894Y-82699500D01*
X171365893Y-82699500D01*
X171234107Y-82699500D01*
X171234106Y-82699500D01*
X171195153Y-82709937D01*
X171106812Y-82733607D01*
X171095337Y-82740232D01*
X171068004Y-82749510D01*
X171061392Y-82750380D01*
X171060105Y-82750549D01*
X171005398Y-82735892D01*
X170977079Y-82686846D01*
X170976039Y-82678946D01*
X170977925Y-82650140D01*
X170995367Y-82585043D01*
X171000500Y-82576155D01*
X171000500Y-82437847D01*
X171000500Y-82434108D01*
X171000499Y-82434105D01*
X173499500Y-82434105D01*
X173499500Y-82565894D01*
X173533606Y-82693181D01*
X173533610Y-82693190D01*
X173556946Y-82733608D01*
X173599500Y-82807314D01*
X173692686Y-82900500D01*
X173806814Y-82966392D01*
X173929424Y-82999244D01*
X173933122Y-83000500D01*
X174065894Y-83000500D01*
X174076157Y-83000500D01*
X174085045Y-82995367D01*
X174193186Y-82966392D01*
X174249109Y-82934105D01*
X175499500Y-82934105D01*
X175499500Y-83065894D01*
X175533606Y-83193181D01*
X175533607Y-83193184D01*
X175533608Y-83193186D01*
X175599500Y-83307314D01*
X175692686Y-83400500D01*
X175806814Y-83466392D01*
X175929424Y-83499244D01*
X175933122Y-83500500D01*
X176065894Y-83500500D01*
X176076157Y-83500500D01*
X176085045Y-83495367D01*
X176193186Y-83466392D01*
X176307314Y-83400500D01*
X176400500Y-83307314D01*
X176466392Y-83193186D01*
X176495367Y-83085045D01*
X176500500Y-83076156D01*
X176500500Y-82933121D01*
X176499241Y-82929412D01*
X176491494Y-82900500D01*
X176491494Y-82900499D01*
X176488621Y-82889775D01*
X176466392Y-82806814D01*
X176400500Y-82692686D01*
X176307314Y-82599500D01*
X176307311Y-82599498D01*
X176307310Y-82599497D01*
X176249107Y-82565894D01*
X176193190Y-82533610D01*
X176193183Y-82533607D01*
X176193184Y-82533607D01*
X176193182Y-82533606D01*
X176193181Y-82533606D01*
X176065894Y-82499500D01*
X176065893Y-82499500D01*
X175934107Y-82499500D01*
X175934106Y-82499500D01*
X175833707Y-82526401D01*
X175806814Y-82533607D01*
X175806796Y-82533616D01*
X175692688Y-82599497D01*
X175599497Y-82692688D01*
X175533616Y-82806796D01*
X175533608Y-82806814D01*
X175533606Y-82806818D01*
X175499500Y-82934105D01*
X174249109Y-82934105D01*
X174307314Y-82900500D01*
X174400500Y-82807314D01*
X174466392Y-82693186D01*
X174495367Y-82585045D01*
X174500500Y-82576156D01*
X174500500Y-82433121D01*
X174499241Y-82429412D01*
X174491494Y-82400500D01*
X174491494Y-82400499D01*
X174466392Y-82306814D01*
X174400500Y-82192686D01*
X174307314Y-82099500D01*
X174307311Y-82099498D01*
X174307310Y-82099497D01*
X174249107Y-82065894D01*
X174193190Y-82033610D01*
X174193183Y-82033607D01*
X174193184Y-82033607D01*
X174193182Y-82033606D01*
X174193181Y-82033606D01*
X174065894Y-81999500D01*
X174065893Y-81999500D01*
X173934107Y-81999500D01*
X173934106Y-81999500D01*
X173833707Y-82026401D01*
X173806814Y-82033607D01*
X173806796Y-82033616D01*
X173692688Y-82099497D01*
X173599497Y-82192688D01*
X173533616Y-82306796D01*
X173533608Y-82306814D01*
X173533606Y-82306818D01*
X173499500Y-82434105D01*
X171000499Y-82434105D01*
X170993281Y-82407169D01*
X170993022Y-82406065D01*
X170993349Y-82404057D01*
X170991929Y-82377780D01*
X170993042Y-82370601D01*
X171000913Y-82357665D01*
X171002136Y-82350165D01*
X171008078Y-82345888D01*
X171022480Y-82322219D01*
X171075828Y-82308581D01*
X171083812Y-82309632D01*
X171083954Y-82309651D01*
X171102610Y-82314650D01*
X171106805Y-82316387D01*
X171106814Y-82316392D01*
X171229424Y-82349244D01*
X171233122Y-82350500D01*
X171365894Y-82350500D01*
X171376157Y-82350500D01*
X171385045Y-82345367D01*
X171493186Y-82316392D01*
X171607314Y-82250500D01*
X171700500Y-82157314D01*
X171766392Y-82043186D01*
X171795367Y-81935045D01*
X171800500Y-81926156D01*
X171800500Y-81786546D01*
X171800500Y-81784106D01*
X171800499Y-81784105D01*
X172499500Y-81784105D01*
X172499500Y-81915894D01*
X172533129Y-82041399D01*
X172533607Y-82043183D01*
X172533616Y-82043202D01*
X172559265Y-82087626D01*
X172559268Y-82087630D01*
X172599500Y-82157314D01*
X172692686Y-82250500D01*
X172806814Y-82316392D01*
X172929424Y-82349244D01*
X172933122Y-82350500D01*
X173065894Y-82350500D01*
X173076157Y-82350500D01*
X173085045Y-82345367D01*
X173193186Y-82316392D01*
X173307314Y-82250500D01*
X173400500Y-82157314D01*
X173466392Y-82043186D01*
X173495367Y-81935045D01*
X173500500Y-81926156D01*
X173500500Y-81783121D01*
X173499241Y-81779412D01*
X173498614Y-81777073D01*
X173491494Y-81750499D01*
X173466392Y-81656814D01*
X173400500Y-81542686D01*
X173307314Y-81449500D01*
X173296369Y-81443181D01*
X173193202Y-81383616D01*
X173193193Y-81383611D01*
X173193190Y-81383610D01*
X173193183Y-81383607D01*
X173193184Y-81383607D01*
X173193182Y-81383606D01*
X173193181Y-81383606D01*
X173065894Y-81349500D01*
X173065893Y-81349500D01*
X172934107Y-81349500D01*
X172934106Y-81349500D01*
X172833707Y-81376401D01*
X172806814Y-81383607D01*
X172806796Y-81383616D01*
X172692688Y-81449497D01*
X172599497Y-81542688D01*
X172533616Y-81656796D01*
X172533608Y-81656814D01*
X172533606Y-81656818D01*
X172499500Y-81784105D01*
X171800499Y-81784105D01*
X171791494Y-81750499D01*
X171766392Y-81656814D01*
X171700500Y-81542686D01*
X171607314Y-81449500D01*
X171596369Y-81443181D01*
X171493202Y-81383616D01*
X171493193Y-81383611D01*
X171493190Y-81383610D01*
X171493183Y-81383607D01*
X171493184Y-81383607D01*
X171493182Y-81383606D01*
X171493181Y-81383606D01*
X171365894Y-81349500D01*
X171365893Y-81349500D01*
X171234107Y-81349500D01*
X171234106Y-81349500D01*
X171133707Y-81376401D01*
X171106814Y-81383607D01*
X171106796Y-81383616D01*
X170992688Y-81449497D01*
X170899497Y-81542688D01*
X170833616Y-81656796D01*
X170833608Y-81656814D01*
X170833606Y-81656818D01*
X170800758Y-81779412D01*
X170799500Y-81784106D01*
X170799500Y-81915894D01*
X170799499Y-81915894D01*
X170806222Y-81940985D01*
X170808111Y-81969790D01*
X170807072Y-81977686D01*
X170778756Y-82026737D01*
X170724050Y-82041400D01*
X170724049Y-82041399D01*
X170715622Y-82040290D01*
X170695571Y-82034197D01*
X170695559Y-82034243D01*
X170695554Y-82034241D01*
X170695502Y-82034397D01*
X170695459Y-82034382D01*
X170695398Y-82034529D01*
X170693189Y-82033608D01*
X170693177Y-82033604D01*
X170594405Y-82007139D01*
X170565894Y-81999500D01*
X170565893Y-81999500D01*
X170434107Y-81999500D01*
X170434106Y-81999500D01*
X170333707Y-82026401D01*
X170306814Y-82033607D01*
X170306796Y-82033616D01*
X170192688Y-82099497D01*
X170099497Y-82192688D01*
X170033616Y-82306796D01*
X170033608Y-82306814D01*
X170033606Y-82306818D01*
X169999500Y-82434105D01*
X167749109Y-82434105D01*
X167807314Y-82400500D01*
X167900500Y-82307314D01*
X167966392Y-82193186D01*
X167995367Y-82085045D01*
X168000500Y-82076156D01*
X168000500Y-81933121D01*
X167999241Y-81929413D01*
X167966392Y-81806814D01*
X167900500Y-81692686D01*
X167807314Y-81599500D01*
X167807311Y-81599498D01*
X167807310Y-81599497D01*
X167708908Y-81542685D01*
X167708907Y-81542683D01*
X167693202Y-81533616D01*
X167693193Y-81533611D01*
X167693190Y-81533610D01*
X167693183Y-81533607D01*
X167693184Y-81533607D01*
X167693182Y-81533606D01*
X167693181Y-81533606D01*
X167565894Y-81499500D01*
X167565893Y-81499500D01*
X167434107Y-81499500D01*
X167434106Y-81499500D01*
X167333707Y-81526401D01*
X167306814Y-81533607D01*
X167306796Y-81533616D01*
X167192688Y-81599497D01*
X167099497Y-81692688D01*
X167033616Y-81806796D01*
X167033608Y-81806814D01*
X167033606Y-81806818D01*
X166999500Y-81934105D01*
X158414712Y-81934105D01*
X158412365Y-81931758D01*
X158240399Y-81806818D01*
X158234024Y-81802186D01*
X158234021Y-81802184D01*
X158234015Y-81802181D01*
X158085507Y-81726512D01*
X158075051Y-81714270D01*
X157827977Y-81633991D01*
X157827953Y-81633985D01*
X157827950Y-81633984D01*
X157827948Y-81633984D01*
X157704326Y-81614404D01*
X157610225Y-81599500D01*
X157610224Y-81599500D01*
X157610222Y-81599500D01*
X157389778Y-81599500D01*
X157389776Y-81599500D01*
X157389775Y-81599500D01*
X157172045Y-81633985D01*
X157172021Y-81633991D01*
X156962400Y-81702101D01*
X156771166Y-81799541D01*
X156767559Y-81801035D01*
X156609470Y-81915894D01*
X156587639Y-81931754D01*
X156587630Y-81931763D01*
X156429073Y-82090319D01*
X156426605Y-82094727D01*
X156301035Y-82267559D01*
X156299541Y-82271166D01*
X156202101Y-82462400D01*
X156133991Y-82672021D01*
X156133986Y-82672044D01*
X156133984Y-82672051D01*
X156099500Y-82889776D01*
X122900500Y-82889776D01*
X122879150Y-82754981D01*
X122878283Y-82749510D01*
X122869363Y-82693190D01*
X122866015Y-82672049D01*
X122866014Y-82672047D01*
X122865990Y-82671894D01*
X122865876Y-82671456D01*
X122865825Y-82671284D01*
X122865257Y-82669715D01*
X122798794Y-82465159D01*
X122798001Y-82462350D01*
X122796581Y-82459814D01*
X122744532Y-82357665D01*
X122697815Y-82265978D01*
X122568242Y-82087635D01*
X122412365Y-81931758D01*
X122240399Y-81806818D01*
X122234024Y-81802186D01*
X122234021Y-81802184D01*
X122234015Y-81802181D01*
X122085507Y-81726512D01*
X122075051Y-81714270D01*
X121827977Y-81633991D01*
X121827953Y-81633985D01*
X121827950Y-81633984D01*
X121827948Y-81633984D01*
X121704326Y-81614404D01*
X121610225Y-81599500D01*
X121610224Y-81599500D01*
X121610222Y-81599500D01*
X121389778Y-81599500D01*
X121389776Y-81599500D01*
X121389775Y-81599500D01*
X121172045Y-81633985D01*
X121172021Y-81633991D01*
X120962400Y-81702101D01*
X120771166Y-81799541D01*
X120767559Y-81801035D01*
X120609470Y-81915894D01*
X120587639Y-81931754D01*
X120587630Y-81931763D01*
X120429073Y-82090319D01*
X120426605Y-82094727D01*
X120301035Y-82267559D01*
X120299541Y-82271166D01*
X120202101Y-82462400D01*
X120133991Y-82672021D01*
X120133986Y-82672044D01*
X120133984Y-82672051D01*
X120099500Y-82889776D01*
X118800500Y-82889776D01*
X118800500Y-81184105D01*
X174499500Y-81184105D01*
X174499500Y-81315894D01*
X174533606Y-81443181D01*
X174533607Y-81443184D01*
X174533608Y-81443186D01*
X174599500Y-81557314D01*
X174692686Y-81650500D01*
X174806814Y-81716392D01*
X174929424Y-81749244D01*
X174933122Y-81750500D01*
X175065894Y-81750500D01*
X175076157Y-81750500D01*
X175085045Y-81745367D01*
X175193186Y-81716392D01*
X175307314Y-81650500D01*
X175400500Y-81557314D01*
X175466392Y-81443186D01*
X175495367Y-81335045D01*
X175500500Y-81326156D01*
X175500500Y-81183121D01*
X175499241Y-81179412D01*
X175491494Y-81150500D01*
X175491494Y-81150499D01*
X175482355Y-81116391D01*
X175466392Y-81056814D01*
X175400500Y-80942686D01*
X175307314Y-80849500D01*
X175296369Y-80843181D01*
X175193202Y-80783616D01*
X175193193Y-80783611D01*
X175193190Y-80783610D01*
X175193183Y-80783607D01*
X175193184Y-80783607D01*
X175193182Y-80783606D01*
X175193181Y-80783606D01*
X175065894Y-80749500D01*
X175065893Y-80749500D01*
X174934107Y-80749500D01*
X174934106Y-80749500D01*
X174833707Y-80776401D01*
X174806814Y-80783607D01*
X174806796Y-80783616D01*
X174692688Y-80849497D01*
X174599497Y-80942688D01*
X174533616Y-81056796D01*
X174533608Y-81056814D01*
X174533606Y-81056818D01*
X174499500Y-81184105D01*
X118800500Y-81184105D01*
X118800500Y-80389218D01*
X118806129Y-80360909D01*
X118810443Y-80350494D01*
X118850482Y-80310448D01*
X118860911Y-80306128D01*
X118889219Y-80300500D01*
X150980965Y-80300500D01*
X151009275Y-80306129D01*
G37*
%TD.AperFunction*%
%TD*%
%TA.AperFunction,Conductor*%
%TO.N,USB_VBUS_5V*%
G36*
X124269019Y-105271674D02*
G01*
X124288171Y-105304847D01*
X124290310Y-105312832D01*
X124290312Y-105312837D01*
X124307815Y-105343153D01*
X124359495Y-105432665D01*
X124457335Y-105530505D01*
X124577164Y-105599688D01*
X124710814Y-105635499D01*
X124710815Y-105635500D01*
X124710817Y-105635500D01*
X124849185Y-105635500D01*
X124849185Y-105635499D01*
X124982836Y-105599688D01*
X125102665Y-105530505D01*
X125200505Y-105432665D01*
X125269688Y-105312836D01*
X125271302Y-105306814D01*
X125271829Y-105304847D01*
X125306307Y-105259914D01*
X125343307Y-105250000D01*
X126295973Y-105250000D01*
X126348299Y-105271674D01*
X126369973Y-105324000D01*
X126360059Y-105361000D01*
X126333610Y-105406810D01*
X126333606Y-105406818D01*
X126299500Y-105534105D01*
X126299500Y-105665894D01*
X126333606Y-105793181D01*
X126333607Y-105793184D01*
X126333608Y-105793186D01*
X126399500Y-105907314D01*
X126492686Y-106000500D01*
X126606814Y-106066392D01*
X126734105Y-106100499D01*
X126734106Y-106100500D01*
X126734108Y-106100500D01*
X126865894Y-106100500D01*
X126865894Y-106100499D01*
X126993186Y-106066392D01*
X127107314Y-106000500D01*
X127200500Y-105907314D01*
X127266392Y-105793186D01*
X127300499Y-105665894D01*
X127300500Y-105665894D01*
X127300500Y-105534106D01*
X127300499Y-105534105D01*
X127299534Y-105530505D01*
X127266392Y-105406814D01*
X127239940Y-105360999D01*
X127232548Y-105304848D01*
X127267027Y-105259914D01*
X127304027Y-105250000D01*
X129952393Y-105250000D01*
X130004719Y-105271674D01*
X130026393Y-105324000D01*
X130023871Y-105343153D01*
X129999500Y-105434105D01*
X129999500Y-105565894D01*
X130033606Y-105693181D01*
X130033607Y-105693184D01*
X130033608Y-105693186D01*
X130099500Y-105807314D01*
X130192686Y-105900500D01*
X130306814Y-105966392D01*
X130434105Y-106000499D01*
X130434106Y-106000500D01*
X130434108Y-106000500D01*
X130565894Y-106000500D01*
X130565894Y-106000499D01*
X130693186Y-105966392D01*
X130807314Y-105900500D01*
X130900500Y-105807314D01*
X130966392Y-105693186D01*
X131000499Y-105565894D01*
X131000500Y-105565894D01*
X131000500Y-105434106D01*
X131000499Y-105434105D01*
X130993185Y-105406810D01*
X130976129Y-105343153D01*
X130983521Y-105287000D01*
X131028454Y-105252522D01*
X131047607Y-105250000D01*
X168552393Y-105250000D01*
X168604719Y-105271674D01*
X168626393Y-105324000D01*
X168623871Y-105343153D01*
X168599500Y-105434105D01*
X168599500Y-105565894D01*
X168633606Y-105693181D01*
X168633607Y-105693184D01*
X168633608Y-105693186D01*
X168699500Y-105807314D01*
X168792686Y-105900500D01*
X168906814Y-105966392D01*
X169034105Y-106000499D01*
X169034106Y-106000500D01*
X169113034Y-106000500D01*
X169165360Y-106022174D01*
X169187034Y-106074500D01*
X169165360Y-106126826D01*
X169099500Y-106192685D01*
X169033610Y-106306809D01*
X169033606Y-106306818D01*
X168999500Y-106434105D01*
X168999500Y-106565894D01*
X169033606Y-106693181D01*
X169033607Y-106693184D01*
X169033608Y-106693186D01*
X169099500Y-106807314D01*
X169192686Y-106900500D01*
X169306814Y-106966392D01*
X169434105Y-107000499D01*
X169434106Y-107000500D01*
X169434108Y-107000500D01*
X169565894Y-107000500D01*
X169565894Y-107000499D01*
X169693186Y-106966392D01*
X169807314Y-106900500D01*
X169900500Y-106807314D01*
X169966392Y-106693186D01*
X170000499Y-106565894D01*
X170000500Y-106565894D01*
X170000500Y-106434106D01*
X170000499Y-106434105D01*
X169966393Y-106306818D01*
X169966392Y-106306814D01*
X169900500Y-106192686D01*
X169807314Y-106099500D01*
X169749971Y-106066393D01*
X169693190Y-106033610D01*
X169693181Y-106033606D01*
X169565894Y-105999500D01*
X169565892Y-105999500D01*
X169486966Y-105999500D01*
X169434640Y-105977826D01*
X169412966Y-105925500D01*
X169434640Y-105873174D01*
X169500500Y-105807314D01*
X169566392Y-105693186D01*
X169600499Y-105565894D01*
X169600500Y-105565894D01*
X169600500Y-105434106D01*
X169600499Y-105434105D01*
X169593185Y-105406810D01*
X169576129Y-105343153D01*
X169583521Y-105287000D01*
X169628454Y-105252522D01*
X169647607Y-105250000D01*
X178125500Y-105250000D01*
X178177826Y-105271674D01*
X178199500Y-105324000D01*
X178199500Y-129625500D01*
X178177826Y-129677826D01*
X178125500Y-129699500D01*
X142033104Y-129699500D01*
X141980778Y-129677826D01*
X141959104Y-129625500D01*
X141964737Y-129597181D01*
X141966390Y-129593189D01*
X141966389Y-129593189D01*
X141966392Y-129593186D01*
X142000500Y-129465892D01*
X142000500Y-129334108D01*
X142000500Y-129334106D01*
X142000499Y-129334105D01*
X141991494Y-129300499D01*
X141966392Y-129206814D01*
X141900500Y-129092686D01*
X141807314Y-128999500D01*
X141796369Y-128993181D01*
X141693190Y-128933610D01*
X141693181Y-128933606D01*
X141565894Y-128899500D01*
X141565892Y-128899500D01*
X141434108Y-128899500D01*
X141434106Y-128899500D01*
X141306818Y-128933606D01*
X141306809Y-128933610D01*
X141192685Y-128999500D01*
X141099500Y-129092685D01*
X141033610Y-129206809D01*
X141033606Y-129206818D01*
X140999500Y-129334105D01*
X140999500Y-129334108D01*
X140999500Y-129465892D01*
X141033608Y-129593186D01*
X141033609Y-129593189D01*
X141035263Y-129597181D01*
X141035263Y-129653818D01*
X140995215Y-129693867D01*
X140966896Y-129699500D01*
X118874500Y-129699500D01*
X118822174Y-129677826D01*
X118800500Y-129625500D01*
X118800500Y-128734105D01*
X134999500Y-128734105D01*
X134999500Y-128865894D01*
X135033606Y-128993181D01*
X135033607Y-128993184D01*
X135033608Y-128993186D01*
X135099500Y-129107314D01*
X135192686Y-129200500D01*
X135306814Y-129266392D01*
X135434105Y-129300499D01*
X135434106Y-129300500D01*
X135434108Y-129300500D01*
X135565894Y-129300500D01*
X135565894Y-129300499D01*
X135693186Y-129266392D01*
X135807314Y-129200500D01*
X135900500Y-129107314D01*
X135966392Y-128993186D01*
X136000499Y-128865894D01*
X136000500Y-128865894D01*
X136000500Y-128734106D01*
X136000499Y-128734105D01*
X135966393Y-128606818D01*
X135966392Y-128606814D01*
X135900500Y-128492686D01*
X135807314Y-128399500D01*
X135693190Y-128333610D01*
X135693181Y-128333606D01*
X135565894Y-128299500D01*
X135565892Y-128299500D01*
X135434108Y-128299500D01*
X135434106Y-128299500D01*
X135306818Y-128333606D01*
X135306809Y-128333610D01*
X135192685Y-128399500D01*
X135099500Y-128492685D01*
X135033610Y-128606809D01*
X135033606Y-128606818D01*
X134999500Y-128734105D01*
X118800500Y-128734105D01*
X118800500Y-126889776D01*
X120099500Y-126889776D01*
X120099500Y-127110223D01*
X120133984Y-127327948D01*
X120133987Y-127327961D01*
X120202103Y-127537602D01*
X120202104Y-127537605D01*
X120202105Y-127537606D01*
X120302185Y-127734022D01*
X120431758Y-127912365D01*
X120587635Y-128068242D01*
X120736473Y-128176378D01*
X120759606Y-128193186D01*
X120765978Y-128197815D01*
X120962394Y-128297895D01*
X120962397Y-128297896D01*
X120962396Y-128297896D01*
X121172038Y-128366012D01*
X121172044Y-128366013D01*
X121172049Y-128366015D01*
X121280913Y-128383257D01*
X121389776Y-128400500D01*
X121389778Y-128400500D01*
X121610224Y-128400500D01*
X121697313Y-128386706D01*
X121827951Y-128366015D01*
X121827958Y-128366012D01*
X121827961Y-128366012D01*
X121927697Y-128333606D01*
X122037606Y-128297895D01*
X122234022Y-128197815D01*
X122412365Y-128068242D01*
X122546502Y-127934105D01*
X137999500Y-127934105D01*
X137999500Y-128065894D01*
X138033606Y-128193181D01*
X138033610Y-128193190D01*
X138094989Y-128299500D01*
X138099500Y-128307314D01*
X138192686Y-128400500D01*
X138306814Y-128466392D01*
X138434105Y-128500499D01*
X138434106Y-128500500D01*
X138434108Y-128500500D01*
X138565894Y-128500500D01*
X138565894Y-128500499D01*
X138693186Y-128466392D01*
X138807314Y-128400500D01*
X138900500Y-128307314D01*
X138966392Y-128193186D01*
X139000499Y-128065894D01*
X139000500Y-128065894D01*
X139000500Y-127934106D01*
X139000499Y-127934105D01*
X138966393Y-127806818D01*
X138966392Y-127806814D01*
X138900500Y-127692686D01*
X138807314Y-127599500D01*
X138700104Y-127537602D01*
X138693190Y-127533610D01*
X138693181Y-127533606D01*
X138565894Y-127499500D01*
X138565892Y-127499500D01*
X138434108Y-127499500D01*
X138434106Y-127499500D01*
X138306818Y-127533606D01*
X138306809Y-127533610D01*
X138192685Y-127599500D01*
X138099500Y-127692685D01*
X138033610Y-127806809D01*
X138033606Y-127806818D01*
X137999500Y-127934105D01*
X122546502Y-127934105D01*
X122568242Y-127912365D01*
X122697815Y-127734022D01*
X122797895Y-127537606D01*
X122866015Y-127327951D01*
X122900500Y-127110222D01*
X122900500Y-126889778D01*
X122900500Y-126889776D01*
X174099500Y-126889776D01*
X174099500Y-127110223D01*
X174133984Y-127327948D01*
X174133987Y-127327961D01*
X174202103Y-127537602D01*
X174202104Y-127537605D01*
X174202105Y-127537606D01*
X174302185Y-127734022D01*
X174431758Y-127912365D01*
X174587635Y-128068242D01*
X174736473Y-128176378D01*
X174759606Y-128193186D01*
X174765978Y-128197815D01*
X174962394Y-128297895D01*
X174962397Y-128297896D01*
X174962396Y-128297896D01*
X175172038Y-128366012D01*
X175172044Y-128366013D01*
X175172049Y-128366015D01*
X175280913Y-128383257D01*
X175389776Y-128400500D01*
X175389778Y-128400500D01*
X175610224Y-128400500D01*
X175697313Y-128386706D01*
X175827951Y-128366015D01*
X175827958Y-128366012D01*
X175827961Y-128366012D01*
X175927697Y-128333606D01*
X176037606Y-128297895D01*
X176234022Y-128197815D01*
X176412365Y-128068242D01*
X176568242Y-127912365D01*
X176697815Y-127734022D01*
X176797895Y-127537606D01*
X176866015Y-127327951D01*
X176900500Y-127110222D01*
X176900500Y-126889778D01*
X176866015Y-126672049D01*
X176866013Y-126672044D01*
X176866012Y-126672038D01*
X176797896Y-126462397D01*
X176797895Y-126462396D01*
X176797895Y-126462394D01*
X176697815Y-126265978D01*
X176568242Y-126087635D01*
X176412365Y-125931758D01*
X176308441Y-125856253D01*
X176234024Y-125802186D01*
X176037602Y-125702103D01*
X176037603Y-125702103D01*
X175827961Y-125633987D01*
X175827948Y-125633984D01*
X175610224Y-125599500D01*
X175610222Y-125599500D01*
X175389778Y-125599500D01*
X175389776Y-125599500D01*
X175172051Y-125633984D01*
X175172038Y-125633987D01*
X174962397Y-125702103D01*
X174765976Y-125802186D01*
X174765975Y-125802186D01*
X174587639Y-125931755D01*
X174587635Y-125931758D01*
X174431758Y-126087635D01*
X174431755Y-126087638D01*
X174431755Y-126087639D01*
X174302186Y-126265975D01*
X174302186Y-126265976D01*
X174202103Y-126462397D01*
X174133987Y-126672038D01*
X174133984Y-126672051D01*
X174099500Y-126889776D01*
X122900500Y-126889776D01*
X122866015Y-126672049D01*
X122866013Y-126672044D01*
X122866012Y-126672038D01*
X122797896Y-126462397D01*
X122797895Y-126462396D01*
X122797895Y-126462394D01*
X122697815Y-126265978D01*
X122568242Y-126087635D01*
X122412365Y-125931758D01*
X122308441Y-125856253D01*
X122234024Y-125802186D01*
X122037602Y-125702103D01*
X122037603Y-125702103D01*
X121827961Y-125633987D01*
X121827948Y-125633984D01*
X121610224Y-125599500D01*
X121610222Y-125599500D01*
X121389778Y-125599500D01*
X121389776Y-125599500D01*
X121172051Y-125633984D01*
X121172038Y-125633987D01*
X120962397Y-125702103D01*
X120765976Y-125802186D01*
X120765975Y-125802186D01*
X120587639Y-125931755D01*
X120587635Y-125931758D01*
X120431758Y-126087635D01*
X120431755Y-126087638D01*
X120431755Y-126087639D01*
X120302186Y-126265975D01*
X120302186Y-126265976D01*
X120202103Y-126462397D01*
X120133987Y-126672038D01*
X120133984Y-126672051D01*
X120099500Y-126889776D01*
X118800500Y-126889776D01*
X118800500Y-124934105D01*
X157999500Y-124934105D01*
X157999500Y-125065894D01*
X158033606Y-125193181D01*
X158033607Y-125193184D01*
X158033608Y-125193186D01*
X158099500Y-125307314D01*
X158192686Y-125400500D01*
X158306814Y-125466392D01*
X158434105Y-125500499D01*
X158434106Y-125500500D01*
X158434108Y-125500500D01*
X158565894Y-125500500D01*
X158565894Y-125500499D01*
X158693186Y-125466392D01*
X158807314Y-125400500D01*
X158900500Y-125307314D01*
X158966392Y-125193186D01*
X159000499Y-125065894D01*
X159000500Y-125065894D01*
X159000500Y-124934106D01*
X159000499Y-124934105D01*
X158966393Y-124806818D01*
X158966392Y-124806814D01*
X158900500Y-124692686D01*
X158807314Y-124599500D01*
X158693190Y-124533610D01*
X158693181Y-124533606D01*
X158565894Y-124499500D01*
X158565892Y-124499500D01*
X158434108Y-124499500D01*
X158434106Y-124499500D01*
X158306818Y-124533606D01*
X158306809Y-124533610D01*
X158192685Y-124599500D01*
X158099500Y-124692685D01*
X158033610Y-124806809D01*
X158033606Y-124806818D01*
X157999500Y-124934105D01*
X118800500Y-124934105D01*
X118800500Y-119934105D01*
X132999500Y-119934105D01*
X132999500Y-120065894D01*
X133033606Y-120193181D01*
X133033607Y-120193184D01*
X133033608Y-120193186D01*
X133099500Y-120307314D01*
X133192686Y-120400500D01*
X133306814Y-120466392D01*
X133434105Y-120500499D01*
X133434106Y-120500500D01*
X133434108Y-120500500D01*
X133565894Y-120500500D01*
X133565894Y-120500499D01*
X133693186Y-120466392D01*
X133807314Y-120400500D01*
X133900500Y-120307314D01*
X133966392Y-120193186D01*
X134000499Y-120065894D01*
X134000500Y-120065894D01*
X134000500Y-119934106D01*
X134000499Y-119934105D01*
X147999500Y-119934105D01*
X147999500Y-120065894D01*
X148033606Y-120193181D01*
X148033607Y-120193184D01*
X148033608Y-120193186D01*
X148099500Y-120307314D01*
X148192686Y-120400500D01*
X148306814Y-120466392D01*
X148434105Y-120500499D01*
X148434106Y-120500500D01*
X148434108Y-120500500D01*
X148565894Y-120500500D01*
X148565894Y-120500499D01*
X148693186Y-120466392D01*
X148807314Y-120400500D01*
X148900500Y-120307314D01*
X148966392Y-120193186D01*
X149000499Y-120065894D01*
X149000500Y-120065894D01*
X149000500Y-119934106D01*
X149000499Y-119934105D01*
X148966393Y-119806818D01*
X148966392Y-119806814D01*
X148900500Y-119692686D01*
X148807314Y-119599500D01*
X148693190Y-119533610D01*
X148693181Y-119533606D01*
X148565894Y-119499500D01*
X148565892Y-119499500D01*
X148434108Y-119499500D01*
X148434106Y-119499500D01*
X148306818Y-119533606D01*
X148306809Y-119533610D01*
X148192685Y-119599500D01*
X148099500Y-119692685D01*
X148033610Y-119806809D01*
X148033606Y-119806818D01*
X147999500Y-119934105D01*
X134000499Y-119934105D01*
X133966393Y-119806818D01*
X133966392Y-119806814D01*
X133900500Y-119692686D01*
X133807314Y-119599500D01*
X133693190Y-119533610D01*
X133693181Y-119533606D01*
X133565894Y-119499500D01*
X133565892Y-119499500D01*
X133434108Y-119499500D01*
X133434106Y-119499500D01*
X133306818Y-119533606D01*
X133306809Y-119533610D01*
X133192685Y-119599500D01*
X133099500Y-119692685D01*
X133033610Y-119806809D01*
X133033606Y-119806818D01*
X132999500Y-119934105D01*
X118800500Y-119934105D01*
X118800500Y-117934105D01*
X137499500Y-117934105D01*
X137499500Y-118065894D01*
X137533606Y-118193181D01*
X137533607Y-118193184D01*
X137533608Y-118193186D01*
X137599500Y-118307314D01*
X137692686Y-118400500D01*
X137806814Y-118466392D01*
X137934105Y-118500499D01*
X137934106Y-118500500D01*
X137934108Y-118500500D01*
X138065894Y-118500500D01*
X138065894Y-118500499D01*
X138193186Y-118466392D01*
X138307314Y-118400500D01*
X138400500Y-118307314D01*
X138466392Y-118193186D01*
X138500499Y-118065894D01*
X138500500Y-118065894D01*
X138500500Y-117934106D01*
X138500499Y-117934105D01*
X138493320Y-117907314D01*
X138466392Y-117806814D01*
X138400500Y-117692686D01*
X138307314Y-117599500D01*
X138307313Y-117599499D01*
X138296652Y-117593344D01*
X138245576Y-117563855D01*
X138194047Y-117534105D01*
X139559500Y-117534105D01*
X139559500Y-117665894D01*
X139593606Y-117793181D01*
X139593607Y-117793184D01*
X139593608Y-117793186D01*
X139659500Y-117907314D01*
X139752686Y-118000500D01*
X139866814Y-118066392D01*
X139994105Y-118100499D01*
X139994106Y-118100500D01*
X139994108Y-118100500D01*
X140125894Y-118100500D01*
X140125894Y-118100499D01*
X140253186Y-118066392D01*
X140367314Y-118000500D01*
X140460500Y-117907314D01*
X140526392Y-117793186D01*
X140560499Y-117665894D01*
X140560500Y-117665894D01*
X140560500Y-117534106D01*
X140560499Y-117534105D01*
X143999500Y-117534105D01*
X143999500Y-117665894D01*
X144033606Y-117793181D01*
X144033607Y-117793184D01*
X144033608Y-117793186D01*
X144099500Y-117907314D01*
X144192686Y-118000500D01*
X144306814Y-118066392D01*
X144434105Y-118100499D01*
X144434106Y-118100500D01*
X144434108Y-118100500D01*
X144565894Y-118100500D01*
X144565894Y-118100499D01*
X144693186Y-118066392D01*
X144807314Y-118000500D01*
X144873709Y-117934105D01*
X146999500Y-117934105D01*
X146999500Y-118065894D01*
X147033606Y-118193181D01*
X147033607Y-118193184D01*
X147033608Y-118193186D01*
X147099500Y-118307314D01*
X147192686Y-118400500D01*
X147306814Y-118466392D01*
X147434105Y-118500499D01*
X147434106Y-118500500D01*
X147434108Y-118500500D01*
X147565894Y-118500500D01*
X147565894Y-118500499D01*
X147693186Y-118466392D01*
X147807314Y-118400500D01*
X147900500Y-118307314D01*
X147966392Y-118193186D01*
X148000499Y-118065894D01*
X148000500Y-118065894D01*
X148000500Y-117934106D01*
X148000499Y-117934105D01*
X159999500Y-117934105D01*
X159999500Y-118065894D01*
X160033606Y-118193181D01*
X160033607Y-118193184D01*
X160033608Y-118193186D01*
X160099500Y-118307314D01*
X160192686Y-118400500D01*
X160306814Y-118466392D01*
X160434105Y-118500499D01*
X160434106Y-118500500D01*
X160434108Y-118500500D01*
X160565894Y-118500500D01*
X160565894Y-118500499D01*
X160693186Y-118466392D01*
X160807314Y-118400500D01*
X160900500Y-118307314D01*
X160966392Y-118193186D01*
X161000499Y-118065894D01*
X161000500Y-118065894D01*
X161000500Y-117934106D01*
X161000499Y-117934105D01*
X160993320Y-117907314D01*
X160966392Y-117806814D01*
X160900500Y-117692686D01*
X160807314Y-117599500D01*
X160796652Y-117593344D01*
X160693190Y-117533610D01*
X160693181Y-117533606D01*
X160565894Y-117499500D01*
X160565892Y-117499500D01*
X160434108Y-117499500D01*
X160434106Y-117499500D01*
X160306818Y-117533606D01*
X160306809Y-117533610D01*
X160192685Y-117599500D01*
X160099500Y-117692685D01*
X160033610Y-117806809D01*
X160033606Y-117806818D01*
X159999500Y-117934105D01*
X148000499Y-117934105D01*
X147993320Y-117907314D01*
X147966392Y-117806814D01*
X147900500Y-117692686D01*
X147807314Y-117599500D01*
X147796652Y-117593344D01*
X147693190Y-117533610D01*
X147693181Y-117533606D01*
X147565894Y-117499500D01*
X147565892Y-117499500D01*
X147434108Y-117499500D01*
X147434106Y-117499500D01*
X147306818Y-117533606D01*
X147306809Y-117533610D01*
X147192685Y-117599500D01*
X147099500Y-117692685D01*
X147033610Y-117806809D01*
X147033606Y-117806818D01*
X146999500Y-117934105D01*
X144873709Y-117934105D01*
X144900500Y-117907314D01*
X144904105Y-117901068D01*
X144909194Y-117892257D01*
X144940150Y-117838637D01*
X144966392Y-117793186D01*
X145000499Y-117665894D01*
X145000500Y-117665894D01*
X145000500Y-117534106D01*
X145000499Y-117534105D01*
X145000366Y-117533610D01*
X144966392Y-117406814D01*
X144900500Y-117292686D01*
X144807314Y-117199500D01*
X144693190Y-117133610D01*
X144693181Y-117133606D01*
X144565894Y-117099500D01*
X144565892Y-117099500D01*
X144434108Y-117099500D01*
X144434106Y-117099500D01*
X144306818Y-117133606D01*
X144306809Y-117133610D01*
X144192685Y-117199500D01*
X144099500Y-117292685D01*
X144033610Y-117406809D01*
X144033606Y-117406818D01*
X143999500Y-117534105D01*
X140560499Y-117534105D01*
X140560366Y-117533610D01*
X140526392Y-117406814D01*
X140460500Y-117292686D01*
X140367314Y-117199500D01*
X140253190Y-117133610D01*
X140253181Y-117133606D01*
X140125894Y-117099500D01*
X140125892Y-117099500D01*
X139994108Y-117099500D01*
X139994106Y-117099500D01*
X139866818Y-117133606D01*
X139866809Y-117133610D01*
X139752685Y-117199500D01*
X139659500Y-117292685D01*
X139593610Y-117406809D01*
X139593606Y-117406818D01*
X139559500Y-117534105D01*
X138194047Y-117534105D01*
X138193190Y-117533610D01*
X138193181Y-117533606D01*
X138065894Y-117499500D01*
X138065892Y-117499500D01*
X137934108Y-117499500D01*
X137934106Y-117499500D01*
X137806818Y-117533606D01*
X137806809Y-117533610D01*
X137692685Y-117599500D01*
X137599500Y-117692685D01*
X137533610Y-117806809D01*
X137533606Y-117806818D01*
X137499500Y-117934105D01*
X118800500Y-117934105D01*
X118800500Y-115434105D01*
X127099500Y-115434105D01*
X127099500Y-115565894D01*
X127133606Y-115693181D01*
X127133610Y-115693190D01*
X127199208Y-115806809D01*
X127199500Y-115807314D01*
X127292686Y-115900500D01*
X127406814Y-115966392D01*
X127534105Y-116000499D01*
X127534106Y-116000500D01*
X127534108Y-116000500D01*
X127665894Y-116000500D01*
X127665894Y-116000499D01*
X127793186Y-115966392D01*
X127849109Y-115934105D01*
X129799500Y-115934105D01*
X129799500Y-116065894D01*
X129833606Y-116193181D01*
X129833610Y-116193190D01*
X129866698Y-116250499D01*
X129899500Y-116307314D01*
X129992686Y-116400500D01*
X130106814Y-116466392D01*
X130234105Y-116500499D01*
X130234106Y-116500500D01*
X130234108Y-116500500D01*
X130365894Y-116500500D01*
X130365894Y-116500499D01*
X130493186Y-116466392D01*
X130607314Y-116400500D01*
X130700500Y-116307314D01*
X130766392Y-116193186D01*
X130800499Y-116065894D01*
X130800500Y-116065894D01*
X130800500Y-115934106D01*
X130800499Y-115934105D01*
X130791494Y-115900499D01*
X130766392Y-115806814D01*
X130700500Y-115692686D01*
X130691919Y-115684105D01*
X159399500Y-115684105D01*
X159399500Y-115815894D01*
X159433606Y-115943181D01*
X159433610Y-115943190D01*
X159466698Y-116000499D01*
X159499500Y-116057314D01*
X159592686Y-116150500D01*
X159706814Y-116216392D01*
X159834105Y-116250499D01*
X159834106Y-116250500D01*
X159834108Y-116250500D01*
X159965894Y-116250500D01*
X159965894Y-116250499D01*
X160093186Y-116216392D01*
X160207314Y-116150500D01*
X160300500Y-116057314D01*
X160366392Y-115943186D01*
X160400499Y-115815894D01*
X160400500Y-115815894D01*
X160400500Y-115684106D01*
X160400499Y-115684105D01*
X160377829Y-115599500D01*
X160366392Y-115556814D01*
X160300500Y-115442686D01*
X160207314Y-115349500D01*
X160133380Y-115306814D01*
X160093190Y-115283610D01*
X160093181Y-115283606D01*
X159965894Y-115249500D01*
X159965892Y-115249500D01*
X159834108Y-115249500D01*
X159834106Y-115249500D01*
X159706818Y-115283606D01*
X159706809Y-115283610D01*
X159592685Y-115349500D01*
X159499500Y-115442685D01*
X159433610Y-115556809D01*
X159433606Y-115556818D01*
X159399500Y-115684105D01*
X130691919Y-115684105D01*
X130607314Y-115599500D01*
X130549107Y-115565894D01*
X130493190Y-115533610D01*
X130493181Y-115533606D01*
X130365894Y-115499500D01*
X130365892Y-115499500D01*
X130234108Y-115499500D01*
X130234106Y-115499500D01*
X130106818Y-115533606D01*
X130106809Y-115533610D01*
X129992685Y-115599500D01*
X129899500Y-115692685D01*
X129833610Y-115806809D01*
X129833606Y-115806818D01*
X129799500Y-115934105D01*
X127849109Y-115934105D01*
X127907314Y-115900500D01*
X128000500Y-115807314D01*
X128066392Y-115693186D01*
X128100499Y-115565894D01*
X128100500Y-115565894D01*
X128100500Y-115434106D01*
X128100499Y-115434105D01*
X128077829Y-115349500D01*
X128066392Y-115306814D01*
X128000500Y-115192686D01*
X127907314Y-115099500D01*
X127793190Y-115033610D01*
X127793181Y-115033606D01*
X127665894Y-114999500D01*
X127665892Y-114999500D01*
X127534108Y-114999500D01*
X127534106Y-114999500D01*
X127406818Y-115033606D01*
X127406809Y-115033610D01*
X127292685Y-115099500D01*
X127199500Y-115192685D01*
X127133610Y-115306809D01*
X127133606Y-115306818D01*
X127099500Y-115434105D01*
X118800500Y-115434105D01*
X118800500Y-114634105D01*
X157699500Y-114634105D01*
X157699500Y-114765894D01*
X157733606Y-114893181D01*
X157733607Y-114893184D01*
X157733608Y-114893186D01*
X157799500Y-115007314D01*
X157892686Y-115100500D01*
X158006814Y-115166392D01*
X158134105Y-115200499D01*
X158134106Y-115200500D01*
X158134108Y-115200500D01*
X158265894Y-115200500D01*
X158265894Y-115200499D01*
X158393186Y-115166392D01*
X158507314Y-115100500D01*
X158600500Y-115007314D01*
X158666392Y-114893186D01*
X158700499Y-114765894D01*
X158700500Y-114765894D01*
X158700500Y-114634106D01*
X158700499Y-114634105D01*
X158691494Y-114600499D01*
X158666392Y-114506814D01*
X158600500Y-114392686D01*
X158507314Y-114299500D01*
X158449107Y-114265894D01*
X158393190Y-114233610D01*
X158393181Y-114233606D01*
X158270507Y-114200736D01*
X158265894Y-114199500D01*
X158265892Y-114199500D01*
X158134108Y-114199500D01*
X158134106Y-114199500D01*
X158006818Y-114233606D01*
X158006809Y-114233610D01*
X157892685Y-114299500D01*
X157799500Y-114392685D01*
X157733610Y-114506809D01*
X157733606Y-114506818D01*
X157699500Y-114634105D01*
X118800500Y-114634105D01*
X118800500Y-114134105D01*
X163999500Y-114134105D01*
X163999500Y-114265894D01*
X164033606Y-114393181D01*
X164033607Y-114393184D01*
X164033608Y-114393186D01*
X164099500Y-114507314D01*
X164192686Y-114600500D01*
X164306814Y-114666392D01*
X164434105Y-114700499D01*
X164434106Y-114700500D01*
X164434108Y-114700500D01*
X164565894Y-114700500D01*
X164565894Y-114700499D01*
X164693186Y-114666392D01*
X164807314Y-114600500D01*
X164900500Y-114507314D01*
X164966392Y-114393186D01*
X165000499Y-114265894D01*
X165000500Y-114265894D01*
X165000500Y-114134106D01*
X165000499Y-114134105D01*
X164966393Y-114006818D01*
X164966392Y-114006814D01*
X164900500Y-113892686D01*
X164807314Y-113799500D01*
X164749971Y-113766393D01*
X164693190Y-113733610D01*
X164693181Y-113733606D01*
X164565894Y-113699500D01*
X164565892Y-113699500D01*
X164434108Y-113699500D01*
X164434106Y-113699500D01*
X164306818Y-113733606D01*
X164306809Y-113733610D01*
X164192685Y-113799500D01*
X164099500Y-113892685D01*
X164033610Y-114006809D01*
X164033606Y-114006818D01*
X163999500Y-114134105D01*
X118800500Y-114134105D01*
X118800500Y-112251008D01*
X119999500Y-112251008D01*
X119999500Y-112388991D01*
X120026418Y-112524322D01*
X120026421Y-112524332D01*
X120079223Y-112651808D01*
X120147521Y-112754024D01*
X120155886Y-112766542D01*
X120253458Y-112864114D01*
X120368189Y-112940775D01*
X120368190Y-112940775D01*
X120368191Y-112940776D01*
X120472804Y-112984108D01*
X120495672Y-112993580D01*
X120631007Y-113020500D01*
X120631009Y-113020500D01*
X121568991Y-113020500D01*
X121568993Y-113020500D01*
X121704328Y-112993580D01*
X121831811Y-112940775D01*
X121946542Y-112864114D01*
X122044114Y-112766542D01*
X122120775Y-112651811D01*
X122173580Y-112524328D01*
X122200500Y-112388993D01*
X122200500Y-112251008D01*
X124029500Y-112251008D01*
X124029500Y-112388991D01*
X124056418Y-112524322D01*
X124056421Y-112524332D01*
X124109223Y-112651808D01*
X124177521Y-112754024D01*
X124185886Y-112766542D01*
X124283458Y-112864114D01*
X124398189Y-112940775D01*
X124398190Y-112940775D01*
X124398191Y-112940776D01*
X124502804Y-112984108D01*
X124525672Y-112993580D01*
X124661007Y-113020500D01*
X124661009Y-113020500D01*
X125898991Y-113020500D01*
X125898993Y-113020500D01*
X126034328Y-112993580D01*
X126161811Y-112940775D01*
X126276542Y-112864114D01*
X126374114Y-112766542D01*
X126450775Y-112651811D01*
X126503580Y-112524328D01*
X126521527Y-112434105D01*
X138999500Y-112434105D01*
X138999500Y-112565894D01*
X139033606Y-112693181D01*
X139033607Y-112693184D01*
X139033608Y-112693186D01*
X139099500Y-112807314D01*
X139192686Y-112900500D01*
X139306814Y-112966392D01*
X139434105Y-113000499D01*
X139434106Y-113000500D01*
X139434108Y-113000500D01*
X139565893Y-113000500D01*
X139579988Y-112996723D01*
X139607570Y-112989332D01*
X139663722Y-112996723D01*
X139698201Y-113041656D01*
X139690810Y-113097809D01*
X139679049Y-113113136D01*
X139599500Y-113192685D01*
X139533610Y-113306809D01*
X139533606Y-113306818D01*
X139499500Y-113434105D01*
X139499500Y-113565894D01*
X139533606Y-113693181D01*
X139533610Y-113693190D01*
X139556946Y-113733608D01*
X139599500Y-113807314D01*
X139692686Y-113900500D01*
X139806814Y-113966392D01*
X139934105Y-114000499D01*
X139934106Y-114000500D01*
X139934108Y-114000500D01*
X140065894Y-114000500D01*
X140065894Y-114000499D01*
X140193186Y-113966392D01*
X140307314Y-113900500D01*
X140400500Y-113807314D01*
X140466392Y-113693186D01*
X140500499Y-113565894D01*
X140500500Y-113565894D01*
X140500500Y-113434106D01*
X140500499Y-113434105D01*
X140491494Y-113400499D01*
X140466392Y-113306814D01*
X140400500Y-113192686D01*
X140307314Y-113099500D01*
X140193186Y-113033608D01*
X140193181Y-113033606D01*
X140065894Y-112999500D01*
X140065892Y-112999500D01*
X139934108Y-112999500D01*
X139892428Y-113010668D01*
X139836276Y-113003275D01*
X139821566Y-112984105D01*
X157929500Y-112984105D01*
X157929500Y-113115894D01*
X157963606Y-113243181D01*
X157963607Y-113243184D01*
X157963608Y-113243186D01*
X158029500Y-113357314D01*
X158122686Y-113450500D01*
X158236814Y-113516392D01*
X158364105Y-113550499D01*
X158364106Y-113550500D01*
X158364108Y-113550500D01*
X158495894Y-113550500D01*
X158495894Y-113550499D01*
X158623186Y-113516392D01*
X158737314Y-113450500D01*
X158830500Y-113357314D01*
X158896392Y-113243186D01*
X158898825Y-113234105D01*
X160562000Y-113234105D01*
X160562000Y-113365894D01*
X160596106Y-113493181D01*
X160596110Y-113493190D01*
X160629198Y-113550499D01*
X160662000Y-113607314D01*
X160755186Y-113700500D01*
X160869314Y-113766392D01*
X160996605Y-113800499D01*
X160996606Y-113800500D01*
X160996608Y-113800500D01*
X161128394Y-113800500D01*
X161128394Y-113800499D01*
X161255686Y-113766392D01*
X161369814Y-113700500D01*
X161463000Y-113607314D01*
X161528892Y-113493186D01*
X161562999Y-113365894D01*
X161563000Y-113365894D01*
X161563000Y-113234106D01*
X161562999Y-113234105D01*
X161528893Y-113106818D01*
X161528892Y-113106814D01*
X161463000Y-112992686D01*
X161404419Y-112934105D01*
X161999500Y-112934105D01*
X161999500Y-113065894D01*
X162033606Y-113193181D01*
X162033610Y-113193190D01*
X162062478Y-113243190D01*
X162099500Y-113307314D01*
X162192686Y-113400500D01*
X162306814Y-113466392D01*
X162434105Y-113500499D01*
X162434106Y-113500500D01*
X162434108Y-113500500D01*
X162565894Y-113500500D01*
X162565894Y-113500499D01*
X162693186Y-113466392D01*
X162807314Y-113400500D01*
X162900500Y-113307314D01*
X162935914Y-113245974D01*
X162980847Y-113211496D01*
X163037000Y-113218889D01*
X163064085Y-113245974D01*
X163099500Y-113307314D01*
X163192686Y-113400500D01*
X163306814Y-113466392D01*
X163434105Y-113500499D01*
X163434106Y-113500500D01*
X163434108Y-113500500D01*
X163565894Y-113500500D01*
X163565894Y-113500499D01*
X163693186Y-113466392D01*
X163807314Y-113400500D01*
X163900500Y-113307314D01*
X163966392Y-113193186D01*
X164000499Y-113065894D01*
X164000500Y-113065894D01*
X164000500Y-112934106D01*
X164000499Y-112934105D01*
X163991494Y-112900499D01*
X163966392Y-112806814D01*
X163900500Y-112692686D01*
X163807314Y-112599500D01*
X163749107Y-112565894D01*
X163693190Y-112533610D01*
X163693181Y-112533606D01*
X163565894Y-112499500D01*
X163565892Y-112499500D01*
X163434108Y-112499500D01*
X163434106Y-112499500D01*
X163306818Y-112533606D01*
X163306809Y-112533610D01*
X163192685Y-112599500D01*
X163099500Y-112692685D01*
X163064086Y-112754024D01*
X163019152Y-112788503D01*
X162963000Y-112781110D01*
X162935914Y-112754024D01*
X162900791Y-112693190D01*
X162900500Y-112692686D01*
X162807314Y-112599500D01*
X162749107Y-112565894D01*
X162693190Y-112533610D01*
X162693181Y-112533606D01*
X162565894Y-112499500D01*
X162565892Y-112499500D01*
X162434108Y-112499500D01*
X162434106Y-112499500D01*
X162306818Y-112533606D01*
X162306809Y-112533610D01*
X162192685Y-112599500D01*
X162099500Y-112692685D01*
X162033610Y-112806809D01*
X162033606Y-112806818D01*
X161999500Y-112934105D01*
X161404419Y-112934105D01*
X161369814Y-112899500D01*
X161347926Y-112886863D01*
X161255690Y-112833610D01*
X161255681Y-112833606D01*
X161128394Y-112799500D01*
X161128392Y-112799500D01*
X160996608Y-112799500D01*
X160996606Y-112799500D01*
X160869318Y-112833606D01*
X160869309Y-112833610D01*
X160755185Y-112899500D01*
X160662000Y-112992685D01*
X160596110Y-113106809D01*
X160596106Y-113106818D01*
X160562000Y-113234105D01*
X158898825Y-113234105D01*
X158930499Y-113115894D01*
X158930500Y-113115894D01*
X158930500Y-112984106D01*
X158930499Y-112984105D01*
X158908097Y-112900500D01*
X158896392Y-112856814D01*
X158830500Y-112742686D01*
X158737314Y-112649500D01*
X158650712Y-112599500D01*
X158623190Y-112583610D01*
X158623181Y-112583606D01*
X158495894Y-112549500D01*
X158495892Y-112549500D01*
X158364108Y-112549500D01*
X158364106Y-112549500D01*
X158236818Y-112583606D01*
X158236809Y-112583610D01*
X158122685Y-112649500D01*
X158029500Y-112742685D01*
X157963610Y-112856809D01*
X157963606Y-112856818D01*
X157929500Y-112984105D01*
X139821566Y-112984105D01*
X139801797Y-112958341D01*
X139809190Y-112902189D01*
X139820946Y-112886867D01*
X139900500Y-112807314D01*
X139966392Y-112693186D01*
X140000499Y-112565894D01*
X140000500Y-112565894D01*
X140000500Y-112434106D01*
X140000499Y-112434105D01*
X139988411Y-112388993D01*
X139966392Y-112306814D01*
X139900500Y-112192686D01*
X139807314Y-112099500D01*
X139693190Y-112033610D01*
X139693181Y-112033606D01*
X139565894Y-111999500D01*
X139565892Y-111999500D01*
X139434108Y-111999500D01*
X139434106Y-111999500D01*
X139306818Y-112033606D01*
X139306809Y-112033610D01*
X139192685Y-112099500D01*
X139099500Y-112192685D01*
X139033610Y-112306809D01*
X139033606Y-112306818D01*
X138999500Y-112434105D01*
X126521527Y-112434105D01*
X126530500Y-112388993D01*
X126530500Y-112251007D01*
X126503580Y-112115672D01*
X126450775Y-111988189D01*
X126374114Y-111873458D01*
X126276542Y-111775886D01*
X126161811Y-111699225D01*
X126161810Y-111699224D01*
X126161808Y-111699223D01*
X126034332Y-111646421D01*
X126034322Y-111646418D01*
X125943694Y-111628391D01*
X125898993Y-111619500D01*
X124661007Y-111619500D01*
X124622642Y-111627131D01*
X124525677Y-111646418D01*
X124525667Y-111646421D01*
X124398191Y-111699223D01*
X124283461Y-111775883D01*
X124185883Y-111873461D01*
X124109223Y-111988191D01*
X124056421Y-112115667D01*
X124056418Y-112115677D01*
X124029500Y-112251008D01*
X122200500Y-112251008D01*
X122200500Y-112251007D01*
X122173580Y-112115672D01*
X122120775Y-111988189D01*
X122044114Y-111873458D01*
X121946542Y-111775886D01*
X121831811Y-111699225D01*
X121831810Y-111699224D01*
X121831808Y-111699223D01*
X121704332Y-111646421D01*
X121704322Y-111646418D01*
X121613694Y-111628391D01*
X121568993Y-111619500D01*
X120631007Y-111619500D01*
X120592642Y-111627131D01*
X120495677Y-111646418D01*
X120495667Y-111646421D01*
X120368191Y-111699223D01*
X120253461Y-111775883D01*
X120155883Y-111873461D01*
X120079223Y-111988191D01*
X120026421Y-112115667D01*
X120026418Y-112115677D01*
X119999500Y-112251008D01*
X118800500Y-112251008D01*
X118800500Y-110820814D01*
X124254500Y-110820814D01*
X124254500Y-110959185D01*
X124290310Y-111092831D01*
X124290312Y-111092836D01*
X124359495Y-111212665D01*
X124457335Y-111310505D01*
X124577164Y-111379688D01*
X124710814Y-111415499D01*
X124710815Y-111415500D01*
X124710817Y-111415500D01*
X124849185Y-111415500D01*
X124849185Y-111415499D01*
X124982836Y-111379688D01*
X125102665Y-111310505D01*
X125200505Y-111212665D01*
X125269688Y-111092836D01*
X125305499Y-110959185D01*
X125305500Y-110959185D01*
X125305500Y-110820815D01*
X125305499Y-110820814D01*
X125269689Y-110687168D01*
X125269688Y-110687164D01*
X125200505Y-110567335D01*
X125102665Y-110469495D01*
X124982836Y-110400312D01*
X124982830Y-110400310D01*
X124849185Y-110364500D01*
X124849183Y-110364500D01*
X124710817Y-110364500D01*
X124710815Y-110364500D01*
X124577168Y-110400310D01*
X124577163Y-110400312D01*
X124457334Y-110469495D01*
X124359495Y-110567334D01*
X124290312Y-110687163D01*
X124290310Y-110687168D01*
X124254500Y-110820814D01*
X118800500Y-110820814D01*
X118800500Y-110334105D01*
X126299500Y-110334105D01*
X126299500Y-110465894D01*
X126333606Y-110593181D01*
X126333607Y-110593184D01*
X126333608Y-110593186D01*
X126399500Y-110707314D01*
X126492686Y-110800500D01*
X126606814Y-110866392D01*
X126734105Y-110900499D01*
X126734106Y-110900500D01*
X126734108Y-110900500D01*
X126865894Y-110900500D01*
X126865894Y-110900499D01*
X126993186Y-110866392D01*
X127107314Y-110800500D01*
X127200500Y-110707314D01*
X127266392Y-110593186D01*
X127300499Y-110465894D01*
X127300500Y-110465894D01*
X127300500Y-110434105D01*
X129999500Y-110434105D01*
X129999500Y-110565894D01*
X130033606Y-110693181D01*
X130033607Y-110693184D01*
X130033608Y-110693186D01*
X130099500Y-110807314D01*
X130192686Y-110900500D01*
X130306814Y-110966392D01*
X130434105Y-111000499D01*
X130434106Y-111000500D01*
X130434108Y-111000500D01*
X130565894Y-111000500D01*
X130565894Y-111000499D01*
X130693186Y-110966392D01*
X130807314Y-110900500D01*
X130900500Y-110807314D01*
X130966392Y-110693186D01*
X131000499Y-110565894D01*
X131000500Y-110565894D01*
X131000500Y-110434106D01*
X131000499Y-110434105D01*
X130973704Y-110334105D01*
X130966392Y-110306814D01*
X130900500Y-110192686D01*
X130807314Y-110099500D01*
X130795510Y-110092685D01*
X130693190Y-110033610D01*
X130693181Y-110033606D01*
X130565894Y-109999500D01*
X130565892Y-109999500D01*
X130434108Y-109999500D01*
X130434106Y-109999500D01*
X130306818Y-110033606D01*
X130306809Y-110033610D01*
X130192685Y-110099500D01*
X130099500Y-110192685D01*
X130033610Y-110306809D01*
X130033606Y-110306818D01*
X129999500Y-110434105D01*
X127300500Y-110434105D01*
X127300500Y-110334106D01*
X127300499Y-110334105D01*
X127293186Y-110306814D01*
X127266392Y-110206814D01*
X127200500Y-110092686D01*
X127107314Y-109999500D01*
X126993190Y-109933610D01*
X126993181Y-109933606D01*
X126865894Y-109899500D01*
X126865892Y-109899500D01*
X126734108Y-109899500D01*
X126734106Y-109899500D01*
X126606818Y-109933606D01*
X126606809Y-109933610D01*
X126492685Y-109999500D01*
X126399500Y-110092685D01*
X126333610Y-110206809D01*
X126333606Y-110206818D01*
X126299500Y-110334105D01*
X118800500Y-110334105D01*
X118800500Y-108184105D01*
X123799500Y-108184105D01*
X123799500Y-108315894D01*
X123833606Y-108443181D01*
X123833610Y-108443190D01*
X123856946Y-108483608D01*
X123899500Y-108557314D01*
X123992686Y-108650500D01*
X124106814Y-108716392D01*
X124234105Y-108750499D01*
X124234106Y-108750500D01*
X124234108Y-108750500D01*
X124365894Y-108750500D01*
X124365894Y-108750499D01*
X124493186Y-108716392D01*
X124549109Y-108684105D01*
X126699500Y-108684105D01*
X126699500Y-108815894D01*
X126733606Y-108943181D01*
X126733610Y-108943190D01*
X126775585Y-109015892D01*
X126799500Y-109057314D01*
X126892686Y-109150500D01*
X127006814Y-109216392D01*
X127134105Y-109250499D01*
X127134106Y-109250500D01*
X127134108Y-109250500D01*
X127265894Y-109250500D01*
X127265894Y-109250499D01*
X127393186Y-109216392D01*
X127507314Y-109150500D01*
X127540167Y-109117646D01*
X127592492Y-109095972D01*
X127644818Y-109117645D01*
X127656577Y-109132969D01*
X127699500Y-109207314D01*
X127792686Y-109300500D01*
X127906814Y-109366392D01*
X128034105Y-109400499D01*
X128034106Y-109400500D01*
X128034108Y-109400500D01*
X128165894Y-109400500D01*
X128165894Y-109400499D01*
X128293186Y-109366392D01*
X128407314Y-109300500D01*
X128500500Y-109207314D01*
X128566392Y-109093186D01*
X128600499Y-108965894D01*
X128600500Y-108965894D01*
X128600500Y-108884105D01*
X133599500Y-108884105D01*
X133599500Y-109015894D01*
X133633606Y-109143181D01*
X133633610Y-109143190D01*
X133670632Y-109207314D01*
X133699500Y-109257314D01*
X133792686Y-109350500D01*
X133906814Y-109416392D01*
X134034105Y-109450499D01*
X134034106Y-109450500D01*
X134034108Y-109450500D01*
X134165894Y-109450500D01*
X134165894Y-109450499D01*
X134293186Y-109416392D01*
X134407314Y-109350500D01*
X134500500Y-109257314D01*
X134566392Y-109143186D01*
X134600499Y-109015894D01*
X134600500Y-109015894D01*
X134600500Y-108884106D01*
X134600499Y-108884105D01*
X134566393Y-108756818D01*
X134566392Y-108756814D01*
X134500500Y-108642686D01*
X134407314Y-108549500D01*
X134377613Y-108532352D01*
X134293190Y-108483610D01*
X134293181Y-108483606D01*
X134165894Y-108449500D01*
X134165892Y-108449500D01*
X134034108Y-108449500D01*
X134034106Y-108449500D01*
X133906818Y-108483606D01*
X133906809Y-108483610D01*
X133792685Y-108549500D01*
X133699500Y-108642685D01*
X133633610Y-108756809D01*
X133633606Y-108756818D01*
X133599500Y-108884105D01*
X128600500Y-108884105D01*
X128600500Y-108834106D01*
X128600499Y-108834105D01*
X128595619Y-108815894D01*
X128566392Y-108706814D01*
X128500500Y-108592686D01*
X128407314Y-108499500D01*
X128320712Y-108449500D01*
X128293190Y-108433610D01*
X128293181Y-108433606D01*
X128165894Y-108399500D01*
X128165892Y-108399500D01*
X128034108Y-108399500D01*
X128034106Y-108399500D01*
X127906818Y-108433606D01*
X127906809Y-108433610D01*
X127792685Y-108499500D01*
X127759831Y-108532354D01*
X127707505Y-108554027D01*
X127655179Y-108532352D01*
X127643423Y-108517031D01*
X127600500Y-108442686D01*
X127507314Y-108349500D01*
X127449107Y-108315894D01*
X127393190Y-108283610D01*
X127393181Y-108283606D01*
X127265894Y-108249500D01*
X127265892Y-108249500D01*
X127134108Y-108249500D01*
X127134106Y-108249500D01*
X127006818Y-108283606D01*
X127006809Y-108283610D01*
X126892685Y-108349500D01*
X126799500Y-108442685D01*
X126733610Y-108556809D01*
X126733606Y-108556818D01*
X126699500Y-108684105D01*
X124549109Y-108684105D01*
X124607314Y-108650500D01*
X124700500Y-108557314D01*
X124766392Y-108443186D01*
X124800499Y-108315894D01*
X124800500Y-108315894D01*
X124800500Y-108184106D01*
X124800499Y-108184105D01*
X124766393Y-108056818D01*
X124766392Y-108056814D01*
X124700500Y-107942686D01*
X124607314Y-107849500D01*
X124493190Y-107783610D01*
X124493181Y-107783606D01*
X124365894Y-107749500D01*
X124365892Y-107749500D01*
X124234108Y-107749500D01*
X124234106Y-107749500D01*
X124106818Y-107783606D01*
X124106809Y-107783610D01*
X123992685Y-107849500D01*
X123899500Y-107942685D01*
X123833610Y-108056809D01*
X123833606Y-108056818D01*
X123799500Y-108184105D01*
X118800500Y-108184105D01*
X118800500Y-107384105D01*
X127299500Y-107384105D01*
X127299500Y-107515894D01*
X127333606Y-107643181D01*
X127333607Y-107643184D01*
X127333608Y-107643186D01*
X127399500Y-107757314D01*
X127492686Y-107850500D01*
X127606814Y-107916392D01*
X127734105Y-107950499D01*
X127734106Y-107950500D01*
X127734108Y-107950500D01*
X127865894Y-107950500D01*
X127865894Y-107950499D01*
X127993186Y-107916392D01*
X128107314Y-107850500D01*
X128200500Y-107757314D01*
X128266392Y-107643186D01*
X128300499Y-107515894D01*
X128300500Y-107515894D01*
X128300500Y-107384106D01*
X128300499Y-107384105D01*
X128293320Y-107357314D01*
X128266392Y-107256814D01*
X128200500Y-107142686D01*
X128107314Y-107049500D01*
X128107313Y-107049499D01*
X128096652Y-107043344D01*
X128022442Y-107000499D01*
X127994047Y-106984105D01*
X133599500Y-106984105D01*
X133599500Y-107115894D01*
X133633606Y-107243181D01*
X133633607Y-107243184D01*
X133633608Y-107243186D01*
X133699500Y-107357314D01*
X133792686Y-107450500D01*
X133906814Y-107516392D01*
X134034105Y-107550499D01*
X134034106Y-107550500D01*
X134034108Y-107550500D01*
X134165894Y-107550500D01*
X134165894Y-107550499D01*
X134293186Y-107516392D01*
X134407314Y-107450500D01*
X134500500Y-107357314D01*
X134566392Y-107243186D01*
X134600499Y-107115894D01*
X134600500Y-107115894D01*
X134600500Y-106984106D01*
X134600499Y-106984105D01*
X134600366Y-106983610D01*
X134566392Y-106856814D01*
X134500500Y-106742686D01*
X134407314Y-106649500D01*
X134293190Y-106583610D01*
X134293181Y-106583606D01*
X134165894Y-106549500D01*
X134165892Y-106549500D01*
X134034108Y-106549500D01*
X134034106Y-106549500D01*
X133906818Y-106583606D01*
X133906809Y-106583610D01*
X133792685Y-106649500D01*
X133699500Y-106742685D01*
X133633610Y-106856809D01*
X133633606Y-106856818D01*
X133599500Y-106984105D01*
X127994047Y-106984105D01*
X127993190Y-106983610D01*
X127993181Y-106983606D01*
X127865894Y-106949500D01*
X127865892Y-106949500D01*
X127734108Y-106949500D01*
X127734106Y-106949500D01*
X127606818Y-106983606D01*
X127606809Y-106983610D01*
X127492685Y-107049500D01*
X127399500Y-107142685D01*
X127333610Y-107256809D01*
X127333606Y-107256818D01*
X127299500Y-107384105D01*
X118800500Y-107384105D01*
X118800500Y-105324000D01*
X118822174Y-105271674D01*
X118874500Y-105250000D01*
X124216693Y-105250000D01*
X124269019Y-105271674D01*
G37*
%TD.AperFunction*%
%TD*%
M02*
