M48
; DRILL file KiCad 10.0.5 date 2026-08-23T11:17:48
; FORMAT={-:-/ absolute / metric / decimal}
; #@! TF.CreationDate,2026-08-23T11:17:48+08:00
; #@! TF.GenerationSoftware,Kicad,Pcbnew,10.0.5
; #@! TF.FileFunction,Plated,1,4,PTH
FMAT,2
METRIC
; #@! TA.AperFunction,Plated,PTH,ViaDrill
T1C0.300
; #@! TA.AperFunction,Plated,PTH,ComponentDrill
T2C0.600
%
G90
G05
T1
X124.3Y-108.25
X126.8Y-105.6
X126.8Y-110.4
X127.0Y-104.0
X127.2Y-108.75
X127.6Y-115.5
X127.8Y-107.45
X128.0Y-123.0
X128.1Y-108.9
X130.3Y-116.0
X130.5Y-100.0
X130.5Y-105.5
X130.5Y-110.5
X132.7Y-108.0
X133.5Y-104.0
X133.5Y-120.0
X134.1Y-107.05
X134.1Y-108.95
X135.5Y-112.5
X135.5Y-128.8
X135.9Y-118.0
X138.0Y-118.0
X138.5Y-128.0
X139.125Y-84.0
X139.5Y-112.5
X140.0Y-113.5
X140.06Y-117.6
X141.5Y-129.4
X141.625Y-86.5
X142.3Y-97.2
X143.7Y-104.0
X144.5Y-117.6
X145.375Y-86.2
X147.5Y-118.0
X147.875Y-87.0
X147.9Y-87.8
X148.5Y-104.0
X148.5Y-120.0
X150.0Y-98.0
X151.5Y-80.65
X151.5Y-88.45
X152.0Y-97.2
X152.5Y-84.0
X152.5Y-96.4
X153.49Y-91.5
X158.2Y-114.7
X158.43Y-113.05
X158.5Y-104.0
X158.5Y-125.0
X159.0Y-120.5
X159.9Y-115.75
X160.5Y-118.0
X160.5Y-122.5
X161.062Y-113.3
X162.5Y-113.0
X162.9Y-118.25
X163.5Y-113.0
X163.7Y-118.25
X164.3Y-124.0
X164.5Y-114.2
X166.0Y-101.5
X166.5Y-84.8
X166.5Y-88.8
X166.5Y-102.5
X166.7Y-97.5
X166.8Y-87.8
X167.4Y-86.8
X167.5Y-82.0
X167.5Y-85.8
X168.1Y-93.8
X168.1Y-103.5
X168.2Y-83.2
X168.2Y-85.3
X168.7Y-96.8
X168.7Y-104.5
X169.1Y-96.0
X169.1Y-105.5
X169.2Y-90.4
X169.5Y-95.2
X169.5Y-106.5
X170.4Y-85.8
X170.4Y-106.5
X170.5Y-82.5
X171.3Y-81.85
X171.3Y-83.2
X171.59Y-88.24
X171.7Y-99.0
X173.0Y-81.85
X173.0Y-99.5
X174.0Y-82.5
X174.9Y-104.1
X175.0Y-81.25
X175.8Y-99.5
X176.0Y-83.0
X176.25Y-85.375
X177.0Y-80.65
X177.38Y-91.3
T2
X121.5Y-103.68G85X120.7Y-103.68
G05
X121.5Y-112.32G85X120.7Y-112.32
G05
X125.83Y-103.68G85X124.73Y-103.68
G05
X125.83Y-112.32G85X124.73Y-112.32
G05
M30
