%TF.GenerationSoftware,KiCad,Pcbnew,10.0.5*%
%TF.CreationDate,2026-08-23T12:29:17+08:00*%
%TF.ProjectId,receiver-effects,72656365-6976-4657-922d-656666656374,rev?*%
%TF.SameCoordinates,Original*%
%TF.FileFunction,Drillmap*%
%TF.FilePolarity,Positive*%
%FSLAX45Y45*%
G04 Gerber Fmt 4.5, Leading zero omitted, Abs format (unit mm)*
G04 Created by KiCad (PCBNEW 10.0.5) date 2026-08-23 12:29:17*
%MOMM*%
%LPD*%
G01*
G04 APERTURE LIST*
%ADD10C,0.100000*%
%ADD11C,0.200000*%
%ADD12C,0.240000*%
G04 APERTURE END LIST*
D10*
X11850000Y-8000000D02*
X17850000Y-8000000D01*
X11850000Y-13000000D02*
X11850000Y-8000000D01*
X17850000Y-8000000D02*
X17850000Y-13000000D01*
X17850000Y-13000000D02*
X11850000Y-13000000D01*
D11*
D10*
X12445500Y-10478500D02*
X12510500Y-10543500D01*
X12510500Y-10478500D02*
X12445500Y-10543500D01*
X12445500Y-11056500D02*
X12510500Y-11121500D01*
X12510500Y-11056500D02*
X12445500Y-11121500D01*
D12*
X12270000Y-8300000D02*
G75*
G02*
X12030000Y-8300000I-120000J0D01*
G01*
X12030000Y-8300000D02*
G75*
G02*
X12270000Y-8300000I120000J0D01*
G01*
X12270000Y-12700000D02*
G75*
G02*
X12030000Y-12700000I-120000J0D01*
G01*
X12030000Y-12700000D02*
G75*
G02*
X12270000Y-12700000I120000J0D01*
G01*
X15870000Y-8300000D02*
G75*
G02*
X15630000Y-8300000I-120000J0D01*
G01*
X15630000Y-8300000D02*
G75*
G02*
X15870000Y-8300000I120000J0D01*
G01*
X17670000Y-12700000D02*
G75*
G02*
X17430000Y-12700000I-120000J0D01*
G01*
X17430000Y-12700000D02*
G75*
G02*
X17670000Y-12700000I120000J0D01*
G01*
D11*
X12105777Y-13316484D02*
X12105777Y-13116484D01*
X12105777Y-13116484D02*
X12153396Y-13116484D01*
X12153396Y-13116484D02*
X12181967Y-13126008D01*
X12181967Y-13126008D02*
X12201015Y-13145055D01*
X12201015Y-13145055D02*
X12210539Y-13164103D01*
X12210539Y-13164103D02*
X12220062Y-13202198D01*
X12220062Y-13202198D02*
X12220062Y-13230769D01*
X12220062Y-13230769D02*
X12210539Y-13268865D01*
X12210539Y-13268865D02*
X12201015Y-13287912D01*
X12201015Y-13287912D02*
X12181967Y-13306960D01*
X12181967Y-13306960D02*
X12153396Y-13316484D01*
X12153396Y-13316484D02*
X12105777Y-13316484D01*
X12305777Y-13316484D02*
X12305777Y-13183150D01*
X12305777Y-13221246D02*
X12315301Y-13202198D01*
X12315301Y-13202198D02*
X12324824Y-13192674D01*
X12324824Y-13192674D02*
X12343872Y-13183150D01*
X12343872Y-13183150D02*
X12362920Y-13183150D01*
X12429586Y-13316484D02*
X12429586Y-13183150D01*
X12429586Y-13116484D02*
X12420062Y-13126008D01*
X12420062Y-13126008D02*
X12429586Y-13135531D01*
X12429586Y-13135531D02*
X12439110Y-13126008D01*
X12439110Y-13126008D02*
X12429586Y-13116484D01*
X12429586Y-13116484D02*
X12429586Y-13135531D01*
X12553396Y-13316484D02*
X12534348Y-13306960D01*
X12534348Y-13306960D02*
X12524824Y-13287912D01*
X12524824Y-13287912D02*
X12524824Y-13116484D01*
X12658158Y-13316484D02*
X12639110Y-13306960D01*
X12639110Y-13306960D02*
X12629586Y-13287912D01*
X12629586Y-13287912D02*
X12629586Y-13116484D01*
X12886729Y-13316484D02*
X12886729Y-13116484D01*
X12886729Y-13116484D02*
X12953396Y-13259341D01*
X12953396Y-13259341D02*
X13020062Y-13116484D01*
X13020062Y-13116484D02*
X13020062Y-13316484D01*
X13201015Y-13316484D02*
X13201015Y-13211722D01*
X13201015Y-13211722D02*
X13191491Y-13192674D01*
X13191491Y-13192674D02*
X13172443Y-13183150D01*
X13172443Y-13183150D02*
X13134348Y-13183150D01*
X13134348Y-13183150D02*
X13115301Y-13192674D01*
X13201015Y-13306960D02*
X13181967Y-13316484D01*
X13181967Y-13316484D02*
X13134348Y-13316484D01*
X13134348Y-13316484D02*
X13115301Y-13306960D01*
X13115301Y-13306960D02*
X13105777Y-13287912D01*
X13105777Y-13287912D02*
X13105777Y-13268865D01*
X13105777Y-13268865D02*
X13115301Y-13249817D01*
X13115301Y-13249817D02*
X13134348Y-13240293D01*
X13134348Y-13240293D02*
X13181967Y-13240293D01*
X13181967Y-13240293D02*
X13201015Y-13230769D01*
X13296253Y-13183150D02*
X13296253Y-13383150D01*
X13296253Y-13192674D02*
X13315301Y-13183150D01*
X13315301Y-13183150D02*
X13353396Y-13183150D01*
X13353396Y-13183150D02*
X13372443Y-13192674D01*
X13372443Y-13192674D02*
X13381967Y-13202198D01*
X13381967Y-13202198D02*
X13391491Y-13221246D01*
X13391491Y-13221246D02*
X13391491Y-13278388D01*
X13391491Y-13278388D02*
X13381967Y-13297436D01*
X13381967Y-13297436D02*
X13372443Y-13306960D01*
X13372443Y-13306960D02*
X13353396Y-13316484D01*
X13353396Y-13316484D02*
X13315301Y-13316484D01*
X13315301Y-13316484D02*
X13296253Y-13306960D01*
X13477205Y-13297436D02*
X13486729Y-13306960D01*
X13486729Y-13306960D02*
X13477205Y-13316484D01*
X13477205Y-13316484D02*
X13467682Y-13306960D01*
X13467682Y-13306960D02*
X13477205Y-13297436D01*
X13477205Y-13297436D02*
X13477205Y-13316484D01*
X13477205Y-13192674D02*
X13486729Y-13202198D01*
X13486729Y-13202198D02*
X13477205Y-13211722D01*
X13477205Y-13211722D02*
X13467682Y-13202198D01*
X13467682Y-13202198D02*
X13477205Y-13192674D01*
X13477205Y-13192674D02*
X13477205Y-13211722D01*
D10*
X11780000Y-13612500D02*
X11845000Y-13677500D01*
X11845000Y-13612500D02*
X11780000Y-13677500D01*
D11*
X12143872Y-13536484D02*
X12162920Y-13536484D01*
X12162920Y-13536484D02*
X12181967Y-13546008D01*
X12181967Y-13546008D02*
X12191491Y-13555531D01*
X12191491Y-13555531D02*
X12201015Y-13574579D01*
X12201015Y-13574579D02*
X12210539Y-13612674D01*
X12210539Y-13612674D02*
X12210539Y-13660293D01*
X12210539Y-13660293D02*
X12201015Y-13698388D01*
X12201015Y-13698388D02*
X12191491Y-13717436D01*
X12191491Y-13717436D02*
X12181967Y-13726960D01*
X12181967Y-13726960D02*
X12162920Y-13736484D01*
X12162920Y-13736484D02*
X12143872Y-13736484D01*
X12143872Y-13736484D02*
X12124824Y-13726960D01*
X12124824Y-13726960D02*
X12115301Y-13717436D01*
X12115301Y-13717436D02*
X12105777Y-13698388D01*
X12105777Y-13698388D02*
X12096253Y-13660293D01*
X12096253Y-13660293D02*
X12096253Y-13612674D01*
X12096253Y-13612674D02*
X12105777Y-13574579D01*
X12105777Y-13574579D02*
X12115301Y-13555531D01*
X12115301Y-13555531D02*
X12124824Y-13546008D01*
X12124824Y-13546008D02*
X12143872Y-13536484D01*
X12296253Y-13717436D02*
X12305777Y-13726960D01*
X12305777Y-13726960D02*
X12296253Y-13736484D01*
X12296253Y-13736484D02*
X12286729Y-13726960D01*
X12286729Y-13726960D02*
X12296253Y-13717436D01*
X12296253Y-13717436D02*
X12296253Y-13736484D01*
X12477205Y-13536484D02*
X12439110Y-13536484D01*
X12439110Y-13536484D02*
X12420062Y-13546008D01*
X12420062Y-13546008D02*
X12410539Y-13555531D01*
X12410539Y-13555531D02*
X12391491Y-13584103D01*
X12391491Y-13584103D02*
X12381967Y-13622198D01*
X12381967Y-13622198D02*
X12381967Y-13698388D01*
X12381967Y-13698388D02*
X12391491Y-13717436D01*
X12391491Y-13717436D02*
X12401015Y-13726960D01*
X12401015Y-13726960D02*
X12420062Y-13736484D01*
X12420062Y-13736484D02*
X12458158Y-13736484D01*
X12458158Y-13736484D02*
X12477205Y-13726960D01*
X12477205Y-13726960D02*
X12486729Y-13717436D01*
X12486729Y-13717436D02*
X12496253Y-13698388D01*
X12496253Y-13698388D02*
X12496253Y-13650769D01*
X12496253Y-13650769D02*
X12486729Y-13631722D01*
X12486729Y-13631722D02*
X12477205Y-13622198D01*
X12477205Y-13622198D02*
X12458158Y-13612674D01*
X12458158Y-13612674D02*
X12420062Y-13612674D01*
X12420062Y-13612674D02*
X12401015Y-13622198D01*
X12401015Y-13622198D02*
X12391491Y-13631722D01*
X12391491Y-13631722D02*
X12381967Y-13650769D01*
X12677205Y-13536484D02*
X12581967Y-13536484D01*
X12581967Y-13536484D02*
X12572443Y-13631722D01*
X12572443Y-13631722D02*
X12581967Y-13622198D01*
X12581967Y-13622198D02*
X12601015Y-13612674D01*
X12601015Y-13612674D02*
X12648634Y-13612674D01*
X12648634Y-13612674D02*
X12667682Y-13622198D01*
X12667682Y-13622198D02*
X12677205Y-13631722D01*
X12677205Y-13631722D02*
X12686729Y-13650769D01*
X12686729Y-13650769D02*
X12686729Y-13698388D01*
X12686729Y-13698388D02*
X12677205Y-13717436D01*
X12677205Y-13717436D02*
X12667682Y-13726960D01*
X12667682Y-13726960D02*
X12648634Y-13736484D01*
X12648634Y-13736484D02*
X12601015Y-13736484D01*
X12601015Y-13736484D02*
X12581967Y-13726960D01*
X12581967Y-13726960D02*
X12572443Y-13717436D01*
X12810539Y-13536484D02*
X12829586Y-13536484D01*
X12829586Y-13536484D02*
X12848634Y-13546008D01*
X12848634Y-13546008D02*
X12858158Y-13555531D01*
X12858158Y-13555531D02*
X12867682Y-13574579D01*
X12867682Y-13574579D02*
X12877205Y-13612674D01*
X12877205Y-13612674D02*
X12877205Y-13660293D01*
X12877205Y-13660293D02*
X12867682Y-13698388D01*
X12867682Y-13698388D02*
X12858158Y-13717436D01*
X12858158Y-13717436D02*
X12848634Y-13726960D01*
X12848634Y-13726960D02*
X12829586Y-13736484D01*
X12829586Y-13736484D02*
X12810539Y-13736484D01*
X12810539Y-13736484D02*
X12791491Y-13726960D01*
X12791491Y-13726960D02*
X12781967Y-13717436D01*
X12781967Y-13717436D02*
X12772443Y-13698388D01*
X12772443Y-13698388D02*
X12762920Y-13660293D01*
X12762920Y-13660293D02*
X12762920Y-13612674D01*
X12762920Y-13612674D02*
X12772443Y-13574579D01*
X12772443Y-13574579D02*
X12781967Y-13555531D01*
X12781967Y-13555531D02*
X12791491Y-13546008D01*
X12791491Y-13546008D02*
X12810539Y-13536484D01*
X12962920Y-13736484D02*
X12962920Y-13603150D01*
X12962920Y-13622198D02*
X12972443Y-13612674D01*
X12972443Y-13612674D02*
X12991491Y-13603150D01*
X12991491Y-13603150D02*
X13020063Y-13603150D01*
X13020063Y-13603150D02*
X13039110Y-13612674D01*
X13039110Y-13612674D02*
X13048634Y-13631722D01*
X13048634Y-13631722D02*
X13048634Y-13736484D01*
X13048634Y-13631722D02*
X13058158Y-13612674D01*
X13058158Y-13612674D02*
X13077205Y-13603150D01*
X13077205Y-13603150D02*
X13105777Y-13603150D01*
X13105777Y-13603150D02*
X13124824Y-13612674D01*
X13124824Y-13612674D02*
X13134348Y-13631722D01*
X13134348Y-13631722D02*
X13134348Y-13736484D01*
X13229586Y-13736484D02*
X13229586Y-13603150D01*
X13229586Y-13622198D02*
X13239110Y-13612674D01*
X13239110Y-13612674D02*
X13258158Y-13603150D01*
X13258158Y-13603150D02*
X13286729Y-13603150D01*
X13286729Y-13603150D02*
X13305777Y-13612674D01*
X13305777Y-13612674D02*
X13315301Y-13631722D01*
X13315301Y-13631722D02*
X13315301Y-13736484D01*
X13315301Y-13631722D02*
X13324824Y-13612674D01*
X13324824Y-13612674D02*
X13343872Y-13603150D01*
X13343872Y-13603150D02*
X13372443Y-13603150D01*
X13372443Y-13603150D02*
X13391491Y-13612674D01*
X13391491Y-13612674D02*
X13401015Y-13631722D01*
X13401015Y-13631722D02*
X13401015Y-13736484D01*
X13791491Y-13526960D02*
X13620063Y-13784103D01*
X14048634Y-13536484D02*
X14067682Y-13536484D01*
X14067682Y-13536484D02*
X14086729Y-13546008D01*
X14086729Y-13546008D02*
X14096253Y-13555531D01*
X14096253Y-13555531D02*
X14105777Y-13574579D01*
X14105777Y-13574579D02*
X14115301Y-13612674D01*
X14115301Y-13612674D02*
X14115301Y-13660293D01*
X14115301Y-13660293D02*
X14105777Y-13698388D01*
X14105777Y-13698388D02*
X14096253Y-13717436D01*
X14096253Y-13717436D02*
X14086729Y-13726960D01*
X14086729Y-13726960D02*
X14067682Y-13736484D01*
X14067682Y-13736484D02*
X14048634Y-13736484D01*
X14048634Y-13736484D02*
X14029586Y-13726960D01*
X14029586Y-13726960D02*
X14020063Y-13717436D01*
X14020063Y-13717436D02*
X14010539Y-13698388D01*
X14010539Y-13698388D02*
X14001015Y-13660293D01*
X14001015Y-13660293D02*
X14001015Y-13612674D01*
X14001015Y-13612674D02*
X14010539Y-13574579D01*
X14010539Y-13574579D02*
X14020063Y-13555531D01*
X14020063Y-13555531D02*
X14029586Y-13546008D01*
X14029586Y-13546008D02*
X14048634Y-13536484D01*
X14201015Y-13717436D02*
X14210539Y-13726960D01*
X14210539Y-13726960D02*
X14201015Y-13736484D01*
X14201015Y-13736484D02*
X14191491Y-13726960D01*
X14191491Y-13726960D02*
X14201015Y-13717436D01*
X14201015Y-13717436D02*
X14201015Y-13736484D01*
X14334348Y-13536484D02*
X14353396Y-13536484D01*
X14353396Y-13536484D02*
X14372444Y-13546008D01*
X14372444Y-13546008D02*
X14381967Y-13555531D01*
X14381967Y-13555531D02*
X14391491Y-13574579D01*
X14391491Y-13574579D02*
X14401015Y-13612674D01*
X14401015Y-13612674D02*
X14401015Y-13660293D01*
X14401015Y-13660293D02*
X14391491Y-13698388D01*
X14391491Y-13698388D02*
X14381967Y-13717436D01*
X14381967Y-13717436D02*
X14372444Y-13726960D01*
X14372444Y-13726960D02*
X14353396Y-13736484D01*
X14353396Y-13736484D02*
X14334348Y-13736484D01*
X14334348Y-13736484D02*
X14315301Y-13726960D01*
X14315301Y-13726960D02*
X14305777Y-13717436D01*
X14305777Y-13717436D02*
X14296253Y-13698388D01*
X14296253Y-13698388D02*
X14286729Y-13660293D01*
X14286729Y-13660293D02*
X14286729Y-13612674D01*
X14286729Y-13612674D02*
X14296253Y-13574579D01*
X14296253Y-13574579D02*
X14305777Y-13555531D01*
X14305777Y-13555531D02*
X14315301Y-13546008D01*
X14315301Y-13546008D02*
X14334348Y-13536484D01*
X14477206Y-13555531D02*
X14486729Y-13546008D01*
X14486729Y-13546008D02*
X14505777Y-13536484D01*
X14505777Y-13536484D02*
X14553396Y-13536484D01*
X14553396Y-13536484D02*
X14572444Y-13546008D01*
X14572444Y-13546008D02*
X14581967Y-13555531D01*
X14581967Y-13555531D02*
X14591491Y-13574579D01*
X14591491Y-13574579D02*
X14591491Y-13593627D01*
X14591491Y-13593627D02*
X14581967Y-13622198D01*
X14581967Y-13622198D02*
X14467682Y-13736484D01*
X14467682Y-13736484D02*
X14591491Y-13736484D01*
X14772444Y-13536484D02*
X14677206Y-13536484D01*
X14677206Y-13536484D02*
X14667682Y-13631722D01*
X14667682Y-13631722D02*
X14677206Y-13622198D01*
X14677206Y-13622198D02*
X14696253Y-13612674D01*
X14696253Y-13612674D02*
X14743872Y-13612674D01*
X14743872Y-13612674D02*
X14762920Y-13622198D01*
X14762920Y-13622198D02*
X14772444Y-13631722D01*
X14772444Y-13631722D02*
X14781967Y-13650769D01*
X14781967Y-13650769D02*
X14781967Y-13698388D01*
X14781967Y-13698388D02*
X14772444Y-13717436D01*
X14772444Y-13717436D02*
X14762920Y-13726960D01*
X14762920Y-13726960D02*
X14743872Y-13736484D01*
X14743872Y-13736484D02*
X14696253Y-13736484D01*
X14696253Y-13736484D02*
X14677206Y-13726960D01*
X14677206Y-13726960D02*
X14667682Y-13717436D01*
X14953396Y-13536484D02*
X14915301Y-13536484D01*
X14915301Y-13536484D02*
X14896253Y-13546008D01*
X14896253Y-13546008D02*
X14886729Y-13555531D01*
X14886729Y-13555531D02*
X14867682Y-13584103D01*
X14867682Y-13584103D02*
X14858158Y-13622198D01*
X14858158Y-13622198D02*
X14858158Y-13698388D01*
X14858158Y-13698388D02*
X14867682Y-13717436D01*
X14867682Y-13717436D02*
X14877206Y-13726960D01*
X14877206Y-13726960D02*
X14896253Y-13736484D01*
X14896253Y-13736484D02*
X14934348Y-13736484D01*
X14934348Y-13736484D02*
X14953396Y-13726960D01*
X14953396Y-13726960D02*
X14962920Y-13717436D01*
X14962920Y-13717436D02*
X14972444Y-13698388D01*
X14972444Y-13698388D02*
X14972444Y-13650769D01*
X14972444Y-13650769D02*
X14962920Y-13631722D01*
X14962920Y-13631722D02*
X14953396Y-13622198D01*
X14953396Y-13622198D02*
X14934348Y-13612674D01*
X14934348Y-13612674D02*
X14896253Y-13612674D01*
X14896253Y-13612674D02*
X14877206Y-13622198D01*
X14877206Y-13622198D02*
X14867682Y-13631722D01*
X14867682Y-13631722D02*
X14858158Y-13650769D01*
X15048634Y-13536484D02*
X15048634Y-13574579D01*
X15124825Y-13536484D02*
X15124825Y-13574579D01*
X15420063Y-13812674D02*
X15410539Y-13803150D01*
X15410539Y-13803150D02*
X15391491Y-13774579D01*
X15391491Y-13774579D02*
X15381968Y-13755531D01*
X15381968Y-13755531D02*
X15372444Y-13726960D01*
X15372444Y-13726960D02*
X15362920Y-13679341D01*
X15362920Y-13679341D02*
X15362920Y-13641246D01*
X15362920Y-13641246D02*
X15372444Y-13593627D01*
X15372444Y-13593627D02*
X15381968Y-13565055D01*
X15381968Y-13565055D02*
X15391491Y-13546008D01*
X15391491Y-13546008D02*
X15410539Y-13517436D01*
X15410539Y-13517436D02*
X15420063Y-13507912D01*
X15486729Y-13555531D02*
X15496253Y-13546008D01*
X15496253Y-13546008D02*
X15515301Y-13536484D01*
X15515301Y-13536484D02*
X15562920Y-13536484D01*
X15562920Y-13536484D02*
X15581968Y-13546008D01*
X15581968Y-13546008D02*
X15591491Y-13555531D01*
X15591491Y-13555531D02*
X15601015Y-13574579D01*
X15601015Y-13574579D02*
X15601015Y-13593627D01*
X15601015Y-13593627D02*
X15591491Y-13622198D01*
X15591491Y-13622198D02*
X15477206Y-13736484D01*
X15477206Y-13736484D02*
X15601015Y-13736484D01*
X15839110Y-13736484D02*
X15839110Y-13536484D01*
X15924825Y-13736484D02*
X15924825Y-13631722D01*
X15924825Y-13631722D02*
X15915301Y-13612674D01*
X15915301Y-13612674D02*
X15896253Y-13603150D01*
X15896253Y-13603150D02*
X15867682Y-13603150D01*
X15867682Y-13603150D02*
X15848634Y-13612674D01*
X15848634Y-13612674D02*
X15839110Y-13622198D01*
X16048634Y-13736484D02*
X16029587Y-13726960D01*
X16029587Y-13726960D02*
X16020063Y-13717436D01*
X16020063Y-13717436D02*
X16010539Y-13698388D01*
X16010539Y-13698388D02*
X16010539Y-13641246D01*
X16010539Y-13641246D02*
X16020063Y-13622198D01*
X16020063Y-13622198D02*
X16029587Y-13612674D01*
X16029587Y-13612674D02*
X16048634Y-13603150D01*
X16048634Y-13603150D02*
X16077206Y-13603150D01*
X16077206Y-13603150D02*
X16096253Y-13612674D01*
X16096253Y-13612674D02*
X16105777Y-13622198D01*
X16105777Y-13622198D02*
X16115301Y-13641246D01*
X16115301Y-13641246D02*
X16115301Y-13698388D01*
X16115301Y-13698388D02*
X16105777Y-13717436D01*
X16105777Y-13717436D02*
X16096253Y-13726960D01*
X16096253Y-13726960D02*
X16077206Y-13736484D01*
X16077206Y-13736484D02*
X16048634Y-13736484D01*
X16229587Y-13736484D02*
X16210539Y-13726960D01*
X16210539Y-13726960D02*
X16201015Y-13707912D01*
X16201015Y-13707912D02*
X16201015Y-13536484D01*
X16381968Y-13726960D02*
X16362920Y-13736484D01*
X16362920Y-13736484D02*
X16324825Y-13736484D01*
X16324825Y-13736484D02*
X16305777Y-13726960D01*
X16305777Y-13726960D02*
X16296253Y-13707912D01*
X16296253Y-13707912D02*
X16296253Y-13631722D01*
X16296253Y-13631722D02*
X16305777Y-13612674D01*
X16305777Y-13612674D02*
X16324825Y-13603150D01*
X16324825Y-13603150D02*
X16362920Y-13603150D01*
X16362920Y-13603150D02*
X16381968Y-13612674D01*
X16381968Y-13612674D02*
X16391491Y-13631722D01*
X16391491Y-13631722D02*
X16391491Y-13650769D01*
X16391491Y-13650769D02*
X16296253Y-13669817D01*
X16467682Y-13726960D02*
X16486730Y-13736484D01*
X16486730Y-13736484D02*
X16524825Y-13736484D01*
X16524825Y-13736484D02*
X16543872Y-13726960D01*
X16543872Y-13726960D02*
X16553396Y-13707912D01*
X16553396Y-13707912D02*
X16553396Y-13698388D01*
X16553396Y-13698388D02*
X16543872Y-13679341D01*
X16543872Y-13679341D02*
X16524825Y-13669817D01*
X16524825Y-13669817D02*
X16496253Y-13669817D01*
X16496253Y-13669817D02*
X16477206Y-13660293D01*
X16477206Y-13660293D02*
X16467682Y-13641246D01*
X16467682Y-13641246D02*
X16467682Y-13631722D01*
X16467682Y-13631722D02*
X16477206Y-13612674D01*
X16477206Y-13612674D02*
X16496253Y-13603150D01*
X16496253Y-13603150D02*
X16524825Y-13603150D01*
X16524825Y-13603150D02*
X16543872Y-13612674D01*
X16620063Y-13812674D02*
X16629587Y-13803150D01*
X16629587Y-13803150D02*
X16648634Y-13774579D01*
X16648634Y-13774579D02*
X16658158Y-13755531D01*
X16658158Y-13755531D02*
X16667682Y-13726960D01*
X16667682Y-13726960D02*
X16677206Y-13679341D01*
X16677206Y-13679341D02*
X16677206Y-13641246D01*
X16677206Y-13641246D02*
X16667682Y-13593627D01*
X16667682Y-13593627D02*
X16658158Y-13565055D01*
X16658158Y-13565055D02*
X16648634Y-13546008D01*
X16648634Y-13546008D02*
X16629587Y-13517436D01*
X16629587Y-13517436D02*
X16620063Y-13507912D01*
X16981968Y-13812674D02*
X16972444Y-13803150D01*
X16972444Y-13803150D02*
X16953396Y-13774579D01*
X16953396Y-13774579D02*
X16943873Y-13755531D01*
X16943873Y-13755531D02*
X16934349Y-13726960D01*
X16934349Y-13726960D02*
X16924825Y-13679341D01*
X16924825Y-13679341D02*
X16924825Y-13641246D01*
X16924825Y-13641246D02*
X16934349Y-13593627D01*
X16934349Y-13593627D02*
X16943873Y-13565055D01*
X16943873Y-13565055D02*
X16953396Y-13546008D01*
X16953396Y-13546008D02*
X16972444Y-13517436D01*
X16972444Y-13517436D02*
X16981968Y-13507912D01*
X17058158Y-13603150D02*
X17058158Y-13736484D01*
X17058158Y-13622198D02*
X17067682Y-13612674D01*
X17067682Y-13612674D02*
X17086730Y-13603150D01*
X17086730Y-13603150D02*
X17115301Y-13603150D01*
X17115301Y-13603150D02*
X17134349Y-13612674D01*
X17134349Y-13612674D02*
X17143873Y-13631722D01*
X17143873Y-13631722D02*
X17143873Y-13736484D01*
X17267682Y-13736484D02*
X17248634Y-13726960D01*
X17248634Y-13726960D02*
X17239111Y-13717436D01*
X17239111Y-13717436D02*
X17229587Y-13698388D01*
X17229587Y-13698388D02*
X17229587Y-13641246D01*
X17229587Y-13641246D02*
X17239111Y-13622198D01*
X17239111Y-13622198D02*
X17248634Y-13612674D01*
X17248634Y-13612674D02*
X17267682Y-13603150D01*
X17267682Y-13603150D02*
X17296254Y-13603150D01*
X17296254Y-13603150D02*
X17315301Y-13612674D01*
X17315301Y-13612674D02*
X17324825Y-13622198D01*
X17324825Y-13622198D02*
X17334349Y-13641246D01*
X17334349Y-13641246D02*
X17334349Y-13698388D01*
X17334349Y-13698388D02*
X17324825Y-13717436D01*
X17324825Y-13717436D02*
X17315301Y-13726960D01*
X17315301Y-13726960D02*
X17296254Y-13736484D01*
X17296254Y-13736484D02*
X17267682Y-13736484D01*
X17391492Y-13603150D02*
X17467682Y-13603150D01*
X17420063Y-13536484D02*
X17420063Y-13707912D01*
X17420063Y-13707912D02*
X17429587Y-13726960D01*
X17429587Y-13726960D02*
X17448634Y-13736484D01*
X17448634Y-13736484D02*
X17467682Y-13736484D01*
X17686730Y-13603150D02*
X17686730Y-13803150D01*
X17686730Y-13612674D02*
X17705777Y-13603150D01*
X17705777Y-13603150D02*
X17743873Y-13603150D01*
X17743873Y-13603150D02*
X17762920Y-13612674D01*
X17762920Y-13612674D02*
X17772444Y-13622198D01*
X17772444Y-13622198D02*
X17781968Y-13641246D01*
X17781968Y-13641246D02*
X17781968Y-13698388D01*
X17781968Y-13698388D02*
X17772444Y-13717436D01*
X17772444Y-13717436D02*
X17762920Y-13726960D01*
X17762920Y-13726960D02*
X17743873Y-13736484D01*
X17743873Y-13736484D02*
X17705777Y-13736484D01*
X17705777Y-13736484D02*
X17686730Y-13726960D01*
X17896254Y-13736484D02*
X17877206Y-13726960D01*
X17877206Y-13726960D02*
X17867682Y-13707912D01*
X17867682Y-13707912D02*
X17867682Y-13536484D01*
X18058158Y-13736484D02*
X18058158Y-13631722D01*
X18058158Y-13631722D02*
X18048635Y-13612674D01*
X18048635Y-13612674D02*
X18029587Y-13603150D01*
X18029587Y-13603150D02*
X17991492Y-13603150D01*
X17991492Y-13603150D02*
X17972444Y-13612674D01*
X18058158Y-13726960D02*
X18039111Y-13736484D01*
X18039111Y-13736484D02*
X17991492Y-13736484D01*
X17991492Y-13736484D02*
X17972444Y-13726960D01*
X17972444Y-13726960D02*
X17962920Y-13707912D01*
X17962920Y-13707912D02*
X17962920Y-13688865D01*
X17962920Y-13688865D02*
X17972444Y-13669817D01*
X17972444Y-13669817D02*
X17991492Y-13660293D01*
X17991492Y-13660293D02*
X18039111Y-13660293D01*
X18039111Y-13660293D02*
X18058158Y-13650769D01*
X18124825Y-13603150D02*
X18201015Y-13603150D01*
X18153396Y-13536484D02*
X18153396Y-13707912D01*
X18153396Y-13707912D02*
X18162920Y-13726960D01*
X18162920Y-13726960D02*
X18181968Y-13736484D01*
X18181968Y-13736484D02*
X18201015Y-13736484D01*
X18343873Y-13726960D02*
X18324825Y-13736484D01*
X18324825Y-13736484D02*
X18286730Y-13736484D01*
X18286730Y-13736484D02*
X18267682Y-13726960D01*
X18267682Y-13726960D02*
X18258158Y-13707912D01*
X18258158Y-13707912D02*
X18258158Y-13631722D01*
X18258158Y-13631722D02*
X18267682Y-13612674D01*
X18267682Y-13612674D02*
X18286730Y-13603150D01*
X18286730Y-13603150D02*
X18324825Y-13603150D01*
X18324825Y-13603150D02*
X18343873Y-13612674D01*
X18343873Y-13612674D02*
X18353396Y-13631722D01*
X18353396Y-13631722D02*
X18353396Y-13650769D01*
X18353396Y-13650769D02*
X18258158Y-13669817D01*
X18524825Y-13736484D02*
X18524825Y-13536484D01*
X18524825Y-13726960D02*
X18505777Y-13736484D01*
X18505777Y-13736484D02*
X18467682Y-13736484D01*
X18467682Y-13736484D02*
X18448635Y-13726960D01*
X18448635Y-13726960D02*
X18439111Y-13717436D01*
X18439111Y-13717436D02*
X18429587Y-13698388D01*
X18429587Y-13698388D02*
X18429587Y-13641246D01*
X18429587Y-13641246D02*
X18439111Y-13622198D01*
X18439111Y-13622198D02*
X18448635Y-13612674D01*
X18448635Y-13612674D02*
X18467682Y-13603150D01*
X18467682Y-13603150D02*
X18505777Y-13603150D01*
X18505777Y-13603150D02*
X18524825Y-13612674D01*
X18601016Y-13812674D02*
X18610539Y-13803150D01*
X18610539Y-13803150D02*
X18629587Y-13774579D01*
X18629587Y-13774579D02*
X18639111Y-13755531D01*
X18639111Y-13755531D02*
X18648635Y-13726960D01*
X18648635Y-13726960D02*
X18658158Y-13679341D01*
X18658158Y-13679341D02*
X18658158Y-13641246D01*
X18658158Y-13641246D02*
X18648635Y-13593627D01*
X18648635Y-13593627D02*
X18639111Y-13565055D01*
X18639111Y-13565055D02*
X18629587Y-13546008D01*
X18629587Y-13546008D02*
X18610539Y-13517436D01*
X18610539Y-13517436D02*
X18601016Y-13507912D01*
X11845000Y-13909000D02*
G75*
G02*
X11645000Y-13909000I-100000J0D01*
G01*
X11645000Y-13909000D02*
G75*
G02*
X11845000Y-13909000I100000J0D01*
G01*
X12096253Y-13819531D02*
X12105777Y-13810008D01*
X12105777Y-13810008D02*
X12124824Y-13800484D01*
X12124824Y-13800484D02*
X12172443Y-13800484D01*
X12172443Y-13800484D02*
X12191491Y-13810008D01*
X12191491Y-13810008D02*
X12201015Y-13819531D01*
X12201015Y-13819531D02*
X12210539Y-13838579D01*
X12210539Y-13838579D02*
X12210539Y-13857627D01*
X12210539Y-13857627D02*
X12201015Y-13886198D01*
X12201015Y-13886198D02*
X12086729Y-14000484D01*
X12086729Y-14000484D02*
X12210539Y-14000484D01*
X12296253Y-13981436D02*
X12305777Y-13990960D01*
X12305777Y-13990960D02*
X12296253Y-14000484D01*
X12296253Y-14000484D02*
X12286729Y-13990960D01*
X12286729Y-13990960D02*
X12296253Y-13981436D01*
X12296253Y-13981436D02*
X12296253Y-14000484D01*
X12477205Y-13867150D02*
X12477205Y-14000484D01*
X12429586Y-13790960D02*
X12381967Y-13933817D01*
X12381967Y-13933817D02*
X12505777Y-13933817D01*
X12620062Y-13800484D02*
X12639110Y-13800484D01*
X12639110Y-13800484D02*
X12658158Y-13810008D01*
X12658158Y-13810008D02*
X12667682Y-13819531D01*
X12667682Y-13819531D02*
X12677205Y-13838579D01*
X12677205Y-13838579D02*
X12686729Y-13876674D01*
X12686729Y-13876674D02*
X12686729Y-13924293D01*
X12686729Y-13924293D02*
X12677205Y-13962388D01*
X12677205Y-13962388D02*
X12667682Y-13981436D01*
X12667682Y-13981436D02*
X12658158Y-13990960D01*
X12658158Y-13990960D02*
X12639110Y-14000484D01*
X12639110Y-14000484D02*
X12620062Y-14000484D01*
X12620062Y-14000484D02*
X12601015Y-13990960D01*
X12601015Y-13990960D02*
X12591491Y-13981436D01*
X12591491Y-13981436D02*
X12581967Y-13962388D01*
X12581967Y-13962388D02*
X12572443Y-13924293D01*
X12572443Y-13924293D02*
X12572443Y-13876674D01*
X12572443Y-13876674D02*
X12581967Y-13838579D01*
X12581967Y-13838579D02*
X12591491Y-13819531D01*
X12591491Y-13819531D02*
X12601015Y-13810008D01*
X12601015Y-13810008D02*
X12620062Y-13800484D01*
X12810539Y-13800484D02*
X12829586Y-13800484D01*
X12829586Y-13800484D02*
X12848634Y-13810008D01*
X12848634Y-13810008D02*
X12858158Y-13819531D01*
X12858158Y-13819531D02*
X12867682Y-13838579D01*
X12867682Y-13838579D02*
X12877205Y-13876674D01*
X12877205Y-13876674D02*
X12877205Y-13924293D01*
X12877205Y-13924293D02*
X12867682Y-13962388D01*
X12867682Y-13962388D02*
X12858158Y-13981436D01*
X12858158Y-13981436D02*
X12848634Y-13990960D01*
X12848634Y-13990960D02*
X12829586Y-14000484D01*
X12829586Y-14000484D02*
X12810539Y-14000484D01*
X12810539Y-14000484D02*
X12791491Y-13990960D01*
X12791491Y-13990960D02*
X12781967Y-13981436D01*
X12781967Y-13981436D02*
X12772443Y-13962388D01*
X12772443Y-13962388D02*
X12762920Y-13924293D01*
X12762920Y-13924293D02*
X12762920Y-13876674D01*
X12762920Y-13876674D02*
X12772443Y-13838579D01*
X12772443Y-13838579D02*
X12781967Y-13819531D01*
X12781967Y-13819531D02*
X12791491Y-13810008D01*
X12791491Y-13810008D02*
X12810539Y-13800484D01*
X12962920Y-14000484D02*
X12962920Y-13867150D01*
X12962920Y-13886198D02*
X12972443Y-13876674D01*
X12972443Y-13876674D02*
X12991491Y-13867150D01*
X12991491Y-13867150D02*
X13020063Y-13867150D01*
X13020063Y-13867150D02*
X13039110Y-13876674D01*
X13039110Y-13876674D02*
X13048634Y-13895722D01*
X13048634Y-13895722D02*
X13048634Y-14000484D01*
X13048634Y-13895722D02*
X13058158Y-13876674D01*
X13058158Y-13876674D02*
X13077205Y-13867150D01*
X13077205Y-13867150D02*
X13105777Y-13867150D01*
X13105777Y-13867150D02*
X13124824Y-13876674D01*
X13124824Y-13876674D02*
X13134348Y-13895722D01*
X13134348Y-13895722D02*
X13134348Y-14000484D01*
X13229586Y-14000484D02*
X13229586Y-13867150D01*
X13229586Y-13886198D02*
X13239110Y-13876674D01*
X13239110Y-13876674D02*
X13258158Y-13867150D01*
X13258158Y-13867150D02*
X13286729Y-13867150D01*
X13286729Y-13867150D02*
X13305777Y-13876674D01*
X13305777Y-13876674D02*
X13315301Y-13895722D01*
X13315301Y-13895722D02*
X13315301Y-14000484D01*
X13315301Y-13895722D02*
X13324824Y-13876674D01*
X13324824Y-13876674D02*
X13343872Y-13867150D01*
X13343872Y-13867150D02*
X13372443Y-13867150D01*
X13372443Y-13867150D02*
X13391491Y-13876674D01*
X13391491Y-13876674D02*
X13401015Y-13895722D01*
X13401015Y-13895722D02*
X13401015Y-14000484D01*
X13791491Y-13790960D02*
X13620063Y-14048103D01*
X14048634Y-13800484D02*
X14067682Y-13800484D01*
X14067682Y-13800484D02*
X14086729Y-13810008D01*
X14086729Y-13810008D02*
X14096253Y-13819531D01*
X14096253Y-13819531D02*
X14105777Y-13838579D01*
X14105777Y-13838579D02*
X14115301Y-13876674D01*
X14115301Y-13876674D02*
X14115301Y-13924293D01*
X14115301Y-13924293D02*
X14105777Y-13962388D01*
X14105777Y-13962388D02*
X14096253Y-13981436D01*
X14096253Y-13981436D02*
X14086729Y-13990960D01*
X14086729Y-13990960D02*
X14067682Y-14000484D01*
X14067682Y-14000484D02*
X14048634Y-14000484D01*
X14048634Y-14000484D02*
X14029586Y-13990960D01*
X14029586Y-13990960D02*
X14020063Y-13981436D01*
X14020063Y-13981436D02*
X14010539Y-13962388D01*
X14010539Y-13962388D02*
X14001015Y-13924293D01*
X14001015Y-13924293D02*
X14001015Y-13876674D01*
X14001015Y-13876674D02*
X14010539Y-13838579D01*
X14010539Y-13838579D02*
X14020063Y-13819531D01*
X14020063Y-13819531D02*
X14029586Y-13810008D01*
X14029586Y-13810008D02*
X14048634Y-13800484D01*
X14201015Y-13981436D02*
X14210539Y-13990960D01*
X14210539Y-13990960D02*
X14201015Y-14000484D01*
X14201015Y-14000484D02*
X14191491Y-13990960D01*
X14191491Y-13990960D02*
X14201015Y-13981436D01*
X14201015Y-13981436D02*
X14201015Y-14000484D01*
X14334348Y-13800484D02*
X14353396Y-13800484D01*
X14353396Y-13800484D02*
X14372444Y-13810008D01*
X14372444Y-13810008D02*
X14381967Y-13819531D01*
X14381967Y-13819531D02*
X14391491Y-13838579D01*
X14391491Y-13838579D02*
X14401015Y-13876674D01*
X14401015Y-13876674D02*
X14401015Y-13924293D01*
X14401015Y-13924293D02*
X14391491Y-13962388D01*
X14391491Y-13962388D02*
X14381967Y-13981436D01*
X14381967Y-13981436D02*
X14372444Y-13990960D01*
X14372444Y-13990960D02*
X14353396Y-14000484D01*
X14353396Y-14000484D02*
X14334348Y-14000484D01*
X14334348Y-14000484D02*
X14315301Y-13990960D01*
X14315301Y-13990960D02*
X14305777Y-13981436D01*
X14305777Y-13981436D02*
X14296253Y-13962388D01*
X14296253Y-13962388D02*
X14286729Y-13924293D01*
X14286729Y-13924293D02*
X14286729Y-13876674D01*
X14286729Y-13876674D02*
X14296253Y-13838579D01*
X14296253Y-13838579D02*
X14305777Y-13819531D01*
X14305777Y-13819531D02*
X14315301Y-13810008D01*
X14315301Y-13810008D02*
X14334348Y-13800484D01*
X14496253Y-14000484D02*
X14534348Y-14000484D01*
X14534348Y-14000484D02*
X14553396Y-13990960D01*
X14553396Y-13990960D02*
X14562920Y-13981436D01*
X14562920Y-13981436D02*
X14581967Y-13952865D01*
X14581967Y-13952865D02*
X14591491Y-13914769D01*
X14591491Y-13914769D02*
X14591491Y-13838579D01*
X14591491Y-13838579D02*
X14581967Y-13819531D01*
X14581967Y-13819531D02*
X14572444Y-13810008D01*
X14572444Y-13810008D02*
X14553396Y-13800484D01*
X14553396Y-13800484D02*
X14515301Y-13800484D01*
X14515301Y-13800484D02*
X14496253Y-13810008D01*
X14496253Y-13810008D02*
X14486729Y-13819531D01*
X14486729Y-13819531D02*
X14477206Y-13838579D01*
X14477206Y-13838579D02*
X14477206Y-13886198D01*
X14477206Y-13886198D02*
X14486729Y-13905246D01*
X14486729Y-13905246D02*
X14496253Y-13914769D01*
X14496253Y-13914769D02*
X14515301Y-13924293D01*
X14515301Y-13924293D02*
X14553396Y-13924293D01*
X14553396Y-13924293D02*
X14572444Y-13914769D01*
X14572444Y-13914769D02*
X14581967Y-13905246D01*
X14581967Y-13905246D02*
X14591491Y-13886198D01*
X14762920Y-13867150D02*
X14762920Y-14000484D01*
X14715301Y-13790960D02*
X14667682Y-13933817D01*
X14667682Y-13933817D02*
X14791491Y-13933817D01*
X14962920Y-13800484D02*
X14867682Y-13800484D01*
X14867682Y-13800484D02*
X14858158Y-13895722D01*
X14858158Y-13895722D02*
X14867682Y-13886198D01*
X14867682Y-13886198D02*
X14886729Y-13876674D01*
X14886729Y-13876674D02*
X14934348Y-13876674D01*
X14934348Y-13876674D02*
X14953396Y-13886198D01*
X14953396Y-13886198D02*
X14962920Y-13895722D01*
X14962920Y-13895722D02*
X14972444Y-13914769D01*
X14972444Y-13914769D02*
X14972444Y-13962388D01*
X14972444Y-13962388D02*
X14962920Y-13981436D01*
X14962920Y-13981436D02*
X14953396Y-13990960D01*
X14953396Y-13990960D02*
X14934348Y-14000484D01*
X14934348Y-14000484D02*
X14886729Y-14000484D01*
X14886729Y-14000484D02*
X14867682Y-13990960D01*
X14867682Y-13990960D02*
X14858158Y-13981436D01*
X15048634Y-13800484D02*
X15048634Y-13838579D01*
X15124825Y-13800484D02*
X15124825Y-13838579D01*
X15420063Y-14076674D02*
X15410539Y-14067150D01*
X15410539Y-14067150D02*
X15391491Y-14038579D01*
X15391491Y-14038579D02*
X15381968Y-14019531D01*
X15381968Y-14019531D02*
X15372444Y-13990960D01*
X15372444Y-13990960D02*
X15362920Y-13943341D01*
X15362920Y-13943341D02*
X15362920Y-13905246D01*
X15362920Y-13905246D02*
X15372444Y-13857627D01*
X15372444Y-13857627D02*
X15381968Y-13829055D01*
X15381968Y-13829055D02*
X15391491Y-13810008D01*
X15391491Y-13810008D02*
X15410539Y-13781436D01*
X15410539Y-13781436D02*
X15420063Y-13771912D01*
X15581968Y-13867150D02*
X15581968Y-14000484D01*
X15534348Y-13790960D02*
X15486729Y-13933817D01*
X15486729Y-13933817D02*
X15610539Y-13933817D01*
X15839110Y-14000484D02*
X15839110Y-13800484D01*
X15924825Y-14000484D02*
X15924825Y-13895722D01*
X15924825Y-13895722D02*
X15915301Y-13876674D01*
X15915301Y-13876674D02*
X15896253Y-13867150D01*
X15896253Y-13867150D02*
X15867682Y-13867150D01*
X15867682Y-13867150D02*
X15848634Y-13876674D01*
X15848634Y-13876674D02*
X15839110Y-13886198D01*
X16048634Y-14000484D02*
X16029587Y-13990960D01*
X16029587Y-13990960D02*
X16020063Y-13981436D01*
X16020063Y-13981436D02*
X16010539Y-13962388D01*
X16010539Y-13962388D02*
X16010539Y-13905246D01*
X16010539Y-13905246D02*
X16020063Y-13886198D01*
X16020063Y-13886198D02*
X16029587Y-13876674D01*
X16029587Y-13876674D02*
X16048634Y-13867150D01*
X16048634Y-13867150D02*
X16077206Y-13867150D01*
X16077206Y-13867150D02*
X16096253Y-13876674D01*
X16096253Y-13876674D02*
X16105777Y-13886198D01*
X16105777Y-13886198D02*
X16115301Y-13905246D01*
X16115301Y-13905246D02*
X16115301Y-13962388D01*
X16115301Y-13962388D02*
X16105777Y-13981436D01*
X16105777Y-13981436D02*
X16096253Y-13990960D01*
X16096253Y-13990960D02*
X16077206Y-14000484D01*
X16077206Y-14000484D02*
X16048634Y-14000484D01*
X16229587Y-14000484D02*
X16210539Y-13990960D01*
X16210539Y-13990960D02*
X16201015Y-13971912D01*
X16201015Y-13971912D02*
X16201015Y-13800484D01*
X16381968Y-13990960D02*
X16362920Y-14000484D01*
X16362920Y-14000484D02*
X16324825Y-14000484D01*
X16324825Y-14000484D02*
X16305777Y-13990960D01*
X16305777Y-13990960D02*
X16296253Y-13971912D01*
X16296253Y-13971912D02*
X16296253Y-13895722D01*
X16296253Y-13895722D02*
X16305777Y-13876674D01*
X16305777Y-13876674D02*
X16324825Y-13867150D01*
X16324825Y-13867150D02*
X16362920Y-13867150D01*
X16362920Y-13867150D02*
X16381968Y-13876674D01*
X16381968Y-13876674D02*
X16391491Y-13895722D01*
X16391491Y-13895722D02*
X16391491Y-13914769D01*
X16391491Y-13914769D02*
X16296253Y-13933817D01*
X16467682Y-13990960D02*
X16486730Y-14000484D01*
X16486730Y-14000484D02*
X16524825Y-14000484D01*
X16524825Y-14000484D02*
X16543872Y-13990960D01*
X16543872Y-13990960D02*
X16553396Y-13971912D01*
X16553396Y-13971912D02*
X16553396Y-13962388D01*
X16553396Y-13962388D02*
X16543872Y-13943341D01*
X16543872Y-13943341D02*
X16524825Y-13933817D01*
X16524825Y-13933817D02*
X16496253Y-13933817D01*
X16496253Y-13933817D02*
X16477206Y-13924293D01*
X16477206Y-13924293D02*
X16467682Y-13905246D01*
X16467682Y-13905246D02*
X16467682Y-13895722D01*
X16467682Y-13895722D02*
X16477206Y-13876674D01*
X16477206Y-13876674D02*
X16496253Y-13867150D01*
X16496253Y-13867150D02*
X16524825Y-13867150D01*
X16524825Y-13867150D02*
X16543872Y-13876674D01*
X16620063Y-14076674D02*
X16629587Y-14067150D01*
X16629587Y-14067150D02*
X16648634Y-14038579D01*
X16648634Y-14038579D02*
X16658158Y-14019531D01*
X16658158Y-14019531D02*
X16667682Y-13990960D01*
X16667682Y-13990960D02*
X16677206Y-13943341D01*
X16677206Y-13943341D02*
X16677206Y-13905246D01*
X16677206Y-13905246D02*
X16667682Y-13857627D01*
X16667682Y-13857627D02*
X16658158Y-13829055D01*
X16658158Y-13829055D02*
X16648634Y-13810008D01*
X16648634Y-13810008D02*
X16629587Y-13781436D01*
X16629587Y-13781436D02*
X16620063Y-13771912D01*
X16981968Y-14076674D02*
X16972444Y-14067150D01*
X16972444Y-14067150D02*
X16953396Y-14038579D01*
X16953396Y-14038579D02*
X16943873Y-14019531D01*
X16943873Y-14019531D02*
X16934349Y-13990960D01*
X16934349Y-13990960D02*
X16924825Y-13943341D01*
X16924825Y-13943341D02*
X16924825Y-13905246D01*
X16924825Y-13905246D02*
X16934349Y-13857627D01*
X16934349Y-13857627D02*
X16943873Y-13829055D01*
X16943873Y-13829055D02*
X16953396Y-13810008D01*
X16953396Y-13810008D02*
X16972444Y-13781436D01*
X16972444Y-13781436D02*
X16981968Y-13771912D01*
X17058158Y-13867150D02*
X17058158Y-14000484D01*
X17058158Y-13886198D02*
X17067682Y-13876674D01*
X17067682Y-13876674D02*
X17086730Y-13867150D01*
X17086730Y-13867150D02*
X17115301Y-13867150D01*
X17115301Y-13867150D02*
X17134349Y-13876674D01*
X17134349Y-13876674D02*
X17143873Y-13895722D01*
X17143873Y-13895722D02*
X17143873Y-14000484D01*
X17267682Y-14000484D02*
X17248634Y-13990960D01*
X17248634Y-13990960D02*
X17239111Y-13981436D01*
X17239111Y-13981436D02*
X17229587Y-13962388D01*
X17229587Y-13962388D02*
X17229587Y-13905246D01*
X17229587Y-13905246D02*
X17239111Y-13886198D01*
X17239111Y-13886198D02*
X17248634Y-13876674D01*
X17248634Y-13876674D02*
X17267682Y-13867150D01*
X17267682Y-13867150D02*
X17296254Y-13867150D01*
X17296254Y-13867150D02*
X17315301Y-13876674D01*
X17315301Y-13876674D02*
X17324825Y-13886198D01*
X17324825Y-13886198D02*
X17334349Y-13905246D01*
X17334349Y-13905246D02*
X17334349Y-13962388D01*
X17334349Y-13962388D02*
X17324825Y-13981436D01*
X17324825Y-13981436D02*
X17315301Y-13990960D01*
X17315301Y-13990960D02*
X17296254Y-14000484D01*
X17296254Y-14000484D02*
X17267682Y-14000484D01*
X17391492Y-13867150D02*
X17467682Y-13867150D01*
X17420063Y-13800484D02*
X17420063Y-13971912D01*
X17420063Y-13971912D02*
X17429587Y-13990960D01*
X17429587Y-13990960D02*
X17448634Y-14000484D01*
X17448634Y-14000484D02*
X17467682Y-14000484D01*
X17686730Y-13867150D02*
X17686730Y-14067150D01*
X17686730Y-13876674D02*
X17705777Y-13867150D01*
X17705777Y-13867150D02*
X17743873Y-13867150D01*
X17743873Y-13867150D02*
X17762920Y-13876674D01*
X17762920Y-13876674D02*
X17772444Y-13886198D01*
X17772444Y-13886198D02*
X17781968Y-13905246D01*
X17781968Y-13905246D02*
X17781968Y-13962388D01*
X17781968Y-13962388D02*
X17772444Y-13981436D01*
X17772444Y-13981436D02*
X17762920Y-13990960D01*
X17762920Y-13990960D02*
X17743873Y-14000484D01*
X17743873Y-14000484D02*
X17705777Y-14000484D01*
X17705777Y-14000484D02*
X17686730Y-13990960D01*
X17896254Y-14000484D02*
X17877206Y-13990960D01*
X17877206Y-13990960D02*
X17867682Y-13971912D01*
X17867682Y-13971912D02*
X17867682Y-13800484D01*
X18058158Y-14000484D02*
X18058158Y-13895722D01*
X18058158Y-13895722D02*
X18048635Y-13876674D01*
X18048635Y-13876674D02*
X18029587Y-13867150D01*
X18029587Y-13867150D02*
X17991492Y-13867150D01*
X17991492Y-13867150D02*
X17972444Y-13876674D01*
X18058158Y-13990960D02*
X18039111Y-14000484D01*
X18039111Y-14000484D02*
X17991492Y-14000484D01*
X17991492Y-14000484D02*
X17972444Y-13990960D01*
X17972444Y-13990960D02*
X17962920Y-13971912D01*
X17962920Y-13971912D02*
X17962920Y-13952865D01*
X17962920Y-13952865D02*
X17972444Y-13933817D01*
X17972444Y-13933817D02*
X17991492Y-13924293D01*
X17991492Y-13924293D02*
X18039111Y-13924293D01*
X18039111Y-13924293D02*
X18058158Y-13914769D01*
X18124825Y-13867150D02*
X18201015Y-13867150D01*
X18153396Y-13800484D02*
X18153396Y-13971912D01*
X18153396Y-13971912D02*
X18162920Y-13990960D01*
X18162920Y-13990960D02*
X18181968Y-14000484D01*
X18181968Y-14000484D02*
X18201015Y-14000484D01*
X18343873Y-13990960D02*
X18324825Y-14000484D01*
X18324825Y-14000484D02*
X18286730Y-14000484D01*
X18286730Y-14000484D02*
X18267682Y-13990960D01*
X18267682Y-13990960D02*
X18258158Y-13971912D01*
X18258158Y-13971912D02*
X18258158Y-13895722D01*
X18258158Y-13895722D02*
X18267682Y-13876674D01*
X18267682Y-13876674D02*
X18286730Y-13867150D01*
X18286730Y-13867150D02*
X18324825Y-13867150D01*
X18324825Y-13867150D02*
X18343873Y-13876674D01*
X18343873Y-13876674D02*
X18353396Y-13895722D01*
X18353396Y-13895722D02*
X18353396Y-13914769D01*
X18353396Y-13914769D02*
X18258158Y-13933817D01*
X18524825Y-14000484D02*
X18524825Y-13800484D01*
X18524825Y-13990960D02*
X18505777Y-14000484D01*
X18505777Y-14000484D02*
X18467682Y-14000484D01*
X18467682Y-14000484D02*
X18448635Y-13990960D01*
X18448635Y-13990960D02*
X18439111Y-13981436D01*
X18439111Y-13981436D02*
X18429587Y-13962388D01*
X18429587Y-13962388D02*
X18429587Y-13905246D01*
X18429587Y-13905246D02*
X18439111Y-13886198D01*
X18439111Y-13886198D02*
X18448635Y-13876674D01*
X18448635Y-13876674D02*
X18467682Y-13867150D01*
X18467682Y-13867150D02*
X18505777Y-13867150D01*
X18505777Y-13867150D02*
X18524825Y-13876674D01*
X18601016Y-14076674D02*
X18610539Y-14067150D01*
X18610539Y-14067150D02*
X18629587Y-14038579D01*
X18629587Y-14038579D02*
X18639111Y-14019531D01*
X18639111Y-14019531D02*
X18648635Y-13990960D01*
X18648635Y-13990960D02*
X18658158Y-13943341D01*
X18658158Y-13943341D02*
X18658158Y-13905246D01*
X18658158Y-13905246D02*
X18648635Y-13857627D01*
X18648635Y-13857627D02*
X18639111Y-13829055D01*
X18639111Y-13829055D02*
X18629587Y-13810008D01*
X18629587Y-13810008D02*
X18610539Y-13781436D01*
X18610539Y-13781436D02*
X18601016Y-13771912D01*
M02*
