  0
SECTION
  2
HEADER
  9
$ACADVER
  1
AC1032
  9
$ACADMAINTVER
 90
4
  9
$DWGCODEPAGE
  3
ANSI_1252
  9
$LASTSAVEDBY
  1
ezdxf
  9
$REQUIREDVERSIONS
160
0
  9
$INSBASE
 10
0.0
 20
0.0
 30
0.0
  9
$EXTMIN
 10
1e+20
 20
1e+20
 30
1e+20
  9
$EXTMAX
 10
-1e+20
 20
-1e+20
 30
-1e+20
  9
$LIMMIN
 10
0.0
 20
0.0
  9
$LIMMAX
 10
420.0
 20
297.0
  9
$ORTHOMODE
 70
0
  9
$REGENMODE
 70
1
  9
$FILLMODE
 70
1
  9
$QTEXTMODE
 70
0
  9
$MIRRTEXT
 70
1
  9
$LTSCALE
 40
1.0
  9
$ATTMODE
 70
1
  9
$TEXTSIZE
 40
2.5
  9
$TRACEWID
 40
1.0
  9
$TEXTSTYLE
  7
Standard
  9
$CLAYER
  8
0
  9
$CELTYPE
  6
ByLayer
  9
$CECOLOR
 62
256
  9
$CELTSCALE
 40
1.0
  9
$DISPSILH
 70
0
  9
$DIMSCALE
 40
1.0
  9
$DIMASZ
 40
2.5
  9
$DIMEXO
 40
0.625
  9
$DIMDLI
 40
3.75
  9
$DIMRND
 40
0.0
  9
$DIMDLE
 40
0.0
  9
$DIMEXE
 40
1.25
  9
$DIMTP
 40
0.0
  9
$DIMTM
 40
0.0
  9
$DIMTXT
 40
2.5
  9
$DIMCEN
 40
2.5
  9
$DIMTSZ
 40
0.0
  9
$DIMTOL
 70
0
  9
$DIMLIM
 70
0
  9
$DIMTIH
 70
0
  9
$DIMTOH
 70
0
  9
$DIMSE1
 70
0
  9
$DIMSE2
 70
0
  9
$DIMTAD
 70
1
  9
$DIMZIN
 70
8
  9
$DIMBLK
  1

  9
$DIMASO
 70
1
  9
$DIMSHO
 70
1
  9
$DIMPOST
  1

  9
$DIMAPOST
  1

  9
$DIMALT
 70
0
  9
$DIMALTD
 70
3
  9
$DIMALTF
 40
0.03937007874
  9
$DIMLFAC
 40
1.0
  9
$DIMTOFL
 70
1
  9
$DIMTVP
 40
0.0
  9
$DIMTIX
 70
0
  9
$DIMSOXD
 70
0
  9
$DIMSAH
 70
0
  9
$DIMBLK1
  1

  9
$DIMBLK2
  1

  9
$DIMSTYLE
  2
ISO-25
  9
$DIMCLRD
 70
0
  9
$DIMCLRE
 70
0
  9
$DIMCLRT
 70
0
  9
$DIMTFAC
 40
1.0
  9
$DIMGAP
 40
0.625
  9
$DIMJUST
 70
0
  9
$DIMSD1
 70
0
  9
$DIMSD2
 70
0
  9
$DIMTOLJ
 70
0
  9
$DIMTZIN
 70
8
  9
$DIMALTZ
 70
0
  9
$DIMALTTZ
 70
0
  9
$DIMUPT
 70
0
  9
$DIMDEC
 70
2
  9
$DIMTDEC
 70
2
  9
$DIMALTU
 70
2
  9
$DIMALTTD
 70
3
  9
$DIMTXSTY
  7
Standard
  9
$DIMAUNIT
 70
0
  9
$DIMADEC
 70
0
  9
$DIMALTRND
 40
0.0
  9
$DIMAZIN
 70
0
  9
$DIMDSEP
 70
44
  9
$DIMATFIT
 70
3
  9
$DIMFRAC
 70
0
  9
$DIMLDRBLK
  1

  9
$DIMLUNIT
 70
2
  9
$DIMLWD
 70
-2
  9
$DIMLWE
 70
-2
  9
$DIMTMOVE
 70
0
  9
$DIMFXL
 40
1.0
  9
$DIMFXLON
 70
0
  9
$DIMJOGANG
 40
0.785398163397
  9
$DIMTFILL
 70
0
  9
$DIMTFILLCLR
 70
0
  9
$DIMARCSYM
 70
0
  9
$DIMLTYPE
  6

  9
$DIMLTEX1
  6

  9
$DIMLTEX2
  6

  9
$DIMTXTDIRECTION
 70
0
  9
$LUNITS
 70
2
  9
$LUPREC
 70
4
  9
$SKETCHINC
 40
1.0
  9
$FILLETRAD
 40
10.0
  9
$AUNITS
 70
0
  9
$AUPREC
 70
2
  9
$MENU
  1
.
  9
$ELEVATION
 40
0.0
  9
$PELEVATION
 40
0.0
  9
$THICKNESS
 40
0.0
  9
$LIMCHECK
 70
0
  9
$CHAMFERA
 40
0.0
  9
$CHAMFERB
 40
0.0
  9
$CHAMFERC
 40
0.0
  9
$CHAMFERD
 40
0.0
  9
$SKPOLY
 70
0
  9
$TDCREATE
 40
2461274.4818287035
  9
$TDUCREATE
 40
2458532.153996898
  9
$TDUPDATE
 40
2461274.4818287035
  9
$TDUUPDATE
 40
2458532.1544311
  9
$TDINDWG
 40
0.0
  9
$TDUSRTIMER
 40
0.0
  9
$USRTIMER
 70
1
  9
$ANGBASE
 50
0.0
  9
$ANGDIR
 70
0
  9
$PDMODE
 70
0
  9
$PDSIZE
 40
0.0
  9
$PLINEWID
 40
0.0
  9
$SPLFRAME
 70
0
  9
$SPLINETYPE
 70
6
  9
$SPLINESEGS
 70
8
  9
$HANDSEED
  5
B7
  9
$SURFTAB1
 70
6
  9
$SURFTAB2
 70
6
  9
$SURFTYPE
 70
6
  9
$SURFU
 70
6
  9
$SURFV
 70
6
  9
$UCSBASE
  2

  9
$UCSNAME
  2

  9
$UCSORG
 10
0.0
 20
0.0
 30
0.0
  9
$UCSXDIR
 10
1.0
 20
0.0
 30
0.0
  9
$UCSYDIR
 10
0.0
 20
1.0
 30
0.0
  9
$UCSORTHOREF
  2

  9
$UCSORTHOVIEW
 70
0
  9
$UCSORGTOP
 10
0.0
 20
0.0
 30
0.0
  9
$UCSORGBOTTOM
 10
0.0
 20
0.0
 30
0.0
  9
$UCSORGLEFT
 10
0.0
 20
0.0
 30
0.0
  9
$UCSORGRIGHT
 10
0.0
 20
0.0
 30
0.0
  9
$UCSORGFRONT
 10
0.0
 20
0.0
 30
0.0
  9
$UCSORGBACK
 10
0.0
 20
0.0
 30
0.0
  9
$PUCSBASE
  2

  9
$PUCSNAME
  2

  9
$PUCSORG
 10
0.0
 20
0.0
 30
0.0
  9
$PUCSXDIR
 10
1.0
 20
0.0
 30
0.0
  9
$PUCSYDIR
 10
0.0
 20
1.0
 30
0.0
  9
$PUCSORTHOREF
  2

  9
$PUCSORTHOVIEW
 70
0
  9
$PUCSORGTOP
 10
0.0
 20
0.0
 30
0.0
  9
$PUCSORGBOTTOM
 10
0.0
 20
0.0
 30
0.0
  9
$PUCSORGLEFT
 10
0.0
 20
0.0
 30
0.0
  9
$PUCSORGRIGHT
 10
0.0
 20
0.0
 30
0.0
  9
$PUCSORGFRONT
 10
0.0
 20
0.0
 30
0.0
  9
$PUCSORGBACK
 10
0.0
 20
0.0
 30
0.0
  9
$USERI1
 70
0
  9
$USERI2
 70
0
  9
$USERI3
 70
0
  9
$USERI4
 70
0
  9
$USERI5
 70
0
  9
$USERR1
 40
0.0
  9
$USERR2
 40
0.0
  9
$USERR3
 40
0.0
  9
$USERR4
 40
0.0
  9
$USERR5
 40
0.0
  9
$WORLDVIEW
 70
1
  9
$SHADEDGE
 70
3
  9
$SHADEDIF
 70
70
  9
$TILEMODE
 70
1
  9
$MAXACTVP
 70
64
  9
$PINSBASE
 10
0.0
 20
0.0
 30
0.0
  9
$PLIMCHECK
 70
0
  9
$PEXTMIN
 10
1e+20
 20
1e+20
 30
1e+20
  9
$PEXTMAX
 10
-1e+20
 20
-1e+20
 30
-1e+20
  9
$PLIMMIN
 10
0.0
 20
0.0
  9
$PLIMMAX
 10
420.0
 20
297.0
  9
$UNITMODE
 70
0
  9
$VISRETAIN
 70
1
  9
$PLINEGEN
 70
0
  9
$PSLTSCALE
 70
1
  9
$TREEDEPTH
 70
3020
  9
$CMLSTYLE
  2
Standard
  9
$CMLJUST
 70
0
  9
$CMLSCALE
 40
20.0
  9
$PROXYGRAPHICS
 70
1
  9
$MEASUREMENT
 70
1
  9
$CELWEIGHT
370
-1
  9
$ENDCAPS
280
0
  9
$JOINSTYLE
280
0
  9
$LWDISPLAY
290
0
  9
$INSUNITS
 70
4
  9
$HYPERLINKBASE
  1

  9
$STYLESHEET
  1

  9
$XEDIT
290
1
  9
$CEPSNTYPE
380
0
  9
$PSTYLEMODE
290
1
  9
$FINGERPRINTGUID
  2
{88C01F7B-2B87-4D07-945A-2466C65B13A1}
  9
$VERSIONGUID
  2
{38484E3D-CC8B-4F2A-94B4-A018AB142800}
  9
$EXTNAMES
290
1
  9
$PSVPSCALE
 40
0.0
  9
$OLESTARTUP
290
0
  9
$SORTENTS
280
127
  9
$INDEXCTL
280
0
  9
$HIDETEXT
280
1
  9
$XCLIPFRAME
280
1
  9
$HALOGAP
280
0
  9
$OBSCOLOR
 70
257
  9
$OBSLTYPE
280
0
  9
$INTERSECTIONDISPLAY
280
0
  9
$INTERSECTIONCOLOR
 70
257
  9
$DIMASSOC
280
2
  9
$PROJECTNAME
  1

  9
$CAMERADISPLAY
290
0
  9
$LENSLENGTH
 40
50.0
  9
$CAMERAHEIGHT
 40
0.0
  9
$STEPSPERSEC
 40
24.0
  9
$STEPSIZE
 40
100.0
  9
$3DDWFPREC
 40
2.0
  9
$PSOLWIDTH
 40
0.005
  9
$PSOLHEIGHT
 40
0.08
  9
$LOFTANG1
 40
1.570796326795
  9
$LOFTANG2
 40
1.570796326795
  9
$LOFTMAG1
 40
0.0
  9
$LOFTMAG2
 40
0.0
  9
$LOFTPARAM
 70
7
  9
$LOFTNORMALS
280
1
  9
$LATITUDE
 40
37.795
  9
$LONGITUDE
 40
-122.394
  9
$NORTHDIRECTION
 40
0.0
  9
$TIMEZONE
 70
-8000
  9
$LIGHTGLYPHDISPLAY
280
1
  9
$TILEMODELIGHTSYNCH
280
1
  9
$CMATERIAL
347
20
  9
$SOLIDHIST
280
0
  9
$SHOWHIST
280
1
  9
$DWFFRAME
280
2
  9
$DGNFRAME
280
2
  9
$REALWORLDSCALE
290
1
  9
$INTERFERECOLOR
 62
256
  9
$CSHADOW
280
0
  9
$SHADOWPLANELOCATION
 40
0.0
  0
ENDSEC
  0
SECTION
  2
CLASSES
  0
CLASS
  1
ACDBDICTIONARYWDFLT
  2
AcDbDictionaryWithDefault
  3
ObjectDBX Classes
 90
0
 91
0
280
0
281
0
  0
CLASS
  1
SUN
  2
AcDbSun
  3
SCENEOE
 90
1153
 91
0
280
0
281
0
  0
CLASS
  1
VISUALSTYLE
  2
AcDbVisualStyle
  3
ObjectDBX Classes
 90
4095
 91
0
280
0
281
0
  0
CLASS
  1
MATERIAL
  2
AcDbMaterial
  3
ObjectDBX Classes
 90
1153
 91
0
280
0
281
0
  0
CLASS
  1
SCALE
  2
AcDbScale
  3
ObjectDBX Classes
 90
1153
 91
0
280
0
281
0
  0
CLASS
  1
TABLESTYLE
  2
AcDbTableStyle
  3
ObjectDBX Classes
 90
4095
 91
0
280
0
281
0
  0
CLASS
  1
MLEADERSTYLE
  2
AcDbMLeaderStyle
  3
ACDB_MLEADERSTYLE_CLASS
 90
4095
 91
0
280
0
281
0
  0
CLASS
  1
DICTIONARYVAR
  2
AcDbDictionaryVar
  3
ObjectDBX Classes
 90
0
 91
0
280
0
281
0
  0
CLASS
  1
CELLSTYLEMAP
  2
AcDbCellStyleMap
  3
ObjectDBX Classes
 90
1152
 91
0
280
0
281
0
  0
CLASS
  1
MENTALRAYRENDERSETTINGS
  2
AcDbMentalRayRenderSettings
  3
SCENEOE
 90
1024
 91
0
280
0
281
0
  0
CLASS
  1
ACDBDETAILVIEWSTYLE
  2
AcDbDetailViewStyle
  3
ObjectDBX Classes
 90
1025
 91
0
280
0
281
0
  0
CLASS
  1
ACDBSECTIONVIEWSTYLE
  2
AcDbSectionViewStyle
  3
ObjectDBX Classes
 90
1025
 91
0
280
0
281
0
  0
CLASS
  1
RASTERVARIABLES
  2
AcDbRasterVariables
  3
ISM
 90
0
 91
0
280
0
281
0
  0
CLASS
  1
LAYOUT
  2
AcDbLayout
  3
ObjectDBX Classes
 90
0
 91
0
280
0
281
0
  0
CLASS
  1
ACDBPLACEHOLDER
  2
AcDbPlaceHolder
  3
ObjectDBX Classes
 90
0
 91
0
280
0
281
0
  0
ENDSEC
  0
SECTION
  2
TABLES
  0
TABLE
  2
VPORT
  5
8
330
0
100
AcDbSymbolTable
 70
1
  0
VPORT
  5
23
330
8
100
AcDbSymbolTableRecord
100
AcDbViewportTableRecord
  2
*Active
 70
0
 10
0.0
 20
0.0
 11
1.0
 21
1.0
 12
0.0
 22
0.0
 13
0.0
 23
0.0
 14
0.5
 24
0.5
 15
0.5
 25
0.5
 16
0.0
 26
0.0
 36
1.0
 17
0.0
 27
0.0
 37
0.0
 40
1000.0
 41
1.34
 42
50.0
 43
0.0
 44
0.0
 50
0.0
 51
0.0
 71
0
 72
1000
 73
1
 74
3
 75
0
 76
0
 77
0
 78
0
281
0
 65
0
146
0.0
  0
ENDTAB
  0
TABLE
  2
LTYPE
  5
2
330
0
100
AcDbSymbolTable
 70
6
  0
LTYPE
  5
24
330
2
100
AcDbSymbolTableRecord
100
AcDbLinetypeTableRecord
  2
ByBlock
 70
0
  3

 72
65
 73
0
 40
0.0
  0
LTYPE
  5
25
330
2
100
AcDbSymbolTableRecord
100
AcDbLinetypeTableRecord
  2
ByLayer
 70
0
  3

 72
65
 73
0
 40
0.0
  0
LTYPE
  5
26
330
2
100
AcDbSymbolTableRecord
100
AcDbLinetypeTableRecord
  2
Continuous
 70
0
  3

 72
65
 73
0
 40
0.0
  0
LTYPE
  5
2F
330
2
100
AcDbSymbolTableRecord
100
AcDbLinetypeTableRecord
  2
DASHED
 70
0
  3
hidden
 72
65
 73
2
 40
0.75
 49
0.5
 74
0
 49
-0.25
 74
0
  0
LTYPE
  5
30
330
2
100
AcDbSymbolTableRecord
100
AcDbLinetypeTableRecord
  2
CENTER
 70
0
  3
center
 72
65
 73
4
 40
1.25
 49
0.7
 74
0
 49
-0.15
 74
0
 49
0.15
 74
0
 49
-0.15
 74
0
  0
LTYPE
  5
31
330
2
100
AcDbSymbolTableRecord
100
AcDbLinetypeTableRecord
  2
DASHDOT
 70
0
  3
keepout
 72
65
 73
6
 40
1.5
 49
0.8
 74
0
 49
-0.2
 74
0
 49
0.2
 74
0
 49
-0.2
 74
0
 49
0.1
 74
0
 49
-0.2
 74
0
  0
ENDTAB
  0
TABLE
  2
LAYER
  5
1
330
0
100
AcDbSymbolTable
 70
15
  0
LAYER
  5
27
330
1
100
AcDbSymbolTableRecord
100
AcDbLayerTableRecord
  2
0
 70
0
 62
7
  6
Continuous
370
-3
390
13
347
21
  0
LAYER
  5
28
330
1
100
AcDbSymbolTableRecord
100
AcDbLayerTableRecord
  2
Defpoints
 70
0
 62
7
  6
Continuous
290
0
370
-3
390
13
347
21
  0
LAYER
  5
32
330
1
100
AcDbSymbolTableRecord
100
AcDbLayerTableRecord
  2
BORDER
 70
0
 62
7
  6
CONTINUOUS
370
50
390
13
347
21
  0
LAYER
  5
33
330
1
100
AcDbSymbolTableRecord
100
AcDbLayerTableRecord
  2
OUTLINE
 70
0
 62
7
  6
CONTINUOUS
370
50
390
13
347
21
  0
LAYER
  5
34
330
1
100
AcDbSymbolTableRecord
100
AcDbLayerTableRecord
  2
VISIBLE
 70
0
 62
7
  6
CONTINUOUS
370
35
390
13
347
21
  0
LAYER
  5
35
330
1
100
AcDbSymbolTableRecord
100
AcDbLayerTableRecord
  2
HIDDEN
 70
0
 62
8
  6
DASHED
370
18
390
13
347
21
  0
LAYER
  5
36
330
1
100
AcDbSymbolTableRecord
100
AcDbLayerTableRecord
  2
CENTER
 70
0
 62
4
  6
CENTER
370
13
390
13
347
21
  0
LAYER
  5
37
330
1
100
AcDbSymbolTableRecord
100
AcDbLayerTableRecord
  2
DIMENSION
 70
0
 62
2
  6
CONTINUOUS
370
18
390
13
347
21
  0
LAYER
  5
38
330
1
100
AcDbSymbolTableRecord
100
AcDbLayerTableRecord
  2
SECTION
 70
0
 62
1
  6
CONTINUOUS
370
70
390
13
347
21
  0
LAYER
  5
39
330
1
100
AcDbSymbolTableRecord
100
AcDbLayerTableRecord
  2
HATCH
 70
0
 62
1
  6
CONTINUOUS
370
13
390
13
347
21
  0
LAYER
  5
3A
330
1
100
AcDbSymbolTableRecord
100
AcDbLayerTableRecord
  2
NOTES
 70
0
 62
7
  6
CONTINUOUS
370
18
390
13
347
21
  0
LAYER
  5
3B
330
1
100
AcDbSymbolTableRecord
100
AcDbLayerTableRecord
  2
TITLE_BLOCK
 70
0
 62
7
  6
CONTINUOUS
370
25
390
13
347
21
  0
LAYER
  5
3C
330
1
100
AcDbSymbolTableRecord
100
AcDbLayerTableRecord
  2
KEEP_OUT
 70
0
 62
6
  6
DASHDOT
370
25
390
13
347
21
  0
LAYER
  5
3D
330
1
100
AcDbSymbolTableRecord
100
AcDbLayerTableRecord
  2
DATUM
 70
0
 62
3
  6
CENTER
370
25
390
13
347
21
  0
LAYER
  5
3E
330
1
100
AcDbSymbolTableRecord
100
AcDbLayerTableRecord
  2
HARNESS
 70
0
 62
5
  6
DASHDOT
370
25
390
13
347
21
  0
ENDTAB
  0
TABLE
  2
STYLE
  5
5
330
0
100
AcDbSymbolTable
 70
1
  0
STYLE
  5
29
330
5
100
AcDbSymbolTableRecord
100
AcDbTextStyleTableRecord
  2
Standard
 70
0
 40
0.0
 41
1.0
 50
0.0
 71
0
 42
2.5
  3
txt
  4

  0
ENDTAB
  0
TABLE
  2
VIEW
  5
7
330
0
100
AcDbSymbolTable
 70
0
  0
ENDTAB
  0
TABLE
  2
UCS
  5
6
330
0
100
AcDbSymbolTable
 70
0
  0
ENDTAB
  0
TABLE
  2
APPID
  5
3
330
0
100
AcDbSymbolTable
 70
4
  0
APPID
  5
2A
330
3
100
AcDbSymbolTableRecord
100
AcDbRegAppTableRecord
  2
ACAD
 70
0
  0
APPID
  5
3F
330
3
100
AcDbSymbolTableRecord
100
AcDbRegAppTableRecord
  2
AICAD
 70
0
  0
APPID
  5
B4
330
3
100
AcDbSymbolTableRecord
100
AcDbRegAppTableRecord
  2
HATCHBACKGROUNDCOLOR
 70
0
  0
APPID
  5
B5
330
3
100
AcDbSymbolTableRecord
100
AcDbRegAppTableRecord
  2
EZDXF
 70
0
  0
ENDTAB
  0
TABLE
  2
DIMSTYLE
  5
4
330
0
100
AcDbSymbolTable
 70
1
100
AcDbDimStyleTable
  0
DIMSTYLE
105
2B
330
4
100
AcDbSymbolTableRecord
100
AcDbDimStyleTableRecord
  2
Standard
 70
0
 40
1.0
 41
2.5
 42
0.625
 43
3.75
 44
1.25
 45
0.0
 46
0.0
 47
0.0
 48
0.0
 49
2.5
140
2.5
141
2.5
142
0.0
143
0.03937007874
144
1.0
145
0.0
146
1.0
147
0.625
148
0.0
 69
0
 70
0
 71
0
 72
0
 73
0
 74
0
 75
0
 76
0
 77
1
 78
8
 79
3
170
0
171
3
172
1
173
0
174
0
175
0
176
0
177
0
178
0
179
2
271
2
272
2
273
2
274
3
275
0
276
0
277
2
278
44
279
0
280
0
281
0
282
0
283
0
284
8
285
0
286
0
288
0
289
3
290
0
371
-2
372
-2
  0
ENDTAB
  0
TABLE
  2
BLOCK_RECORD
  5
9
330
0
100
AcDbSymbolTable
 70
2
  0
BLOCK_RECORD
  5
17
330
9
100
AcDbSymbolTableRecord
100
AcDbBlockTableRecord
  2
*Model_Space
340
1A
 70
0
280
1
281
0
  0
BLOCK_RECORD
  5
1B
330
9
100
AcDbSymbolTableRecord
100
AcDbBlockTableRecord
  2
*Paper_Space
340
1E
 70
0
280
1
281
0
  0
ENDTAB
  0
ENDSEC
  0
SECTION
  2
BLOCKS
  0
BLOCK
  5
18
330
17
100
AcDbEntity
  8
0
100
AcDbBlockBegin
  2
*Model_Space
 70
0
 10
0.0
 20
0.0
 30
0.0
  3
*Model_Space
  1

  0
ENDBLK
  5
19
330
17
100
AcDbEntity
  8
0
100
AcDbBlockEnd
  0
BLOCK
  5
1C
330
1B
100
AcDbEntity
  8
0
100
AcDbBlockBegin
  2
*Paper_Space
 70
0
 10
0.0
 20
0.0
 30
0.0
  3
*Paper_Space
  1

  0
ENDBLK
  5
1D
330
1B
100
AcDbEntity
  8
0
100
AcDbBlockEnd
  0
ENDSEC
  0
SECTION
  2
ENTITIES
  0
LWPOLYLINE
  5
40
330
17
100
AcDbEntity
  8
BORDER
100
AcDbPolyline
 90
4
 70
1
 10
10.0
 20
10.0
 10
410.0
 20
10.0
 10
410.0
 20
287.0
 10
10.0
 20
287.0
  0
LWPOLYLINE
  5
41
330
17
100
AcDbEntity
  8
TITLE_BLOCK
100
AcDbPolyline
 90
4
 70
1
 10
12.0
 20
278.0
 10
408.0
 20
278.0
 10
408.0
 20
286.0
 10
12.0
 20
286.0
  0
TEXT
  5
42
330
17
100
AcDbEntity
  8
TITLE_BLOCK
100
AcDbText
 10
210.0
 20
281.40000000000003
 30
0.0
 40
3.2
  1
MW-P-001  |  GFRP SPINE
 72
1
 11
210.0
 21
281.40000000000003
 31
0.0
100
AcDbText
 73
2
1001
AICAD
1000
MW-P-001:header
1000
text-in-frame-strict
  0
LWPOLYLINE
  5
43
330
17
100
AcDbEntity
  8
TITLE_BLOCK
100
AcDbPolyline
 90
4
 70
1
 10
258.0
 20
10.0
 10
408.0
 20
10.0
 10
408.0
 20
30.0
 10
258.0
 20
30.0
  0
TEXT
  5
44
330
17
100
AcDbEntity
  8
TITLE_BLOCK
100
AcDbText
 10
333.0
 20
25.6
 30
0.0
 40
3.0
  1
GFRP SPINE
 72
1
 11
333.0
 21
25.6
 31
0.0
100
AcDbText
 73
2
1001
AICAD
1000
MW-P-001:title
1000
text-in-frame-strict
  0
LWPOLYLINE
  5
45
330
17
100
AcDbEntity
  8
TITLE_BLOCK
100
AcDbPolyline
 90
4
 70
1
 10
258.0
 20
30.0
 10
333.0
 20
30.0
 10
333.0
 20
42.0
 10
258.0
 20
42.0
  0
TEXT
  5
46
330
17
100
AcDbEntity
  8
TITLE_BLOCK
100
AcDbText
 10
259.4
 20
38.2
 30
0.0
 40
2.4
  1
DWG: MW-P-001
 11
259.4
 21
38.2
 31
0.0
100
AcDbText
 73
2
1001
AICAD
1000
MW-P-001:number
1000
text-in-frame-strict
  0
LWPOLYLINE
  5
47
330
17
100
AcDbEntity
  8
TITLE_BLOCK
100
AcDbPolyline
 90
4
 70
1
 10
333.0
 20
30.0
 10
370.0
 20
30.0
 10
370.0
 20
42.0
 10
333.0
 20
42.0
  0
TEXT
  5
48
330
17
100
AcDbEntity
  8
TITLE_BLOCK
100
AcDbText
 10
334.4
 20
38.2
 30
0.0
 40
2.4
  1
REV: B-RFQ
 11
334.4
 21
38.2
 31
0.0
100
AcDbText
 73
2
1001
AICAD
1000
MW-P-001:rev
1000
text-in-frame-strict
  0
LWPOLYLINE
  5
49
330
17
100
AcDbEntity
  8
TITLE_BLOCK
100
AcDbPolyline
 90
4
 70
1
 10
370.0
 20
30.0
 10
408.0
 20
30.0
 10
408.0
 20
42.0
 10
370.0
 20
42.0
  0
TEXT
  5
4A
330
17
100
AcDbEntity
  8
TITLE_BLOCK
100
AcDbText
 10
371.4
 20
38.4
 30
0.0
 40
2.2
  1
SHEET 1/1
 11
371.4
 21
38.4
 31
0.0
100
AcDbText
 73
2
1001
AICAD
1000
MW-P-001:sheet
1000
text-in-frame-strict
  0
LWPOLYLINE
  5
4B
330
17
100
AcDbEntity
  8
TITLE_BLOCK
100
AcDbPolyline
 90
4
 70
1
 10
258.0
 20
42.0
 10
408.0
 20
42.0
 10
408.0
 20
55.0
 10
258.0
 20
55.0
  0
TEXT
  5
4C
330
17
100
AcDbEntity
  8
TITLE_BLOCK
100
AcDbText
 10
333.0
 20
51.300000000000004
 30
0.0
 40
2.3
  1
DFM/RFQ INPUT · REVIEW ONLY · NOT TOOL RELEASE
 72
1
 11
333.0
 21
51.300000000000004
 31
0.0
100
AcDbText
 73
2
1001
AICAD
1000
MW-P-001:stage
1000
text-in-frame-strict
  0
LWPOLYLINE
  5
4D
330
17
100
AcDbEntity
  8
VISIBLE
100
AcDbPolyline
 90
24
 70
0
 10
76.74000658520961
 20
272.8623667721931
 10
76.83343417474747
 20
272.9144279505694
 10
76.9426308038701
 20
272.9372912366062
 10
77.05307919353338
 20
272.9532526142112
 10
77.16401228991651
 20
272.9654434722207
 10
77.27519986533916
 20
272.9750590010431
 10
77.38654100276015
 20
272.9827034812217
 10
77.49798184443127
 20
272.9887277173809
 10
77.60948967837125
 20
272.99335123988004
 10
77.72104256128569
 20
272.9967161981385
 10
77.83262443539076
 20
272.99891411255277
 10
77.94422251077246
 20
273.0
 10
78.05582566509189
 20
272.99999976648485
 10
78.16742329226575
 20
272.9989134130267
 10
78.27900427953062
 20
272.99671503528
 10
78.3905558561949
 20
272.9933496167853
 10
78.50206199322425
 20
272.9887256351046
 10
78.61350078462321
 20
272.9827009343098
 10
78.72483956098286
 20
272.97505596931563
 10
78.83602450390096
 20
272.96543990448026
 10
78.94695471298141
 20
272.9532483906345
 10
79.05739991122296
 20
272.9372860541204
 10
79.16659276758753
 20
272.91442073239193
 10
79.25999341479039
 20
272.8623667721931
1001
AICAD
1000
MW-P-001:front
1000
MW-P-001:front:edge:0
  0
LWPOLYLINE
  5
4E
330
17
100
AcDbEntity
  8
VISIBLE
100
AcDbPolyline
 90
24
 70
0
 10
79.25999341479039
 20
194.13763322780682
 10
79.25999341479039
 20
197.56044772973667
 10
79.25999341479039
 20
200.98326223166652
 10
79.25999341479039
 20
204.40607673359636
 10
79.25999341479039
 20
207.82889123552619
 10
79.25999341479039
 20
211.25170573745604
 10
79.25999341479039
 20
214.67452023938586
 10
79.25999341479039
 20
218.0973347413157
 10
79.25999341479039
 20
221.52014924324556
 10
79.25999341479039
 20
224.94296374517538
 10
79.25999341479039
 20
228.36577824710523
 10
79.25999341479039
 20
231.78859274903508
 10
79.25999341479039
 20
235.2114072509649
 10
79.25999341479039
 20
238.63422175289475
 10
79.25999341479039
 20
242.0570362548246
 10
79.25999341479039
 20
245.47985075675442
 10
79.25999341479039
 20
248.90266525868427
 10
79.25999341479039
 20
252.32547976061412
 10
79.25999341479039
 20
255.74829426254394
 10
79.25999341479039
 20
259.1711087644738
 10
79.25999341479039
 20
262.59392326640364
 10
79.25999341479039
 20
266.0167377683335
 10
79.25999341479039
 20
269.43955227026333
 10
79.25999341479039
 20
272.8623667721931
1001
AICAD
1000
MW-P-001:front
1000
MW-P-001:front:edge:1
  0
LWPOLYLINE
  5
4F
330
17
100
AcDbEntity
  8
VISIBLE
100
AcDbPolyline
 90
24
 70
0
 10
79.25999341479039
 20
194.13763322780682
 10
79.16656582525253
 20
194.08557204943057
 10
79.0573691961299
 20
194.0627087633938
 10
78.94692080646662
 20
194.0467473857888
 10
78.83598771008349
 20
194.03455652777927
 10
78.72480013466084
 20
194.02494099895685
 10
78.61345899723985
 20
194.0172965187783
 10
78.50201815556873
 20
194.01127228261907
 10
78.39051032162875
 20
194.00664876011993
 10
78.27895743871431
 20
194.00328380186153
 10
78.16737556460924
 20
194.00108588744723
 10
78.05577748922754
 20
194.0
 10
77.94417433490811
 20
194.0000002335151
 10
77.83257670773425
 20
194.00108658697326
 10
77.72099572046938
 20
194.00328496472002
 10
77.6094441438051
 20
194.0066503832147
 10
77.49793800677575
 20
194.01127436489543
 10
77.38649921537677
 20
194.0172990656902
 10
77.27516043901714
 20
194.02494403068434
 10
77.16397549609904
 20
194.03456009551974
 10
77.05304528701859
 20
194.04675160936551
 10
76.94260008877704
 20
194.06271394587955
 10
76.83340723241247
 20
194.08557926760804
 10
76.74000658520961
 20
194.13763322780682
1001
AICAD
1000
MW-P-001:front
1000
MW-P-001:front:edge:2
  0
LWPOLYLINE
  5
50
330
17
100
AcDbEntity
  8
VISIBLE
100
AcDbPolyline
 90
24
 70
0
 10
76.74000658520961
 20
194.13763322780682
 10
76.83343417474747
 20
194.1896944061831
 10
76.9426308038701
 20
194.21255769221986
 10
77.05307919353338
 20
194.22851906982487
 10
77.16401228991651
 20
194.2407099278344
 10
77.27519986533916
 20
194.2503254566568
 10
77.38654100276015
 20
194.25796993683537
 10
77.49798184443127
 20
194.2639941729946
 10
77.60948967837125
 20
194.26861769549373
 10
77.72104256128569
 20
194.27198265375216
 10
77.83262443539076
 20
194.27418056816646
 10
77.94422251077246
 20
194.2752664556137
 10
78.05582566509189
 20
194.27526622209857
 10
78.16742329226575
 20
194.27417986864037
 10
78.27900427953062
 20
194.27198149089364
 10
78.3905558561949
 20
194.26861607239897
 10
78.50206199322425
 20
194.26399209071826
 10
78.61350078462321
 20
194.25796738992346
 10
78.72483956098286
 20
194.25032242492932
 10
78.83602450390096
 20
194.24070636009392
 10
78.94695471298141
 20
194.22851484624815
 10
79.05739991122296
 20
194.2125525097341
 10
79.16659276758753
 20
194.18968718800562
 10
79.25999341479039
 20
194.13763322780682
1001
AICAD
1000
MW-P-001:front
1000
MW-P-001:front:edge:3
  0
LWPOLYLINE
  5
51
330
17
100
AcDbEntity
  8
VISIBLE
100
AcDbPolyline
 90
24
 70
0
 10
76.74000658520961
 20
194.13763322780682
 10
76.74000658520961
 20
197.56044772973667
 10
76.74000658520961
 20
200.98326223166652
 10
76.74000658520961
 20
204.40607673359636
 10
76.74000658520961
 20
207.82889123552619
 10
76.74000658520961
 20
211.25170573745604
 10
76.74000658520961
 20
214.67452023938586
 10
76.74000658520961
 20
218.0973347413157
 10
76.74000658520961
 20
221.52014924324556
 10
76.74000658520961
 20
224.94296374517538
 10
76.74000658520961
 20
228.36577824710523
 10
76.74000658520961
 20
231.78859274903508
 10
76.74000658520961
 20
235.2114072509649
 10
76.74000658520961
 20
238.63422175289475
 10
76.74000658520961
 20
242.0570362548246
 10
76.74000658520961
 20
245.47985075675442
 10
76.74000658520961
 20
248.90266525868427
 10
76.74000658520961
 20
252.32547976061412
 10
76.74000658520961
 20
255.74829426254394
 10
76.74000658520961
 20
259.1711087644738
 10
76.74000658520961
 20
262.59392326640364
 10
76.74000658520961
 20
266.0167377683335
 10
76.74000658520961
 20
269.43955227026333
 10
76.74000658520961
 20
272.8623667721931
1001
AICAD
1000
MW-P-001:front
1000
MW-P-001:front:edge:4
  0
LWPOLYLINE
  5
52
330
17
100
AcDbEntity
  8
HIDDEN
100
AcDbPolyline
 90
24
 70
0
 10
79.25999341479039
 20
272.8623667721931
 10
79.16656582525253
 20
272.81030559381685
 10
79.0573691961299
 20
272.7874423077801
 10
78.94692080646662
 20
272.77148093017513
 10
78.83598771008349
 20
272.7592900721656
 10
78.72480013466084
 20
272.7496745433432
 10
78.61345899723985
 20
272.74203006316463
 10
78.50201815556873
 20
272.7360058270054
 10
78.39051032162875
 20
272.73138230450627
 10
78.27895743871431
 20
272.72801734624784
 10
78.16737556460924
 20
272.72581943183354
 10
78.05577748922754
 20
272.7247335443863
 10
77.94417433490811
 20
272.7247337779014
 10
77.83257670773425
 20
272.72582013135957
 10
77.72099572046938
 20
272.72801850910633
 10
77.6094441438051
 20
272.73138392760103
 10
77.49793800677575
 20
272.73600790928174
 10
77.38649921537677
 20
272.7420326100765
 10
77.27516043901714
 20
272.7496775750706
 10
77.16397549609904
 20
272.75929363990605
 10
77.05304528701859
 20
272.7714851537518
 10
76.94260008877704
 20
272.78744749026583
 10
76.83340723241247
 20
272.8103128119943
 10
76.74000658520961
 20
272.8623667721931
1001
AICAD
1000
MW-P-001:front
1000
MW-P-001:front:edge:5
  0
LINE
  5
53
330
17
100
AcDbEntity
  8
CENTER
100
AcDbLine
 10
16.0
 20
233.5
 30
0.0
 11
140.0
 21
233.5
 31
0.0
  0
LINE
  5
54
330
17
100
AcDbEntity
  8
CENTER
100
AcDbLine
 10
78.0
 20
190.0
 30
0.0
 11
78.0
 21
273.0
 31
0.0
  0
LWPOLYLINE
  5
55
330
17
100
AcDbEntity
  8
TITLE_BLOCK
100
AcDbPolyline
 90
4
 70
1
 10
16.0
 20
187.0
 10
140.0
 20
187.0
 10
140.0
 20
193.0
 10
16.0
 20
193.0
  0
TEXT
  5
56
330
17
100
AcDbEntity
  8
TITLE_BLOCK
100
AcDbText
 10
78.0
 20
189.4
 30
0.0
 40
2.2
  1
FRONT
 72
1
 11
78.0
 21
189.4
 31
0.0
100
AcDbText
 73
2
1001
AICAD
1000
MW-P-001:front:label
1000
text-in-frame-strict
  0
LWPOLYLINE
  5
57
330
17
100
AcDbEntity
  8
VISIBLE
100
AcDbPolyline
 90
24
 70
0
 10
209.0
 20
273.0
 10
209.05580079367033
 20
272.9998648309382
 10
209.1116002712594
 20
272.99945853769674
 10
209.16739708569315
 20
272.99877873914926
 10
209.22318982606902
 20
272.99782138864515
 10
209.2789769809265
 20
272.9965806511231
 10
209.33475689512014
 20
272.9950487188621
 10
209.39052771700375
 20
272.9932155517458
 10
209.44628733135278
 20
272.9910685206831
 10
209.50203327138863
 20
272.98859192224865
 10
209.55776259990958
 20
272.98576631648405
 10
209.61347174394595
 20
272.9825676143281
 10
209.66915625776758
 20
272.97896579941073
 10
209.7248104719826
 20
272.97492309786173
 10
209.78042695459487
 20
272.9703912833054
 10
209.83599564714476
 20
272.9653075674548
 10
209.89150240720573
 20
272.9595880559524
 10
209.94692638826956
 20
272.9531167415446
 10
210.00223493155144
 20
272.9457256418031
 10
210.0573724680028
 20
272.9371554311265
 10
210.1122324106191
 20
272.92696641363085
 10
210.16656678536074
 20
272.9142922497253
 10
210.21953242041306
 20
272.8968634929354
 10
210.25999126074927
 20
272.86223195182123
1001
AICAD
1000
MW-P-001:right
1000
MW-P-001:right:edge:0
  0
LWPOLYLINE
  5
58
330
17
100
AcDbEntity
  8
VISIBLE
100
AcDbPolyline
 90
24
 70
0
 10
207.74000873925073
 20
272.86223195182123
 10
207.78046846583018
 20
272.8968638660428
 10
207.83343414343622
 20
272.9142924985448
 10
207.8877685300345
 20
272.92696660685027
 10
207.94262847584642
 20
272.93715559037446
 10
207.99776601548004
 20
272.9457257777101
 10
208.05307456942424
 20
272.95311686083704
 10
208.10849857341518
 20
272.95958816330733
 10
208.16400537000862
 20
272.9653076660818
 10
208.21957411099012
 20
272.970391375227
 10
208.27519064999066
 20
272.97492318413543
 10
208.3308449231847
 20
272.9789658803435
 10
208.38652949245076
 20
272.98256768968434
 10
208.44223868200206
 20
272.98576638568005
 10
208.4979680397814
 20
272.9885919845279
 10
208.55371398677786
 20
272.99106857527084
 10
208.60947358016514
 20
272.9932155979831
 10
208.6652443480254
 20
272.9950487563214
 10
208.72102417050684
 20
272.99658067970785
 10
208.7768111918466
 20
272.99782140867705
 10
208.83260375327424
 20
272.99877875144546
 10
208.88840034016619
 20
272.9994585436415
 10
208.94419953888251
 20
272.9998648325501
 10
209.0
 20
273.0
1001
AICAD
1000
MW-P-001:right
1000
MW-P-001:right:edge:1
  0
LWPOLYLINE
  5
59
330
17
100
AcDbEntity
  8
VISIBLE
100
AcDbPolyline
 90
24
 70
0
 10
209.0
 20
194.27540104069263
 10
209.05580079367033
 20
194.27526587163084
 10
209.1116002712594
 20
194.27485957838937
 10
209.16739708569315
 20
194.2741797798419
 10
209.22318982606902
 20
194.2732224293378
 10
209.2789769809265
 20
194.2719816918157
 10
209.33475689512014
 20
194.2704497595547
 10
209.39052771700375
 20
194.26861659243843
 10
209.44628733135278
 20
194.26646956137574
 10
209.50203327138863
 20
194.2639929629413
 10
209.55776259990958
 20
194.26116735717667
 10
209.61347174394595
 20
194.2579686550207
 10
209.66915625776758
 20
194.25436684010333
 10
209.7248104719826
 20
194.25032413855433
 10
209.78042695459487
 20
194.245792323998
 10
209.83599564714476
 20
194.24070860814737
 10
209.89150240720573
 20
194.23498909664502
 10
209.94692638826956
 20
194.2285177822372
 10
210.00223493155144
 20
194.22112668249576
 10
210.0573724680028
 20
194.2125564718191
 10
210.1122324106191
 20
194.20236745432348
 10
210.16656678536074
 20
194.1896932904179
 10
210.21953242041306
 20
194.17226453362798
 10
210.25999126074927
 20
194.13763299251383
1001
AICAD
1000
MW-P-001:right
1000
MW-P-001:right:edge:2
  0
LWPOLYLINE
  5
5A
330
17
100
AcDbEntity
  8
VISIBLE
100
AcDbPolyline
 90
24
 70
0
 10
210.25999126074927
 20
194.13763299251383
 10
210.16656383093198
 20
194.08557190313957
 10
210.05736738848813
 20
194.06270865618907
 10
209.9469191876436
 20
194.04674730587107
 10
209.83598628090783
 20
194.03455646870262
 10
209.72479889556763
 20
194.02494095631857
 10
209.6134579484916
 20
194.01729648920877
 10
209.50201729733587
 20
194.0112722633484
 10
209.39050965402583
 20
194.00664874875343
 10
209.27895696181832
 20
194.00328379624764
 10
209.16737527846976
 20
194.00108588559084
 10
209.0557773938723
 20
194.0
 10
208.94417443034573
 20
194.0000002335147
 10
208.8325769939553
 20
194.00108658511567
 10
208.72099619744543
 20
194.00328495910415
 10
208.60944481148587
 20
194.00665037184544
 10
208.49793886508354
 20
194.01127434562116
 10
208.38650026419648
 20
194.0172990361163
 10
208.27516167817777
 20
194.0249439880409
 10
208.16397692533758
 20
194.034560036437
 10
208.05304690589958
 20
194.0467515294406
 10
207.94260189647133
 20
194.06271383866596
 10
207.83340922677908
 20
194.08557912130468
 10
207.74000873925073
 20
194.13763299251383
1001
AICAD
1000
MW-P-001:right
1000
MW-P-001:right:edge:3
  0
LWPOLYLINE
  5
5B
330
17
100
AcDbEntity
  8
VISIBLE
100
AcDbPolyline
 90
24
 70
0
 10
207.74000873925073
 20
194.13763299251383
 10
207.78046846583018
 20
194.17226490673542
 10
207.83343414343622
 20
194.18969353923745
 10
207.8877685300345
 20
194.20236764754293
 10
207.94262847584642
 20
194.21255663106712
 10
207.99776601548004
 20
194.2211268184027
 10
208.05307456942424
 20
194.2285179015297
 10
208.10849857341518
 20
194.23498920399993
 10
208.16400537000862
 20
194.2407087067744
 10
208.21957411099012
 20
194.24579241591965
 10
208.27519064999066
 20
194.2503242248281
 10
208.3308449231847
 20
194.25436692103614
 10
208.38652949245076
 20
194.257968730377
 10
208.44223868200206
 20
194.26116742637268
 10
208.4979680397814
 20
194.26399302522054
 10
208.55371398677786
 20
194.26646961596344
 10
208.60947358016514
 20
194.26861663867572
 10
208.6652443480254
 20
194.270449797014
 10
208.72102417050684
 20
194.2719817204005
 10
208.7768111918466
 20
194.27322244936965
 10
208.83260375327424
 20
194.2741797921381
 10
208.88840034016619
 20
194.27485958433408
 10
208.94419953888251
 20
194.27526587324274
 10
209.0
 20
194.27540104069263
1001
AICAD
1000
MW-P-001:right
1000
MW-P-001:right:edge:4
  0
LWPOLYLINE
  5
5C
330
17
100
AcDbEntity
  8
VISIBLE
100
AcDbPolyline
 90
24
 70
0
 10
210.25999126074927
 20
194.13763299251383
 10
210.25999126074927
 20
197.5604416429185
 10
210.25999126074927
 20
200.98325029332318
 10
210.25999126074927
 20
204.40605894372783
 10
210.25999126074927
 20
207.8288675941325
 10
210.25999126074927
 20
211.25167624453718
 10
210.25999126074927
 20
214.67448489494186
 10
210.25999126074927
 20
218.0972935453465
 10
210.25999126074927
 20
221.52010219575118
 10
210.25999126074927
 20
224.94291084615585
 10
210.25999126074927
 20
228.36571949656053
 10
210.25999126074927
 20
231.78852814696518
 10
210.25999126074927
 20
235.21133679736985
 10
210.25999126074927
 20
238.63414544777453
 10
210.25999126074927
 20
242.0569540981792
 10
210.25999126074927
 20
245.47976274858385
 10
210.25999126074927
 20
248.90257139898853
 10
210.25999126074927
 20
252.3253800493932
 10
210.25999126074927
 20
255.74818869979785
 10
210.25999126074927
 20
259.1709973502025
 10
210.25999126074927
 20
262.5938060006072
 10
210.25999126074927
 20
266.0166146510119
 10
210.25999126074927
 20
269.4394233014165
 10
210.25999126074927
 20
272.86223195182123
1001
AICAD
1000
MW-P-001:right
1000
MW-P-001:right:edge:5
  0
LWPOLYLINE
  5
5D
330
17
100
AcDbEntity
  8
VISIBLE
100
AcDbPolyline
 90
24
 70
0
 10
207.74000873925073
 20
194.13763299251383
 10
207.74000873925073
 20
197.5604416429185
 10
207.74000873925073
 20
200.98325029332318
 10
207.74000873925073
 20
204.40605894372783
 10
207.74000873925073
 20
207.8288675941325
 10
207.74000873925073
 20
211.25167624453718
 10
207.74000873925073
 20
214.67448489494186
 10
207.74000873925073
 20
218.0972935453465
 10
207.74000873925073
 20
221.52010219575118
 10
207.74000873925073
 20
224.94291084615585
 10
207.74000873925073
 20
228.36571949656053
 10
207.74000873925073
 20
231.78852814696518
 10
207.74000873925073
 20
235.21133679736985
 10
207.74000873925073
 20
238.63414544777453
 10
207.74000873925073
 20
242.0569540981792
 10
207.74000873925073
 20
245.47976274858385
 10
207.74000873925073
 20
248.90257139898853
 10
207.74000873925073
 20
252.3253800493932
 10
207.74000873925073
 20
255.74818869979785
 10
207.74000873925073
 20
259.1709973502025
 10
207.74000873925073
 20
262.5938060006072
 10
207.74000873925073
 20
266.0166146510119
 10
207.74000873925073
 20
269.4394233014165
 10
207.74000873925073
 20
272.86223195182123
1001
AICAD
1000
MW-P-001:right
1000
MW-P-001:right:edge:6
  0
LWPOLYLINE
  5
5E
330
17
100
AcDbEntity
  8
HIDDEN
100
AcDbPolyline
 90
24
 70
0
 10
210.25999126074927
 20
272.86223195182123
 10
210.16656383093198
 20
272.8101708624469
 10
210.05736738848813
 20
272.78730761549645
 10
209.9469191876436
 20
272.77134626517847
 10
209.83598628090783
 20
272.75915542801
 10
209.72479889556763
 20
272.749539915626
 10
209.6134579484916
 20
272.7418954485162
 10
209.50201729733587
 20
272.73587122265576
 10
209.39050965402583
 20
272.73124770806083
 10
209.27895696181832
 20
272.727882755555
 10
209.16737527846976
 20
272.7256848448982
 10
209.0557773938723
 20
272.72459895930734
 10
208.94417443034573
 20
272.7245991928221
 10
208.8325769939553
 20
272.7256855444231
 10
208.72099619744543
 20
272.7278839184115
 10
208.60944481148587
 20
272.7312493311528
 10
208.49793886508354
 20
272.73587330492853
 10
208.38650026419648
 20
272.7418979954237
 10
208.27516167817777
 20
272.74954294734823
 10
208.16397692533758
 20
272.7591589957444
 10
208.05304690589958
 20
272.77135048874794
 10
207.94260189647133
 20
272.7873127979733
 10
207.83340922677908
 20
272.81017808061205
 10
207.74000873925073
 20
272.86223195182123
1001
AICAD
1000
MW-P-001:right
1000
MW-P-001:right:edge:7
  0
LINE
  5
5F
330
17
100
AcDbEntity
  8
CENTER
100
AcDbLine
 10
147.0
 20
233.5
 30
0.0
 11
271.0
 21
233.5
 31
0.0
  0
LINE
  5
60
330
17
100
AcDbEntity
  8
CENTER
100
AcDbLine
 10
209.0
 20
190.0
 30
0.0
 11
209.0
 21
273.0
 31
0.0
  0
LWPOLYLINE
  5
61
330
17
100
AcDbEntity
  8
TITLE_BLOCK
100
AcDbPolyline
 90
4
 70
1
 10
147.0
 20
187.0
 10
271.0
 20
187.0
 10
271.0
 20
193.0
 10
147.0
 20
193.0
  0
TEXT
  5
62
330
17
100
AcDbEntity
  8
TITLE_BLOCK
100
AcDbText
 10
209.0
 20
189.4
 30
0.0
 40
2.2
  1
RIGHT
 72
1
 11
209.0
 21
189.4
 31
0.0
100
AcDbText
 73
2
1001
AICAD
1000
MW-P-001:right:label
1000
text-in-frame-strict
  0
LWPOLYLINE
  5
63
330
17
100
AcDbEntity
  8
VISIBLE
100
AcDbPolyline
 90
24
 70
0
 10
380.4079163830263
 20
233.5
 10
378.9397265438772
 20
244.18187437534905
 10
374.64404595027804
 20
254.07152299460216
 10
367.8394655804249
 20
262.43547586180136
 10
359.030650031466
 20
268.6534168553248
 10
348.87090885501783
 20
272.26418973687015
 10
338.1137435764144
 20
273.0
 10
327.55696393361296
 20
270.806275963606
 10
317.9835179786668
 20
265.84571610384785
 10
310.10342440245313
 20
258.4862224524723
 10
304.5011136964904
 20
249.27361498615883
 10
301.5920836169737
 20
238.891150655809
 10
301.5920836169737
 20
228.10884934419101
 10
304.5011136964904
 20
217.72638501384117
 10
310.10342440245313
 20
208.51377754752767
 10
317.9835179786667
 20
201.15428389615218
 10
327.5569639336129
 20
196.19372403639397
 10
338.1137435764144
 20
194.0
 10
348.8709088550179
 20
194.73581026312988
 10
359.030650031466
 20
198.3465831446752
 10
367.8394655804249
 20
204.56452413819866
 10
374.64404595027804
 20
212.92847700539778
 10
378.9397265438772
 20
222.81812562465095
 10
380.4079163830263
 20
233.5
1001
AICAD
1000
MW-P-001:top
1000
MW-P-001:top:edge:0
  0
LWPOLYLINE
  5
64
330
17
100
AcDbEntity
  8
HIDDEN
100
AcDbPolyline
 90
24
 70
0
 10
380.4079163830263
 20
233.5
 10
378.9397265438772
 20
244.18187437534905
 10
374.64404595027804
 20
254.07152299460216
 10
367.8394655804249
 20
262.43547586180136
 10
359.030650031466
 20
268.6534168553248
 10
348.87090885501783
 20
272.26418973687015
 10
338.1137435764144
 20
273.0
 10
327.5569639336129
 20
270.806275963606
 10
317.9835179786668
 20
265.84571610384785
 10
310.10342440245313
 20
258.4862224524723
 10
304.5011136964904
 20
249.27361498615883
 10
301.5920836169737
 20
238.891150655809
 10
301.5920836169737
 20
228.10884934419101
 10
304.5011136964904
 20
217.72638501384117
 10
310.10342440245313
 20
208.51377754752767
 10
317.9835179786667
 20
201.15428389615218
 10
327.5569639336129
 20
196.19372403639397
 10
338.1137435764144
 20
194.0
 10
348.8709088550179
 20
194.73581026312988
 10
359.030650031466
 20
198.3465831446752
 10
367.8394655804249
 20
204.56452413819866
 10
374.64404595027804
 20
212.92847700539778
 10
378.9397265438772
 20
222.81812562465095
 10
380.4079163830263
 20
233.5
1001
AICAD
1000
MW-P-001:top
1000
MW-P-001:top:edge:1
  0
LINE
  5
65
330
17
100
AcDbEntity
  8
CENTER
100
AcDbLine
 10
278.0
 20
233.5
 30
0.0
 11
404.0
 21
233.5
 31
0.0
  0
LINE
  5
66
330
17
100
AcDbEntity
  8
CENTER
100
AcDbLine
 10
341.0
 20
190.0
 30
0.0
 11
341.0
 21
273.0
 31
0.0
  0
LWPOLYLINE
  5
67
330
17
100
AcDbEntity
  8
TITLE_BLOCK
100
AcDbPolyline
 90
4
 70
1
 10
278.0
 20
187.0
 10
404.0
 20
187.0
 10
404.0
 20
193.0
 10
278.0
 20
193.0
  0
TEXT
  5
68
330
17
100
AcDbEntity
  8
TITLE_BLOCK
100
AcDbText
 10
341.0
 20
189.4
 30
0.0
 40
2.2
  1
TOP
 72
1
 11
341.0
 21
189.4
 31
0.0
100
AcDbText
 73
2
1001
AICAD
1000
MW-P-001:top:label
1000
text-in-frame-strict
  0
LWPOLYLINE
  5
69
330
17
100
AcDbEntity
  8
VISIBLE
100
AcDbPolyline
 90
24
 70
0
 10
341.9860616484713
 20
176.95692995572523
 10
342.01093193008586
 20
176.9681177270039
 10
342.03557753315135
 20
176.97979200585587
 10
342.05997524562173
 20
176.99197572889938
 10
342.0840985986413
 20
177.00469389313258
 10
342.1079172743086
 20
177.01797373652738
 10
342.13139638763255
 20
177.0318449159702
 10
342.15449561432075
 20
177.0463396691031
 10
342.1771681306474
 20
177.06149293818495
 10
342.1993593265073
 20
177.07734242126617
 10
342.22100524934706
 20
177.09392849671917
 10
342.2420307379082
 20
177.11129393875373
 10
342.2623472161495
 20
177.12948330064376
 10
342.28185014916727
 20
177.14854178573546
 10
342.3004162309287
 20
177.16851335273753
 10
342.31790050369256
 20
177.189437717126
 10
342.33413383541364
 20
177.21134583747195
 10
342.34892153782783
 20
177.23425347076864
 10
342.3620443949882
 20
177.25815255592164
 10
342.37326388520347
 20
177.28300071101302
 10
342.3823335987623
 20
177.30871017477494
 10
342.3890181851118
 20
177.33513903492906
 10
342.39311897028637
 20
177.36208894511051
 10
342.3945017566041
 20
177.38931341173986
1001
AICAD
1000
MW-P-001:iso
1000
MW-P-001:iso:edge:0
  0
LWPOLYLINE
  5
6A
330
17
100
AcDbEntity
  8
VISIBLE
100
AcDbPolyline
 90
24
 70
0
 10
342.3945017566041
 20
177.38931341173986
 10
342.35935187298884
 20
177.52573948309566
 10
342.2734990282091
 20
177.63846035235727
 10
342.16246956472435
 20
177.727068616749
 10
342.03882735413146
 20
177.7972491287317
 10
341.90814573062204
 20
177.85335390489038
 10
341.7731659114938
 20
177.89820415966966
 10
341.63540192031
 20
177.93363074554546
 10
341.49577792872634
 20
177.96084621558447
 10
341.35490972252023
 20
177.98066049374967
 10
341.21324305367114
 20
177.9936043328546
 10
341.07112914887307
 20
177.99999999448463
 10
340.9288710974005
 20
178.0
 10
340.7867571933443
 20
177.99360434961494
 10
340.64509052645013
 20
177.98066052248083
 10
340.50422232421306
 20
177.9608462577728
 10
340.36459833944195
 20
177.93363080384768
 10
340.22683435825843
 20
177.89820423847272
 10
340.09185455129807
 20
177.85335401097578
 10
339.96117293809766
 20
177.79724927182028
 10
339.83753072556715
 20
177.72706880885625
 10
339.7265012245014
 20
177.63846060072558
 10
339.6406482592166
 20
177.525739736383
 10
339.6054982433959
 20
177.38931341173986
1001
AICAD
1000
MW-P-001:iso
1000
MW-P-001:iso:edge:1
  0
LWPOLYLINE
  5
6B
330
17
100
AcDbEntity
  8
VISIBLE
100
AcDbPolyline
 90
24
 70
0
 10
339.6054982433959
 20
177.38931341173986
 10
339.6289950050999
 20
177.27753540306074
 10
339.689539369767
 20
177.1802434941062
 10
339.7715727521222
 20
177.09990592841535
 10
339.8655180144403
 20
177.03373023532927
 10
339.9664898407496
 20
176.9787890315054
 10
340.07191376757936
 20
176.93292186999201
 10
340.18032426266126
 20
176.89461624196042
 10
340.29082145959217
 20
176.8628082993994
 10
340.4028147329877
 20
176.8367388084483
 10
340.5158928390279
 20
176.81586015182737
 10
340.6297533520329
 20
176.79977722362457
 10
340.7441616698196
 20
176.7882096984789
 10
340.8589255434963
 20
176.78096796275054
 10
340.9738780134583
 20
176.77793815587683
 10
341.0888648449205
 20
176.77907371059666
 10
341.20373407054507
 20
176.78439200710037
 10
341.31832589713
 20
176.79397561399242
 10
341.43246134121193
 20
176.80797831014846
 10
341.54592757609083
 20
176.82663685276475
 10
341.6584569152191
 20
176.85029048151063
 10
341.7696940712915
 20
176.87941171183047
 10
341.87914146938175
 20
176.91465450555262
 10
341.9860616484713
 20
176.95692995572523
1001
AICAD
1000
MW-P-001:iso
1000
MW-P-001:iso:edge:2
  0
LWPOLYLINE
  5
6C
330
17
100
AcDbEntity
  8
VISIBLE
100
AcDbPolyline
 90
24
 70
0
 10
341.9860616484713
 20
98.17899179984843
 10
342.01093193008586
 20
98.19017957112708
 10
342.03557753315135
 20
98.20185384997907
 10
342.05997524562173
 20
98.21403757302255
 10
342.0840985986413
 20
98.22675573725576
 10
342.1079172743086
 20
98.24003558065058
 10
342.13139638763255
 20
98.2539067600934
 10
342.15449561432075
 20
98.26840151322631
 10
342.1771681306474
 20
98.28355478230816
 10
342.1993593265073
 20
98.29940426538937
 10
342.22100524934706
 20
98.31599034084238
 10
342.2420307379082
 20
98.33335578287694
 10
342.2623472161495
 20
98.35154514476696
 10
342.28185014916727
 20
98.37060362985866
 10
342.3004162309287
 20
98.39057519686074
 10
342.31790050369256
 20
98.4114995612492
 10
342.33413383541364
 20
98.43340768159516
 10
342.34892153782783
 20
98.45631531489182
 10
342.3620443949882
 20
98.48021440004482
 10
342.37326388520347
 20
98.5050625551362
 10
342.3823335987623
 20
98.53077201889815
 10
342.3890181851118
 20
98.55720087905225
 10
342.39311897028637
 20
98.58415078923372
 10
342.3945017566041
 20
98.61137525586307
1001
AICAD
1000
MW-P-001:iso
1000
MW-P-001:iso:edge:3
  0
LWPOLYLINE
  5
6D
330
17
100
AcDbEntity
  8
VISIBLE
100
AcDbPolyline
 90
24
 70
0
 10
339.6054982433959
 20
98.61137525586307
 10
339.6289950050999
 20
98.49959724718393
 10
339.689539369767
 20
98.4023053382294
 10
339.7715727521222
 20
98.32196777253856
 10
339.8655180144403
 20
98.25579207945246
 10
339.9664898407496
 20
98.20085087562862
 10
340.07191376757936
 20
98.15498371411519
 10
340.18032426266126
 20
98.11667808608362
 10
340.29082145959217
 20
98.08487014352261
 10
340.4028147329877
 20
98.0588006525715
 10
340.5158928390279
 20
98.03792199595057
 10
340.6297533520329
 20
98.02183906774775
 10
340.7441616698196
 20
98.01027154260208
 10
340.8589255434963
 20
98.00302980687373
 10
340.9738780134583
 20
98.0
 10
341.0888648449205
 20
98.00113555471987
 10
341.20373407054507
 20
98.00645385122355
 10
341.31832589713
 20
98.01603745811562
 10
341.43246134121193
 20
98.03004015427165
 10
341.54592757609083
 20
98.04869869688793
 10
341.6584569152191
 20
98.07235232563383
 10
341.7696940712915
 20
98.10147355595367
 10
341.87914146938175
 20
98.13671634967581
 10
341.9860616484713
 20
98.17899179984843
1001
AICAD
1000
MW-P-001:iso
1000
MW-P-001:iso:edge:4
  0
LWPOLYLINE
  5
6E
330
17
100
AcDbEntity
  8
VISIBLE
100
AcDbPolyline
 90
24
 70
0
 10
342.3945017566041
 20
98.61137525586307
 10
342.3945017566041
 20
102.03650300177075
 10
342.3945017566041
 20
105.46163074767844
 10
342.3945017566041
 20
108.88675849358613
 10
342.3945017566041
 20
112.31188623949382
 10
342.3945017566041
 20
115.7370139854015
 10
342.3945017566041
 20
119.16214173130919
 10
342.3945017566041
 20
122.58726947721688
 10
342.3945017566041
 20
126.01239722312457
 10
342.3945017566041
 20
129.43752496903224
 10
342.3945017566041
 20
132.86265271493994
 10
342.3945017566041
 20
136.2877804608476
 10
342.3945017566041
 20
139.71290820675532
 10
342.3945017566041
 20
143.138035952663
 10
342.3945017566041
 20
146.5631636985707
 10
342.3945017566041
 20
149.98829144447836
 10
342.3945017566041
 20
153.41341919038607
 10
342.3945017566041
 20
156.83854693629374
 10
342.3945017566041
 20
160.26367468220144
 10
342.3945017566041
 20
163.6888024281091
 10
342.3945017566041
 20
167.1139301740168
 10
342.3945017566041
 20
170.5390579199245
 10
342.3945017566041
 20
173.9641856658322
 10
342.3945017566041
 20
177.38931341173986
1001
AICAD
1000
MW-P-001:iso
1000
MW-P-001:iso:edge:5
  0
LWPOLYLINE
  5
6F
330
17
100
AcDbEntity
  8
VISIBLE
100
AcDbPolyline
 90
24
 70
0
 10
339.6054982433959
 20
98.61137525586307
 10
339.6054982433959
 20
102.03650300177075
 10
339.6054982433959
 20
105.46163074767844
 10
339.6054982433959
 20
108.88675849358613
 10
339.6054982433959
 20
112.31188623949382
 10
339.6054982433959
 20
115.7370139854015
 10
339.6054982433959
 20
119.16214173130919
 10
339.6054982433959
 20
122.58726947721688
 10
339.6054982433959
 20
126.01239722312457
 10
339.6054982433959
 20
129.43752496903224
 10
339.6054982433959
 20
132.86265271493994
 10
339.6054982433959
 20
136.2877804608476
 10
339.6054982433959
 20
139.71290820675532
 10
339.6054982433959
 20
143.138035952663
 10
339.6054982433959
 20
146.5631636985707
 10
339.6054982433959
 20
149.98829144447836
 10
339.6054982433959
 20
153.41341919038607
 10
339.6054982433959
 20
156.83854693629374
 10
339.6054982433959
 20
160.26367468220144
 10
339.6054982433959
 20
163.6888024281091
 10
339.6054982433959
 20
167.1139301740168
 10
339.6054982433959
 20
170.5390579199245
 10
339.6054982433959
 20
173.9641856658322
 10
339.6054982433959
 20
177.38931341173986
1001
AICAD
1000
MW-P-001:iso
1000
MW-P-001:iso:edge:6
  0
LWPOLYLINE
  5
70
330
17
100
AcDbEntity
  8
HIDDEN
100
AcDbPolyline
 90
24
 70
0
 10
342.3945017566041
 20
98.61137525586307
 10
342.35935187298884
 20
98.74780132721887
 10
342.2734990282091
 20
98.86052219648047
 10
342.16246956472435
 20
98.9491304608722
 10
342.03882735413146
 20
99.0193109728549
 10
341.90814573062204
 20
99.07541574901359
 10
341.7731659114938
 20
99.12026600379285
 10
341.63540192031
 20
99.15569258966865
 10
341.49577792872634
 20
99.18290805970767
 10
341.35490972252023
 20
99.20272233787287
 10
341.21324305367114
 20
99.2156661769778
 10
341.07112914887307
 20
99.22206183860783
 10
340.9288710974005
 20
99.2220618441232
 10
340.7867571933443
 20
99.21566619373814
 10
340.64509052645013
 20
99.20272236660402
 10
340.50422232421306
 20
99.182908101896
 10
340.36459833944195
 20
99.15569264797088
 10
340.22683435825843
 20
99.12026608259589
 10
340.09185455129807
 20
99.07541585509898
 10
339.96117293809766
 20
99.01931111594348
 10
339.83753072556715
 20
98.94913065297942
 10
339.7265012245014
 20
98.86052244484877
 10
339.6406482592166
 20
98.74780158050619
 10
339.6054982433959
 20
98.61137525586307
1001
AICAD
1000
MW-P-001:iso
1000
MW-P-001:iso:edge:7
  0
LINE
  5
71
330
17
100
AcDbEntity
  8
CENTER
100
AcDbLine
 10
278.0
 20
138.0
 30
0.0
 11
404.0
 21
138.0
 31
0.0
  0
LINE
  5
72
330
17
100
AcDbEntity
  8
CENTER
100
AcDbLine
 10
341.0
 20
94.0
 30
0.0
 11
341.0
 21
178.0
 31
0.0
  0
LWPOLYLINE
  5
73
330
17
100
AcDbEntity
  8
TITLE_BLOCK
100
AcDbPolyline
 90
4
 70
1
 10
278.0
 20
91.0
 10
404.0
 20
91.0
 10
404.0
 20
97.0
 10
278.0
 20
97.0
  0
TEXT
  5
74
330
17
100
AcDbEntity
  8
TITLE_BLOCK
100
AcDbText
 10
341.0
 20
93.39999999999999
 30
0.0
 40
2.2
  1
ISOMETRIC
 72
1
 11
341.0
 21
93.39999999999999
 31
0.0
100
AcDbText
 73
2
1001
AICAD
1000
MW-P-001:iso:label
1000
text-in-frame-strict
  0
LINE
  5
75
330
17
100
AcDbEntity
  8
DIMENSION
100
AcDbLine
 10
20.0
 20
184.0
 30
0.0
 11
20.0
 21
178.0
 31
0.0
  0
LINE
  5
76
330
17
100
AcDbEntity
  8
DIMENSION
100
AcDbLine
 10
132.0
 20
184.0
 30
0.0
 11
132.0
 21
178.0
 31
0.0
  0
LINE
  5
77
330
17
100
AcDbEntity
  8
DIMENSION
100
AcDbLine
 10
20.0
 20
178.0
 30
0.0
 11
132.0
 21
178.0
 31
0.0
  0
LWPOLYLINE
  5
78
330
17
100
AcDbEntity
  8
DIMENSION
100
AcDbPolyline
 90
3
 70
1
 10
20.0
 20
178.0
 10
22.2
 20
178.8
 10
22.2
 20
177.2
  0
LWPOLYLINE
  5
79
330
17
100
AcDbEntity
  8
DIMENSION
100
AcDbPolyline
 90
3
 70
1
 10
132.0
 20
178.0
 10
129.8
 20
177.2
 10
129.8
 20
178.8
  0
LWPOLYLINE
  5
7A
330
17
100
AcDbEntity
  8
DIMENSION
100
AcDbPolyline
 90
4
 70
1
 10
58.75
 20
174.8
 10
93.25
 20
174.8
 10
93.25
 20
181.2
 10
58.75
 20
181.2
  0
TEXT
  5
7B
330
17
100
AcDbEntity
  8
DIMENSION
100
AcDbText
 10
76.0
 20
177.6
 30
0.0
 40
2.2
  1
ENVELOPE X 7.00
 72
1
 11
76.0
 21
177.6
 31
0.0
100
AcDbText
 73
2
1001
AICAD
1000
MW-P-001:dim-x
1000
text-in-frame-strict
  0
LINE
  5
7C
330
17
100
AcDbEntity
  8
DIMENSION
100
AcDbLine
 10
151.0
 20
184.0
 30
0.0
 11
151.0
 21
178.0
 31
0.0
  0
LINE
  5
7D
330
17
100
AcDbEntity
  8
DIMENSION
100
AcDbLine
 10
267.0
 20
184.0
 30
0.0
 11
267.0
 21
178.0
 31
0.0
  0
LINE
  5
7E
330
17
100
AcDbEntity
  8
DIMENSION
100
AcDbLine
 10
151.0
 20
178.0
 30
0.0
 11
267.0
 21
178.0
 31
0.0
  0
LWPOLYLINE
  5
7F
330
17
100
AcDbEntity
  8
DIMENSION
100
AcDbPolyline
 90
3
 70
1
 10
151.0
 20
178.0
 10
153.2
 20
178.8
 10
153.2
 20
177.2
  0
LWPOLYLINE
  5
80
330
17
100
AcDbEntity
  8
DIMENSION
100
AcDbPolyline
 90
3
 70
1
 10
267.0
 20
178.0
 10
264.8
 20
177.2
 10
264.8
 20
178.8
  0
LWPOLYLINE
  5
81
330
17
100
AcDbEntity
  8
DIMENSION
100
AcDbPolyline
 90
4
 70
1
 10
189.45
 20
174.8
 10
228.55
 20
174.8
 10
228.55
 20
181.2
 10
189.45
 20
181.2
  0
TEXT
  5
82
330
17
100
AcDbEntity
  8
DIMENSION
100
AcDbText
 10
209.0
 20
177.6
 30
0.0
 40
2.2
  1
ENVELOPE Z 220.00
 72
1
 11
209.0
 21
177.6
 31
0.0
100
AcDbText
 73
2
1001
AICAD
1000
MW-P-001:dim-z
1000
text-in-frame-strict
  0
LWPOLYLINE
  5
83
330
17
100
AcDbEntity
  8
SECTION
100
AcDbPolyline
 90
32
 70
0
 10
76.95982982230616
 20
100.50324983750812
 10
76.95982982230616
 20
102.5999191975885
 10
76.95982982230616
 20
104.69658855766889
 10
76.95982982230616
 20
106.79325791774927
 10
76.95982982230616
 20
108.88992727782966
 10
76.95982982230616
 20
110.98659663791004
 10
76.95982982230616
 20
113.08326599799042
 10
76.95982982230616
 20
115.17993535807081
 10
76.95982982230616
 20
117.27660471815119
 10
76.95982982230616
 20
119.37327407823157
 10
76.95982982230616
 20
121.46994343831196
 10
76.95982982230616
 20
123.56661279839234
 10
76.95982982230616
 20
125.66328215847271
 10
76.95982982230616
 20
127.75995151855311
 10
76.95982982230616
 20
129.8566208786335
 10
76.95982982230616
 20
131.95329023871386
 10
76.95982982230616
 20
134.04995959879426
 10
76.95982982230616
 20
136.14662895887463
 10
76.95982982230616
 20
138.24329831895503
 10
76.95982982230616
 20
140.3399676790354
 10
76.95982982230616
 20
142.4366370391158
 10
76.95982982230616
 20
144.53330639919616
 10
76.95982982230616
 20
146.62997575927653
 10
76.95982982230616
 20
148.72664511935693
 10
76.95982982230616
 20
150.8233144794373
 10
76.95982982230616
 20
152.9199838395177
 10
76.95982982230616
 20
155.01665319959807
 10
76.95982982230616
 20
157.11332255967847
 10
76.95982982230616
 20
159.20999191975883
 10
76.95982982230616
 20
161.30666127983923
 10
76.95982982230616
 20
163.4033306399196
 10
76.95982982230616
 20
165.5
1001
AICAD
1000
MW-P-001:section-A-A
1000
MW-P-001:section-A-A:brep-section-edge:0
  0
LWPOLYLINE
  5
84
330
17
100
AcDbEntity
  8
SECTION
100
AcDbPolyline
 90
32
 70
0
 10
76.95982982230616
 20
100.5
 10
76.95982311913234
 20
100.50005213631604
 10
76.95981663125143
 20
100.5001042998606
 10
76.95981035910233
 20
100.50015648978406
 10
76.95980430311067
 20
100.50020870523119
 10
76.95979846368859
 20
100.50026094534121
 10
76.95979284123459
 20
100.5003132092479
 10
76.95978743613344
 20
100.50036549607995
 10
76.95978224875597
 20
100.5004178049609
 10
76.95977727945899
 20
100.50047013500955
 10
76.9597725285851
 20
100.50052248533993
 10
76.95976799646265
 20
100.50057485506163
 10
76.9597636834055
 20
100.50062724327991
 10
76.959759589713
 20
100.5006796490959
 10
76.95975571566986
 20
100.50073207160682
 10
76.95975206154597
 20
100.50078450990611
 10
76.95974862759641
 20
100.50083696308369
 10
76.95974541406127
 20
100.50088943022608
 10
76.95974242116559
 20
100.50094191041673
 10
76.95973964911927
 20
100.50099440273604
 10
76.95973709811697
 20
100.50104690626175
 10
76.9597347683381
 20
100.50109942006898
 10
76.95973265994665
 20
100.50115194323052
 10
76.95973077309121
 20
100.5012044748171
 10
76.95972910790489
 20
100.50125701389743
 10
76.95972766450527
 20
100.50130955953856
 10
76.95972644299428
 20
100.50136211080603
 10
76.95972544345834
 20
100.50141466676408
 10
76.95972466596811
 20
100.50146722647591
 10
76.95972411057863
 20
100.5015197890038
 10
76.95972377732922
 20
100.50157235340944
 10
76.95972366624345
 20
100.50162491875406
1001
AICAD
1000
MW-P-001:section-A-A
1000
MW-P-001:section-A-A:brep-section-edge:1
  0
LWPOLYLINE
  5
85
330
17
100
AcDbEntity
  8
SECTION
100
AcDbPolyline
 90
32
 70
0
 10
76.95972366624345
 20
100.50162491875406
 10
76.95972377732922
 20
100.50167748409868
 10
76.95972411057863
 20
100.50173004850433
 10
76.95972466596811
 20
100.50178261103221
 10
76.95972544345834
 20
100.50183517074404
 10
76.95972644299428
 20
100.5018877267021
 10
76.95972766450527
 20
100.50194027796957
 10
76.95972910790489
 20
100.50199282361069
 10
76.95973077309121
 20
100.50204536269102
 10
76.95973265994665
 20
100.5020978942776
 10
76.9597347683381
 20
100.50215041743915
 10
76.95973709811697
 20
100.50220293124637
 10
76.95973964911927
 20
100.50225543477208
 10
76.95974242116559
 20
100.50230792709141
 10
76.95974541406127
 20
100.50236040728204
 10
76.95974862759641
 20
100.50241287442445
 10
76.95975206154597
 20
100.50246532760201
 10
76.95975571566986
 20
100.5025177659013
 10
76.959759589713
 20
100.50257018841222
 10
76.9597636834055
 20
100.50262259422823
 10
76.95976799646265
 20
100.5026749824465
 10
76.9597725285851
 20
100.5027273521682
 10
76.95977727945899
 20
100.50277970249857
 10
76.95978224875597
 20
100.50283203254722
 10
76.95978743613344
 20
100.50288434142819
 10
76.95979284123459
 20
100.50293662826022
 10
76.95979846368859
 20
100.50298889216691
 10
76.95980430311067
 20
100.50304113227693
 10
76.95981035910233
 20
100.50309334772406
 10
76.95981663125143
 20
100.50314553764754
 10
76.95982311913234
 20
100.50319770119208
 10
76.95982982230616
 20
100.50324983750812
1001
AICAD
1000
MW-P-001:section-A-A
1000
MW-P-001:section-A-A:brep-section-edge:2
  0
LWPOLYLINE
  5
86
330
17
100
AcDbEntity
  8
SECTION
100
AcDbPolyline
 90
32
 70
0
 10
76.95982982230616
 20
165.49675016249188
 10
76.95982311913234
 20
165.49680229880792
 10
76.95981663125143
 20
165.49685446235245
 10
76.95981035910233
 20
165.49690665227592
 10
76.95980430311067
 20
165.49695886772307
 10
76.95979846368859
 20
165.49701110783306
 10
76.95979284123459
 20
165.49706337173978
 10
76.95978743613344
 20
165.4971156585718
 10
76.95978224875597
 20
165.49716796745275
 10
76.95977727945899
 20
165.4972202975014
 10
76.9597725285851
 20
165.49727264783178
 10
76.95976799646265
 20
165.4973250175535
 10
76.9597636834055
 20
165.49737740577177
 10
76.959759589713
 20
165.49742981158778
 10
76.95975571566986
 20
165.4974822340987
 10
76.95975206154597
 20
165.49753467239796
 10
76.95974862759641
 20
165.49758712557554
 10
76.95974541406127
 20
165.49763959271795
 10
76.95974242116559
 20
165.4976920729086
 10
76.95973964911927
 20
165.49774456522792
 10
76.95973709811697
 20
165.4977970687536
 10
76.9597347683381
 20
165.49784958256083
 10
76.95973265994665
 20
165.4979021057224
 10
76.95973077309121
 20
165.49795463730896
 10
76.95972910790489
 20
165.4980071763893
 10
76.95972766450527
 20
165.49805972203043
 10
76.95972644299428
 20
165.4981122732979
 10
76.95972544345834
 20
165.49816482925596
 10
76.95972466596811
 20
165.49821738896776
 10
76.95972411057863
 20
165.49826995149567
 10
76.95972377732922
 20
165.4983225159013
 10
76.95972366624345
 20
165.49837508124594
1001
AICAD
1000
MW-P-001:section-A-A
1000
MW-P-001:section-A-A:brep-section-edge:3
  0
LWPOLYLINE
  5
87
330
17
100
AcDbEntity
  8
SECTION
100
AcDbPolyline
 90
32
 70
0
 10
76.95972366624345
 20
165.49837508124594
 10
76.95972377732922
 20
165.49842764659056
 10
76.95972411057863
 20
165.49848021099618
 10
76.95972466596811
 20
165.4985327735241
 10
76.95972544345834
 20
165.4985853332359
 10
76.95972644299428
 20
165.49863788919396
 10
76.95972766450527
 20
165.49869044046142
 10
76.95972910790489
 20
165.49874298610257
 10
76.95973077309121
 20
165.49879552518289
 10
76.95973265994665
 20
165.49884805676948
 10
76.9597347683381
 20
165.49890057993102
 10
76.95973709811697
 20
165.49895309373824
 10
76.95973964911927
 20
165.49900559726393
 10
76.95974242116559
 20
165.49905808958326
 10
76.95974541406127
 20
165.4991105697739
 10
76.95974862759641
 20
165.49916303691631
 10
76.95975206154597
 20
165.4992154900939
 10
76.95975571566986
 20
165.49926792839318
 10
76.959759589713
 20
165.4993203509041
 10
76.9597636834055
 20
165.49937275672008
 10
76.95976799646265
 20
165.49942514493836
 10
76.9597725285851
 20
165.49947751466007
 10
76.95977727945899
 20
165.49952986499045
 10
76.95978224875597
 20
165.4995821950391
 10
76.95978743613344
 20
165.49963450392005
 10
76.95979284123459
 20
165.4996867907521
 10
76.95979846368859
 20
165.4997390546588
 10
76.95980430311067
 20
165.49979129476878
 10
76.95981035910233
 20
165.49984351021592
 10
76.95981663125143
 20
165.4998957001394
 10
76.95982311913234
 20
165.49994786368393
 10
76.95982982230616
 20
165.5
1001
AICAD
1000
MW-P-001:section-A-A
1000
MW-P-001:section-A-A:brep-section-edge:4
  0
LWPOLYLINE
  5
88
330
17
100
AcDbEntity
  8
SECTION
100
AcDbPolyline
 90
32
 70
0
 10
76.95982982230616
 20
165.5
 10
77.02693757570576
 20
165.5
 10
77.09404532910537
 20
165.5
 10
77.16115308250497
 20
165.5
 10
77.22826083590456
 20
165.5
 10
77.29536858930418
 20
165.5
 10
77.36247634270377
 20
165.5
 10
77.42958409610338
 20
165.5
 10
77.49669184950298
 20
165.5
 10
77.56379960290259
 20
165.5
 10
77.63090735630219
 20
165.5
 10
77.69801510970179
 20
165.5
 10
77.7651228631014
 20
165.5
 10
77.832230616501
 20
165.5
 10
77.8993383699006
 20
165.5
 10
77.9664461233002
 20
165.5
 10
78.03355387669981
 20
165.5
 10
78.10066163009941
 20
165.5
 10
78.167769383499
 20
165.5
 10
78.23487713689862
 20
165.5
 10
78.30198489029821
 20
165.5
 10
78.36909264369783
 20
165.5
 10
78.43620039709742
 20
165.5
 10
78.50330815049702
 20
165.5
 10
78.57041590389663
 20
165.5
 10
78.63752365729623
 20
165.5
 10
78.70463141069584
 20
165.5
 10
78.77173916409544
 20
165.5
 10
78.83884691749505
 20
165.5
 10
78.90595467089464
 20
165.5
 10
78.97306242429424
 20
165.5
 10
79.04017017769385
 20
165.5
1001
AICAD
1000
MW-P-001:section-A-A
1000
MW-P-001:section-A-A:brep-section-edge:5
  0
LWPOLYLINE
  5
89
330
17
100
AcDbEntity
  8
SECTION
100
AcDbPolyline
 90
32
 70
0
 10
79.04017017769385
 20
100.50324983750812
 10
79.04017017769385
 20
102.5999191975885
 10
79.04017017769385
 20
104.69658855766889
 10
79.04017017769385
 20
106.79325791774927
 10
79.04017017769385
 20
108.88992727782966
 10
79.04017017769385
 20
110.98659663791004
 10
79.04017017769385
 20
113.08326599799042
 10
79.04017017769385
 20
115.17993535807081
 10
79.04017017769385
 20
117.27660471815119
 10
79.04017017769385
 20
119.37327407823157
 10
79.04017017769385
 20
121.46994343831196
 10
79.04017017769385
 20
123.56661279839234
 10
79.04017017769385
 20
125.66328215847271
 10
79.04017017769385
 20
127.75995151855311
 10
79.04017017769385
 20
129.8566208786335
 10
79.04017017769385
 20
131.95329023871386
 10
79.04017017769385
 20
134.04995959879426
 10
79.04017017769385
 20
136.14662895887463
 10
79.04017017769385
 20
138.24329831895503
 10
79.04017017769385
 20
140.3399676790354
 10
79.04017017769385
 20
142.4366370391158
 10
79.04017017769385
 20
144.53330639919616
 10
79.04017017769385
 20
146.62997575927653
 10
79.04017017769385
 20
148.72664511935693
 10
79.04017017769385
 20
150.8233144794373
 10
79.04017017769385
 20
152.9199838395177
 10
79.04017017769385
 20
155.01665319959807
 10
79.04017017769385
 20
157.11332255967847
 10
79.04017017769385
 20
159.20999191975883
 10
79.04017017769385
 20
161.30666127983923
 10
79.04017017769385
 20
163.4033306399196
 10
79.04017017769385
 20
165.5
1001
AICAD
1000
MW-P-001:section-A-A
1000
MW-P-001:section-A-A:brep-section-edge:6
  0
LWPOLYLINE
  5
8A
330
17
100
AcDbEntity
  8
SECTION
100
AcDbPolyline
 90
32
 70
0
 10
76.95982982230616
 20
100.50324983750812
 10
77.02693757570576
 20
100.50324983750812
 10
77.09404532910537
 20
100.50324983750812
 10
77.16115308250497
 20
100.50324983750812
 10
77.22826083590456
 20
100.50324983750812
 10
77.29536858930418
 20
100.50324983750812
 10
77.36247634270377
 20
100.50324983750812
 10
77.42958409610338
 20
100.50324983750812
 10
77.49669184950298
 20
100.50324983750812
 10
77.56379960290259
 20
100.50324983750812
 10
77.63090735630219
 20
100.50324983750812
 10
77.69801510970179
 20
100.50324983750812
 10
77.7651228631014
 20
100.50324983750812
 10
77.832230616501
 20
100.50324983750812
 10
77.8993383699006
 20
100.50324983750812
 10
77.9664461233002
 20
100.50324983750812
 10
78.03355387669981
 20
100.50324983750812
 10
78.10066163009941
 20
100.50324983750812
 10
78.167769383499
 20
100.50324983750812
 10
78.23487713689862
 20
100.50324983750812
 10
78.30198489029821
 20
100.50324983750812
 10
78.36909264369783
 20
100.50324983750812
 10
78.43620039709742
 20
100.50324983750812
 10
78.50330815049702
 20
100.50324983750812
 10
78.57041590389663
 20
100.50324983750812
 10
78.63752365729623
 20
100.50324983750812
 10
78.70463141069584
 20
100.50324983750812
 10
78.77173916409544
 20
100.50324983750812
 10
78.83884691749505
 20
100.50324983750812
 10
78.90595467089464
 20
100.50324983750812
 10
78.97306242429424
 20
100.50324983750812
 10
79.04017017769385
 20
100.50324983750812
1001
AICAD
1000
MW-P-001:section-A-A
1000
MW-P-001:section-A-A:brep-section-edge:7
  0
LWPOLYLINE
  5
8B
330
17
100
AcDbEntity
  8
SECTION
100
AcDbPolyline
 90
32
 70
0
 10
76.95982982230616
 20
100.5
 10
77.02693757570576
 20
100.5
 10
77.09404532910537
 20
100.5
 10
77.16115308250497
 20
100.5
 10
77.22826083590456
 20
100.5
 10
77.29536858930418
 20
100.5
 10
77.36247634270377
 20
100.5
 10
77.42958409610338
 20
100.5
 10
77.49669184950298
 20
100.5
 10
77.56379960290259
 20
100.5
 10
77.63090735630219
 20
100.5
 10
77.69801510970179
 20
100.5
 10
77.7651228631014
 20
100.5
 10
77.832230616501
 20
100.5
 10
77.8993383699006
 20
100.5
 10
77.9664461233002
 20
100.5
 10
78.03355387669981
 20
100.5
 10
78.10066163009941
 20
100.5
 10
78.167769383499
 20
100.5
 10
78.23487713689862
 20
100.5
 10
78.30198489029821
 20
100.5
 10
78.36909264369783
 20
100.5
 10
78.43620039709742
 20
100.5
 10
78.50330815049702
 20
100.5
 10
78.57041590389663
 20
100.5
 10
78.63752365729623
 20
100.5
 10
78.70463141069584
 20
100.5
 10
78.77173916409544
 20
100.5
 10
78.83884691749505
 20
100.5
 10
78.90595467089464
 20
100.5
 10
78.97306242429424
 20
100.5
 10
79.04017017769385
 20
100.5
1001
AICAD
1000
MW-P-001:section-A-A
1000
MW-P-001:section-A-A:brep-section-edge:8
  0
LWPOLYLINE
  5
8C
330
17
100
AcDbEntity
  8
SECTION
100
AcDbPolyline
 90
32
 70
0
 10
79.04017017769385
 20
100.50324983750812
 10
79.04017688086766
 20
100.50319770119208
 10
79.04018336874859
 20
100.50314553764754
 10
79.04018964089768
 20
100.50309334772406
 10
79.04019569688934
 20
100.50304113227693
 10
79.04020153631141
 20
100.50298889216691
 10
79.04020715876541
 20
100.50293662826022
 10
79.04021256386656
 20
100.50288434142819
 10
79.04021775124403
 20
100.50283203254722
 10
79.04022272054101
 20
100.50277970249857
 10
79.0402274714149
 20
100.5027273521682
 10
79.04023200353735
 20
100.5026749824465
 10
79.0402363165945
 20
100.50262259422823
 10
79.040240410287
 20
100.50257018841222
 10
79.04024428433016
 20
100.5025177659013
 10
79.04024793845404
 20
100.50246532760201
 10
79.0402513724036
 20
100.50241287442445
 10
79.04025458593874
 20
100.50236040728204
 10
79.04025757883441
 20
100.50230792709141
 10
79.04026035088074
 20
100.50225543477208
 10
79.04026290188304
 20
100.50220293124637
 10
79.0402652316619
 20
100.50215041743915
 10
79.04026734005336
 20
100.5020978942776
 10
79.04026922690879
 20
100.50204536269102
 10
79.04027089209511
 20
100.50199282361069
 10
79.04027233549475
 20
100.50194027796957
 10
79.04027355700572
 20
100.5018877267021
 10
79.04027455654168
 20
100.50183517074404
 10
79.04027533403189
 20
100.50178261103221
 10
79.04027588942138
 20
100.50173004850433
 10
79.0402762226708
 20
100.50167748409868
 10
79.04027633375655
 20
100.50162491875406
1001
AICAD
1000
MW-P-001:section-A-A
1000
MW-P-001:section-A-A:brep-section-edge:9
  0
LWPOLYLINE
  5
8D
330
17
100
AcDbEntity
  8
SECTION
100
AcDbPolyline
 90
32
 70
0
 10
79.04027633375655
 20
100.50162491875406
 10
79.0402762226708
 20
100.50157235340944
 10
79.04027588942138
 20
100.5015197890038
 10
79.04027533403189
 20
100.50146722647591
 10
79.04027455654168
 20
100.50141466676408
 10
79.04027355700572
 20
100.50136211080603
 10
79.04027233549475
 20
100.50130955953856
 10
79.04027089209511
 20
100.50125701389743
 10
79.04026922690879
 20
100.5012044748171
 10
79.04026734005336
 20
100.50115194323052
 10
79.0402652316619
 20
100.50109942006898
 10
79.04026290188304
 20
100.50104690626175
 10
79.04026035088074
 20
100.50099440273604
 10
79.04025757883441
 20
100.50094191041673
 10
79.04025458593874
 20
100.50088943022608
 10
79.0402513724036
 20
100.50083696308369
 10
79.04024793845404
 20
100.50078450990611
 10
79.04024428433016
 20
100.50073207160682
 10
79.040240410287
 20
100.5006796490959
 10
79.0402363165945
 20
100.50062724327991
 10
79.04023200353735
 20
100.50057485506163
 10
79.0402274714149
 20
100.50052248533993
 10
79.04022272054101
 20
100.50047013500955
 10
79.04021775124403
 20
100.5004178049609
 10
79.04021256386656
 20
100.50036549607995
 10
79.04020715876541
 20
100.5003132092479
 10
79.04020153631141
 20
100.50026094534121
 10
79.04019569688934
 20
100.50020870523119
 10
79.04018964089768
 20
100.50015648978406
 10
79.04018336874859
 20
100.5001042998606
 10
79.04017688086766
 20
100.50005213631604
 10
79.04017017769385
 20
100.5
1001
AICAD
1000
MW-P-001:section-A-A
1000
MW-P-001:section-A-A:brep-section-edge:10
  0
LWPOLYLINE
  5
8E
330
17
100
AcDbEntity
  8
SECTION
100
AcDbPolyline
 90
32
 70
0
 10
79.04017017769385
 20
165.5
 10
79.04017688086766
 20
165.49994786368393
 10
79.04018336874859
 20
165.4998957001394
 10
79.04018964089768
 20
165.49984351021592
 10
79.04019569688934
 20
165.49979129476878
 10
79.04020153631141
 20
165.4997390546588
 10
79.04020715876541
 20
165.4996867907521
 10
79.04021256386656
 20
165.49963450392005
 10
79.04021775124403
 20
165.4995821950391
 10
79.04022272054101
 20
165.49952986499045
 10
79.0402274714149
 20
165.49947751466007
 10
79.04023200353735
 20
165.49942514493836
 10
79.0402363165945
 20
165.49937275672008
 10
79.040240410287
 20
165.4993203509041
 10
79.04024428433016
 20
165.49926792839318
 10
79.04024793845404
 20
165.4992154900939
 10
79.0402513724036
 20
165.49916303691631
 10
79.04025458593874
 20
165.4991105697739
 10
79.04025757883441
 20
165.49905808958326
 10
79.04026035088074
 20
165.49900559726393
 10
79.04026290188304
 20
165.49895309373824
 10
79.0402652316619
 20
165.49890057993102
 10
79.04026734005336
 20
165.49884805676948
 10
79.04026922690879
 20
165.49879552518289
 10
79.04027089209511
 20
165.49874298610257
 10
79.04027233549475
 20
165.49869044046142
 10
79.04027355700572
 20
165.49863788919396
 10
79.04027455654168
 20
165.4985853332359
 10
79.04027533403189
 20
165.4985327735241
 10
79.04027588942138
 20
165.49848021099618
 10
79.0402762226708
 20
165.49842764659056
 10
79.04027633375655
 20
165.49837508124594
1001
AICAD
1000
MW-P-001:section-A-A
1000
MW-P-001:section-A-A:brep-section-edge:11
  0
LWPOLYLINE
  5
8F
330
17
100
AcDbEntity
  8
SECTION
100
AcDbPolyline
 90
32
 70
0
 10
79.04027633375655
 20
165.49837508124594
 10
79.0402762226708
 20
165.4983225159013
 10
79.04027588942138
 20
165.49826995149567
 10
79.04027533403189
 20
165.49821738896776
 10
79.04027455654168
 20
165.49816482925596
 10
79.04027355700572
 20
165.4981122732979
 10
79.04027233549475
 20
165.49805972203043
 10
79.04027089209511
 20
165.4980071763893
 10
79.04026922690879
 20
165.49795463730896
 10
79.04026734005336
 20
165.4979021057224
 10
79.0402652316619
 20
165.49784958256083
 10
79.04026290188304
 20
165.4977970687536
 10
79.04026035088074
 20
165.49774456522792
 10
79.04025757883441
 20
165.4976920729086
 10
79.04025458593874
 20
165.49763959271795
 10
79.0402513724036
 20
165.49758712557554
 10
79.04024793845404
 20
165.49753467239796
 10
79.04024428433016
 20
165.4974822340987
 10
79.040240410287
 20
165.49742981158778
 10
79.0402363165945
 20
165.49737740577177
 10
79.04023200353735
 20
165.4973250175535
 10
79.0402274714149
 20
165.49727264783178
 10
79.04022272054101
 20
165.4972202975014
 10
79.04021775124403
 20
165.49716796745275
 10
79.04021256386656
 20
165.4971156585718
 10
79.04020715876541
 20
165.49706337173978
 10
79.04020153631141
 20
165.49701110783306
 10
79.04019569688934
 20
165.49695886772307
 10
79.04018964089768
 20
165.49690665227592
 10
79.04018336874859
 20
165.49685446235245
 10
79.04017688086766
 20
165.49680229880792
 10
79.04017017769385
 20
165.49675016249188
1001
AICAD
1000
MW-P-001:section-A-A
1000
MW-P-001:section-A-A:brep-section-edge:12
  0
LWPOLYLINE
  5
90
330
17
100
AcDbEntity
  8
SECTION
100
AcDbPolyline
 90
32
 70
0
 10
76.95972366624345
 20
100.50162491875406
 10
76.95972366624345
 20
102.59829427883444
 10
76.95972366624345
 20
104.69496363891483
 10
76.95972366624345
 20
106.79163299899521
 10
76.95972366624345
 20
108.8883023590756
 10
76.95972366624345
 20
110.98497171915598
 10
76.95972366624345
 20
113.08164107923636
 10
76.95972366624345
 20
115.17831043931675
 10
76.95972366624345
 20
117.27497979939713
 10
76.95972366624345
 20
119.37164915947751
 10
76.95972366624345
 20
121.4683185195579
 10
76.95972366624345
 20
123.56498787963827
 10
76.95972366624345
 20
125.66165723971865
 10
76.95972366624345
 20
127.75832659979903
 10
76.95972366624345
 20
129.85499595987943
 10
76.95972366624345
 20
131.9516653199598
 10
76.95972366624345
 20
134.04833468004017
 10
76.95972366624345
 20
136.14500404012057
 10
76.95972366624345
 20
138.24167340020097
 10
76.95972366624345
 20
140.33834276028134
 10
76.95972366624345
 20
142.4350121203617
 10
76.95972366624345
 20
144.5316814804421
 10
76.95972366624345
 20
146.62835084052247
 10
76.95972366624345
 20
148.72502020060287
 10
76.95972366624345
 20
150.82168956068324
 10
76.95972366624345
 20
152.91835892076364
 10
76.95972366624345
 20
155.015028280844
 10
76.95972366624345
 20
157.1116976409244
 10
76.95972366624345
 20
159.20836700100477
 10
76.95972366624345
 20
161.30503636108517
 10
76.95972366624345
 20
163.40170572116554
 10
76.95972366624345
 20
165.49837508124594
1001
AICAD
1000
MW-P-001:section-A-A
1000
MW-P-001:section-A-A:brep-section-edge:13
  0
LWPOLYLINE
  5
91
330
17
100
AcDbEntity
  8
SECTION
100
AcDbPolyline
 90
32
 70
0
 10
79.04027633375655
 20
100.50162491875406
 10
79.04027633375655
 20
102.59829427883444
 10
79.04027633375655
 20
104.69496363891483
 10
79.04027633375655
 20
106.79163299899521
 10
79.04027633375655
 20
108.8883023590756
 10
79.04027633375655
 20
110.98497171915598
 10
79.04027633375655
 20
113.08164107923636
 10
79.04027633375655
 20
115.17831043931675
 10
79.04027633375655
 20
117.27497979939713
 10
79.04027633375655
 20
119.37164915947751
 10
79.04027633375655
 20
121.4683185195579
 10
79.04027633375655
 20
123.56498787963827
 10
79.04027633375655
 20
125.66165723971865
 10
79.04027633375655
 20
127.75832659979903
 10
79.04027633375655
 20
129.85499595987943
 10
79.04027633375655
 20
131.9516653199598
 10
79.04027633375655
 20
134.04833468004017
 10
79.04027633375655
 20
136.14500404012057
 10
79.04027633375655
 20
138.24167340020097
 10
79.04027633375655
 20
140.33834276028134
 10
79.04027633375655
 20
142.4350121203617
 10
79.04027633375655
 20
144.5316814804421
 10
79.04027633375655
 20
146.62835084052247
 10
79.04027633375655
 20
148.72502020060287
 10
79.04027633375655
 20
150.82168956068324
 10
79.04027633375655
 20
152.91835892076364
 10
79.04027633375655
 20
155.015028280844
 10
79.04027633375655
 20
157.1116976409244
 10
79.04027633375655
 20
159.20836700100477
 10
79.04027633375655
 20
161.30503636108517
 10
79.04027633375655
 20
163.40170572116554
 10
79.04027633375655
 20
165.49837508124594
1001
AICAD
1000
MW-P-001:section-A-A
1000
MW-P-001:section-A-A:brep-section-edge:14
  0
LWPOLYLINE
  5
92
330
17
100
AcDbEntity
  8
TITLE_BLOCK
100
AcDbPolyline
 90
4
 70
1
 10
16.0
 20
91.0
 10
140.0
 20
91.0
 10
140.0
 20
98.0
 10
16.0
 20
98.0
  0
TEXT
  5
93
330
17
100
AcDbEntity
  8
TITLE_BLOCK
100
AcDbText
 10
78.0
 20
94.8
 30
0.0
 40
1.8
  1
TRUE BREP SECTION X=0.00  OUTLINE / NO FALSE HATCH
 72
1
 11
78.0
 21
94.8
 31
0.0
100
AcDbText
 73
2
1001
AICAD
1000
MW-P-001:section-A-A:label
1000
text-in-frame-strict
  0
LWPOLYLINE
  5
94
330
17
100
AcDbEntity
  8
NOTES
100
AcDbPolyline
 90
4
 70
1
 10
145.0
 20
91.0
 10
273.0
 20
91.0
 10
273.0
 20
171.0
 10
145.0
 20
171.0
  0
TEXT
  5
95
330
17
100
AcDbEntity
  8
NOTES
100
AcDbText
 10
146.4
 20
167.79999999999998
 30
0.0
 40
1.8
  1
FEATURE-ID | NOMINAL / XYZ / TOL / PROBE
 11
146.4
 21
167.79999999999998
 31
0.0
100
AcDbText
 73
2
1001
AICAD
1000
MW-P-001:feature-table
1000
text-in-frame-strict
  0
TEXT
  5
96
330
17
100
AcDbEntity
  8
NOTES
100
AcDbText
 10
146.4
 20
165.49599999999998
 30
0.0
 40
1.8
  1
MW-P-001-D01 | DATUM SYSTEM: A = rear cut face; B = pultrusion axis |
 11
146.4
 21
165.49599999999998
 31
0.0
100
AcDbText
 73
2
1001
AICAD
1000
MW-P-001:feature-table
1000
text-in-frame-strict
  0
TEXT
  5
97
330
17
100
AcDbEntity
  8
NOTES
100
AcDbText
 10
146.4
 20
163.19199999999998
 30
0.0
 40
1.8
  1
MODEL_XYZ; origin per design input | basic | parameter-bound
 11
146.4
 21
163.19199999999998
 31
0.0
100
AcDbText
 73
2
1001
AICAD
1000
MW-P-001:feature-table
1000
text-in-frame-strict
  0
TEXT
  5
98
330
17
100
AcDbEntity
  8
NOTES
100
AcDbText
 10
146.4
 20
160.88799999999998
 30
0.0
 40
1.8
  1
MW-P-001-E01 | BREP ENVELOPE: 7.000 x 7.000 x 220.000 mm |
 11
146.4
 21
160.88799999999998
 31
0.0
100
AcDbText
 73
2
1001
AICAD
1000
MW-P-001:feature-table
1000
text-in-frame-strict
  0
TEXT
  5
99
330
17
100
AcDbEntity
  8
NOTES
100
AcDbText
 10
146.4
 20
158.58399999999997
 30
0.0
 40
1.8
  1
min=(-3.500,-3.500,0.000) | reference | bbox/valid/single-solid;
 11
146.4
 21
158.58399999999997
 31
0.0
100
AcDbText
 73
2
1001
AICAD
1000
MW-P-001:feature-table
1000
text-in-frame-strict
  0
TEXT
  5
9A
330
17
100
AcDbEntity
  8
NOTES
100
AcDbText
 10
146.4
 20
156.27999999999997
 30
0.0
 40
1.8
  1
volume=8466.592 mm3
 11
146.4
 21
156.27999999999997
 31
0.0
100
AcDbText
 73
2
1001
AICAD
1000
MW-P-001:feature-table
1000
text-in-frame-strict
  0
TEXT
  5
9B
330
17
100
AcDbEntity
  8
NOTES
100
AcDbText
 10
146.4
 20
153.97599999999997
 30
0.0
 40
1.8
  1
MW-P-001-M01 | MOLD PULL / PARTING: N/A / N/A | part-local | vendor DFM |
 11
146.4
 21
153.97599999999997
 31
0.0
100
AcDbText
 73
2
1001
AICAD
1000
MW-P-001:feature-table
1000
text-in-frame-strict
  0
TEXT
  5
9C
330
17
100
AcDbEntity
  8
NOTES
100
AcDbText
 10
146.4
 20
151.67199999999997
 30
0.0
 40
1.8
  1
parameter-bound
 11
146.4
 21
151.67199999999997
 31
0.0
100
AcDbText
 73
2
1001
AICAD
1000
MW-P-001:feature-table
1000
text-in-frame-strict
  0
TEXT
  5
9D
330
17
100
AcDbEntity
  8
NOTES
100
AcDbText
 10
146.4
 20
149.368
 30
0.0
 40
1.8
  1
MW-P-001-M02 | GENERAL DRAFT / RADII: 1.5 deg; Rext>=0.8; Rint>=0.5 | all
 11
146.4
 21
149.368
 31
0.0
100
AcDbText
 73
2
1001
AICAD
1000
MW-P-001:feature-table
1000
text-in-frame-strict
  0
TEXT
  5
9E
330
17
100
AcDbEntity
  8
NOTES
100
AcDbText
 10
146.4
 20
147.064
 30
0.0
 40
1.8
  1
unspecified molded faces/edges | tooling tune | parameter-bound
 11
146.4
 21
147.064
 31
0.0
100
AcDbText
 73
2
1001
AICAD
1000
MW-P-001:feature-table
1000
text-in-frame-strict
  0
TEXT
  5
9F
330
17
100
AcDbEntity
  8
NOTES
100
AcDbText
 10
146.4
 20
144.76
 30
0.0
 40
1.8
  1
MW-P-001-M03 | SIDE ACTIONS: NONE | feature-specific | shutoff draft 3.0
 11
146.4
 21
144.76
 31
0.0
100
AcDbText
 73
2
1001
AICAD
1000
MW-P-001:feature-table
1000
text-in-frame-strict
  0
TEXT
  5
A0
330
17
100
AcDbEntity
  8
NOTES
100
AcDbText
 10
146.4
 20
142.456
 30
0.0
 40
1.8
  1
deg target | parameter-bound
 11
146.4
 21
142.456
 31
0.0
100
AcDbText
 73
2
1001
AICAD
1000
MW-P-001:feature-table
1000
text-in-frame-strict
  0
TEXT
  5
A1
330
17
100
AcDbEntity
  8
NOTES
100
AcDbText
 10
146.4
 20
140.152
 30
0.0
 40
1.8
  1
MW-P-001-P01 | PURCHASE DIAMETER: DIA 7.00 | axis MODEL_Z | +/-0.10 |
 11
146.4
 21
140.152
 31
0.0
100
AcDbText
 73
2
1001
AICAD
1000
MW-P-001:feature-table
1000
text-in-frame-strict
  0
TEXT
  5
A2
330
17
100
AcDbEntity
  8
NOTES
100
AcDbText
 10
146.4
 20
137.84799999999998
 30
0.0
 40
1.8
  1
BREP diameter 7.0
 11
146.4
 21
137.84799999999998
 31
0.0
100
AcDbText
 73
2
1001
AICAD
1000
MW-P-001:feature-table
1000
text-in-frame-strict
  0
TEXT
  5
A3
330
17
100
AcDbEntity
  8
NOTES
100
AcDbText
 10
146.4
 20
135.54399999999998
 30
0.0
 40
1.8
  1
MW-P-001-P02 | PURCHASE LENGTH: 220.00 | Z=0..220 local | +/-1.00 | BREP
 11
146.4
 21
135.54399999999998
 31
0.0
100
AcDbText
 73
2
1001
AICAD
1000
MW-P-001:feature-table
1000
text-in-frame-strict
  0
TEXT
  5
A4
330
17
100
AcDbEntity
  8
NOTES
100
AcDbText
 10
146.4
 20
133.23999999999998
 30
0.0
 40
1.8
  1
bbox Z=220
 11
146.4
 21
133.23999999999998
 31
0.0
100
AcDbText
 73
2
1001
AICAD
1000
MW-P-001:feature-table
1000
text-in-frame-strict
  0
TEXT
  5
A5
330
17
100
AcDbEntity
  8
NOTES
100
AcDbText
 10
146.4
 20
130.93599999999998
 30
0.0
 40
1.8
  1
MW-P-001-F01 | ADHESIVE FIT: insertion 30.00; exposed 190.00 | connector
 11
146.4
 21
130.93599999999998
 31
0.0
100
AcDbText
 73
2
1001
AICAD
1000
MW-P-001:feature-table
1000
text-in-frame-strict
  0
TEXT
  5
A6
330
17
100
AcDbEntity
  8
NOTES
100
AcDbText
 10
146.4
 20
128.63199999999998
 30
0.0
 40
1.8
  1
bore | 0.20 radial nominal | pairwise BREP distance
 11
146.4
 21
128.63199999999998
 31
0.0
100
AcDbText
 73
2
1001
AICAD
1000
MW-P-001:feature-table
1000
text-in-frame-strict
  0
LWPOLYLINE
  5
A7
330
17
100
AcDbEntity
  8
NOTES
100
AcDbPolyline
 90
4
 70
1
 10
14.0
 20
12.0
 10
252.0
 20
12.0
 10
252.0
 20
85.0
 10
14.0
 20
85.0
  0
TEXT
  5
A8
330
17
100
AcDbEntity
  8
NOTES
100
AcDbText
 10
15.4
 20
81.55
 30
0.0
 40
2.05
  1
1 MATERIAL: pultruded GFRP, supplier grade and certificate pending
 11
15.4
 21
81.55
 31
0.0
100
AcDbText
 73
2
1001
AICAD
1000
MW-P-001:notes
1000
text-in-frame-strict
  0
TEXT
  5
A9
330
17
100
AcDbEntity
  8
NOTES
100
AcDbText
 10
15.4
 20
78.926
 30
0.0
 40
2.05
  1
2 PROCESS: pultrusion, supplier cut/deburr/seal; FINISH: SPI B-2 visual starting point on exposed grip; hidden/internal
 11
15.4
 21
78.926
 31
0.0
100
AcDbText
 73
2
1001
AICAD
1000
MW-P-001:notes
1000
text-in-frame-strict
  0
TEXT
  5
AA
330
17
100
AcDbEntity
  8
NOTES
100
AcDbText
 10
15.4
 20
76.30199999999999
 30
0.0
 40
2.05
  1
as-machined unless DFM changes it
 11
15.4
 21
76.30199999999999
 31
0.0
100
AcDbText
 73
2
1001
AICAD
1000
MW-P-001:notes
1000
text-in-frame-strict
  0
TEXT
  5
AB
330
17
100
AcDbEntity
  8
NOTES
100
AcDbText
 10
15.4
 20
73.678
 30
0.0
 40
2.05
  1
3 DRAFT: N/A / 1.5 deg general
 11
15.4
 21
73.678
 31
0.0
100
AcDbText
 73
2
1001
AICAD
1000
MW-P-001:notes
1000
text-in-frame-strict
  0
TEXT
  5
AC
330
17
100
AcDbEntity
  8
NOTES
100
AcDbText
 10
15.4
 20
71.054
 30
0.0
 40
2.05
  1
4 WALL: N/A - solid pultruded GFRP
 11
15.4
 21
71.054
 31
0.0
100
AcDbText
 73
2
1001
AICAD
1000
MW-P-001:notes
1000
text-in-frame-strict
  0
TEXT
  5
AD
330
17
100
AcDbEntity
  8
NOTES
100
AcDbText
 10
15.4
 20
68.42999999999999
 30
0.0
 40
2.05
  1
5 PARTING: supplier / drawing specific
 11
15.4
 21
68.42999999999999
 31
0.0
100
AcDbText
 73
2
1001
AICAD
1000
MW-P-001:notes
1000
text-in-frame-strict
  0
TEXT
  5
AE
330
17
100
AcDbEntity
  8
NOTES
100
AcDbText
 10
15.4
 20
65.806
 30
0.0
 40
2.05
  1
6 GATE: N/A - supplier cut/seal both ends
 11
15.4
 21
65.806
 31
0.0
100
AcDbText
 73
2
1001
AICAD
1000
MW-P-001:notes
1000
text-in-frame-strict
  0
TEXT
  5
AF
330
17
100
AcDbEntity
  8
NOTES
100
AcDbText
 10
15.4
 20
63.182
 30
0.0
 40
2.05
  1
7 EJECTOR: N/A
 11
15.4
 21
63.182
 31
0.0
100
AcDbText
 73
2
1001
AICAD
1000
MW-P-001:notes
1000
text-in-frame-strict
  0
TEXT
  5
B0
330
17
100
AcDbEntity
  8
NOTES
100
AcDbText
 10
15.4
 20
60.558
 30
0.0
 40
2.05
  1
8 DATUMS: A = rear cut face; B = pultrusion axis
 11
15.4
 21
60.558
 31
0.0
100
AcDbText
 73
2
1001
AICAD
1000
MW-P-001:notes
1000
text-in-frame-strict
  0
TEXT
  5
B1
330
17
100
AcDbEntity
  8
NOTES
100
AcDbText
 10
15.4
 20
57.934
 30
0.0
 40
2.05
  1
9 FEATURES: Ø7.0 ±0.1 x 220 ±1; deburr and seal both ends
 11
15.4
 21
57.934
 31
0.0
100
AcDbText
 73
2
1001
AICAD
1000
MW-P-001:notes
1000
text-in-frame-strict
  0
TEXT
  5
B2
330
17
100
AcDbEntity
  8
NOTES
100
AcDbText
 10
15.4
 20
55.309999999999995
 30
0.0
 40
2.05
  1
10 GENERAL: ISO 2768-m only where invoked; ISO 13715 break 0.2-0.4.
 11
15.4
 21
55.309999999999995
 31
0.0
100
AcDbText
 73
2
1001
AICAD
1000
MW-P-001:notes
1000
text-in-frame-strict
  0
TEXT
  5
B3
330
17
100
AcDbEntity
  8
NOTES
100
AcDbText
 10
15.4
 20
52.686
 30
0.0
 40
2.05
  1
11 RFQ/DFM INPUT ONLY. NOT TOOL-STEEL-CUT OR PRODUCTION RELEASE.
 11
15.4
 21
52.686
 31
0.0
100
AcDbText
 73
2
1001
AICAD
1000
MW-P-001:notes
1000
text-in-frame-strict
  0
ENDSEC
  0
SECTION
  2
OBJECTS
  0
DICTIONARY
  5
A
330
0
100
AcDbDictionary
281
1
  3
ACAD_COLOR
350
B
  3
ACAD_GROUP
350
C
  3
ACAD_LAYOUT
350
D
  3
ACAD_MATERIAL
350
E
  3
ACAD_MLEADERSTYLE
350
F
  3
ACAD_MLINESTYLE
350
10
  3
ACAD_PLOTSETTINGS
350
11
  3
ACAD_PLOTSTYLENAME
350
12
  3
ACAD_SCALELIST
350
14
  3
ACAD_TABLESTYLE
350
15
  3
ACAD_VISUALSTYLE
350
16
  3
EZDXF_META
350
2D
  0
DICTIONARY
  5
B
330
A
100
AcDbDictionary
281
1
  0
DICTIONARY
  5
C
330
A
100
AcDbDictionary
281
1
  0
DICTIONARY
  5
D
330
A
100
AcDbDictionary
281
1
  3
Model
350
1A
  3
Layout1
350
1E
  0
DICTIONARY
  5
E
330
A
100
AcDbDictionary
281
1
  3
ByBlock
350
1F
  3
ByLayer
350
20
  3
Global
350
21
  0
DICTIONARY
  5
F
330
A
100
AcDbDictionary
281
1
  3
Standard
350
2C
  0
DICTIONARY
  5
10
330
A
100
AcDbDictionary
281
1
  3
Standard
350
22
  0
DICTIONARY
  5
11
330
A
100
AcDbDictionary
281
1
  0
ACDBDICTIONARYWDFLT
  5
12
330
A
100
AcDbDictionary
281
1
  3
Normal
350
13
100
AcDbDictionaryWithDefault
340
13
  0
ACDBPLACEHOLDER
  5
13
330
12
  0
DICTIONARY
  5
14
330
A
100
AcDbDictionary
281
1
  0
DICTIONARY
  5
15
330
A
100
AcDbDictionary
281
1
  0
DICTIONARY
  5
16
330
A
100
AcDbDictionary
281
1
  0
LAYOUT
  5
1A
330
D
100
AcDbPlotSettings
  1

  4
A3
  6

 40
7.5
 41
20.0
 42
7.5
 43
20.0
 44
420.0
 45
297.0
 46
0.0
 47
0.0
 48
0.0
 49
0.0
140
0.0
141
0.0
142
1.0
143
1.0
 70
1024
 72
1
 73
0
 74
5
  7

 75
16
 76
0
 77
2
 78
300
147
1.0
148
0.0
149
0.0
100
AcDbLayout
  1
Model
 70
1
 71
0
 10
0.0
 20
0.0
 11
420.0
 21
297.0
 12
0.0
 22
0.0
 32
0.0
 14
1e+20
 24
1e+20
 34
1e+20
 15
-1e+20
 25
-1e+20
 35
-1e+20
146
0.0
 13
0.0
 23
0.0
 33
0.0
 16
1.0
 26
0.0
 36
0.0
 17
0.0
 27
1.0
 37
0.0
 76
1
330
17
  0
LAYOUT
  5
1E
330
D
100
AcDbPlotSettings
  1

  4
A3
  6

 40
7.5
 41
20.0
 42
7.5
 43
20.0
 44
420.0
 45
297.0
 46
0.0
 47
0.0
 48
0.0
 49
0.0
140
0.0
141
0.0
142
1.0
143
1.0
 70
0
 72
1
 73
0
 74
5
  7

 75
16
 76
0
 77
2
 78
300
147
1.0
148
0.0
149
0.0
100
AcDbLayout
  1
Layout1
 70
1
 71
1
 10
0.0
 20
0.0
 11
420.0
 21
297.0
 12
0.0
 22
0.0
 32
0.0
 14
1e+20
 24
1e+20
 34
1e+20
 15
-1e+20
 25
-1e+20
 35
-1e+20
146
0.0
 13
0.0
 23
0.0
 33
0.0
 16
1.0
 26
0.0
 36
0.0
 17
0.0
 27
1.0
 37
0.0
 76
1
330
1B
  0
MATERIAL
  5
1F
102
{ACAD_REACTORS
330
E
102
}
330
E
100
AcDbMaterial
  1
ByBlock
  2

 70
0
 40
1.0
 71
1
 41
1.0
 91
-1023410177
 42
1.0
 72
1
  3

 73
1
 74
1
 75
1
 44
0.5
 73
0
 45
1.0
 46
1.0
 77
1
  4

 78
1
 79
1
170
1
 48
1.0
171
1
  6

172
1
173
1
174
1
140
1.0
141
1.0
175
1
  7

176
1
177
1
178
1
143
1.0
179
1
  8

270
1
271
1
272
1
145
1.0
146
1.0
273
1
  9

274
1
275
1
276
1
 42
1.0
 72
1
  3

 73
1
 74
1
 75
1
 94
63
  0
MATERIAL
  5
20
102
{ACAD_REACTORS
330
E
102
}
330
E
100
AcDbMaterial
  1
ByLayer
  2

 70
0
 40
1.0
 71
1
 41
1.0
 91
-1023410177
 42
1.0
 72
1
  3

 73
1
 74
1
 75
1
 44
0.5
 73
0
 45
1.0
 46
1.0
 77
1
  4

 78
1
 79
1
170
1
 48
1.0
171
1
  6

172
1
173
1
174
1
140
1.0
141
1.0
175
1
  7

176
1
177
1
178
1
143
1.0
179
1
  8

270
1
271
1
272
1
145
1.0
146
1.0
273
1
  9

274
1
275
1
276
1
 42
1.0
 72
1
  3

 73
1
 74
1
 75
1
 94
63
  0
MATERIAL
  5
21
102
{ACAD_REACTORS
330
E
102
}
330
E
100
AcDbMaterial
  1
Global
  2

 70
0
 40
1.0
 71
1
 41
1.0
 91
-1023410177
 42
1.0
 72
1
  3

 73
1
 74
1
 75
1
 44
0.5
 73
0
 45
1.0
 46
1.0
 77
1
  4

 78
1
 79
1
170
1
 48
1.0
171
1
  6

172
1
173
1
174
1
140
1.0
141
1.0
175
1
  7

176
1
177
1
178
1
143
1.0
179
1
  8

270
1
271
1
272
1
145
1.0
146
1.0
273
1
  9

274
1
275
1
276
1
 42
1.0
 72
1
  3

 73
1
 74
1
 75
1
 94
63
  0
MLINESTYLE
  5
22
102
{ACAD_REACTORS
330
10
102
}
330
10
100
AcDbMlineStyle
  2
Standard
 70
0
  3

 62
256
 51
90.0
 52
90.0
 71
2
 49
0.5
 62
256
  6
BYLAYER
 49
-0.5
 62
256
  6
BYLAYER
  0
MLEADERSTYLE
  5
2C
102
{ACAD_REACTORS
330
F
102
}
330
F
100
AcDbMLeaderStyle
179
2
170
2
171
1
172
0
 90
2
 40
0.0
 41
0.0
173
1
 91
-1056964608
 92
-2
290
1
 42
2.0
291
1
 43
8.0
  3
Standard
 44
4.0
300

342
29
174
1
175
1
176
0
178
1
 93
-1056964608
 45
4.0
292
0
297
0
 46
4.0
 94
-1056964608
 47
1.0
 49
1.0
140
1.0
294
1
141
0.0
177
0
142
1.0
295
0
296
0
143
3.75
271
0
272
9
273
9
  0
DICTIONARY
  5
2D
330
A
100
AcDbDictionary
280
1
281
1
  3
CREATED_BY_EZDXF
350
2E
  3
WRITTEN_BY_EZDXF
350
B6
  0
DICTIONARYVAR
  5
2E
330
2D
100
DictionaryVariables
280
0
  1
1.4.3 @ 2026-08-21T03:33:50.722504+00:00
  0
DICTIONARYVAR
  5
B6
330
2D
100
DictionaryVariables
280
0
  1
1.4.3 @ 2026-08-21T03:33:50.787236+00:00
  0
ENDSEC
  0
EOF
