%TF.GenerationSoftware,KiCad,Pcbnew,10.0.5*%
%TF.CreationDate,2026-08-23T15:01:11+08:00*%
%TF.ProjectId,wand,77616e64-2e6b-4696-9361-645f70636258,rev?*%
%TF.SameCoordinates,Original*%
%TF.FileFunction,Copper,L2,Inr*%
%TF.FilePolarity,Positive*%
%FSLAX46Y46*%
G04 Gerber Fmt 4.6, Leading zero omitted, Abs format (unit mm)*
G04 Created by KiCad (PCBNEW 10.0.5) date 2026-08-23 15:01:11*
%MOMM*%
%LPD*%
G01*
G04 APERTURE LIST*
%TA.AperFunction,ComponentPad*%
%ADD10O,2.300000X1.300000*%
%TD*%
%TA.AperFunction,ComponentPad*%
%ADD11O,2.600000X1.300000*%
%TD*%
%TA.AperFunction,ViaPad*%
%ADD12C,0.450000*%
%TD*%
%TA.AperFunction,ViaPad*%
%ADD13C,0.550000*%
%TD*%
%TA.AperFunction,ViaPad*%
%ADD14C,0.300000*%
%TD*%
%TA.AperFunction,Conductor*%
%ADD15C,0.200000*%
%TD*%
%TA.AperFunction,Conductor*%
%ADD16C,0.250000*%
%TD*%
G04 APERTURE END LIST*
D10*
%TO.N,USB_SHIELD*%
%TO.C,J1*%
X150575000Y-107320000D03*
D11*
X154400000Y-107320000D03*
D10*
X150575000Y-98680000D03*
D11*
X154400000Y-98680000D03*
%TD*%
D12*
%TO.N,3V3*%
X143663700Y-79878500D03*
X145490000Y-107476400D03*
X145658100Y-97550000D03*
X149028000Y-98382400D03*
X154747000Y-88462000D03*
X154945400Y-91536700D03*
X154950200Y-112792200D03*
%TO.N,ARM_N*%
X150150000Y-71988700D03*
X154010000Y-123291900D03*
%TO.N,ARM_SW*%
X146650000Y-131294100D03*
X152491300Y-124565800D03*
%TO.N,BAT_NTC*%
X144300000Y-118821800D03*
X148827700Y-112135000D03*
D13*
%TO.N,BAT_POS*%
X143300000Y-118718400D03*
X146159100Y-110088800D03*
D14*
X147100000Y-110600000D03*
D12*
%TO.N,CHG_STAT1_N*%
X143406600Y-73529800D03*
X143996000Y-109786400D03*
D14*
X150750000Y-110850000D03*
D12*
X153990000Y-112789800D03*
%TO.N,CHG_STAT2_N*%
X143420300Y-75953000D03*
X144125900Y-108923700D03*
%TO.N,GND*%
X143421900Y-74648600D03*
X143744900Y-89778800D03*
X144088400Y-97099300D03*
X145999700Y-119660400D03*
X146478300Y-67910200D03*
X146791000Y-87960700D03*
X146794800Y-77051700D03*
X150300000Y-114677400D03*
X150350000Y-125094500D03*
X151274700Y-69875000D03*
X152962800Y-113613600D03*
X154813300Y-118719600D03*
%TO.N,HAPTIC_EN*%
X143420300Y-69736600D03*
X150300000Y-91531100D03*
X151322600Y-85699700D03*
D13*
%TO.N,HAPTIC_N*%
X144500000Y-133721400D03*
X153199300Y-89085400D03*
%TO.N,HAPTIC_P*%
X143584300Y-133736800D03*
X153199300Y-90737100D03*
D12*
%TO.N,I2C_SCL*%
X143493300Y-93929400D03*
X146497500Y-72007000D03*
X148822700Y-89500000D03*
%TO.N,I2C_SDA*%
X143589900Y-92901500D03*
X146492100Y-72729000D03*
X148445200Y-83356000D03*
X149188900Y-90000000D03*
%TO.N,IMU_INT1*%
X143189300Y-88361200D03*
X151250000Y-70515200D03*
%TO.N,RESET_N*%
X148933500Y-115814400D03*
X153579700Y-75953000D03*
%TO.N,R_ISET_NODE*%
X150177300Y-111097700D03*
X150919300Y-113489400D03*
%TO.N,SWDCLK*%
X144962100Y-81233500D03*
X145600000Y-115351300D03*
X146828900Y-79695600D03*
%TO.N,SWDIO*%
X143000000Y-115362400D03*
X144469400Y-86827000D03*
X150500000Y-79697600D03*
%TO.N,SWO*%
X145156700Y-79489300D03*
X149687200Y-115687900D03*
X154253900Y-82988100D03*
D13*
%TO.N,SYS_RAIL*%
X145551100Y-112156200D03*
X145959100Y-92743900D03*
X147450000Y-109589500D03*
X149211400Y-117058400D03*
D12*
%TO.N,TP_IMU_INT2*%
X145867500Y-89750000D03*
X148910000Y-97567000D03*
X151500000Y-120631400D03*
%TO.N,USB_CC1*%
X141854700Y-104047300D03*
X148648500Y-105538900D03*
%TO.N,USB_CC2*%
X143269900Y-107302500D03*
X148648500Y-101360700D03*
%TO.N,USB_DM_PROT*%
X144699600Y-67910200D03*
X147020300Y-104349900D03*
%TO.N,USB_DP_PROT*%
X145557700Y-67903100D03*
X148046700Y-101372500D03*
%TO.N,USB_DP_RAW*%
X146000000Y-101368200D03*
X151090200Y-102635400D03*
D14*
%TO.N,USB_VBUS_5V*%
X145500000Y-70200000D03*
D13*
X145862900Y-100640600D03*
X147138300Y-103161900D03*
X148124600Y-108580300D03*
%TO.N,USB_VBUS_RAW*%
X142672700Y-104025100D03*
X151278900Y-104219800D03*
%TD*%
%TO.N,3V3*%
D15*
X149028000Y-98382400D02*
X149028000Y-98971300D01*
X149028000Y-98382400D02*
X154945400Y-92465000D01*
X149028000Y-98971300D02*
X152835400Y-102778700D01*
X152835400Y-102778700D02*
X152835400Y-110677400D01*
X152835400Y-110677400D02*
X154950200Y-112792200D01*
X154945400Y-92465000D02*
X154945400Y-91536700D01*
%TO.N,ARM_SW*%
X146650000Y-131294100D02*
X152491300Y-125452800D01*
X152491300Y-125452800D02*
X152491300Y-124565800D01*
%TO.N,BAT_NTC*%
X144300000Y-118821800D02*
X148777700Y-114344100D01*
X148777700Y-112185000D02*
X148827700Y-112135000D01*
X148777700Y-114344100D02*
X148777700Y-112185000D01*
%TO.N,BAT_POS*%
D16*
X143300000Y-118718400D02*
X146159100Y-115859300D01*
X146159100Y-115859300D02*
X146159100Y-110088800D01*
%TO.N,GND*%
D15*
X143423500Y-74647000D02*
X143421900Y-74648600D01*
X143744900Y-89778700D02*
X144973000Y-89778700D01*
X143744900Y-89778800D02*
X143744900Y-89778700D01*
X143744900Y-89778800D02*
X144088400Y-90122300D01*
X144088400Y-90122300D02*
X144088400Y-97099300D01*
X144390100Y-71963200D02*
X146478300Y-69875000D01*
X144390100Y-74647000D02*
X143423500Y-74647000D01*
X144390100Y-74647000D02*
X144390100Y-71963200D01*
X144973000Y-89778700D02*
X146791000Y-87960700D01*
X146119700Y-119660400D02*
X145999700Y-119660400D01*
X146478300Y-69875000D02*
X146478300Y-67910200D01*
X146478300Y-69875000D02*
X151274700Y-69875000D01*
X146794800Y-77051700D02*
X144390100Y-74647000D01*
X149996100Y-123536800D02*
X146119700Y-119660400D01*
X149996100Y-123536800D02*
X154813300Y-118719600D01*
X150350000Y-123890700D02*
X149996100Y-123536800D01*
X150350000Y-125094500D02*
X150350000Y-123890700D01*
X152962800Y-116869100D02*
X152962800Y-113613600D01*
X154813300Y-118719600D02*
X152962800Y-116869100D01*
%TO.N,HAPTIC_EN*%
X143420300Y-68494800D02*
X144532500Y-67382600D01*
X143420300Y-69736600D02*
X143420300Y-68494800D01*
X144532500Y-67382600D02*
X145899000Y-67382600D01*
X145899000Y-67382600D02*
X145969700Y-67453300D01*
X145969700Y-67453300D02*
X146260900Y-67453300D01*
X146260900Y-67453300D02*
X146333100Y-67381100D01*
X146333100Y-67381100D02*
X149488800Y-67381100D01*
X149488800Y-67381100D02*
X151752100Y-69644400D01*
X151322600Y-85699700D02*
X151322600Y-90508500D01*
X151322600Y-90508500D02*
X150300000Y-91531100D01*
X151752100Y-69644400D02*
X151752100Y-85270200D01*
X151752100Y-85270200D02*
X151322600Y-85699700D01*
%TO.N,HAPTIC_N*%
D16*
X141814700Y-105921200D02*
X141814700Y-132887000D01*
X141814700Y-132887000D02*
X143266200Y-134338500D01*
X143266200Y-134338500D02*
X143882900Y-134338500D01*
X143457900Y-100556700D02*
X143457900Y-104278000D01*
X143457900Y-104278000D02*
X141814700Y-105921200D01*
X143882900Y-134338500D02*
X144500000Y-133721400D01*
X152178400Y-90106300D02*
X152178400Y-91836200D01*
X152178400Y-91836200D02*
X143457900Y-100556700D01*
X153199300Y-89085400D02*
X152178400Y-90106300D01*
%TO.N,HAPTIC_P*%
X142266400Y-106108300D02*
X142266400Y-132418900D01*
X142266400Y-132418900D02*
X143584300Y-133736800D01*
X144993700Y-99706200D02*
X144993700Y-103381000D01*
X144993700Y-103381000D02*
X142266400Y-106108300D01*
X153199300Y-90737100D02*
X153199300Y-91500600D01*
X153199300Y-91500600D02*
X144993700Y-99706200D01*
%TO.N,I2C_SCL*%
D15*
X142700200Y-85968300D02*
X147313100Y-81355400D01*
X142700200Y-88556300D02*
X142700200Y-85968300D01*
X143113200Y-89687100D02*
X143113200Y-93549300D01*
X143113200Y-93549300D02*
X143493300Y-93929400D01*
X143472100Y-89328200D02*
X142700200Y-88556300D01*
X143472100Y-89328200D02*
X143113200Y-89687100D01*
X145316300Y-87484000D02*
X143472100Y-89328200D01*
X146988400Y-87484000D02*
X145316300Y-87484000D01*
X147313100Y-72822600D02*
X146497500Y-72007000D01*
X147313100Y-81355400D02*
X147313100Y-72822600D01*
X148822700Y-89318300D02*
X146988400Y-87484000D01*
X148822700Y-89500000D02*
X148822700Y-89318300D01*
%TO.N,I2C_SDA*%
X146787500Y-84535500D02*
X147967000Y-83356000D01*
X146787500Y-86636400D02*
X146787500Y-84535500D01*
X147967000Y-83356000D02*
X148445200Y-83356000D01*
X149188900Y-90000000D02*
X149354900Y-89834000D01*
X149354900Y-89203800D02*
X146787500Y-86636400D01*
X149354900Y-89834000D02*
X149354900Y-89203800D01*
%TO.N,IMU_INT1*%
X143189300Y-86289400D02*
X143189300Y-88361200D01*
X151250000Y-70515200D02*
X151250000Y-78228700D01*
X151250000Y-78228700D02*
X143189300Y-86289400D01*
%TO.N,RESET_N*%
X147800200Y-97503100D02*
X147800200Y-99330200D01*
X147800200Y-99330200D02*
X149125300Y-100655300D01*
X148452700Y-106670600D02*
X148452700Y-108017800D01*
X148452700Y-108017800D02*
X148701400Y-108266500D01*
X148701400Y-108266500D02*
X148701400Y-111325000D01*
X148701400Y-111325000D02*
X149310800Y-111934400D01*
X148776100Y-96527200D02*
X147800200Y-97503100D01*
X148900400Y-96527200D02*
X148776100Y-96527200D01*
X149125300Y-100655300D02*
X149125300Y-105998000D01*
X149125300Y-105998000D02*
X148452700Y-106670600D01*
X149133500Y-114354100D02*
X149133500Y-115614400D01*
X149133500Y-115614400D02*
X148933500Y-115814400D01*
X149310800Y-111934400D02*
X149310800Y-114176800D01*
X149310800Y-114176800D02*
X149133500Y-114354100D01*
X153579700Y-75953000D02*
X153776100Y-76149400D01*
X153776100Y-76149400D02*
X153776100Y-91651500D01*
X153776100Y-91651500D02*
X148900400Y-96527200D01*
%TO.N,R_ISET_NODE*%
X150919300Y-111839700D02*
X150177300Y-111097700D01*
X150919300Y-113489400D02*
X150919300Y-111839700D01*
%TO.N,SWDCLK*%
X144962100Y-81233500D02*
X146500000Y-79695600D01*
X146500000Y-79695600D02*
X146828900Y-79695600D01*
%TO.N,SWDIO*%
X144469400Y-85728200D02*
X150500000Y-79697600D01*
X144469400Y-86827000D02*
X144469400Y-85728200D01*
%TO.N,SWO*%
X148151900Y-97648700D02*
X148151900Y-99184600D01*
X148151900Y-99184600D02*
X149477000Y-100509700D01*
X148804400Y-106816200D02*
X148804400Y-107872200D01*
X148804400Y-107872200D02*
X149053100Y-108120900D01*
X148921700Y-96878900D02*
X148151900Y-97648700D01*
X149046000Y-96878900D02*
X148921700Y-96878900D01*
X149053100Y-108120900D02*
X149053100Y-111179400D01*
X149053100Y-111179400D02*
X149687200Y-111813500D01*
X149477000Y-100509700D02*
X149477000Y-106143600D01*
X149477000Y-106143600D02*
X148804400Y-106816200D01*
X149687200Y-111813500D02*
X149687200Y-115687900D01*
X154253900Y-82988100D02*
X154253900Y-91671000D01*
X154253900Y-91671000D02*
X149046000Y-96878900D01*
%TO.N,SYS_RAIL*%
D16*
X145551100Y-109845200D02*
X145551100Y-112156200D01*
X145946500Y-109449800D02*
X145551100Y-109845200D01*
X147310300Y-109449800D02*
X145946500Y-109449800D01*
X147450000Y-109589500D02*
X147310300Y-109449800D01*
%TO.N,TP_IMU_INT2*%
D15*
X148503600Y-97973400D02*
X148503600Y-99039000D01*
X148503600Y-99039000D02*
X149828700Y-100364100D01*
X148910000Y-97567000D02*
X148503600Y-97973400D01*
X149156100Y-106961800D02*
X149156100Y-107726600D01*
X149156100Y-107726600D02*
X149404800Y-107975300D01*
X149404800Y-107975300D02*
X149404800Y-111033800D01*
X149404800Y-111033800D02*
X150376100Y-112005100D01*
X149828700Y-100364100D02*
X149828700Y-106289200D01*
X149828700Y-106289200D02*
X149156100Y-106961800D01*
X150376100Y-112005100D02*
X150376100Y-113929300D01*
X150376100Y-113929300D02*
X151500000Y-115053200D01*
X151500000Y-115053200D02*
X151500000Y-120631400D01*
%TO.N,USB_CC2*%
X146699200Y-103873200D02*
X143269900Y-107302500D01*
X147242600Y-103873200D02*
X146699200Y-103873200D01*
X148648500Y-101360700D02*
X148648500Y-102467300D01*
X148648500Y-102467300D02*
X147242600Y-103873200D01*
%TO.N,USB_SHIELD*%
X154400000Y-98680000D02*
X150575000Y-98680000D01*
%TO.N,USB_VBUS_5V*%
D16*
X142718100Y-107059900D02*
X142718100Y-107550900D01*
X142718100Y-107550900D02*
X143381400Y-108214200D01*
X143381400Y-108214200D02*
X147758500Y-108214200D01*
X145445400Y-101058100D02*
X145445400Y-101695900D01*
X145445400Y-101695900D02*
X146763800Y-103014200D01*
X145862900Y-100640600D02*
X145445400Y-101058100D01*
X146763800Y-103014200D02*
X142718100Y-107059900D01*
X146763800Y-103014200D02*
X146911400Y-103161900D01*
X146911400Y-103161900D02*
X147138300Y-103161900D01*
X147758500Y-108214200D02*
X148124600Y-108580300D01*
%TD*%
%TA.AperFunction,Conductor*%
%TO.N,GND*%
G36*
X150255526Y-100623797D02*
G01*
X152513226Y-102881497D01*
X152534900Y-102933823D01*
X152534900Y-110716964D01*
X152555377Y-110793385D01*
X152555379Y-110793390D01*
X152569403Y-110817679D01*
X152594940Y-110861911D01*
X153972219Y-112239190D01*
X153993893Y-112291516D01*
X153972219Y-112343842D01*
X153938039Y-112360702D01*
X153938667Y-112363044D01*
X153825767Y-112393295D01*
X153825758Y-112393299D01*
X153728736Y-112449315D01*
X153649515Y-112528536D01*
X153593499Y-112625558D01*
X153593495Y-112625567D01*
X153564500Y-112733779D01*
X153564500Y-112845820D01*
X153593495Y-112954032D01*
X153593499Y-112954041D01*
X153594885Y-112956441D01*
X153649515Y-113051063D01*
X153728737Y-113130285D01*
X153825763Y-113186303D01*
X153933979Y-113215299D01*
X153933980Y-113215300D01*
X153933982Y-113215300D01*
X154046020Y-113215300D01*
X154046020Y-113215299D01*
X154154237Y-113186303D01*
X154251263Y-113130285D01*
X154330485Y-113051063D01*
X154386503Y-112954037D01*
X154398300Y-112910008D01*
X154432778Y-112865076D01*
X154488930Y-112857683D01*
X154533864Y-112892162D01*
X154541256Y-112910009D01*
X154553695Y-112956432D01*
X154553696Y-112956435D01*
X154553697Y-112956437D01*
X154609715Y-113053463D01*
X154688937Y-113132685D01*
X154785963Y-113188703D01*
X154894179Y-113217699D01*
X154894180Y-113217700D01*
X154894182Y-113217700D01*
X155006220Y-113217700D01*
X155006220Y-113217699D01*
X155114437Y-113188703D01*
X155211463Y-113132685D01*
X155290685Y-113053463D01*
X155346703Y-112956437D01*
X155375699Y-112848220D01*
X155375700Y-112848220D01*
X155375700Y-112736180D01*
X155375699Y-112736179D01*
X155346704Y-112627967D01*
X155346703Y-112627963D01*
X155290685Y-112530937D01*
X155211463Y-112451715D01*
X155207306Y-112449315D01*
X155114441Y-112395699D01*
X155114432Y-112395695D01*
X155006220Y-112366700D01*
X155006218Y-112366700D01*
X154980323Y-112366700D01*
X154927997Y-112345026D01*
X153157574Y-110574603D01*
X153135900Y-110522277D01*
X153135900Y-108071002D01*
X153157574Y-108018676D01*
X153209900Y-107997002D01*
X153251010Y-108009473D01*
X153347137Y-108073703D01*
X153501918Y-108137816D01*
X153666233Y-108170500D01*
X153666234Y-108170500D01*
X155133766Y-108170500D01*
X155133767Y-108170500D01*
X155298082Y-108137816D01*
X155452863Y-108073703D01*
X155584388Y-107985819D01*
X155639936Y-107974771D01*
X155687029Y-108006237D01*
X155699500Y-108047349D01*
X155699500Y-144625500D01*
X155677826Y-144677826D01*
X155625500Y-144699500D01*
X141374500Y-144699500D01*
X141322174Y-144677826D01*
X141300500Y-144625500D01*
X141300500Y-141889776D01*
X147099500Y-141889776D01*
X147099500Y-142110223D01*
X147133984Y-142327948D01*
X147133987Y-142327961D01*
X147202103Y-142537602D01*
X147202104Y-142537605D01*
X147202105Y-142537606D01*
X147302185Y-142734022D01*
X147431758Y-142912365D01*
X147587635Y-143068242D01*
X147765978Y-143197815D01*
X147962394Y-143297895D01*
X147962397Y-143297896D01*
X147962396Y-143297896D01*
X148172038Y-143366012D01*
X148172044Y-143366013D01*
X148172049Y-143366015D01*
X148280913Y-143383257D01*
X148389776Y-143400500D01*
X148389778Y-143400500D01*
X148610224Y-143400500D01*
X148697313Y-143386706D01*
X148827951Y-143366015D01*
X148827958Y-143366012D01*
X148827961Y-143366012D01*
X148923133Y-143335088D01*
X149037606Y-143297895D01*
X149234022Y-143197815D01*
X149412365Y-143068242D01*
X149568242Y-142912365D01*
X149697815Y-142734022D01*
X149797895Y-142537606D01*
X149866015Y-142327951D01*
X149900500Y-142110222D01*
X149900500Y-141889778D01*
X149866015Y-141672049D01*
X149866013Y-141672044D01*
X149866012Y-141672038D01*
X149797896Y-141462397D01*
X149797895Y-141462396D01*
X149797895Y-141462394D01*
X149697815Y-141265978D01*
X149568242Y-141087635D01*
X149412365Y-140931758D01*
X149308441Y-140856253D01*
X149234024Y-140802186D01*
X149037602Y-140702103D01*
X149037603Y-140702103D01*
X148827961Y-140633987D01*
X148827948Y-140633984D01*
X148610224Y-140599500D01*
X148610222Y-140599500D01*
X148389778Y-140599500D01*
X148389776Y-140599500D01*
X148172051Y-140633984D01*
X148172038Y-140633987D01*
X147962397Y-140702103D01*
X147765976Y-140802186D01*
X147765975Y-140802186D01*
X147587639Y-140931755D01*
X147587635Y-140931758D01*
X147431758Y-141087635D01*
X147431755Y-141087638D01*
X147431755Y-141087639D01*
X147302186Y-141265975D01*
X147302186Y-141265976D01*
X147202103Y-141462397D01*
X147133987Y-141672038D01*
X147133984Y-141672051D01*
X147099500Y-141889776D01*
X141300500Y-141889776D01*
X141300500Y-104185088D01*
X141322174Y-104132762D01*
X141374500Y-104111088D01*
X141426826Y-104132762D01*
X141445977Y-104165933D01*
X141458197Y-104211537D01*
X141458199Y-104211541D01*
X141505737Y-104293879D01*
X141514215Y-104308563D01*
X141593437Y-104387785D01*
X141690463Y-104443803D01*
X141798679Y-104472799D01*
X141798680Y-104472800D01*
X141798682Y-104472800D01*
X141910720Y-104472800D01*
X141910720Y-104472799D01*
X142018937Y-104443803D01*
X142115963Y-104387785D01*
X142187119Y-104316628D01*
X142239444Y-104294955D01*
X142291770Y-104316629D01*
X142292205Y-104317064D01*
X142380736Y-104405595D01*
X142489164Y-104468195D01*
X142489163Y-104468195D01*
X142614784Y-104501856D01*
X142614127Y-104504305D01*
X142656054Y-104528496D01*
X142670729Y-104583199D01*
X142649685Y-104625887D01*
X141554232Y-105721341D01*
X141511384Y-105795556D01*
X141511380Y-105795565D01*
X141505122Y-105818920D01*
X141505123Y-105818921D01*
X141489200Y-105878347D01*
X141489200Y-132844147D01*
X141489200Y-132929853D01*
X141511382Y-133012639D01*
X141511383Y-133012641D01*
X141511384Y-133012643D01*
X141554232Y-133086858D01*
X141554233Y-133086859D01*
X141554235Y-133086862D01*
X143066338Y-134598965D01*
X143140561Y-134641818D01*
X143223347Y-134664000D01*
X143223349Y-134664000D01*
X143925751Y-134664000D01*
X143925753Y-134664000D01*
X144008539Y-134641818D01*
X144082762Y-134598965D01*
X144463153Y-134218574D01*
X144515479Y-134196900D01*
X144562603Y-134196900D01*
X144562603Y-134196899D01*
X144683536Y-134164495D01*
X144791964Y-134101895D01*
X144880495Y-134013364D01*
X144943095Y-133904936D01*
X144975499Y-133784003D01*
X144975500Y-133784003D01*
X144975500Y-133658797D01*
X144975499Y-133658796D01*
X144943095Y-133537864D01*
X144880495Y-133429436D01*
X144791963Y-133340904D01*
X144683534Y-133278304D01*
X144683536Y-133278304D01*
X144562603Y-133245900D01*
X144562601Y-133245900D01*
X144437399Y-133245900D01*
X144437397Y-133245900D01*
X144316464Y-133278304D01*
X144208036Y-133340904D01*
X144119505Y-133429435D01*
X144101790Y-133460119D01*
X144056856Y-133494598D01*
X144000704Y-133487205D01*
X143973619Y-133460120D01*
X143964795Y-133444836D01*
X143876264Y-133356305D01*
X143876263Y-133356304D01*
X143767834Y-133293704D01*
X143767836Y-133293704D01*
X143646903Y-133261300D01*
X143646901Y-133261300D01*
X143599779Y-133261300D01*
X143547453Y-133239626D01*
X142613574Y-132305747D01*
X142591900Y-132253421D01*
X142591900Y-131238079D01*
X146224500Y-131238079D01*
X146224500Y-131350120D01*
X146253495Y-131458332D01*
X146253496Y-131458335D01*
X146253497Y-131458337D01*
X146309515Y-131555363D01*
X146388737Y-131634585D01*
X146485763Y-131690603D01*
X146593979Y-131719599D01*
X146593980Y-131719600D01*
X146593982Y-131719600D01*
X146706020Y-131719600D01*
X146706020Y-131719599D01*
X146814237Y-131690603D01*
X146911263Y-131634585D01*
X146990485Y-131555363D01*
X147046503Y-131458337D01*
X147075499Y-131350120D01*
X147075500Y-131350120D01*
X147075500Y-131324222D01*
X147097173Y-131271897D01*
X152731760Y-125637311D01*
X152771322Y-125568788D01*
X152791800Y-125492362D01*
X152791800Y-125413238D01*
X152791800Y-124897700D01*
X152813474Y-124845374D01*
X152831785Y-124827063D01*
X152887803Y-124730037D01*
X152916799Y-124621820D01*
X152916800Y-124621820D01*
X152916800Y-124509780D01*
X152916799Y-124509779D01*
X152887804Y-124401567D01*
X152887803Y-124401563D01*
X152831785Y-124304537D01*
X152752563Y-124225315D01*
X152655541Y-124169299D01*
X152655532Y-124169295D01*
X152547320Y-124140300D01*
X152547318Y-124140300D01*
X152435282Y-124140300D01*
X152435280Y-124140300D01*
X152327067Y-124169295D01*
X152327058Y-124169299D01*
X152230036Y-124225315D01*
X152150815Y-124304536D01*
X152094799Y-124401558D01*
X152094795Y-124401567D01*
X152065800Y-124509779D01*
X152065800Y-124621820D01*
X152094795Y-124730032D01*
X152094799Y-124730041D01*
X152150815Y-124827063D01*
X152169126Y-124845374D01*
X152190800Y-124897700D01*
X152190800Y-125297677D01*
X152169126Y-125350003D01*
X146672203Y-130846926D01*
X146619877Y-130868600D01*
X146593980Y-130868600D01*
X146485767Y-130897595D01*
X146485758Y-130897599D01*
X146388736Y-130953615D01*
X146309515Y-131032836D01*
X146253499Y-131129858D01*
X146253495Y-131129867D01*
X146224500Y-131238079D01*
X142591900Y-131238079D01*
X142591900Y-123235879D01*
X153584500Y-123235879D01*
X153584500Y-123347920D01*
X153613495Y-123456132D01*
X153613496Y-123456135D01*
X153613497Y-123456137D01*
X153669515Y-123553163D01*
X153748737Y-123632385D01*
X153845763Y-123688403D01*
X153953979Y-123717399D01*
X153953980Y-123717400D01*
X153953982Y-123717400D01*
X154066020Y-123717400D01*
X154066020Y-123717399D01*
X154174237Y-123688403D01*
X154271263Y-123632385D01*
X154350485Y-123553163D01*
X154406503Y-123456137D01*
X154435499Y-123347920D01*
X154435500Y-123347920D01*
X154435500Y-123235880D01*
X154435499Y-123235879D01*
X154406504Y-123127667D01*
X154406503Y-123127663D01*
X154350485Y-123030637D01*
X154271263Y-122951415D01*
X154174241Y-122895399D01*
X154174232Y-122895395D01*
X154066020Y-122866400D01*
X154066018Y-122866400D01*
X153953982Y-122866400D01*
X153953980Y-122866400D01*
X153845767Y-122895395D01*
X153845758Y-122895399D01*
X153748736Y-122951415D01*
X153669515Y-123030636D01*
X153613499Y-123127658D01*
X153613495Y-123127667D01*
X153584500Y-123235879D01*
X142591900Y-123235879D01*
X142591900Y-115734700D01*
X142613574Y-115682374D01*
X142665900Y-115660700D01*
X142718226Y-115682374D01*
X142738737Y-115702885D01*
X142835763Y-115758903D01*
X142943979Y-115787899D01*
X142943980Y-115787900D01*
X142943982Y-115787900D01*
X143056020Y-115787900D01*
X143056020Y-115787899D01*
X143164237Y-115758903D01*
X143261263Y-115702885D01*
X143340485Y-115623663D01*
X143396503Y-115526637D01*
X143425499Y-115418420D01*
X143425500Y-115418420D01*
X143425500Y-115306380D01*
X143425499Y-115306379D01*
X143396504Y-115198167D01*
X143396503Y-115198163D01*
X143340485Y-115101137D01*
X143261263Y-115021915D01*
X143206158Y-114990100D01*
X143164241Y-114965899D01*
X143164232Y-114965895D01*
X143056020Y-114936900D01*
X143056018Y-114936900D01*
X142943982Y-114936900D01*
X142943980Y-114936900D01*
X142835767Y-114965895D01*
X142835758Y-114965899D01*
X142738736Y-115021915D01*
X142718226Y-115042426D01*
X142665900Y-115064100D01*
X142613574Y-115042426D01*
X142591900Y-114990100D01*
X142591900Y-108063678D01*
X142613574Y-108011352D01*
X142665900Y-107989678D01*
X142718224Y-108011351D01*
X143181538Y-108474665D01*
X143255761Y-108517518D01*
X143338547Y-108539700D01*
X143729537Y-108539700D01*
X143781863Y-108561374D01*
X143803537Y-108613700D01*
X143788246Y-108658747D01*
X143785416Y-108662434D01*
X143729399Y-108759458D01*
X143729395Y-108759467D01*
X143700400Y-108867679D01*
X143700400Y-108979720D01*
X143729395Y-109087932D01*
X143729399Y-109087941D01*
X143785415Y-109184963D01*
X143866204Y-109265752D01*
X143887878Y-109318078D01*
X143866204Y-109370404D01*
X143836128Y-109387771D01*
X143836241Y-109388043D01*
X143834182Y-109388895D01*
X143833044Y-109389553D01*
X143831770Y-109389894D01*
X143831758Y-109389899D01*
X143734736Y-109445915D01*
X143655515Y-109525136D01*
X143599499Y-109622158D01*
X143599495Y-109622167D01*
X143570500Y-109730379D01*
X143570500Y-109842420D01*
X143599495Y-109950632D01*
X143599496Y-109950635D01*
X143599497Y-109950637D01*
X143655515Y-110047663D01*
X143734737Y-110126885D01*
X143831763Y-110182903D01*
X143939979Y-110211899D01*
X143939980Y-110211900D01*
X143939982Y-110211900D01*
X144052020Y-110211900D01*
X144052020Y-110211899D01*
X144160237Y-110182903D01*
X144257263Y-110126885D01*
X144336485Y-110047663D01*
X144392503Y-109950637D01*
X144421499Y-109842420D01*
X144421500Y-109842420D01*
X144421500Y-109730380D01*
X144421499Y-109730379D01*
X144418601Y-109719565D01*
X144392503Y-109622163D01*
X144336485Y-109525137D01*
X144257263Y-109445915D01*
X144255695Y-109444347D01*
X144234021Y-109392021D01*
X144255695Y-109339695D01*
X144285772Y-109322330D01*
X144285659Y-109322057D01*
X144287735Y-109321197D01*
X144288868Y-109320542D01*
X144290137Y-109320203D01*
X144387163Y-109264185D01*
X144466385Y-109184963D01*
X144522403Y-109087937D01*
X144551399Y-108979720D01*
X144551400Y-108979720D01*
X144551400Y-108867680D01*
X144551399Y-108867679D01*
X144522404Y-108759467D01*
X144522403Y-108759463D01*
X144466385Y-108662437D01*
X144466384Y-108662436D01*
X144466383Y-108662434D01*
X144463554Y-108658747D01*
X144448896Y-108604039D01*
X144477216Y-108554991D01*
X144522263Y-108539700D01*
X147575100Y-108539700D01*
X147627426Y-108561374D01*
X147649100Y-108613700D01*
X147649100Y-108642903D01*
X147681504Y-108763835D01*
X147741460Y-108867682D01*
X147744105Y-108872264D01*
X147832636Y-108960795D01*
X147941064Y-109023395D01*
X147941063Y-109023395D01*
X148010886Y-109042104D01*
X148061996Y-109055799D01*
X148061997Y-109055800D01*
X148061999Y-109055800D01*
X148187203Y-109055800D01*
X148187203Y-109055799D01*
X148307747Y-109023499D01*
X148363899Y-109030891D01*
X148398378Y-109075824D01*
X148400900Y-109094977D01*
X148400900Y-111364564D01*
X148421377Y-111440985D01*
X148421378Y-111440987D01*
X148421379Y-111440989D01*
X148432021Y-111459421D01*
X148460940Y-111509511D01*
X148612047Y-111660618D01*
X148633721Y-111712944D01*
X148612047Y-111765270D01*
X148596722Y-111777029D01*
X148566437Y-111794514D01*
X148487215Y-111873736D01*
X148431199Y-111970758D01*
X148431195Y-111970767D01*
X148402200Y-112078979D01*
X148402200Y-112191020D01*
X148431195Y-112299233D01*
X148431196Y-112299235D01*
X148431197Y-112299237D01*
X148467286Y-112361745D01*
X148477200Y-112398744D01*
X148477200Y-114188977D01*
X148455526Y-114241303D01*
X144322203Y-118374626D01*
X144269877Y-118396300D01*
X144261079Y-118396300D01*
X144208753Y-118374626D01*
X144187079Y-118322300D01*
X144208753Y-118269974D01*
X144257501Y-118221226D01*
X146419565Y-116059162D01*
X146462418Y-115984939D01*
X146484600Y-115902153D01*
X146484600Y-115816447D01*
X146484600Y-110553853D01*
X146749500Y-110553853D01*
X146749500Y-110646146D01*
X146773384Y-110735284D01*
X146773386Y-110735289D01*
X146819528Y-110815208D01*
X146819529Y-110815209D01*
X146819531Y-110815212D01*
X146884788Y-110880469D01*
X146884790Y-110880470D01*
X146884791Y-110880471D01*
X146934774Y-110909329D01*
X146964712Y-110926614D01*
X146964713Y-110926614D01*
X146964715Y-110926615D01*
X146990273Y-110933463D01*
X147053853Y-110950499D01*
X147053854Y-110950500D01*
X147053856Y-110950500D01*
X147146146Y-110950500D01*
X147146146Y-110950499D01*
X147235288Y-110926614D01*
X147315212Y-110880469D01*
X147380469Y-110815212D01*
X147426614Y-110735288D01*
X147450499Y-110646146D01*
X147450500Y-110646146D01*
X147450500Y-110553854D01*
X147450499Y-110553853D01*
X147450251Y-110552929D01*
X147426614Y-110464712D01*
X147380469Y-110384788D01*
X147315212Y-110319531D01*
X147315209Y-110319529D01*
X147315208Y-110319528D01*
X147235289Y-110273386D01*
X147235284Y-110273384D01*
X147146146Y-110249500D01*
X147146144Y-110249500D01*
X147053856Y-110249500D01*
X147053854Y-110249500D01*
X146964715Y-110273384D01*
X146964710Y-110273386D01*
X146884791Y-110319528D01*
X146819528Y-110384791D01*
X146773386Y-110464710D01*
X146773384Y-110464715D01*
X146749500Y-110553853D01*
X146484600Y-110553853D01*
X146484600Y-110466411D01*
X146506274Y-110414085D01*
X146539595Y-110380764D01*
X146602195Y-110272336D01*
X146634599Y-110151403D01*
X146634600Y-110151403D01*
X146634600Y-110026197D01*
X146634599Y-110026196D01*
X146614351Y-109950632D01*
X146602195Y-109905264D01*
X146591246Y-109886299D01*
X146583854Y-109830147D01*
X146618333Y-109785214D01*
X146655332Y-109775300D01*
X146965488Y-109775300D01*
X147017814Y-109796974D01*
X147029572Y-109812298D01*
X147069505Y-109881464D01*
X147158036Y-109969995D01*
X147266464Y-110032595D01*
X147266463Y-110032595D01*
X147336286Y-110051304D01*
X147387396Y-110064999D01*
X147387397Y-110065000D01*
X147387399Y-110065000D01*
X147512603Y-110065000D01*
X147512603Y-110064999D01*
X147633536Y-110032595D01*
X147741964Y-109969995D01*
X147830495Y-109881464D01*
X147893095Y-109773036D01*
X147925499Y-109652103D01*
X147925500Y-109652103D01*
X147925500Y-109526897D01*
X147925499Y-109526896D01*
X147925027Y-109525136D01*
X147893095Y-109405964D01*
X147830495Y-109297536D01*
X147741964Y-109209005D01*
X147741963Y-109209004D01*
X147633534Y-109146404D01*
X147633536Y-109146404D01*
X147512603Y-109114000D01*
X147512601Y-109114000D01*
X147387399Y-109114000D01*
X147387398Y-109114000D01*
X147358372Y-109121778D01*
X147339218Y-109124300D01*
X145989353Y-109124300D01*
X145903647Y-109124300D01*
X145820861Y-109146482D01*
X145820860Y-109146482D01*
X145820858Y-109146483D01*
X145820856Y-109146484D01*
X145746641Y-109189332D01*
X145290632Y-109645341D01*
X145247784Y-109719556D01*
X145247780Y-109719565D01*
X145233453Y-109773037D01*
X145225600Y-109802344D01*
X145225600Y-111778589D01*
X145203926Y-111830915D01*
X145170604Y-111864236D01*
X145108004Y-111972664D01*
X145075600Y-112093596D01*
X145075600Y-112218803D01*
X145108004Y-112339735D01*
X145142073Y-112398744D01*
X145170605Y-112448164D01*
X145259136Y-112536695D01*
X145367564Y-112599295D01*
X145367563Y-112599295D01*
X145437386Y-112618004D01*
X145488496Y-112631699D01*
X145488497Y-112631700D01*
X145488499Y-112631700D01*
X145613703Y-112631700D01*
X145613703Y-112631699D01*
X145684118Y-112612831D01*
X145739321Y-112598040D01*
X145740031Y-112600692D01*
X145787888Y-112600671D01*
X145827954Y-112640702D01*
X145833600Y-112669051D01*
X145833600Y-114876944D01*
X145811926Y-114929270D01*
X145759600Y-114950944D01*
X145740450Y-114948423D01*
X145656018Y-114925800D01*
X145543982Y-114925800D01*
X145543980Y-114925800D01*
X145435767Y-114954795D01*
X145435758Y-114954799D01*
X145338736Y-115010815D01*
X145259515Y-115090036D01*
X145203499Y-115187058D01*
X145203495Y-115187067D01*
X145174500Y-115295279D01*
X145174500Y-115407320D01*
X145203495Y-115515532D01*
X145203499Y-115515541D01*
X145209908Y-115526641D01*
X145259515Y-115612563D01*
X145338737Y-115691785D01*
X145435763Y-115747803D01*
X145543979Y-115776799D01*
X145543980Y-115776800D01*
X145602621Y-115776800D01*
X145654947Y-115798474D01*
X145676621Y-115850800D01*
X145654947Y-115903126D01*
X143336847Y-118221226D01*
X143284521Y-118242900D01*
X143237397Y-118242900D01*
X143116464Y-118275304D01*
X143008036Y-118337904D01*
X142919504Y-118426436D01*
X142856904Y-118534864D01*
X142824500Y-118655796D01*
X142824500Y-118781003D01*
X142856904Y-118901935D01*
X142856905Y-118901936D01*
X142919505Y-119010364D01*
X143008036Y-119098895D01*
X143116464Y-119161495D01*
X143116463Y-119161495D01*
X143186286Y-119180204D01*
X143237396Y-119193899D01*
X143237397Y-119193900D01*
X143237399Y-119193900D01*
X143362603Y-119193900D01*
X143362603Y-119193899D01*
X143483536Y-119161495D01*
X143591964Y-119098895D01*
X143680495Y-119010364D01*
X143743095Y-118901936D01*
X143743096Y-118901929D01*
X143743385Y-118901236D01*
X143743655Y-118900965D01*
X143745520Y-118897736D01*
X143746385Y-118898235D01*
X143783433Y-118861187D01*
X143840070Y-118861187D01*
X143880119Y-118901235D01*
X143883230Y-118910401D01*
X143903495Y-118986032D01*
X143903499Y-118986041D01*
X143917542Y-119010364D01*
X143959515Y-119083063D01*
X144038737Y-119162285D01*
X144135763Y-119218303D01*
X144243979Y-119247299D01*
X144243980Y-119247300D01*
X144243982Y-119247300D01*
X144356020Y-119247300D01*
X144356020Y-119247299D01*
X144464237Y-119218303D01*
X144561263Y-119162285D01*
X144640485Y-119083063D01*
X144696503Y-118986037D01*
X144725499Y-118877820D01*
X144725500Y-118877820D01*
X144725500Y-118851923D01*
X144747174Y-118799597D01*
X146550975Y-116995796D01*
X148735900Y-116995796D01*
X148735900Y-117121003D01*
X148768304Y-117241935D01*
X148768305Y-117241936D01*
X148830905Y-117350364D01*
X148919436Y-117438895D01*
X149027864Y-117501495D01*
X149027863Y-117501495D01*
X149097686Y-117520204D01*
X149148796Y-117533899D01*
X149148797Y-117533900D01*
X149148799Y-117533900D01*
X149274003Y-117533900D01*
X149274003Y-117533899D01*
X149394936Y-117501495D01*
X149503364Y-117438895D01*
X149591895Y-117350364D01*
X149654495Y-117241936D01*
X149686899Y-117121003D01*
X149686900Y-117121003D01*
X149686900Y-116995797D01*
X149686899Y-116995796D01*
X149654495Y-116874864D01*
X149591895Y-116766436D01*
X149503363Y-116677904D01*
X149394934Y-116615304D01*
X149394936Y-116615304D01*
X149274003Y-116582900D01*
X149274001Y-116582900D01*
X149148799Y-116582900D01*
X149148797Y-116582900D01*
X149027864Y-116615304D01*
X148919436Y-116677904D01*
X148830904Y-116766436D01*
X148768304Y-116874864D01*
X148735900Y-116995796D01*
X146550975Y-116995796D01*
X148706674Y-114840097D01*
X148759000Y-114818423D01*
X148811326Y-114840097D01*
X148833000Y-114892423D01*
X148833000Y-115344036D01*
X148811326Y-115396362D01*
X148778156Y-115415514D01*
X148769262Y-115417897D01*
X148769261Y-115417897D01*
X148672236Y-115473915D01*
X148593015Y-115553136D01*
X148536999Y-115650158D01*
X148536995Y-115650167D01*
X148508000Y-115758379D01*
X148508000Y-115870420D01*
X148536995Y-115978632D01*
X148536999Y-115978641D01*
X148548405Y-115998396D01*
X148593015Y-116075663D01*
X148672237Y-116154885D01*
X148769263Y-116210903D01*
X148877479Y-116239899D01*
X148877480Y-116239900D01*
X148877482Y-116239900D01*
X148989520Y-116239900D01*
X148989520Y-116239899D01*
X149097737Y-116210903D01*
X149194763Y-116154885D01*
X149273985Y-116075663D01*
X149298689Y-116032872D01*
X149343620Y-115998396D01*
X149399773Y-116005787D01*
X149415100Y-116017548D01*
X149425937Y-116028385D01*
X149522963Y-116084403D01*
X149631179Y-116113399D01*
X149631180Y-116113400D01*
X149631182Y-116113400D01*
X149743220Y-116113400D01*
X149743220Y-116113399D01*
X149851437Y-116084403D01*
X149948463Y-116028385D01*
X150027685Y-115949163D01*
X150083703Y-115852137D01*
X150112699Y-115743920D01*
X150112700Y-115743920D01*
X150112700Y-115631880D01*
X150112699Y-115631879D01*
X150107523Y-115612563D01*
X150083703Y-115523663D01*
X150027685Y-115426637D01*
X150009374Y-115408326D01*
X149987700Y-115356000D01*
X149987700Y-114133743D01*
X150009374Y-114081417D01*
X150061700Y-114059743D01*
X150114026Y-114081417D01*
X150125786Y-114096743D01*
X150135640Y-114113811D01*
X151177826Y-115155997D01*
X151199500Y-115208323D01*
X151199500Y-120299500D01*
X151177826Y-120351826D01*
X151159515Y-120370136D01*
X151103499Y-120467158D01*
X151103495Y-120467167D01*
X151074500Y-120575379D01*
X151074500Y-120687420D01*
X151103495Y-120795632D01*
X151103496Y-120795635D01*
X151103497Y-120795637D01*
X151159515Y-120892663D01*
X151238737Y-120971885D01*
X151335763Y-121027903D01*
X151443979Y-121056899D01*
X151443980Y-121056900D01*
X151443982Y-121056900D01*
X151556020Y-121056900D01*
X151556020Y-121056899D01*
X151664237Y-121027903D01*
X151761263Y-120971885D01*
X151840485Y-120892663D01*
X151896503Y-120795637D01*
X151925499Y-120687420D01*
X151925500Y-120687420D01*
X151925500Y-120575380D01*
X151925499Y-120575379D01*
X151896504Y-120467167D01*
X151896503Y-120467163D01*
X151840485Y-120370137D01*
X151822174Y-120351826D01*
X151800500Y-120299500D01*
X151800500Y-115013639D01*
X151799743Y-115010815D01*
X151787708Y-114965897D01*
X151787707Y-114965895D01*
X151783026Y-114948423D01*
X151780022Y-114937212D01*
X151740460Y-114868689D01*
X150912997Y-114041226D01*
X150891323Y-113988900D01*
X150912997Y-113936574D01*
X150965323Y-113914900D01*
X150975320Y-113914900D01*
X150975320Y-113914899D01*
X151083537Y-113885903D01*
X151180563Y-113829885D01*
X151259785Y-113750663D01*
X151315803Y-113653637D01*
X151344799Y-113545420D01*
X151344800Y-113545420D01*
X151344800Y-113433380D01*
X151344799Y-113433379D01*
X151315804Y-113325167D01*
X151315803Y-113325163D01*
X151259785Y-113228137D01*
X151241474Y-113209826D01*
X151219800Y-113157500D01*
X151219800Y-111800136D01*
X151219799Y-111800135D01*
X151199322Y-111723714D01*
X151199320Y-111723709D01*
X151159759Y-111655188D01*
X150814948Y-111310377D01*
X150793274Y-111258051D01*
X150814948Y-111205725D01*
X150848120Y-111186573D01*
X150885288Y-111176614D01*
X150965212Y-111130469D01*
X151030469Y-111065212D01*
X151076614Y-110985288D01*
X151100499Y-110896146D01*
X151100500Y-110896146D01*
X151100500Y-110803854D01*
X151100499Y-110803853D01*
X151096742Y-110789833D01*
X151088003Y-110757215D01*
X151076615Y-110714715D01*
X151076613Y-110714710D01*
X151030471Y-110634791D01*
X151030470Y-110634790D01*
X151030469Y-110634788D01*
X150965212Y-110569531D01*
X150965209Y-110569529D01*
X150965208Y-110569528D01*
X150885289Y-110523386D01*
X150885284Y-110523384D01*
X150796146Y-110499500D01*
X150796144Y-110499500D01*
X150703856Y-110499500D01*
X150703854Y-110499500D01*
X150614715Y-110523384D01*
X150614710Y-110523386D01*
X150534791Y-110569528D01*
X150469527Y-110634792D01*
X150445775Y-110675932D01*
X150400842Y-110710410D01*
X150344692Y-110703018D01*
X150341543Y-110701200D01*
X150341539Y-110701198D01*
X150341537Y-110701197D01*
X150341535Y-110701196D01*
X150341532Y-110701195D01*
X150233320Y-110672200D01*
X150233318Y-110672200D01*
X150121282Y-110672200D01*
X150121280Y-110672200D01*
X150013067Y-110701195D01*
X150013058Y-110701199D01*
X149916036Y-110757215D01*
X149833385Y-110839867D01*
X149831917Y-110838399D01*
X149788953Y-110863201D01*
X149734247Y-110848538D01*
X149705932Y-110799486D01*
X149705300Y-110789833D01*
X149705300Y-108198188D01*
X149726974Y-108145862D01*
X149779300Y-108124188D01*
X149807617Y-108129821D01*
X149826918Y-108137816D01*
X149991233Y-108170500D01*
X149991234Y-108170500D01*
X151158766Y-108170500D01*
X151158767Y-108170500D01*
X151323082Y-108137816D01*
X151477863Y-108073703D01*
X151617162Y-107980626D01*
X151735626Y-107862162D01*
X151828703Y-107722863D01*
X151892816Y-107568082D01*
X151925500Y-107403767D01*
X151925500Y-107236233D01*
X151892816Y-107071918D01*
X151828703Y-106917137D01*
X151735626Y-106777838D01*
X151617162Y-106659374D01*
X151503699Y-106583560D01*
X151472235Y-106536468D01*
X151483284Y-106480919D01*
X151507810Y-106457948D01*
X151607314Y-106400500D01*
X151700500Y-106307314D01*
X151766392Y-106193186D01*
X151800499Y-106065894D01*
X151800500Y-106065894D01*
X151800500Y-105934106D01*
X151800499Y-105934105D01*
X151766393Y-105806818D01*
X151766392Y-105806814D01*
X151700500Y-105692686D01*
X151607314Y-105599500D01*
X151599378Y-105594918D01*
X151493190Y-105533610D01*
X151493181Y-105533606D01*
X151365894Y-105499500D01*
X151365892Y-105499500D01*
X151234108Y-105499500D01*
X151234106Y-105499500D01*
X151106818Y-105533606D01*
X151106809Y-105533610D01*
X150992685Y-105599500D01*
X150899500Y-105692685D01*
X150833610Y-105806809D01*
X150833606Y-105806818D01*
X150799500Y-105934105D01*
X150799500Y-106065894D01*
X150833606Y-106193181D01*
X150833610Y-106193190D01*
X150899500Y-106307314D01*
X150935360Y-106343174D01*
X150957034Y-106395500D01*
X150935360Y-106447826D01*
X150883034Y-106469500D01*
X150187928Y-106469500D01*
X150135602Y-106447826D01*
X150113928Y-106395500D01*
X150116450Y-106376347D01*
X150129199Y-106328764D01*
X150129200Y-106328764D01*
X150129200Y-104157196D01*
X150803400Y-104157196D01*
X150803400Y-104282403D01*
X150835804Y-104403335D01*
X150897620Y-104510404D01*
X150898405Y-104511764D01*
X150986936Y-104600295D01*
X151095364Y-104662895D01*
X151095363Y-104662895D01*
X151165186Y-104681604D01*
X151216296Y-104695299D01*
X151216297Y-104695300D01*
X151216299Y-104695300D01*
X151341503Y-104695300D01*
X151341503Y-104695299D01*
X151462436Y-104662895D01*
X151570864Y-104600295D01*
X151659395Y-104511764D01*
X151721995Y-104403336D01*
X151754399Y-104282403D01*
X151754400Y-104282403D01*
X151754400Y-104157197D01*
X151754399Y-104157196D01*
X151747372Y-104130973D01*
X151721995Y-104036264D01*
X151659395Y-103927836D01*
X151570864Y-103839305D01*
X151570863Y-103839304D01*
X151462434Y-103776704D01*
X151462436Y-103776704D01*
X151341503Y-103744300D01*
X151341501Y-103744300D01*
X151216299Y-103744300D01*
X151216297Y-103744300D01*
X151095364Y-103776704D01*
X150986936Y-103839304D01*
X150898404Y-103927836D01*
X150835804Y-104036264D01*
X150803400Y-104157196D01*
X150129200Y-104157196D01*
X150129200Y-102579379D01*
X150664700Y-102579379D01*
X150664700Y-102691420D01*
X150693695Y-102799632D01*
X150693696Y-102799635D01*
X150693697Y-102799637D01*
X150749715Y-102896663D01*
X150828937Y-102975885D01*
X150925963Y-103031903D01*
X151034179Y-103060899D01*
X151034180Y-103060900D01*
X151034182Y-103060900D01*
X151146220Y-103060900D01*
X151146220Y-103060899D01*
X151254437Y-103031903D01*
X151351463Y-102975885D01*
X151430685Y-102896663D01*
X151486703Y-102799637D01*
X151515699Y-102691420D01*
X151515700Y-102691420D01*
X151515700Y-102579380D01*
X151515699Y-102579379D01*
X151486704Y-102471167D01*
X151486703Y-102471163D01*
X151430685Y-102374137D01*
X151351463Y-102294915D01*
X151254441Y-102238899D01*
X151254432Y-102238895D01*
X151146220Y-102209900D01*
X151146218Y-102209900D01*
X151034182Y-102209900D01*
X151034180Y-102209900D01*
X150925967Y-102238895D01*
X150925958Y-102238899D01*
X150828936Y-102294915D01*
X150749715Y-102374136D01*
X150693699Y-102471158D01*
X150693695Y-102471167D01*
X150664700Y-102579379D01*
X150129200Y-102579379D01*
X150129200Y-100676123D01*
X150150874Y-100623797D01*
X150203200Y-100602123D01*
X150255526Y-100623797D01*
G37*
%TD.AperFunction*%
%TA.AperFunction,Conductor*%
G36*
X155677826Y-65322174D02*
G01*
X155699500Y-65374500D01*
X155699500Y-97952650D01*
X155677826Y-98004976D01*
X155625500Y-98026650D01*
X155584388Y-98014179D01*
X155452862Y-97926296D01*
X155298082Y-97862184D01*
X155298075Y-97862182D01*
X155174288Y-97837560D01*
X155133767Y-97829500D01*
X153666233Y-97829500D01*
X153633728Y-97835965D01*
X153501924Y-97862182D01*
X153501917Y-97862184D01*
X153347137Y-97926296D01*
X153207841Y-98019371D01*
X153089371Y-98137841D01*
X152996295Y-98277139D01*
X152972818Y-98333819D01*
X152932769Y-98373867D01*
X152904451Y-98379500D01*
X151920549Y-98379500D01*
X151868223Y-98357826D01*
X151852182Y-98333819D01*
X151828704Y-98277139D01*
X151735628Y-98137841D01*
X151735626Y-98137838D01*
X151617162Y-98019374D01*
X151617158Y-98019371D01*
X151477862Y-97926296D01*
X151323082Y-97862184D01*
X151323075Y-97862182D01*
X151199288Y-97837560D01*
X151158767Y-97829500D01*
X151158766Y-97829500D01*
X150184523Y-97829500D01*
X150132197Y-97807826D01*
X150110523Y-97755500D01*
X150132197Y-97703174D01*
X150771960Y-97063411D01*
X155185860Y-92649511D01*
X155202044Y-92621479D01*
X155225421Y-92580989D01*
X155245899Y-92504564D01*
X155245900Y-92504564D01*
X155245900Y-91868600D01*
X155267574Y-91816274D01*
X155285885Y-91797963D01*
X155341903Y-91700937D01*
X155370899Y-91592720D01*
X155370900Y-91592720D01*
X155370900Y-91480680D01*
X155370899Y-91480679D01*
X155341904Y-91372467D01*
X155341903Y-91372463D01*
X155285885Y-91275437D01*
X155206663Y-91196215D01*
X155121940Y-91147300D01*
X155109641Y-91140199D01*
X155109632Y-91140195D01*
X155001420Y-91111200D01*
X155001418Y-91111200D01*
X154889382Y-91111200D01*
X154889380Y-91111200D01*
X154781167Y-91140195D01*
X154781158Y-91140199D01*
X154684136Y-91196215D01*
X154680726Y-91199626D01*
X154628400Y-91221300D01*
X154576074Y-91199626D01*
X154554400Y-91147300D01*
X154554400Y-88947341D01*
X154576074Y-88895015D01*
X154628400Y-88873341D01*
X154647549Y-88875862D01*
X154677261Y-88883823D01*
X154690981Y-88887500D01*
X154690982Y-88887500D01*
X154803020Y-88887500D01*
X154803020Y-88887499D01*
X154911237Y-88858503D01*
X155008263Y-88802485D01*
X155087485Y-88723263D01*
X155143503Y-88626237D01*
X155172499Y-88518020D01*
X155172500Y-88518020D01*
X155172500Y-88405980D01*
X155172499Y-88405979D01*
X155143504Y-88297767D01*
X155143503Y-88297763D01*
X155087485Y-88200737D01*
X155008263Y-88121515D01*
X154970887Y-88099936D01*
X154911241Y-88065499D01*
X154911232Y-88065495D01*
X154803020Y-88036500D01*
X154803018Y-88036500D01*
X154690982Y-88036500D01*
X154647552Y-88048137D01*
X154591400Y-88040744D01*
X154556921Y-87995810D01*
X154554400Y-87976658D01*
X154554400Y-83320000D01*
X154576074Y-83267674D01*
X154594385Y-83249363D01*
X154650403Y-83152337D01*
X154679399Y-83044120D01*
X154679400Y-83044120D01*
X154679400Y-82932080D01*
X154679399Y-82932079D01*
X154650404Y-82823867D01*
X154650403Y-82823863D01*
X154594385Y-82726837D01*
X154515163Y-82647615D01*
X154418141Y-82591599D01*
X154418132Y-82591595D01*
X154309920Y-82562600D01*
X154309918Y-82562600D01*
X154197882Y-82562600D01*
X154169752Y-82570137D01*
X154113599Y-82562743D01*
X154079121Y-82517810D01*
X154076600Y-82498658D01*
X154076600Y-76109840D01*
X154076600Y-76109838D01*
X154056122Y-76033412D01*
X154042038Y-76009018D01*
X154015114Y-75962383D01*
X154005200Y-75925383D01*
X154005200Y-75896980D01*
X154005199Y-75896979D01*
X153976204Y-75788767D01*
X153976203Y-75788763D01*
X153920185Y-75691737D01*
X153840963Y-75612515D01*
X153743941Y-75556499D01*
X153743932Y-75556495D01*
X153635720Y-75527500D01*
X153635718Y-75527500D01*
X153523682Y-75527500D01*
X153523680Y-75527500D01*
X153415467Y-75556495D01*
X153415458Y-75556499D01*
X153318436Y-75612515D01*
X153239215Y-75691736D01*
X153183199Y-75788758D01*
X153183195Y-75788767D01*
X153154200Y-75896979D01*
X153154200Y-76009020D01*
X153183195Y-76117232D01*
X153183196Y-76117235D01*
X153183197Y-76117237D01*
X153239215Y-76214263D01*
X153318437Y-76293485D01*
X153415463Y-76349503D01*
X153420749Y-76350919D01*
X153465684Y-76385395D01*
X153475600Y-76422398D01*
X153475600Y-88570722D01*
X153453926Y-88623048D01*
X153401600Y-88644722D01*
X153382447Y-88642200D01*
X153261903Y-88609900D01*
X153261901Y-88609900D01*
X153136699Y-88609900D01*
X153136697Y-88609900D01*
X153015764Y-88642304D01*
X152907336Y-88704904D01*
X152818804Y-88793436D01*
X152756204Y-88901864D01*
X152723800Y-89022796D01*
X152723800Y-89069921D01*
X152702126Y-89122247D01*
X151917932Y-89906441D01*
X151875082Y-89980659D01*
X151875080Y-89980664D01*
X151864939Y-90018509D01*
X151864940Y-90018510D01*
X151852900Y-90063446D01*
X151852900Y-91670720D01*
X151831226Y-91723046D01*
X146164488Y-97389783D01*
X146112162Y-97411457D01*
X146059836Y-97389783D01*
X146048076Y-97374457D01*
X145998584Y-97288736D01*
X145919363Y-97209515D01*
X145822341Y-97153499D01*
X145822332Y-97153495D01*
X145714120Y-97124500D01*
X145714118Y-97124500D01*
X145602082Y-97124500D01*
X145602080Y-97124500D01*
X145493867Y-97153495D01*
X145493858Y-97153499D01*
X145396836Y-97209515D01*
X145317615Y-97288736D01*
X145261599Y-97385758D01*
X145261595Y-97385767D01*
X145232600Y-97493979D01*
X145232600Y-97606020D01*
X145261595Y-97714232D01*
X145261596Y-97714235D01*
X145261597Y-97714237D01*
X145317615Y-97811263D01*
X145396837Y-97890485D01*
X145435122Y-97912589D01*
X145482557Y-97939976D01*
X145517036Y-97984910D01*
X145509643Y-98041062D01*
X145497883Y-98056388D01*
X143197432Y-100356841D01*
X143154581Y-100431061D01*
X143154582Y-100431062D01*
X143132400Y-100513847D01*
X143132400Y-103633689D01*
X143110726Y-103686015D01*
X143058400Y-103707689D01*
X143006074Y-103686015D01*
X142964663Y-103644604D01*
X142856234Y-103582004D01*
X142856236Y-103582004D01*
X142735303Y-103549600D01*
X142735301Y-103549600D01*
X142610099Y-103549600D01*
X142610097Y-103549600D01*
X142489164Y-103582004D01*
X142380736Y-103644604D01*
X142292204Y-103733136D01*
X142285547Y-103744666D01*
X142240612Y-103779142D01*
X142184460Y-103771747D01*
X142169137Y-103759989D01*
X142115963Y-103706815D01*
X142018941Y-103650799D01*
X142018932Y-103650795D01*
X141910720Y-103621800D01*
X141910718Y-103621800D01*
X141798682Y-103621800D01*
X141798680Y-103621800D01*
X141690467Y-103650795D01*
X141690458Y-103650799D01*
X141593436Y-103706815D01*
X141514215Y-103786036D01*
X141458199Y-103883058D01*
X141458195Y-103883067D01*
X141445978Y-103928664D01*
X141411500Y-103973597D01*
X141355347Y-103980989D01*
X141310414Y-103946511D01*
X141300500Y-103909511D01*
X141300500Y-85928735D01*
X142399700Y-85928735D01*
X142399700Y-88595864D01*
X142420177Y-88672285D01*
X142420179Y-88672290D01*
X142437151Y-88701685D01*
X142459740Y-88740811D01*
X142994803Y-89275874D01*
X143016477Y-89328200D01*
X142994803Y-89380526D01*
X142872740Y-89502588D01*
X142833179Y-89571109D01*
X142833177Y-89571114D01*
X142812700Y-89647535D01*
X142812700Y-93588864D01*
X142833177Y-93665285D01*
X142833179Y-93665290D01*
X142846834Y-93688940D01*
X142872740Y-93733811D01*
X143046126Y-93907197D01*
X143067800Y-93959523D01*
X143067800Y-93985420D01*
X143096795Y-94093632D01*
X143096796Y-94093635D01*
X143096797Y-94093637D01*
X143152815Y-94190663D01*
X143232037Y-94269885D01*
X143329063Y-94325903D01*
X143437279Y-94354899D01*
X143437280Y-94354900D01*
X143437282Y-94354900D01*
X143549320Y-94354900D01*
X143549320Y-94354899D01*
X143657537Y-94325903D01*
X143754563Y-94269885D01*
X143833785Y-94190663D01*
X143889803Y-94093637D01*
X143918799Y-93985420D01*
X143918800Y-93985420D01*
X143918800Y-93873380D01*
X143918799Y-93873379D01*
X143889804Y-93765167D01*
X143889803Y-93765163D01*
X143833785Y-93668137D01*
X143754563Y-93588915D01*
X143754471Y-93588862D01*
X143657541Y-93532899D01*
X143657532Y-93532895D01*
X143549320Y-93503900D01*
X143549318Y-93503900D01*
X143523423Y-93503900D01*
X143471097Y-93482226D01*
X143435374Y-93446503D01*
X143413700Y-93394177D01*
X143413700Y-93391236D01*
X143435374Y-93338910D01*
X143487700Y-93317236D01*
X143506853Y-93319758D01*
X143524178Y-93324400D01*
X143533879Y-93326999D01*
X143533880Y-93327000D01*
X143533882Y-93327000D01*
X143645920Y-93327000D01*
X143645920Y-93326999D01*
X143754137Y-93298003D01*
X143851163Y-93241985D01*
X143930385Y-93162763D01*
X143986403Y-93065737D01*
X144015399Y-92957520D01*
X144015400Y-92957520D01*
X144015400Y-92845480D01*
X144015399Y-92845479D01*
X143986404Y-92737267D01*
X143986403Y-92737263D01*
X143954090Y-92681296D01*
X145483600Y-92681296D01*
X145483600Y-92806503D01*
X145516004Y-92927435D01*
X145533374Y-92957520D01*
X145578605Y-93035864D01*
X145667136Y-93124395D01*
X145775564Y-93186995D01*
X145775563Y-93186995D01*
X145845386Y-93205704D01*
X145896496Y-93219399D01*
X145896497Y-93219400D01*
X145896499Y-93219400D01*
X146021703Y-93219400D01*
X146021703Y-93219399D01*
X146142636Y-93186995D01*
X146251064Y-93124395D01*
X146339595Y-93035864D01*
X146402195Y-92927436D01*
X146434599Y-92806503D01*
X146434600Y-92806503D01*
X146434600Y-92681297D01*
X146434599Y-92681296D01*
X146402195Y-92560364D01*
X146339595Y-92451936D01*
X146251063Y-92363404D01*
X146142634Y-92300804D01*
X146142636Y-92300804D01*
X146021703Y-92268400D01*
X146021701Y-92268400D01*
X145896499Y-92268400D01*
X145896497Y-92268400D01*
X145775564Y-92300804D01*
X145667136Y-92363404D01*
X145578604Y-92451936D01*
X145516004Y-92560364D01*
X145483600Y-92681296D01*
X143954090Y-92681296D01*
X143930385Y-92640237D01*
X143851163Y-92561015D01*
X143766099Y-92511903D01*
X143754141Y-92504999D01*
X143754132Y-92504995D01*
X143645920Y-92476000D01*
X143645918Y-92476000D01*
X143533882Y-92476000D01*
X143533881Y-92476000D01*
X143506851Y-92483242D01*
X143450699Y-92475848D01*
X143416221Y-92430914D01*
X143413700Y-92411763D01*
X143413700Y-89842223D01*
X143435374Y-89789897D01*
X143531292Y-89693979D01*
X145442000Y-89693979D01*
X145442000Y-89806020D01*
X145470995Y-89914232D01*
X145470999Y-89914241D01*
X145509349Y-89980664D01*
X145527015Y-90011263D01*
X145606237Y-90090485D01*
X145703263Y-90146503D01*
X145811479Y-90175499D01*
X145811480Y-90175500D01*
X145811482Y-90175500D01*
X145923520Y-90175500D01*
X145923520Y-90175499D01*
X146031737Y-90146503D01*
X146128763Y-90090485D01*
X146207985Y-90011263D01*
X146264003Y-89914237D01*
X146292999Y-89806020D01*
X146293000Y-89806020D01*
X146293000Y-89693980D01*
X146292999Y-89693979D01*
X146285028Y-89664232D01*
X146264003Y-89585763D01*
X146207985Y-89488737D01*
X146128763Y-89409515D01*
X146054358Y-89366557D01*
X146031741Y-89353499D01*
X146031732Y-89353495D01*
X145923520Y-89324500D01*
X145923518Y-89324500D01*
X145811482Y-89324500D01*
X145811480Y-89324500D01*
X145703267Y-89353495D01*
X145703258Y-89353499D01*
X145606236Y-89409515D01*
X145527015Y-89488736D01*
X145470999Y-89585758D01*
X145470995Y-89585767D01*
X145442000Y-89693979D01*
X143531292Y-89693979D01*
X145419097Y-87806174D01*
X145471423Y-87784500D01*
X146833277Y-87784500D01*
X146885603Y-87806174D01*
X148393660Y-89314231D01*
X148415334Y-89366557D01*
X148412813Y-89385708D01*
X148397200Y-89443981D01*
X148397200Y-89556020D01*
X148426195Y-89664232D01*
X148426199Y-89664241D01*
X148443369Y-89693980D01*
X148482215Y-89761263D01*
X148561437Y-89840485D01*
X148658463Y-89896503D01*
X148708554Y-89909924D01*
X148753485Y-89944401D01*
X148763400Y-89981402D01*
X148763400Y-90056020D01*
X148792395Y-90164232D01*
X148792399Y-90164241D01*
X148824275Y-90219452D01*
X148848415Y-90261263D01*
X148927637Y-90340485D01*
X149024663Y-90396503D01*
X149132879Y-90425499D01*
X149132880Y-90425500D01*
X149132882Y-90425500D01*
X149244920Y-90425500D01*
X149244920Y-90425499D01*
X149353137Y-90396503D01*
X149450163Y-90340485D01*
X149529385Y-90261263D01*
X149585403Y-90164237D01*
X149614399Y-90056020D01*
X149614400Y-90056020D01*
X149614400Y-90005360D01*
X149624315Y-89968359D01*
X149634919Y-89949992D01*
X149634921Y-89949989D01*
X149655399Y-89873564D01*
X149655400Y-89873564D01*
X149655400Y-89164236D01*
X149655399Y-89164235D01*
X149634922Y-89087814D01*
X149634920Y-89087809D01*
X149597386Y-89022799D01*
X149595360Y-89019289D01*
X149539411Y-88963340D01*
X147109674Y-86533603D01*
X147088000Y-86481277D01*
X147088000Y-85871893D01*
X147109674Y-85819567D01*
X147162000Y-85797893D01*
X147214326Y-85819567D01*
X147227932Y-85838295D01*
X147302185Y-85984022D01*
X147431758Y-86162365D01*
X147587635Y-86318242D01*
X147765978Y-86447815D01*
X147962394Y-86547895D01*
X147962397Y-86547896D01*
X147962396Y-86547896D01*
X148172038Y-86616012D01*
X148172044Y-86616013D01*
X148172049Y-86616015D01*
X148280913Y-86633257D01*
X148389776Y-86650500D01*
X148389778Y-86650500D01*
X148610224Y-86650500D01*
X148697313Y-86636706D01*
X148827951Y-86616015D01*
X148827958Y-86616012D01*
X148827961Y-86616012D01*
X148982696Y-86565736D01*
X149037606Y-86547895D01*
X149234022Y-86447815D01*
X149412365Y-86318242D01*
X149568242Y-86162365D01*
X149697815Y-85984022D01*
X149797895Y-85787606D01*
X149866015Y-85577951D01*
X149900500Y-85360222D01*
X149900500Y-85139778D01*
X149866015Y-84922049D01*
X149866013Y-84922044D01*
X149866012Y-84922038D01*
X149797896Y-84712397D01*
X149797895Y-84712396D01*
X149797895Y-84712394D01*
X149697815Y-84515978D01*
X149568242Y-84337635D01*
X149412365Y-84181758D01*
X149308441Y-84106253D01*
X149234024Y-84052186D01*
X149037602Y-83952103D01*
X149037603Y-83952103D01*
X148827961Y-83883987D01*
X148827952Y-83883985D01*
X148827951Y-83883985D01*
X148760003Y-83873223D01*
X148684165Y-83861211D01*
X148635875Y-83831618D01*
X148622653Y-83776545D01*
X148652246Y-83728255D01*
X148658743Y-83724036D01*
X148706463Y-83696485D01*
X148785685Y-83617263D01*
X148841703Y-83520237D01*
X148870699Y-83412020D01*
X148870700Y-83412020D01*
X148870700Y-83299980D01*
X148870699Y-83299979D01*
X148867850Y-83289348D01*
X148841703Y-83191763D01*
X148785685Y-83094737D01*
X148706463Y-83015515D01*
X148609441Y-82959499D01*
X148609432Y-82959495D01*
X148501220Y-82930500D01*
X148501218Y-82930500D01*
X148389182Y-82930500D01*
X148389180Y-82930500D01*
X148280967Y-82959495D01*
X148280958Y-82959499D01*
X148183936Y-83015515D01*
X148165626Y-83033826D01*
X148113300Y-83055500D01*
X147927436Y-83055500D01*
X147851014Y-83075977D01*
X147851009Y-83075979D01*
X147802323Y-83104089D01*
X147782488Y-83115540D01*
X146547040Y-84350988D01*
X146507479Y-84419509D01*
X146507477Y-84419514D01*
X146487000Y-84495935D01*
X146487000Y-86675964D01*
X146507477Y-86752385D01*
X146507479Y-86752390D01*
X146547040Y-86820911D01*
X146783303Y-87057174D01*
X146804977Y-87109500D01*
X146783303Y-87161826D01*
X146730977Y-87183500D01*
X145355862Y-87183500D01*
X145276738Y-87183500D01*
X145200312Y-87203978D01*
X145200311Y-87203978D01*
X145200309Y-87203979D01*
X145200307Y-87203980D01*
X145131792Y-87243537D01*
X143524426Y-88850903D01*
X143472100Y-88872577D01*
X143419774Y-88850903D01*
X143404635Y-88835764D01*
X143382961Y-88783438D01*
X143404635Y-88731112D01*
X143419954Y-88719357D01*
X143450563Y-88701685D01*
X143529785Y-88622463D01*
X143585803Y-88525437D01*
X143614799Y-88417220D01*
X143614800Y-88417220D01*
X143614800Y-88305180D01*
X143614799Y-88305179D01*
X143585804Y-88196967D01*
X143585803Y-88196963D01*
X143529785Y-88099937D01*
X143511474Y-88081626D01*
X143489800Y-88029300D01*
X143489800Y-86444523D01*
X143511474Y-86392197D01*
X144042574Y-85861097D01*
X144094900Y-85839423D01*
X144147226Y-85861097D01*
X144168900Y-85913423D01*
X144168900Y-86495100D01*
X144147226Y-86547426D01*
X144128915Y-86565736D01*
X144072899Y-86662758D01*
X144072895Y-86662767D01*
X144043900Y-86770979D01*
X144043900Y-86883020D01*
X144072895Y-86991232D01*
X144072896Y-86991235D01*
X144072897Y-86991237D01*
X144128915Y-87088263D01*
X144208137Y-87167485D01*
X144305163Y-87223503D01*
X144413379Y-87252499D01*
X144413380Y-87252500D01*
X144413382Y-87252500D01*
X144525420Y-87252500D01*
X144525420Y-87252499D01*
X144633637Y-87223503D01*
X144730663Y-87167485D01*
X144809885Y-87088263D01*
X144865903Y-86991237D01*
X144894899Y-86883020D01*
X144894900Y-86883020D01*
X144894900Y-86770980D01*
X144894899Y-86770979D01*
X144865904Y-86662767D01*
X144865903Y-86662763D01*
X144809885Y-86565737D01*
X144791574Y-86547426D01*
X144769900Y-86495100D01*
X144769900Y-85883323D01*
X144791574Y-85830997D01*
X150477797Y-80144774D01*
X150530123Y-80123100D01*
X150556020Y-80123100D01*
X150556020Y-80123099D01*
X150664237Y-80094103D01*
X150761263Y-80038085D01*
X150840485Y-79958863D01*
X150896503Y-79861837D01*
X150925499Y-79753620D01*
X150925500Y-79753620D01*
X150925500Y-79641580D01*
X150925499Y-79641579D01*
X150918976Y-79617236D01*
X150896503Y-79533363D01*
X150840485Y-79436337D01*
X150761263Y-79357115D01*
X150761262Y-79357114D01*
X150708661Y-79326744D01*
X150674183Y-79281811D01*
X150681577Y-79225658D01*
X150693332Y-79210337D01*
X151325275Y-78578395D01*
X151377600Y-78556722D01*
X151429926Y-78578396D01*
X151451600Y-78630722D01*
X151451600Y-85115077D01*
X151429926Y-85167403D01*
X151344803Y-85252526D01*
X151292477Y-85274200D01*
X151266580Y-85274200D01*
X151158367Y-85303195D01*
X151158358Y-85303199D01*
X151061336Y-85359215D01*
X150982115Y-85438436D01*
X150926099Y-85535458D01*
X150926095Y-85535467D01*
X150897100Y-85643679D01*
X150897100Y-85755720D01*
X150926095Y-85863932D01*
X150926099Y-85863941D01*
X150982115Y-85960963D01*
X151000426Y-85979274D01*
X151022100Y-86031600D01*
X151022100Y-90353377D01*
X151000426Y-90405703D01*
X150322203Y-91083926D01*
X150269877Y-91105600D01*
X150243980Y-91105600D01*
X150135767Y-91134595D01*
X150135758Y-91134599D01*
X150038736Y-91190615D01*
X149959515Y-91269836D01*
X149903499Y-91366858D01*
X149903495Y-91366867D01*
X149874500Y-91475079D01*
X149874500Y-91587120D01*
X149903495Y-91695332D01*
X149903496Y-91695335D01*
X149903497Y-91695337D01*
X149959515Y-91792363D01*
X150038737Y-91871585D01*
X150135763Y-91927603D01*
X150243979Y-91956599D01*
X150243980Y-91956600D01*
X150243982Y-91956600D01*
X150356020Y-91956600D01*
X150356020Y-91956599D01*
X150464237Y-91927603D01*
X150561263Y-91871585D01*
X150640485Y-91792363D01*
X150696503Y-91695337D01*
X150725499Y-91587120D01*
X150725500Y-91587120D01*
X150725500Y-91561222D01*
X150747173Y-91508897D01*
X151563060Y-90693011D01*
X151602622Y-90624488D01*
X151623100Y-90548062D01*
X151623100Y-90468938D01*
X151623100Y-86031600D01*
X151644774Y-85979274D01*
X151663085Y-85960963D01*
X151719103Y-85863937D01*
X151748099Y-85755720D01*
X151748100Y-85755720D01*
X151748100Y-85729822D01*
X151769773Y-85677497D01*
X151992560Y-85454711D01*
X152032122Y-85386188D01*
X152052600Y-85309762D01*
X152052600Y-85230638D01*
X152052600Y-69604838D01*
X152038466Y-69552088D01*
X152038466Y-69552087D01*
X152035928Y-69542618D01*
X152032122Y-69528412D01*
X152001479Y-69475337D01*
X151992562Y-69459892D01*
X151992561Y-69459891D01*
X151992560Y-69459889D01*
X149673311Y-67140640D01*
X149670148Y-67138814D01*
X149604790Y-67101079D01*
X149604785Y-67101077D01*
X149528364Y-67080600D01*
X149528362Y-67080600D01*
X146293538Y-67080600D01*
X146293536Y-67080600D01*
X146217114Y-67101077D01*
X146217108Y-67101080D01*
X146151751Y-67138814D01*
X146095598Y-67146206D01*
X146077751Y-67138814D01*
X146014991Y-67102580D01*
X146014985Y-67102577D01*
X145938564Y-67082100D01*
X145938562Y-67082100D01*
X144492938Y-67082100D01*
X144492936Y-67082100D01*
X144416514Y-67102577D01*
X144416509Y-67102579D01*
X144350587Y-67140640D01*
X144350586Y-67140639D01*
X144347995Y-67142135D01*
X144347990Y-67142139D01*
X143235789Y-68254340D01*
X143179840Y-68310288D01*
X143140279Y-68378809D01*
X143140277Y-68378814D01*
X143119800Y-68455235D01*
X143119800Y-69404700D01*
X143098126Y-69457026D01*
X143079815Y-69475336D01*
X143023799Y-69572358D01*
X143023795Y-69572367D01*
X142994800Y-69680579D01*
X142994800Y-69792620D01*
X143023795Y-69900832D01*
X143023796Y-69900835D01*
X143023797Y-69900837D01*
X143079815Y-69997863D01*
X143159037Y-70077085D01*
X143256063Y-70133103D01*
X143364279Y-70162099D01*
X143364280Y-70162100D01*
X143364282Y-70162100D01*
X143476320Y-70162100D01*
X143476320Y-70162099D01*
X143507095Y-70153853D01*
X145149500Y-70153853D01*
X145149500Y-70246146D01*
X145173384Y-70335284D01*
X145173386Y-70335289D01*
X145219528Y-70415208D01*
X145219529Y-70415209D01*
X145219531Y-70415212D01*
X145284788Y-70480469D01*
X145364712Y-70526614D01*
X145364713Y-70526614D01*
X145364715Y-70526615D01*
X145409284Y-70538557D01*
X145453853Y-70550499D01*
X145453854Y-70550500D01*
X145453856Y-70550500D01*
X145546146Y-70550500D01*
X145546146Y-70550499D01*
X145635288Y-70526614D01*
X145715212Y-70480469D01*
X145780469Y-70415212D01*
X145826614Y-70335288D01*
X145850499Y-70246146D01*
X145850500Y-70246146D01*
X145850500Y-70153854D01*
X145850499Y-70153853D01*
X145844939Y-70133104D01*
X145837074Y-70103748D01*
X145826615Y-70064715D01*
X145826613Y-70064710D01*
X145780471Y-69984791D01*
X145780470Y-69984790D01*
X145780469Y-69984788D01*
X145715212Y-69919531D01*
X145715209Y-69919529D01*
X145715208Y-69919528D01*
X145635289Y-69873386D01*
X145635284Y-69873384D01*
X145546146Y-69849500D01*
X145546144Y-69849500D01*
X145453856Y-69849500D01*
X145453854Y-69849500D01*
X145364715Y-69873384D01*
X145364710Y-69873386D01*
X145284791Y-69919528D01*
X145219528Y-69984791D01*
X145173386Y-70064710D01*
X145173384Y-70064715D01*
X145149500Y-70153853D01*
X143507095Y-70153853D01*
X143584537Y-70133103D01*
X143681563Y-70077085D01*
X143760785Y-69997863D01*
X143816803Y-69900837D01*
X143845799Y-69792620D01*
X143845800Y-69792620D01*
X143845800Y-69680580D01*
X143845799Y-69680579D01*
X143825504Y-69604838D01*
X143816803Y-69572363D01*
X143760785Y-69475337D01*
X143742474Y-69457026D01*
X143720800Y-69404700D01*
X143720800Y-68649922D01*
X143742473Y-68597597D01*
X144221192Y-68118877D01*
X144273517Y-68097204D01*
X144325843Y-68118878D01*
X144337602Y-68134203D01*
X144359114Y-68171462D01*
X144359115Y-68171463D01*
X144438337Y-68250685D01*
X144535363Y-68306703D01*
X144643579Y-68335699D01*
X144643580Y-68335700D01*
X144643582Y-68335700D01*
X144755620Y-68335700D01*
X144755620Y-68335699D01*
X144863837Y-68306703D01*
X144960863Y-68250685D01*
X145040085Y-68171463D01*
X145066613Y-68125514D01*
X145111546Y-68091036D01*
X145167698Y-68098428D01*
X145194784Y-68125513D01*
X145217214Y-68164362D01*
X145217215Y-68164363D01*
X145296437Y-68243585D01*
X145393463Y-68299603D01*
X145501679Y-68328599D01*
X145501680Y-68328600D01*
X145501682Y-68328600D01*
X145613720Y-68328600D01*
X145613720Y-68328599D01*
X145721937Y-68299603D01*
X145818963Y-68243585D01*
X145898185Y-68164363D01*
X145954203Y-68067337D01*
X145983199Y-67959120D01*
X145983200Y-67959120D01*
X145983200Y-67847080D01*
X145983166Y-67846954D01*
X145983174Y-67846887D01*
X145982567Y-67842271D01*
X145983803Y-67842108D01*
X145990557Y-67790801D01*
X146035490Y-67756322D01*
X146054644Y-67753800D01*
X146300464Y-67753800D01*
X146300464Y-67753799D01*
X146376889Y-67733321D01*
X146445411Y-67693760D01*
X146445411Y-67693759D01*
X146449301Y-67691514D01*
X146486301Y-67681600D01*
X149333677Y-67681600D01*
X149386003Y-67703274D01*
X151429926Y-69747197D01*
X151451600Y-69799523D01*
X151451600Y-70032269D01*
X151429926Y-70084595D01*
X151377600Y-70106269D01*
X151358448Y-70103748D01*
X151306018Y-70089700D01*
X151193982Y-70089700D01*
X151193980Y-70089700D01*
X151085767Y-70118695D01*
X151085758Y-70118699D01*
X150988736Y-70174715D01*
X150909515Y-70253936D01*
X150853499Y-70350958D01*
X150853495Y-70350967D01*
X150824500Y-70459179D01*
X150824500Y-70571220D01*
X150853495Y-70679432D01*
X150853499Y-70679441D01*
X150909515Y-70776463D01*
X150927826Y-70794774D01*
X150949500Y-70847100D01*
X150949500Y-78073576D01*
X150927826Y-78125902D01*
X147739926Y-81313802D01*
X147687600Y-81335476D01*
X147635274Y-81313802D01*
X147613600Y-81261476D01*
X147613600Y-72783036D01*
X147613599Y-72783035D01*
X147609722Y-72768566D01*
X147609722Y-72768563D01*
X147593123Y-72706616D01*
X147593122Y-72706612D01*
X147553560Y-72638089D01*
X146944674Y-72029203D01*
X146923198Y-71982282D01*
X146923000Y-71979578D01*
X146923000Y-71950982D01*
X146920117Y-71940223D01*
X146920117Y-71940220D01*
X146918096Y-71932679D01*
X149724500Y-71932679D01*
X149724500Y-72044720D01*
X149753495Y-72152932D01*
X149753499Y-72152941D01*
X149764065Y-72171241D01*
X149809515Y-72249963D01*
X149888737Y-72329185D01*
X149985763Y-72385203D01*
X150093979Y-72414199D01*
X150093980Y-72414200D01*
X150093982Y-72414200D01*
X150206020Y-72414200D01*
X150206020Y-72414199D01*
X150314237Y-72385203D01*
X150411263Y-72329185D01*
X150490485Y-72249963D01*
X150546503Y-72152937D01*
X150575499Y-72044720D01*
X150575500Y-72044720D01*
X150575500Y-71932680D01*
X150575499Y-71932679D01*
X150551407Y-71842767D01*
X150546503Y-71824463D01*
X150490485Y-71727437D01*
X150411263Y-71648215D01*
X150345930Y-71610495D01*
X150314241Y-71592199D01*
X150314232Y-71592195D01*
X150206020Y-71563200D01*
X150206018Y-71563200D01*
X150093982Y-71563200D01*
X150093980Y-71563200D01*
X149985767Y-71592195D01*
X149985758Y-71592199D01*
X149888736Y-71648215D01*
X149809515Y-71727436D01*
X149753499Y-71824458D01*
X149753495Y-71824467D01*
X149724500Y-71932679D01*
X146918096Y-71932679D01*
X146894004Y-71842767D01*
X146894003Y-71842763D01*
X146837985Y-71745737D01*
X146758763Y-71666515D01*
X146661741Y-71610499D01*
X146661732Y-71610495D01*
X146553520Y-71581500D01*
X146553518Y-71581500D01*
X146441482Y-71581500D01*
X146441480Y-71581500D01*
X146333267Y-71610495D01*
X146333258Y-71610499D01*
X146236236Y-71666515D01*
X146157015Y-71745736D01*
X146100999Y-71842758D01*
X146100995Y-71842767D01*
X146072000Y-71950979D01*
X146072000Y-72063020D01*
X146100995Y-72171232D01*
X146100999Y-72171241D01*
X146157015Y-72268263D01*
X146201726Y-72312974D01*
X146223400Y-72365300D01*
X146201726Y-72417626D01*
X146151615Y-72467736D01*
X146095599Y-72564758D01*
X146095595Y-72564767D01*
X146066600Y-72672979D01*
X146066600Y-72785020D01*
X146095595Y-72893232D01*
X146095599Y-72893241D01*
X146118135Y-72932274D01*
X146151615Y-72990263D01*
X146230837Y-73069485D01*
X146327863Y-73125503D01*
X146436079Y-73154499D01*
X146436080Y-73154500D01*
X146436082Y-73154500D01*
X146548120Y-73154500D01*
X146548120Y-73154499D01*
X146656337Y-73125503D01*
X146753363Y-73069485D01*
X146832585Y-72990263D01*
X146866066Y-72932271D01*
X146910996Y-72897795D01*
X146967149Y-72905186D01*
X146982476Y-72916947D01*
X146990926Y-72925397D01*
X147012600Y-72977723D01*
X147012600Y-79207873D01*
X146990926Y-79260199D01*
X146938600Y-79281873D01*
X146919448Y-79279352D01*
X146884918Y-79270100D01*
X146772882Y-79270100D01*
X146772880Y-79270100D01*
X146664667Y-79299095D01*
X146664658Y-79299099D01*
X146567636Y-79355115D01*
X146549326Y-79373426D01*
X146497000Y-79395100D01*
X146460436Y-79395100D01*
X146384014Y-79415577D01*
X146384009Y-79415579D01*
X146348057Y-79436337D01*
X146315488Y-79455140D01*
X144984303Y-80786326D01*
X144931977Y-80808000D01*
X144906080Y-80808000D01*
X144797867Y-80836995D01*
X144797858Y-80836999D01*
X144700836Y-80893015D01*
X144621615Y-80972236D01*
X144565599Y-81069258D01*
X144565595Y-81069267D01*
X144536600Y-81177479D01*
X144536600Y-81289520D01*
X144565595Y-81397732D01*
X144565596Y-81397735D01*
X144565597Y-81397737D01*
X144621615Y-81494763D01*
X144700837Y-81573985D01*
X144797863Y-81630003D01*
X144906079Y-81658999D01*
X144906080Y-81659000D01*
X144906082Y-81659000D01*
X145018120Y-81659000D01*
X145018120Y-81658999D01*
X145126337Y-81630003D01*
X145223363Y-81573985D01*
X145302585Y-81494763D01*
X145358603Y-81397737D01*
X145387599Y-81289520D01*
X145387600Y-81289520D01*
X145387600Y-81263622D01*
X145409273Y-81211297D01*
X146538168Y-80082401D01*
X146590493Y-80060728D01*
X146627488Y-80070640D01*
X146664663Y-80092103D01*
X146772879Y-80121099D01*
X146772880Y-80121100D01*
X146772882Y-80121100D01*
X146884919Y-80121100D01*
X146900869Y-80116825D01*
X146919446Y-80111848D01*
X146975599Y-80119240D01*
X147010078Y-80164172D01*
X147012600Y-80183326D01*
X147012600Y-81200277D01*
X146990926Y-81252603D01*
X142459740Y-85783788D01*
X142420179Y-85852309D01*
X142420177Y-85852314D01*
X142399700Y-85928735D01*
X141300500Y-85928735D01*
X141300500Y-79822479D01*
X143238200Y-79822479D01*
X143238200Y-79934520D01*
X143267195Y-80042732D01*
X143267199Y-80042741D01*
X143295698Y-80092103D01*
X143323215Y-80139763D01*
X143402437Y-80218985D01*
X143499463Y-80275003D01*
X143607679Y-80303999D01*
X143607680Y-80304000D01*
X143607682Y-80304000D01*
X143719720Y-80304000D01*
X143719720Y-80303999D01*
X143827937Y-80275003D01*
X143924963Y-80218985D01*
X144004185Y-80139763D01*
X144060203Y-80042737D01*
X144089199Y-79934520D01*
X144089200Y-79934520D01*
X144089200Y-79822480D01*
X144089199Y-79822479D01*
X144070748Y-79753620D01*
X144060203Y-79714263D01*
X144004185Y-79617237D01*
X143924963Y-79538015D01*
X143846160Y-79492518D01*
X143827941Y-79481999D01*
X143827932Y-79481995D01*
X143719720Y-79453000D01*
X143719718Y-79453000D01*
X143607682Y-79453000D01*
X143607680Y-79453000D01*
X143499467Y-79481995D01*
X143499458Y-79481999D01*
X143402436Y-79538015D01*
X143323215Y-79617236D01*
X143267199Y-79714258D01*
X143267195Y-79714267D01*
X143238200Y-79822479D01*
X141300500Y-79822479D01*
X141300500Y-79433279D01*
X144731200Y-79433279D01*
X144731200Y-79545320D01*
X144760195Y-79653532D01*
X144760196Y-79653535D01*
X144760197Y-79653537D01*
X144816215Y-79750563D01*
X144895437Y-79829785D01*
X144992463Y-79885803D01*
X145100679Y-79914799D01*
X145100680Y-79914800D01*
X145100682Y-79914800D01*
X145212720Y-79914800D01*
X145212720Y-79914799D01*
X145320937Y-79885803D01*
X145417963Y-79829785D01*
X145497185Y-79750563D01*
X145553203Y-79653537D01*
X145582199Y-79545320D01*
X145582200Y-79545320D01*
X145582200Y-79433280D01*
X145582199Y-79433279D01*
X145577456Y-79415579D01*
X145553203Y-79325063D01*
X145497185Y-79228037D01*
X145417963Y-79148815D01*
X145320941Y-79092799D01*
X145320932Y-79092795D01*
X145212720Y-79063800D01*
X145212718Y-79063800D01*
X145100682Y-79063800D01*
X145100680Y-79063800D01*
X144992467Y-79092795D01*
X144992458Y-79092799D01*
X144895436Y-79148815D01*
X144816215Y-79228036D01*
X144760199Y-79325058D01*
X144760195Y-79325067D01*
X144731200Y-79433279D01*
X141300500Y-79433279D01*
X141300500Y-75896979D01*
X142994800Y-75896979D01*
X142994800Y-76009020D01*
X143023795Y-76117232D01*
X143023796Y-76117235D01*
X143023797Y-76117237D01*
X143079815Y-76214263D01*
X143159037Y-76293485D01*
X143256063Y-76349503D01*
X143364279Y-76378499D01*
X143364280Y-76378500D01*
X143364282Y-76378500D01*
X143476320Y-76378500D01*
X143476320Y-76378499D01*
X143584537Y-76349503D01*
X143681563Y-76293485D01*
X143760785Y-76214263D01*
X143816803Y-76117237D01*
X143845799Y-76009020D01*
X143845800Y-76009020D01*
X143845800Y-75896980D01*
X143845799Y-75896979D01*
X143816804Y-75788767D01*
X143816803Y-75788763D01*
X143760785Y-75691737D01*
X143681563Y-75612515D01*
X143584541Y-75556499D01*
X143584532Y-75556495D01*
X143476320Y-75527500D01*
X143476318Y-75527500D01*
X143364282Y-75527500D01*
X143364280Y-75527500D01*
X143256067Y-75556495D01*
X143256058Y-75556499D01*
X143159036Y-75612515D01*
X143079815Y-75691736D01*
X143023799Y-75788758D01*
X143023795Y-75788767D01*
X142994800Y-75896979D01*
X141300500Y-75896979D01*
X141300500Y-73473779D01*
X142981100Y-73473779D01*
X142981100Y-73585820D01*
X143010095Y-73694032D01*
X143010096Y-73694035D01*
X143010097Y-73694037D01*
X143066115Y-73791063D01*
X143145337Y-73870285D01*
X143242363Y-73926303D01*
X143350579Y-73955299D01*
X143350580Y-73955300D01*
X143350582Y-73955300D01*
X143462620Y-73955300D01*
X143462620Y-73955299D01*
X143570837Y-73926303D01*
X143667863Y-73870285D01*
X143747085Y-73791063D01*
X143803103Y-73694037D01*
X143832099Y-73585820D01*
X143832100Y-73585820D01*
X143832100Y-73473780D01*
X143832099Y-73473779D01*
X143803104Y-73365567D01*
X143803103Y-73365563D01*
X143747085Y-73268537D01*
X143667863Y-73189315D01*
X143607560Y-73154499D01*
X143570841Y-73133299D01*
X143570832Y-73133295D01*
X143462620Y-73104300D01*
X143462618Y-73104300D01*
X143350582Y-73104300D01*
X143350580Y-73104300D01*
X143242367Y-73133295D01*
X143242358Y-73133299D01*
X143145336Y-73189315D01*
X143066115Y-73268536D01*
X143010099Y-73365558D01*
X143010095Y-73365567D01*
X142981100Y-73473779D01*
X141300500Y-73473779D01*
X141300500Y-65374500D01*
X141322174Y-65322174D01*
X141374500Y-65300500D01*
X155625500Y-65300500D01*
X155677826Y-65322174D01*
G37*
%TD.AperFunction*%
%TD*%
M02*
