%TF.GenerationSoftware,KiCad,Pcbnew,10.0.5*%
%TF.CreationDate,2026-08-23T15:01:11+08:00*%
%TF.ProjectId,wand,77616e64-2e6b-4696-9361-645f70636258,rev?*%
%TF.SameCoordinates,Original*%
%TF.FileFunction,Soldermask,Top*%
%TF.FilePolarity,Negative*%
%FSLAX46Y46*%
G04 Gerber Fmt 4.6, Leading zero omitted, Abs format (unit mm)*
G04 Created by KiCad (PCBNEW 10.0.5) date 2026-08-23 15:01:11*
%MOMM*%
%LPD*%
G01*
G04 APERTURE LIST*
G04 Aperture macros list*
%AMRoundRect*
0 Rectangle with rounded corners*
0 $1 Rounding radius*
0 $2 $3 $4 $5 $6 $7 $8 $9 X,Y pos of 4 corners*
0 Add a 4 corners polygon primitive as box body*
4,1,4,$2,$3,$4,$5,$6,$7,$8,$9,$2,$3,0*
0 Add four circle primitives for the rounded corners*
1,1,$1+$1,$2,$3*
1,1,$1+$1,$4,$5*
1,1,$1+$1,$6,$7*
1,1,$1+$1,$8,$9*
0 Add four rect primitives between the rounded corners*
20,1,$1+$1,$2,$3,$4,$5,0*
20,1,$1+$1,$4,$5,$6,$7,0*
20,1,$1+$1,$6,$7,$8,$9,0*
20,1,$1+$1,$8,$9,$2,$3,0*%
G04 Aperture macros list end*
%ADD10R,1.150000X0.700000*%
%ADD11R,0.700000X1.150000*%
%ADD12R,0.700000X0.700000*%
%ADD13RoundRect,0.070000X-0.242500X-0.105000X0.242500X-0.105000X0.242500X0.105000X-0.242500X0.105000X0*%
%ADD14RoundRect,0.070000X0.105000X-0.242500X0.105000X0.242500X-0.105000X0.242500X-0.105000X-0.242500X0*%
%ADD15RoundRect,0.060000X-0.665000X-0.090000X0.665000X-0.090000X0.665000X0.090000X-0.665000X0.090000X0*%
%ADD16RoundRect,0.050000X-0.250000X-0.075000X0.250000X-0.075000X0.250000X0.075000X-0.250000X0.075000X0*%
%ADD17RoundRect,0.240000X-0.360000X-0.760000X0.360000X-0.760000X0.360000X0.760000X-0.360000X0.760000X0*%
%ADD18RoundRect,0.196000X-1.504000X0.294000X-1.504000X-0.294000X1.504000X-0.294000X1.504000X0.294000X0*%
%ADD19RoundRect,0.040000X-0.210000X-0.060000X0.210000X-0.060000X0.210000X0.060000X-0.210000X0.060000X0*%
%ADD20RoundRect,0.180000X-0.270000X-0.570000X0.270000X-0.570000X0.270000X0.570000X-0.270000X0.570000X0*%
%ADD21RoundRect,0.120000X-0.180000X-0.655000X0.180000X-0.655000X0.180000X0.655000X-0.180000X0.655000X0*%
%ADD22RoundRect,0.240000X-0.360000X-0.660000X0.360000X-0.660000X0.360000X0.660000X-0.360000X0.660000X0*%
%ADD23RoundRect,0.220000X0.330000X-0.680000X0.330000X0.680000X-0.330000X0.680000X-0.330000X-0.680000X0*%
%ADD24RoundRect,0.120000X-0.480000X-0.180000X0.480000X-0.180000X0.480000X0.180000X-0.480000X0.180000X0*%
%ADD25RoundRect,0.175000X-0.262500X-0.300000X0.262500X-0.300000X0.262500X0.300000X-0.262500X0.300000X0*%
%ADD26RoundRect,0.104000X0.396000X-0.156000X0.396000X0.156000X-0.396000X0.156000X-0.396000X-0.156000X0*%
%ADD27RoundRect,0.054000X0.446000X-0.081000X0.446000X0.081000X-0.446000X0.081000X-0.446000X-0.081000X0*%
%ADD28O,2.300000X1.300000*%
%ADD29O,2.600000X1.300000*%
%ADD30C,0.600000*%
%ADD31O,0.850000X0.600000*%
%ADD32RoundRect,0.200000X0.800000X-0.300000X0.800000X0.300000X-0.800000X0.300000X-0.800000X-0.300000X0*%
%ADD33RoundRect,0.108000X-0.162000X-0.212000X0.162000X-0.212000X0.162000X0.212000X-0.162000X0.212000X0*%
%ADD34RoundRect,0.108000X0.162000X0.212000X-0.162000X0.212000X-0.162000X-0.212000X0.162000X-0.212000X0*%
%ADD35RoundRect,0.108000X-0.212000X0.162000X-0.212000X-0.162000X0.212000X-0.162000X0.212000X0.162000X0*%
%ADD36RoundRect,0.200000X-0.300000X-0.525000X0.300000X-0.525000X0.300000X0.525000X-0.300000X0.525000X0*%
%ADD37RoundRect,0.200000X0.300000X0.525000X-0.300000X0.525000X-0.300000X-0.525000X0.300000X-0.525000X0*%
%ADD38RoundRect,0.200000X0.525000X-0.300000X0.525000X0.300000X-0.525000X0.300000X-0.525000X-0.300000X0*%
%ADD39RoundRect,0.200000X-0.525000X0.300000X-0.525000X-0.300000X0.525000X-0.300000X0.525000X0.300000X0*%
%ADD40RoundRect,0.112000X-0.168000X-0.198000X0.168000X-0.198000X0.168000X0.198000X-0.168000X0.198000X0*%
%ADD41C,1.500000*%
%ADD42C,2.400000*%
G04 APERTURE END LIST*
D10*
%TO.C,U1*%
X144375000Y-69800000D03*
X144375000Y-70800000D03*
X144375000Y-71800000D03*
X144375000Y-72800000D03*
X144375000Y-73800000D03*
X144375000Y-74800000D03*
X144375000Y-75800000D03*
X144375000Y-76800000D03*
X144375000Y-77800000D03*
X144375000Y-78800000D03*
D11*
X146500000Y-78725000D03*
X147500000Y-78725000D03*
X148500000Y-78725000D03*
X149500000Y-78725000D03*
X150500000Y-78725000D03*
D10*
X152625000Y-78800000D03*
X152625000Y-77800000D03*
X152625000Y-76800000D03*
X152625000Y-75800000D03*
X152625000Y-74800000D03*
X152625000Y-73800000D03*
X152625000Y-72800000D03*
X152625000Y-71800000D03*
X152625000Y-70800000D03*
X152625000Y-69800000D03*
D11*
X150500000Y-69875000D03*
X149500000Y-69875000D03*
X148500000Y-69875000D03*
X147500000Y-69875000D03*
X146500000Y-69875000D03*
D12*
X145750000Y-71250000D03*
X145750000Y-72350000D03*
X145750000Y-73450000D03*
X145750000Y-74550000D03*
X145750000Y-75650000D03*
X145750000Y-76750000D03*
X151250000Y-76750000D03*
X151250000Y-75650000D03*
X151250000Y-74550000D03*
X151250000Y-73450000D03*
X151250000Y-72350000D03*
X151250000Y-71250000D03*
X150150000Y-71250000D03*
X149050000Y-71250000D03*
X147950000Y-71250000D03*
X146850000Y-71250000D03*
X152250000Y-68650000D03*
X151250000Y-68650000D03*
X150250000Y-68650000D03*
X149250000Y-68650000D03*
X148250000Y-68650000D03*
X147250000Y-68650000D03*
X146250000Y-68650000D03*
X145250000Y-68650000D03*
X144250000Y-68650000D03*
X147925000Y-72575000D03*
X149075000Y-72575000D03*
X146775000Y-73725000D03*
X147925000Y-73725000D03*
X149075000Y-73725000D03*
X150225000Y-73725000D03*
X147925000Y-74875000D03*
X149075000Y-74875000D03*
X146775000Y-76025000D03*
X147925000Y-76025000D03*
X149075000Y-76025000D03*
X150225000Y-76025000D03*
%TD*%
D13*
%TO.C,U2*%
X142837500Y-90750000D03*
X142837500Y-90250000D03*
X142837500Y-89750000D03*
X142837500Y-89250000D03*
D14*
X143500000Y-89087500D03*
X144000000Y-89087500D03*
X144500000Y-89087500D03*
D13*
X145162500Y-89250000D03*
X145162500Y-89750000D03*
X145162500Y-90250000D03*
X145162500Y-90750000D03*
D14*
X144500000Y-90912500D03*
X144000000Y-90912500D03*
X143500000Y-90912500D03*
%TD*%
D15*
%TO.C,U5*%
X150300000Y-89000000D03*
X150300000Y-89500000D03*
X150300000Y-90000000D03*
X150300000Y-90500000D03*
X150300000Y-91000000D03*
X154700000Y-91000000D03*
X154700000Y-90500000D03*
X154700000Y-90000000D03*
X154700000Y-89500000D03*
X154700000Y-89000000D03*
%TD*%
D16*
%TO.C,U4*%
X147350000Y-94000000D03*
X147350000Y-94500000D03*
X147350000Y-95000000D03*
X147350000Y-95500000D03*
X147350000Y-96000000D03*
X149650000Y-96000000D03*
X149650000Y-95500000D03*
X149650000Y-95000000D03*
X149650000Y-94500000D03*
X149650000Y-94000000D03*
D17*
X148500000Y-95000000D03*
%TD*%
D18*
%TO.C,L1*%
X152500000Y-93615000D03*
X152500000Y-95985000D03*
%TD*%
D19*
%TO.C,U3*%
X147450000Y-110200000D03*
X147450000Y-110600000D03*
X147450000Y-111000000D03*
X147450000Y-111400000D03*
X147450000Y-111800000D03*
X149550000Y-111800000D03*
X149550000Y-111400000D03*
X149550000Y-111000000D03*
X149550000Y-110600000D03*
X149550000Y-110200000D03*
D20*
X148500000Y-111000000D03*
%TD*%
D21*
%TO.C,J2*%
X143300000Y-120000000D03*
X144300000Y-120000000D03*
X145300000Y-120000000D03*
D22*
X142000000Y-123875000D03*
X146600000Y-123875000D03*
%TD*%
D23*
%TO.C,SW1*%
X146650000Y-132600000D03*
X146650000Y-126400000D03*
X150350000Y-132600000D03*
X150350000Y-126400000D03*
%TD*%
D21*
%TO.C,J3*%
X143500000Y-135000000D03*
X144500000Y-135000000D03*
D22*
X142200000Y-138875000D03*
X145800000Y-138875000D03*
%TD*%
D24*
%TO.C,U6*%
X146000000Y-102050000D03*
X146000000Y-103000000D03*
X146000000Y-103950000D03*
X148300000Y-103950000D03*
X148300000Y-103000000D03*
X148300000Y-102050000D03*
%TD*%
D25*
%TO.C,F1*%
X142812500Y-103000000D03*
X144387500Y-103000000D03*
%TD*%
D26*
%TO.C,J1*%
X150200000Y-106100000D03*
X150200000Y-105350000D03*
D27*
X150200000Y-104750000D03*
X150200000Y-103250000D03*
X150200000Y-102250000D03*
X150200000Y-101250000D03*
D26*
X150200000Y-100650000D03*
X150200000Y-99900000D03*
X150200000Y-99900000D03*
X150200000Y-100650000D03*
D27*
X150200000Y-101750000D03*
X150200000Y-102750000D03*
X150200000Y-103750000D03*
X150200000Y-104250000D03*
D26*
X150200000Y-105350000D03*
X150200000Y-106100000D03*
D28*
X150575000Y-107320000D03*
D29*
X154400000Y-107320000D03*
D28*
X150575000Y-98680000D03*
D29*
X154400000Y-98680000D03*
D30*
X151300000Y-106000000D03*
D31*
X151300000Y-100000000D03*
D32*
X154400000Y-104400000D03*
X154400000Y-101600000D03*
%TD*%
D33*
%TO.C,R_CC1*%
X142490000Y-100000000D03*
X143510000Y-100000000D03*
%TD*%
%TO.C,R_CC2*%
X142490000Y-108000000D03*
X143510000Y-108000000D03*
%TD*%
%TO.C,R_I2C_SCL*%
X141690000Y-94500000D03*
X142710000Y-94500000D03*
%TD*%
%TO.C,R_I2C_SDA*%
X142490000Y-92200000D03*
X143510000Y-92200000D03*
%TD*%
%TO.C,R_ARM*%
X153490000Y-127000000D03*
X154510000Y-127000000D03*
%TD*%
%TO.C,R_ARM_SER*%
X152990000Y-124000000D03*
X154010000Y-124000000D03*
%TD*%
%TO.C,R_HAPTIC_EN*%
X151190000Y-85000000D03*
X152210000Y-85000000D03*
%TD*%
D34*
%TO.C,R_STAT1*%
X155010000Y-113500000D03*
X153990000Y-113500000D03*
%TD*%
D33*
%TO.C,R_STAT2*%
X145490000Y-108200000D03*
X146510000Y-108200000D03*
%TD*%
D35*
%TO.C,R_ISET*%
X150300000Y-112990000D03*
X150300000Y-114010000D03*
%TD*%
D33*
%TO.C,R_ILIM*%
X151890000Y-114700000D03*
X152910000Y-114700000D03*
%TD*%
D34*
%TO.C,R_CFG1*%
X145510000Y-94500000D03*
X144490000Y-94500000D03*
%TD*%
D33*
%TO.C,R_CFG2*%
X141690000Y-96500000D03*
X142710000Y-96500000D03*
%TD*%
D34*
%TO.C,R_CFG3*%
X145110000Y-96400000D03*
X144090000Y-96400000D03*
%TD*%
D36*
%TO.C,C_USB*%
X141850000Y-106000000D03*
X143750000Y-106000000D03*
%TD*%
%TO.C,C_CHG_IN*%
X151750000Y-111000000D03*
X153650000Y-111000000D03*
%TD*%
D37*
%TO.C,C_SYS*%
X145250000Y-111000000D03*
X143350000Y-111000000D03*
%TD*%
%TO.C,C_BAT*%
X146550000Y-114000000D03*
X144650000Y-114000000D03*
%TD*%
D38*
%TO.C,C_BUCK_IN*%
X147200000Y-92550000D03*
X147200000Y-90650000D03*
%TD*%
D39*
%TO.C,C_BUCK_OUT*%
X146800000Y-97550000D03*
X146800000Y-99450000D03*
%TD*%
D40*
%TO.C,C_IMU_VDD*%
X141820000Y-86000000D03*
X142780000Y-86000000D03*
%TD*%
%TO.C,C_IMU_IO*%
X144320000Y-86000000D03*
X145280000Y-86000000D03*
%TD*%
%TO.C,C_HAPTIC_REG*%
X153720000Y-85000000D03*
X154680000Y-85000000D03*
%TD*%
%TO.C,C_HAPTIC_VDD*%
X153320000Y-87000000D03*
X154280000Y-87000000D03*
%TD*%
D41*
%TO.C,TP3*%
X143000000Y-116500000D03*
%TD*%
%TO.C,TP4*%
X145500000Y-116500000D03*
%TD*%
%TO.C,TP5*%
X148000000Y-116500000D03*
%TD*%
%TO.C,TP6*%
X150500000Y-116500000D03*
%TD*%
%TO.C,TP1*%
X153500000Y-116500000D03*
%TD*%
%TO.C,TP2*%
X154000000Y-119500000D03*
%TD*%
%TO.C,TP7*%
X151500000Y-119500000D03*
%TD*%
%TO.C,TP8*%
X149000000Y-119500000D03*
%TD*%
D42*
%TO.C,H1*%
X148500000Y-85250000D03*
%TD*%
%TO.C,H2*%
X148500000Y-142000000D03*
%TD*%
M02*
