%TF.GenerationSoftware,KiCad,Pcbnew,10.0.5*%
%TF.CreationDate,2026-08-23T10:11:59+08:00*%
%TF.ProjectId,receiver-effects,72656365-6976-4657-922d-656666656374,rev?*%
%TF.SameCoordinates,Original*%
%TF.FileFunction,Copper,L2,Inr*%
%TF.FilePolarity,Positive*%
%FSLAX46Y46*%
G04 Gerber Fmt 4.6, Leading zero omitted, Abs format (unit mm)*
G04 Created by KiCad (PCBNEW 10.0.5) date 2026-08-23 10:11:59*
%MOMM*%
%LPD*%
G01*
G04 APERTURE LIST*
%TA.AperFunction,ComponentPad*%
%ADD10O,2.300000X1.300000*%
%TD*%
%TA.AperFunction,ComponentPad*%
%ADD11O,2.600000X1.300000*%
%TD*%
%TA.AperFunction,ViaPad*%
%ADD12C,0.600000*%
%TD*%
G04 APERTURE END LIST*
D10*
%TO.N,USB_SHIELD*%
%TO.C,J1*%
X129625000Y-100680000D03*
D11*
X125800000Y-100680000D03*
D10*
X129625000Y-109320000D03*
D11*
X125800000Y-109320000D03*
%TD*%
D12*
%TO.N,I2S_BCLK*%
X154201800Y-107264200D03*
X160880400Y-91132900D03*
X159209400Y-110688500D03*
%TO.N,3V3*%
X151190000Y-99942100D03*
%TO.N,USB_VBUS_5V*%
X165410500Y-89102400D03*
X164711900Y-109181000D03*
%TO.N,GND*%
X161426300Y-99454400D03*
X166002900Y-87346200D03*
X161426300Y-94618200D03*
X171059900Y-89375000D03*
X169868600Y-92075000D03*
%TO.N,TFT_BL_GATE_CTRL*%
X153237900Y-91659000D03*
X172062900Y-87319000D03*
%TO.N,AUDIO_GAIN_SLOT*%
X155027900Y-112005800D03*
X151453500Y-116693200D03*
%TO.N,PWR_GOOD_N*%
X150594100Y-97357900D03*
X166546100Y-91557000D03*
%TO.N,I2S_DOUT*%
X157415500Y-111659100D03*
X163083200Y-91175000D03*
%TO.N,I2S_LRCLK*%
X162711800Y-91870600D03*
X162871700Y-110454900D03*
%TO.N,USB_CC1*%
X129488700Y-97198000D03*
X131042100Y-103250000D03*
%TO.N,AUDIO_SD_CTRL*%
X157967200Y-110415800D03*
X162289800Y-93380800D03*
%TO.N,TFT_BL_3V3*%
X143780700Y-91377500D03*
X152637500Y-93975300D03*
%TO.N,USB_DM_PROT*%
X149036300Y-89408500D03*
X135884200Y-108244000D03*
%TO.N,USB_DP_PROT*%
X134650000Y-105272200D03*
X160899100Y-87548300D03*
%TO.N,RESET_N*%
X152403800Y-111332100D03*
X173025500Y-88498100D03*
%TO.N,TFT_RESET_N*%
X151282900Y-84833600D03*
X148746500Y-86538200D03*
%TO.N,TFT_MOSI*%
X145999000Y-90201500D03*
X167376000Y-86210800D03*
%TO.N,USB_CC2*%
X131129400Y-106250000D03*
X131129400Y-111218300D03*
%TD*%
%TA.AperFunction,Conductor*%
%TO.N,GND*%
G36*
X150983374Y-84321674D02*
G01*
X151005048Y-84374000D01*
X150983374Y-84426326D01*
X150976096Y-84432708D01*
X150975588Y-84433097D01*
X150882400Y-84526285D01*
X150816510Y-84640409D01*
X150816506Y-84640418D01*
X150782400Y-84767705D01*
X150782400Y-84899494D01*
X150816506Y-85026781D01*
X150816507Y-85026784D01*
X150816508Y-85026786D01*
X150882400Y-85140914D01*
X150975586Y-85234100D01*
X151089714Y-85299992D01*
X151217005Y-85334099D01*
X151217006Y-85334100D01*
X151217008Y-85334100D01*
X151348794Y-85334100D01*
X151348794Y-85334099D01*
X151476086Y-85299992D01*
X151590214Y-85234100D01*
X151683400Y-85140914D01*
X151749292Y-85026786D01*
X151783399Y-84899494D01*
X151783400Y-84899494D01*
X151783400Y-84767706D01*
X151783399Y-84767705D01*
X151749293Y-84640418D01*
X151749292Y-84640414D01*
X151683400Y-84526286D01*
X151590214Y-84433100D01*
X151590211Y-84433097D01*
X151589704Y-84432708D01*
X151589542Y-84432428D01*
X151586784Y-84429670D01*
X151587523Y-84428930D01*
X151561385Y-84383659D01*
X151576044Y-84328952D01*
X151625093Y-84300633D01*
X151634752Y-84300000D01*
X173126000Y-84300000D01*
X173178326Y-84321674D01*
X173200000Y-84374000D01*
X173200000Y-87930262D01*
X173178326Y-87982588D01*
X173126000Y-88004262D01*
X173106850Y-88001741D01*
X173091393Y-87997600D01*
X173091392Y-87997600D01*
X172959608Y-87997600D01*
X172959606Y-87997600D01*
X172832318Y-88031706D01*
X172832309Y-88031710D01*
X172718185Y-88097600D01*
X172625000Y-88190785D01*
X172559110Y-88304909D01*
X172559106Y-88304918D01*
X172525000Y-88432205D01*
X172525000Y-88563994D01*
X172559106Y-88691281D01*
X172559107Y-88691284D01*
X172559108Y-88691286D01*
X172625000Y-88805414D01*
X172718186Y-88898600D01*
X172832314Y-88964492D01*
X172959605Y-88998599D01*
X172959606Y-88998600D01*
X172959608Y-88998600D01*
X173091393Y-88998600D01*
X173101239Y-88995961D01*
X173106846Y-88994459D01*
X173162999Y-89001850D01*
X173197478Y-89046783D01*
X173200000Y-89065937D01*
X173200000Y-125625500D01*
X173178326Y-125677826D01*
X173126000Y-125699500D01*
X123874500Y-125699500D01*
X123822174Y-125677826D01*
X123800500Y-125625500D01*
X123800500Y-122889776D01*
X125099500Y-122889776D01*
X125099500Y-123110223D01*
X125133984Y-123327948D01*
X125133987Y-123327961D01*
X125202103Y-123537602D01*
X125202104Y-123537605D01*
X125202105Y-123537606D01*
X125302185Y-123734022D01*
X125431758Y-123912365D01*
X125587635Y-124068242D01*
X125765978Y-124197815D01*
X125962394Y-124297895D01*
X125962397Y-124297896D01*
X125962396Y-124297896D01*
X126172038Y-124366012D01*
X126172044Y-124366013D01*
X126172049Y-124366015D01*
X126280913Y-124383257D01*
X126389776Y-124400500D01*
X126389778Y-124400500D01*
X126610224Y-124400500D01*
X126697313Y-124386706D01*
X126827951Y-124366015D01*
X126827958Y-124366012D01*
X126827961Y-124366012D01*
X126923133Y-124335088D01*
X127037606Y-124297895D01*
X127234022Y-124197815D01*
X127412365Y-124068242D01*
X127568242Y-123912365D01*
X127697815Y-123734022D01*
X127797895Y-123537606D01*
X127866015Y-123327951D01*
X127900500Y-123110222D01*
X127900500Y-122889778D01*
X127900500Y-122889776D01*
X153099500Y-122889776D01*
X153099500Y-123110223D01*
X153133984Y-123327948D01*
X153133987Y-123327961D01*
X153202103Y-123537602D01*
X153202104Y-123537605D01*
X153202105Y-123537606D01*
X153302185Y-123734022D01*
X153431758Y-123912365D01*
X153587635Y-124068242D01*
X153765978Y-124197815D01*
X153962394Y-124297895D01*
X153962397Y-124297896D01*
X153962396Y-124297896D01*
X154172038Y-124366012D01*
X154172044Y-124366013D01*
X154172049Y-124366015D01*
X154280913Y-124383257D01*
X154389776Y-124400500D01*
X154389778Y-124400500D01*
X154610224Y-124400500D01*
X154697313Y-124386706D01*
X154827951Y-124366015D01*
X154827958Y-124366012D01*
X154827961Y-124366012D01*
X154923133Y-124335088D01*
X155037606Y-124297895D01*
X155234022Y-124197815D01*
X155412365Y-124068242D01*
X155568242Y-123912365D01*
X155697815Y-123734022D01*
X155797895Y-123537606D01*
X155866015Y-123327951D01*
X155900500Y-123110222D01*
X155900500Y-122889778D01*
X155866015Y-122672049D01*
X155866013Y-122672044D01*
X155866012Y-122672038D01*
X155797896Y-122462397D01*
X155797895Y-122462396D01*
X155797895Y-122462394D01*
X155697815Y-122265978D01*
X155568242Y-122087635D01*
X155412365Y-121931758D01*
X155308441Y-121856253D01*
X155234024Y-121802186D01*
X155037602Y-121702103D01*
X155037603Y-121702103D01*
X154827961Y-121633987D01*
X154827948Y-121633984D01*
X154610224Y-121599500D01*
X154610222Y-121599500D01*
X154389778Y-121599500D01*
X154389776Y-121599500D01*
X154172051Y-121633984D01*
X154172038Y-121633987D01*
X153962397Y-121702103D01*
X153765976Y-121802186D01*
X153765975Y-121802186D01*
X153587639Y-121931755D01*
X153587635Y-121931758D01*
X153431758Y-122087635D01*
X153431755Y-122087638D01*
X153431755Y-122087639D01*
X153302186Y-122265975D01*
X153302186Y-122265976D01*
X153202103Y-122462397D01*
X153133987Y-122672038D01*
X153133984Y-122672051D01*
X153099500Y-122889776D01*
X127900500Y-122889776D01*
X127866015Y-122672049D01*
X127866013Y-122672044D01*
X127866012Y-122672038D01*
X127797896Y-122462397D01*
X127797895Y-122462396D01*
X127797895Y-122462394D01*
X127697815Y-122265978D01*
X127568242Y-122087635D01*
X127412365Y-121931758D01*
X127308441Y-121856253D01*
X127234024Y-121802186D01*
X127037602Y-121702103D01*
X127037603Y-121702103D01*
X126827961Y-121633987D01*
X126827948Y-121633984D01*
X126610224Y-121599500D01*
X126610222Y-121599500D01*
X126389778Y-121599500D01*
X126389776Y-121599500D01*
X126172051Y-121633984D01*
X126172038Y-121633987D01*
X125962397Y-121702103D01*
X125765976Y-121802186D01*
X125765975Y-121802186D01*
X125587639Y-121931755D01*
X125587635Y-121931758D01*
X125431758Y-122087635D01*
X125431755Y-122087638D01*
X125431755Y-122087639D01*
X125302186Y-122265975D01*
X125302186Y-122265976D01*
X125202103Y-122462397D01*
X125133987Y-122672038D01*
X125133984Y-122672051D01*
X125099500Y-122889776D01*
X123800500Y-122889776D01*
X123800500Y-116627305D01*
X150953000Y-116627305D01*
X150953000Y-116759094D01*
X150987106Y-116886381D01*
X150987107Y-116886384D01*
X150987108Y-116886386D01*
X151053000Y-117000514D01*
X151146186Y-117093700D01*
X151260314Y-117159592D01*
X151387605Y-117193699D01*
X151387606Y-117193700D01*
X151387608Y-117193700D01*
X151519394Y-117193700D01*
X151519394Y-117193699D01*
X151646686Y-117159592D01*
X151760814Y-117093700D01*
X151854000Y-117000514D01*
X151919892Y-116886386D01*
X151953999Y-116759094D01*
X151954000Y-116759094D01*
X151954000Y-116627306D01*
X151953999Y-116627305D01*
X151919893Y-116500018D01*
X151919892Y-116500014D01*
X151854000Y-116385886D01*
X151760814Y-116292700D01*
X151646690Y-116226810D01*
X151646681Y-116226806D01*
X151519394Y-116192700D01*
X151519392Y-116192700D01*
X151387608Y-116192700D01*
X151387606Y-116192700D01*
X151260318Y-116226806D01*
X151260309Y-116226810D01*
X151146185Y-116292700D01*
X151053000Y-116385885D01*
X150987110Y-116500009D01*
X150987106Y-116500018D01*
X150953000Y-116627305D01*
X123800500Y-116627305D01*
X123800500Y-111939905D01*
X154527400Y-111939905D01*
X154527400Y-112071694D01*
X154561506Y-112198981D01*
X154561507Y-112198984D01*
X154561508Y-112198986D01*
X154627400Y-112313114D01*
X154720586Y-112406300D01*
X154834714Y-112472192D01*
X154962005Y-112506299D01*
X154962006Y-112506300D01*
X154962008Y-112506300D01*
X155093794Y-112506300D01*
X155093794Y-112506299D01*
X155221086Y-112472192D01*
X155335214Y-112406300D01*
X155428400Y-112313114D01*
X155494292Y-112198986D01*
X155528399Y-112071694D01*
X155528400Y-112071694D01*
X155528400Y-111939906D01*
X155528399Y-111939905D01*
X155494293Y-111812618D01*
X155494292Y-111812614D01*
X155428400Y-111698486D01*
X155335214Y-111605300D01*
X155314265Y-111593205D01*
X156915000Y-111593205D01*
X156915000Y-111724994D01*
X156949106Y-111852281D01*
X156949110Y-111852290D01*
X156999697Y-111939908D01*
X157015000Y-111966414D01*
X157108186Y-112059600D01*
X157222314Y-112125492D01*
X157349605Y-112159599D01*
X157349606Y-112159600D01*
X157349608Y-112159600D01*
X157481394Y-112159600D01*
X157481394Y-112159599D01*
X157608686Y-112125492D01*
X157722814Y-112059600D01*
X157816000Y-111966414D01*
X157881892Y-111852286D01*
X157915999Y-111724994D01*
X157916000Y-111724994D01*
X157916000Y-111593206D01*
X157915999Y-111593205D01*
X157897801Y-111525290D01*
X157881892Y-111465914D01*
X157816000Y-111351786D01*
X157722814Y-111258600D01*
X157608690Y-111192710D01*
X157608681Y-111192706D01*
X157481394Y-111158600D01*
X157481392Y-111158600D01*
X157349608Y-111158600D01*
X157349606Y-111158600D01*
X157222318Y-111192706D01*
X157222309Y-111192710D01*
X157108185Y-111258600D01*
X157015000Y-111351785D01*
X156949110Y-111465909D01*
X156949106Y-111465918D01*
X156915000Y-111593205D01*
X155314265Y-111593205D01*
X155221090Y-111539410D01*
X155221081Y-111539406D01*
X155093794Y-111505300D01*
X155093792Y-111505300D01*
X154962008Y-111505300D01*
X154962006Y-111505300D01*
X154834718Y-111539406D01*
X154834709Y-111539410D01*
X154720585Y-111605300D01*
X154627400Y-111698485D01*
X154561510Y-111812609D01*
X154561506Y-111812618D01*
X154527400Y-111939905D01*
X123800500Y-111939905D01*
X123800500Y-111152405D01*
X130628900Y-111152405D01*
X130628900Y-111284194D01*
X130663006Y-111411481D01*
X130663007Y-111411484D01*
X130663008Y-111411486D01*
X130728900Y-111525614D01*
X130822086Y-111618800D01*
X130936214Y-111684692D01*
X131063505Y-111718799D01*
X131063506Y-111718800D01*
X131063508Y-111718800D01*
X131195294Y-111718800D01*
X131195294Y-111718799D01*
X131322586Y-111684692D01*
X131436714Y-111618800D01*
X131529900Y-111525614D01*
X131595792Y-111411486D01*
X131629899Y-111284194D01*
X131629900Y-111284194D01*
X131629900Y-111266205D01*
X151903300Y-111266205D01*
X151903300Y-111397994D01*
X151937406Y-111525281D01*
X151937410Y-111525290D01*
X151976621Y-111593205D01*
X152003300Y-111639414D01*
X152096486Y-111732600D01*
X152210614Y-111798492D01*
X152337905Y-111832599D01*
X152337906Y-111832600D01*
X152337908Y-111832600D01*
X152469694Y-111832600D01*
X152469694Y-111832599D01*
X152596986Y-111798492D01*
X152711114Y-111732600D01*
X152804300Y-111639414D01*
X152870192Y-111525286D01*
X152904299Y-111397994D01*
X152904300Y-111397994D01*
X152904300Y-111266206D01*
X152904299Y-111266205D01*
X152874473Y-111154893D01*
X152870192Y-111138914D01*
X152804300Y-111024786D01*
X152711114Y-110931600D01*
X152624652Y-110881681D01*
X152596990Y-110865710D01*
X152596981Y-110865706D01*
X152469694Y-110831600D01*
X152469692Y-110831600D01*
X152337908Y-110831600D01*
X152337906Y-110831600D01*
X152210618Y-110865706D01*
X152210609Y-110865710D01*
X152096485Y-110931600D01*
X152003300Y-111024785D01*
X151937410Y-111138909D01*
X151937406Y-111138918D01*
X151903300Y-111266205D01*
X131629900Y-111266205D01*
X131629900Y-111152406D01*
X131629899Y-111152405D01*
X131595793Y-111025118D01*
X131595792Y-111025114D01*
X131529900Y-110910986D01*
X131436714Y-110817800D01*
X131434114Y-110816299D01*
X131322590Y-110751910D01*
X131322581Y-110751906D01*
X131195294Y-110717800D01*
X131195292Y-110717800D01*
X131063508Y-110717800D01*
X131063506Y-110717800D01*
X130936218Y-110751906D01*
X130936209Y-110751910D01*
X130822085Y-110817800D01*
X130728900Y-110910985D01*
X130663010Y-111025109D01*
X130663006Y-111025118D01*
X130628900Y-111152405D01*
X123800500Y-111152405D01*
X123800500Y-110349905D01*
X157466700Y-110349905D01*
X157466700Y-110481694D01*
X157500806Y-110608981D01*
X157500810Y-110608990D01*
X157523382Y-110648086D01*
X157566700Y-110723114D01*
X157659886Y-110816300D01*
X157774014Y-110882192D01*
X157901305Y-110916299D01*
X157901306Y-110916300D01*
X157901308Y-110916300D01*
X158033094Y-110916300D01*
X158033094Y-110916299D01*
X158160386Y-110882192D01*
X158274514Y-110816300D01*
X158367700Y-110723114D01*
X158425729Y-110622605D01*
X158708900Y-110622605D01*
X158708900Y-110754394D01*
X158743006Y-110881681D01*
X158743010Y-110881690D01*
X158765875Y-110921293D01*
X158808900Y-110995814D01*
X158902086Y-111089000D01*
X159016214Y-111154892D01*
X159143505Y-111188999D01*
X159143506Y-111189000D01*
X159143508Y-111189000D01*
X159275294Y-111189000D01*
X159275294Y-111188999D01*
X159402586Y-111154892D01*
X159516714Y-111089000D01*
X159609900Y-110995814D01*
X159675792Y-110881686D01*
X159709899Y-110754394D01*
X159709900Y-110754394D01*
X159709900Y-110622606D01*
X159709899Y-110622605D01*
X159675793Y-110495318D01*
X159675792Y-110495314D01*
X159614414Y-110389005D01*
X162371200Y-110389005D01*
X162371200Y-110520794D01*
X162405306Y-110648081D01*
X162405310Y-110648090D01*
X162465249Y-110751906D01*
X162471200Y-110762214D01*
X162564386Y-110855400D01*
X162678514Y-110921292D01*
X162805805Y-110955399D01*
X162805806Y-110955400D01*
X162805808Y-110955400D01*
X162937594Y-110955400D01*
X162937594Y-110955399D01*
X163064886Y-110921292D01*
X163179014Y-110855400D01*
X163272200Y-110762214D01*
X163338092Y-110648086D01*
X163372199Y-110520794D01*
X163372200Y-110520794D01*
X163372200Y-110389006D01*
X163372199Y-110389005D01*
X163338093Y-110261718D01*
X163338092Y-110261714D01*
X163272200Y-110147586D01*
X163179014Y-110054400D01*
X163111291Y-110015300D01*
X163064890Y-109988510D01*
X163064881Y-109988506D01*
X162937594Y-109954400D01*
X162937592Y-109954400D01*
X162805808Y-109954400D01*
X162805806Y-109954400D01*
X162678518Y-109988506D01*
X162678509Y-109988510D01*
X162564385Y-110054400D01*
X162471200Y-110147585D01*
X162405310Y-110261709D01*
X162405306Y-110261718D01*
X162371200Y-110389005D01*
X159614414Y-110389005D01*
X159609900Y-110381186D01*
X159516714Y-110288000D01*
X159402590Y-110222110D01*
X159402581Y-110222106D01*
X159275294Y-110188000D01*
X159275292Y-110188000D01*
X159143508Y-110188000D01*
X159143506Y-110188000D01*
X159016218Y-110222106D01*
X159016209Y-110222110D01*
X158902085Y-110288000D01*
X158808900Y-110381185D01*
X158743010Y-110495309D01*
X158743006Y-110495318D01*
X158708900Y-110622605D01*
X158425729Y-110622605D01*
X158433592Y-110608986D01*
X158467700Y-110481692D01*
X158467700Y-110349908D01*
X158467700Y-110349906D01*
X158467699Y-110349905D01*
X158433593Y-110222618D01*
X158433592Y-110222614D01*
X158367700Y-110108486D01*
X158274514Y-110015300D01*
X158160390Y-109949410D01*
X158160381Y-109949406D01*
X158033094Y-109915300D01*
X158033092Y-109915300D01*
X157901308Y-109915300D01*
X157901306Y-109915300D01*
X157774018Y-109949406D01*
X157774009Y-109949410D01*
X157659885Y-110015300D01*
X157566700Y-110108485D01*
X157500810Y-110222609D01*
X157500806Y-110222618D01*
X157466700Y-110349905D01*
X123800500Y-110349905D01*
X123800500Y-109236233D01*
X124299500Y-109236233D01*
X124299500Y-109403766D01*
X124332182Y-109568075D01*
X124332184Y-109568082D01*
X124396296Y-109722862D01*
X124396297Y-109722863D01*
X124489374Y-109862162D01*
X124607838Y-109980626D01*
X124747137Y-110073703D01*
X124901918Y-110137816D01*
X125066233Y-110170500D01*
X125066234Y-110170500D01*
X126533766Y-110170500D01*
X126533767Y-110170500D01*
X126698082Y-110137816D01*
X126852863Y-110073703D01*
X126992162Y-109980626D01*
X127110626Y-109862162D01*
X127203703Y-109722863D01*
X127267816Y-109568082D01*
X127300500Y-109403767D01*
X127300500Y-109236233D01*
X127267816Y-109071918D01*
X127203703Y-108917137D01*
X127110626Y-108777838D01*
X126992162Y-108659374D01*
X126992158Y-108659371D01*
X126852862Y-108566296D01*
X126698082Y-108502184D01*
X126698075Y-108502182D01*
X126574288Y-108477560D01*
X126533767Y-108469500D01*
X125066233Y-108469500D01*
X125033728Y-108475965D01*
X124901924Y-108502182D01*
X124901917Y-108502184D01*
X124747137Y-108566296D01*
X124607841Y-108659371D01*
X124489371Y-108777841D01*
X124396296Y-108917137D01*
X124332184Y-109071917D01*
X124332182Y-109071924D01*
X124299500Y-109236233D01*
X123800500Y-109236233D01*
X123800500Y-107920940D01*
X128174500Y-107920940D01*
X128174500Y-108079059D01*
X128215421Y-108231779D01*
X128215422Y-108231781D01*
X128215423Y-108231784D01*
X128294480Y-108368716D01*
X128406284Y-108480520D01*
X128543216Y-108559577D01*
X128543217Y-108559577D01*
X128547417Y-108562002D01*
X128545966Y-108564514D01*
X128579530Y-108598078D01*
X128579530Y-108654715D01*
X128563489Y-108678723D01*
X128464371Y-108777841D01*
X128371296Y-108917137D01*
X128307184Y-109071917D01*
X128307182Y-109071924D01*
X128274500Y-109236233D01*
X128274500Y-109403766D01*
X128307182Y-109568075D01*
X128307184Y-109568082D01*
X128371296Y-109722862D01*
X128371297Y-109722863D01*
X128464374Y-109862162D01*
X128582838Y-109980626D01*
X128722137Y-110073703D01*
X128876918Y-110137816D01*
X129041233Y-110170500D01*
X129041234Y-110170500D01*
X130208766Y-110170500D01*
X130208767Y-110170500D01*
X130373082Y-110137816D01*
X130527863Y-110073703D01*
X130667162Y-109980626D01*
X130785626Y-109862162D01*
X130878703Y-109722863D01*
X130942816Y-109568082D01*
X130975500Y-109403767D01*
X130975500Y-109236233D01*
X130951406Y-109115105D01*
X164211400Y-109115105D01*
X164211400Y-109246894D01*
X164245506Y-109374181D01*
X164245510Y-109374190D01*
X164311400Y-109488314D01*
X164404586Y-109581500D01*
X164518714Y-109647392D01*
X164646005Y-109681499D01*
X164646006Y-109681500D01*
X164646008Y-109681500D01*
X164777794Y-109681500D01*
X164777794Y-109681499D01*
X164905086Y-109647392D01*
X165019214Y-109581500D01*
X165112400Y-109488314D01*
X165178292Y-109374186D01*
X165212399Y-109246894D01*
X165212400Y-109246894D01*
X165212400Y-109115106D01*
X165212399Y-109115105D01*
X165178293Y-108987818D01*
X165178292Y-108987814D01*
X165112400Y-108873686D01*
X165019214Y-108780500D01*
X164905090Y-108714610D01*
X164905081Y-108714606D01*
X164777794Y-108680500D01*
X164777792Y-108680500D01*
X164646008Y-108680500D01*
X164646006Y-108680500D01*
X164518718Y-108714606D01*
X164518709Y-108714610D01*
X164404585Y-108780500D01*
X164311400Y-108873685D01*
X164245510Y-108987809D01*
X164245506Y-108987818D01*
X164211400Y-109115105D01*
X130951406Y-109115105D01*
X130942817Y-109071923D01*
X130942816Y-109071922D01*
X130942816Y-109071918D01*
X130878703Y-108917137D01*
X130785626Y-108777838D01*
X130667162Y-108659374D01*
X130667158Y-108659371D01*
X130527862Y-108566296D01*
X130373082Y-108502184D01*
X130373075Y-108502182D01*
X130249288Y-108477560D01*
X130208767Y-108469500D01*
X130208766Y-108469500D01*
X129575504Y-108469500D01*
X129523178Y-108447826D01*
X129501504Y-108395500D01*
X129511418Y-108358500D01*
X129584577Y-108231784D01*
X129598960Y-108178105D01*
X135383700Y-108178105D01*
X135383700Y-108309894D01*
X135417806Y-108437181D01*
X135417810Y-108437190D01*
X135455335Y-108502184D01*
X135483700Y-108551314D01*
X135576886Y-108644500D01*
X135691014Y-108710392D01*
X135818305Y-108744499D01*
X135818306Y-108744500D01*
X135818308Y-108744500D01*
X135950094Y-108744500D01*
X135950094Y-108744499D01*
X136077386Y-108710392D01*
X136191514Y-108644500D01*
X136284700Y-108551314D01*
X136350592Y-108437186D01*
X136384699Y-108309894D01*
X136384700Y-108309894D01*
X136384700Y-108178106D01*
X136384699Y-108178105D01*
X136350593Y-108050818D01*
X136350592Y-108050814D01*
X136284700Y-107936686D01*
X136191514Y-107843500D01*
X136077390Y-107777610D01*
X136077381Y-107777606D01*
X135950094Y-107743500D01*
X135950092Y-107743500D01*
X135818308Y-107743500D01*
X135818306Y-107743500D01*
X135691018Y-107777606D01*
X135691009Y-107777610D01*
X135576885Y-107843500D01*
X135483700Y-107936685D01*
X135417810Y-108050809D01*
X135417806Y-108050818D01*
X135383700Y-108178105D01*
X129598960Y-108178105D01*
X129625499Y-108079059D01*
X129625500Y-108079059D01*
X129625500Y-107920941D01*
X129625499Y-107920940D01*
X129587093Y-107777608D01*
X129584577Y-107768216D01*
X129505520Y-107631284D01*
X129393716Y-107519480D01*
X129256784Y-107440423D01*
X129256781Y-107440422D01*
X129256779Y-107440421D01*
X129104059Y-107399500D01*
X129104057Y-107399500D01*
X128695943Y-107399500D01*
X128695941Y-107399500D01*
X128543220Y-107440421D01*
X128543214Y-107440424D01*
X128406283Y-107519480D01*
X128294480Y-107631283D01*
X128215424Y-107768214D01*
X128215421Y-107768220D01*
X128174500Y-107920940D01*
X123800500Y-107920940D01*
X123800500Y-107198305D01*
X153701300Y-107198305D01*
X153701300Y-107330094D01*
X153735406Y-107457381D01*
X153735407Y-107457384D01*
X153735408Y-107457386D01*
X153801300Y-107571514D01*
X153894486Y-107664700D01*
X154008614Y-107730592D01*
X154135905Y-107764699D01*
X154135906Y-107764700D01*
X154135908Y-107764700D01*
X154267694Y-107764700D01*
X154267694Y-107764699D01*
X154394986Y-107730592D01*
X154509114Y-107664700D01*
X154602300Y-107571514D01*
X154668192Y-107457386D01*
X154702299Y-107330094D01*
X154702300Y-107330094D01*
X154702300Y-107198306D01*
X154702299Y-107198305D01*
X154668193Y-107071018D01*
X154668192Y-107071014D01*
X154602300Y-106956886D01*
X154509114Y-106863700D01*
X154394990Y-106797810D01*
X154394981Y-106797806D01*
X154267694Y-106763700D01*
X154267692Y-106763700D01*
X154135908Y-106763700D01*
X154135906Y-106763700D01*
X154008618Y-106797806D01*
X154008609Y-106797810D01*
X153894485Y-106863700D01*
X153801300Y-106956885D01*
X153735410Y-107071009D01*
X153735406Y-107071018D01*
X153701300Y-107198305D01*
X123800500Y-107198305D01*
X123800500Y-106184105D01*
X130628900Y-106184105D01*
X130628900Y-106315894D01*
X130663006Y-106443181D01*
X130663007Y-106443184D01*
X130663008Y-106443186D01*
X130728900Y-106557314D01*
X130822086Y-106650500D01*
X130936214Y-106716392D01*
X131063505Y-106750499D01*
X131063506Y-106750500D01*
X131063508Y-106750500D01*
X131195294Y-106750500D01*
X131195294Y-106750499D01*
X131322586Y-106716392D01*
X131436714Y-106650500D01*
X131529900Y-106557314D01*
X131595792Y-106443186D01*
X131629899Y-106315894D01*
X131629900Y-106315894D01*
X131629900Y-106184106D01*
X131629899Y-106184105D01*
X131595793Y-106056818D01*
X131595792Y-106056814D01*
X131529900Y-105942686D01*
X131436714Y-105849500D01*
X131322590Y-105783610D01*
X131322581Y-105783606D01*
X131195294Y-105749500D01*
X131195292Y-105749500D01*
X131063508Y-105749500D01*
X131063506Y-105749500D01*
X130936218Y-105783606D01*
X130936209Y-105783610D01*
X130822085Y-105849500D01*
X130728900Y-105942685D01*
X130663010Y-106056809D01*
X130663006Y-106056818D01*
X130628900Y-106184105D01*
X123800500Y-106184105D01*
X123800500Y-105206305D01*
X134149500Y-105206305D01*
X134149500Y-105338094D01*
X134183606Y-105465381D01*
X134183607Y-105465384D01*
X134183608Y-105465386D01*
X134249500Y-105579514D01*
X134342686Y-105672700D01*
X134456814Y-105738592D01*
X134584105Y-105772699D01*
X134584106Y-105772700D01*
X134584108Y-105772700D01*
X134715894Y-105772700D01*
X134715894Y-105772699D01*
X134843186Y-105738592D01*
X134957314Y-105672700D01*
X135050500Y-105579514D01*
X135116392Y-105465386D01*
X135150499Y-105338094D01*
X135150500Y-105338094D01*
X135150500Y-105206306D01*
X135150499Y-105206305D01*
X135116393Y-105079018D01*
X135116392Y-105079014D01*
X135050500Y-104964886D01*
X134957314Y-104871700D01*
X134843190Y-104805810D01*
X134843181Y-104805806D01*
X134715894Y-104771700D01*
X134715892Y-104771700D01*
X134584108Y-104771700D01*
X134584106Y-104771700D01*
X134456818Y-104805806D01*
X134456809Y-104805810D01*
X134342685Y-104871700D01*
X134249500Y-104964885D01*
X134183610Y-105079009D01*
X134183606Y-105079018D01*
X134149500Y-105206305D01*
X123800500Y-105206305D01*
X123800500Y-103184105D01*
X130541600Y-103184105D01*
X130541600Y-103315894D01*
X130575706Y-103443181D01*
X130575707Y-103443184D01*
X130575708Y-103443186D01*
X130641600Y-103557314D01*
X130734786Y-103650500D01*
X130848914Y-103716392D01*
X130976205Y-103750499D01*
X130976206Y-103750500D01*
X130976208Y-103750500D01*
X131107994Y-103750500D01*
X131107994Y-103750499D01*
X131235286Y-103716392D01*
X131349414Y-103650500D01*
X131442600Y-103557314D01*
X131508492Y-103443186D01*
X131542599Y-103315894D01*
X131542600Y-103315894D01*
X131542600Y-103184106D01*
X131542599Y-103184105D01*
X131508493Y-103056818D01*
X131508492Y-103056814D01*
X131442600Y-102942686D01*
X131349414Y-102849500D01*
X131235290Y-102783610D01*
X131235281Y-102783606D01*
X131107994Y-102749500D01*
X131107992Y-102749500D01*
X130976208Y-102749500D01*
X130976206Y-102749500D01*
X130848918Y-102783606D01*
X130848909Y-102783610D01*
X130734785Y-102849500D01*
X130641600Y-102942685D01*
X130575710Y-103056809D01*
X130575706Y-103056818D01*
X130541600Y-103184105D01*
X123800500Y-103184105D01*
X123800500Y-100596233D01*
X124299500Y-100596233D01*
X124299500Y-100763766D01*
X124332182Y-100928075D01*
X124332184Y-100928082D01*
X124396296Y-101082862D01*
X124396297Y-101082863D01*
X124489374Y-101222162D01*
X124607838Y-101340626D01*
X124747137Y-101433703D01*
X124901918Y-101497816D01*
X125066233Y-101530500D01*
X125066234Y-101530500D01*
X126533766Y-101530500D01*
X126533767Y-101530500D01*
X126698082Y-101497816D01*
X126852863Y-101433703D01*
X126992162Y-101340626D01*
X127110626Y-101222162D01*
X127203703Y-101082863D01*
X127267816Y-100928082D01*
X127300500Y-100763767D01*
X127300500Y-100596233D01*
X128274500Y-100596233D01*
X128274500Y-100763766D01*
X128307182Y-100928075D01*
X128307184Y-100928082D01*
X128371296Y-101082862D01*
X128371297Y-101082863D01*
X128464374Y-101222162D01*
X128582838Y-101340626D01*
X128582841Y-101340628D01*
X128696298Y-101416438D01*
X128727764Y-101463531D01*
X128716715Y-101519079D01*
X128692186Y-101542053D01*
X128592685Y-101599500D01*
X128499500Y-101692685D01*
X128433610Y-101806809D01*
X128433606Y-101806818D01*
X128399500Y-101934105D01*
X128399500Y-102065894D01*
X128433606Y-102193181D01*
X128433607Y-102193184D01*
X128433608Y-102193186D01*
X128499500Y-102307314D01*
X128592686Y-102400500D01*
X128706814Y-102466392D01*
X128834105Y-102500499D01*
X128834106Y-102500500D01*
X128834108Y-102500500D01*
X128965894Y-102500500D01*
X128965894Y-102500499D01*
X129093186Y-102466392D01*
X129207314Y-102400500D01*
X129300500Y-102307314D01*
X129366392Y-102193186D01*
X129400499Y-102065894D01*
X129400500Y-102065894D01*
X129400500Y-101934106D01*
X129400499Y-101934105D01*
X129366393Y-101806818D01*
X129366392Y-101806814D01*
X129300500Y-101692686D01*
X129264640Y-101656826D01*
X129242966Y-101604500D01*
X129264640Y-101552174D01*
X129316966Y-101530500D01*
X130208766Y-101530500D01*
X130208767Y-101530500D01*
X130373082Y-101497816D01*
X130527863Y-101433703D01*
X130667162Y-101340626D01*
X130785626Y-101222162D01*
X130878703Y-101082863D01*
X130942816Y-100928082D01*
X130975500Y-100763767D01*
X130975500Y-100596233D01*
X130942816Y-100431918D01*
X130878703Y-100277137D01*
X130785626Y-100137838D01*
X130667162Y-100019374D01*
X130527863Y-99926297D01*
X130406931Y-99876205D01*
X150689500Y-99876205D01*
X150689500Y-100007994D01*
X150723606Y-100135281D01*
X150723607Y-100135284D01*
X150723608Y-100135286D01*
X150789500Y-100249414D01*
X150882686Y-100342600D01*
X150996814Y-100408492D01*
X151124105Y-100442599D01*
X151124106Y-100442600D01*
X151124108Y-100442600D01*
X151255894Y-100442600D01*
X151255894Y-100442599D01*
X151383186Y-100408492D01*
X151497314Y-100342600D01*
X151590500Y-100249414D01*
X151656392Y-100135286D01*
X151690499Y-100007994D01*
X151690500Y-100007994D01*
X151690500Y-99876206D01*
X151690499Y-99876205D01*
X151656393Y-99748918D01*
X151656392Y-99748914D01*
X151590500Y-99634786D01*
X151497314Y-99541600D01*
X151383190Y-99475710D01*
X151383181Y-99475706D01*
X151255894Y-99441600D01*
X151255892Y-99441600D01*
X151124108Y-99441600D01*
X151124106Y-99441600D01*
X150996818Y-99475706D01*
X150996809Y-99475710D01*
X150882685Y-99541600D01*
X150789500Y-99634785D01*
X150723610Y-99748909D01*
X150723606Y-99748918D01*
X150689500Y-99876205D01*
X130406931Y-99876205D01*
X130373082Y-99862184D01*
X130373075Y-99862182D01*
X130249288Y-99837560D01*
X130208767Y-99829500D01*
X129041233Y-99829500D01*
X129008728Y-99835965D01*
X128876924Y-99862182D01*
X128876917Y-99862184D01*
X128722137Y-99926296D01*
X128582841Y-100019371D01*
X128464371Y-100137841D01*
X128371296Y-100277137D01*
X128307184Y-100431917D01*
X128307182Y-100431924D01*
X128274500Y-100596233D01*
X127300500Y-100596233D01*
X127267816Y-100431918D01*
X127203703Y-100277137D01*
X127110626Y-100137838D01*
X126992162Y-100019374D01*
X126862726Y-99932887D01*
X126852862Y-99926296D01*
X126698082Y-99862184D01*
X126698075Y-99862182D01*
X126574288Y-99837560D01*
X126533767Y-99829500D01*
X125066233Y-99829500D01*
X125033728Y-99835965D01*
X124901924Y-99862182D01*
X124901917Y-99862184D01*
X124747137Y-99926296D01*
X124607841Y-100019371D01*
X124489371Y-100137841D01*
X124396296Y-100277137D01*
X124332184Y-100431917D01*
X124332182Y-100431924D01*
X124299500Y-100596233D01*
X123800500Y-100596233D01*
X123800500Y-97132105D01*
X128988200Y-97132105D01*
X128988200Y-97263894D01*
X129022306Y-97391181D01*
X129022307Y-97391184D01*
X129022308Y-97391186D01*
X129088200Y-97505314D01*
X129181386Y-97598500D01*
X129295514Y-97664392D01*
X129422805Y-97698499D01*
X129422806Y-97698500D01*
X129422808Y-97698500D01*
X129554594Y-97698500D01*
X129554594Y-97698499D01*
X129681886Y-97664392D01*
X129796014Y-97598500D01*
X129889200Y-97505314D01*
X129955092Y-97391186D01*
X129963078Y-97361381D01*
X129981668Y-97292005D01*
X150093600Y-97292005D01*
X150093600Y-97423794D01*
X150127706Y-97551081D01*
X150127710Y-97551090D01*
X150193124Y-97664389D01*
X150193600Y-97665214D01*
X150286786Y-97758400D01*
X150400914Y-97824292D01*
X150528205Y-97858399D01*
X150528206Y-97858400D01*
X150528208Y-97858400D01*
X150659994Y-97858400D01*
X150659994Y-97858399D01*
X150787286Y-97824292D01*
X150901414Y-97758400D01*
X150994600Y-97665214D01*
X151060492Y-97551086D01*
X151094599Y-97423794D01*
X151094600Y-97423794D01*
X151094600Y-97292006D01*
X151094599Y-97292005D01*
X151060493Y-97164718D01*
X151060492Y-97164714D01*
X150994600Y-97050586D01*
X150901414Y-96957400D01*
X150787290Y-96891510D01*
X150787281Y-96891506D01*
X150659994Y-96857400D01*
X150659992Y-96857400D01*
X150528208Y-96857400D01*
X150528206Y-96857400D01*
X150400918Y-96891506D01*
X150400909Y-96891510D01*
X150286785Y-96957400D01*
X150193600Y-97050585D01*
X150127710Y-97164709D01*
X150127706Y-97164718D01*
X150093600Y-97292005D01*
X129981668Y-97292005D01*
X129988099Y-97268005D01*
X129988099Y-97268004D01*
X129989199Y-97263897D01*
X129989200Y-97263894D01*
X129989200Y-97132106D01*
X129989199Y-97132105D01*
X129955093Y-97004818D01*
X129955092Y-97004814D01*
X129889200Y-96890686D01*
X129796014Y-96797500D01*
X129681890Y-96731610D01*
X129681881Y-96731606D01*
X129554594Y-96697500D01*
X129554592Y-96697500D01*
X129422808Y-96697500D01*
X129422806Y-96697500D01*
X129295518Y-96731606D01*
X129295509Y-96731610D01*
X129181385Y-96797500D01*
X129088200Y-96890685D01*
X129022310Y-97004809D01*
X129022306Y-97004818D01*
X128988200Y-97132105D01*
X123800500Y-97132105D01*
X123800500Y-93909405D01*
X152137000Y-93909405D01*
X152137000Y-94041194D01*
X152171106Y-94168481D01*
X152171107Y-94168484D01*
X152171108Y-94168486D01*
X152237000Y-94282614D01*
X152330186Y-94375800D01*
X152444314Y-94441692D01*
X152571605Y-94475799D01*
X152571606Y-94475800D01*
X152571608Y-94475800D01*
X152703394Y-94475800D01*
X152703394Y-94475799D01*
X152830686Y-94441692D01*
X152944814Y-94375800D01*
X153038000Y-94282614D01*
X153103892Y-94168486D01*
X153137999Y-94041194D01*
X153138000Y-94041194D01*
X153138000Y-93909406D01*
X153137999Y-93909405D01*
X153130468Y-93881300D01*
X153103892Y-93782114D01*
X153038000Y-93667986D01*
X152944814Y-93574800D01*
X152943395Y-93573981D01*
X152830690Y-93508910D01*
X152830681Y-93508906D01*
X152703394Y-93474800D01*
X152703392Y-93474800D01*
X152571608Y-93474800D01*
X152571606Y-93474800D01*
X152444318Y-93508906D01*
X152444309Y-93508910D01*
X152330185Y-93574800D01*
X152237000Y-93667985D01*
X152171110Y-93782109D01*
X152171106Y-93782118D01*
X152137000Y-93909405D01*
X123800500Y-93909405D01*
X123800500Y-93314905D01*
X161789300Y-93314905D01*
X161789300Y-93446694D01*
X161823406Y-93573981D01*
X161823407Y-93573984D01*
X161823408Y-93573986D01*
X161889300Y-93688114D01*
X161982486Y-93781300D01*
X162096614Y-93847192D01*
X162223905Y-93881299D01*
X162223906Y-93881300D01*
X162223908Y-93881300D01*
X162355694Y-93881300D01*
X162355694Y-93881299D01*
X162482986Y-93847192D01*
X162597114Y-93781300D01*
X162690300Y-93688114D01*
X162756192Y-93573986D01*
X162790299Y-93446694D01*
X162790300Y-93446694D01*
X162790300Y-93314906D01*
X162790299Y-93314905D01*
X162756193Y-93187618D01*
X162756192Y-93187614D01*
X162690300Y-93073486D01*
X162597114Y-92980300D01*
X162482990Y-92914410D01*
X162482981Y-92914406D01*
X162355694Y-92880300D01*
X162355692Y-92880300D01*
X162223908Y-92880300D01*
X162223906Y-92880300D01*
X162096618Y-92914406D01*
X162096609Y-92914410D01*
X161982485Y-92980300D01*
X161889300Y-93073485D01*
X161823410Y-93187609D01*
X161823406Y-93187618D01*
X161789300Y-93314905D01*
X123800500Y-93314905D01*
X123800500Y-91311605D01*
X143280200Y-91311605D01*
X143280200Y-91443394D01*
X143314306Y-91570681D01*
X143314310Y-91570690D01*
X143330824Y-91599293D01*
X143380200Y-91684814D01*
X143473386Y-91778000D01*
X143587514Y-91843892D01*
X143714805Y-91877999D01*
X143714806Y-91878000D01*
X143714808Y-91878000D01*
X143846594Y-91878000D01*
X143846594Y-91877999D01*
X143973886Y-91843892D01*
X144088014Y-91778000D01*
X144181200Y-91684814D01*
X144234148Y-91593105D01*
X152737400Y-91593105D01*
X152737400Y-91724894D01*
X152771506Y-91852181D01*
X152771507Y-91852184D01*
X152771508Y-91852186D01*
X152837400Y-91966314D01*
X152930586Y-92059500D01*
X153044714Y-92125392D01*
X153172005Y-92159499D01*
X153172006Y-92159500D01*
X153172008Y-92159500D01*
X153303794Y-92159500D01*
X153303794Y-92159499D01*
X153431086Y-92125392D01*
X153545214Y-92059500D01*
X153638400Y-91966314D01*
X153704292Y-91852186D01*
X153717014Y-91804705D01*
X162211300Y-91804705D01*
X162211300Y-91936494D01*
X162245406Y-92063781D01*
X162245410Y-92063790D01*
X162280976Y-92125392D01*
X162311300Y-92177914D01*
X162404486Y-92271100D01*
X162518614Y-92336992D01*
X162645905Y-92371099D01*
X162645906Y-92371100D01*
X162645908Y-92371100D01*
X162777694Y-92371100D01*
X162777694Y-92371099D01*
X162904986Y-92336992D01*
X163019114Y-92271100D01*
X163112300Y-92177914D01*
X163178192Y-92063786D01*
X163212299Y-91936494D01*
X163212300Y-91936494D01*
X163212300Y-91804706D01*
X163212299Y-91804705D01*
X163194917Y-91739832D01*
X163202309Y-91683679D01*
X163247242Y-91649201D01*
X163247242Y-91649200D01*
X163276386Y-91641392D01*
X163390514Y-91575500D01*
X163474909Y-91491105D01*
X166045600Y-91491105D01*
X166045600Y-91622894D01*
X166079706Y-91750181D01*
X166079710Y-91750190D01*
X166111185Y-91804706D01*
X166145600Y-91864314D01*
X166238786Y-91957500D01*
X166352914Y-92023392D01*
X166480205Y-92057499D01*
X166480206Y-92057500D01*
X166480208Y-92057500D01*
X166611994Y-92057500D01*
X166611994Y-92057499D01*
X166739286Y-92023392D01*
X166853414Y-91957500D01*
X166946600Y-91864314D01*
X167012492Y-91750186D01*
X167046599Y-91622894D01*
X167046600Y-91622894D01*
X167046600Y-91491106D01*
X167046599Y-91491105D01*
X167044243Y-91482314D01*
X167012492Y-91363814D01*
X166946600Y-91249686D01*
X166853414Y-91156500D01*
X166771329Y-91109108D01*
X166739290Y-91090610D01*
X166739281Y-91090606D01*
X166611994Y-91056500D01*
X166611992Y-91056500D01*
X166480208Y-91056500D01*
X166480206Y-91056500D01*
X166352918Y-91090606D01*
X166352909Y-91090610D01*
X166238785Y-91156500D01*
X166145600Y-91249685D01*
X166079710Y-91363809D01*
X166079706Y-91363818D01*
X166045600Y-91491105D01*
X163474909Y-91491105D01*
X163483700Y-91482314D01*
X163549592Y-91368186D01*
X163583699Y-91240894D01*
X163583700Y-91240894D01*
X163583700Y-91109106D01*
X163583699Y-91109105D01*
X163578743Y-91090610D01*
X163549592Y-90981814D01*
X163483700Y-90867686D01*
X163390514Y-90774500D01*
X163317595Y-90732400D01*
X163276390Y-90708610D01*
X163276381Y-90708606D01*
X163149094Y-90674500D01*
X163149092Y-90674500D01*
X163017308Y-90674500D01*
X163017306Y-90674500D01*
X162890018Y-90708606D01*
X162890009Y-90708610D01*
X162775885Y-90774500D01*
X162682700Y-90867685D01*
X162616810Y-90981809D01*
X162616806Y-90981818D01*
X162582700Y-91109105D01*
X162582700Y-91109108D01*
X162582700Y-91240892D01*
X162587418Y-91258500D01*
X162600083Y-91305768D01*
X162592690Y-91361920D01*
X162547758Y-91396398D01*
X162518616Y-91404207D01*
X162518612Y-91404208D01*
X162404485Y-91470100D01*
X162311300Y-91563285D01*
X162245410Y-91677409D01*
X162245406Y-91677418D01*
X162211300Y-91804705D01*
X153717014Y-91804705D01*
X153738399Y-91724894D01*
X153738400Y-91724894D01*
X153738400Y-91593106D01*
X153738399Y-91593105D01*
X153704293Y-91465818D01*
X153704292Y-91465814D01*
X153638400Y-91351686D01*
X153545214Y-91258500D01*
X153514716Y-91240892D01*
X153431090Y-91192610D01*
X153431081Y-91192606D01*
X153303794Y-91158500D01*
X153303792Y-91158500D01*
X153172008Y-91158500D01*
X153172006Y-91158500D01*
X153044718Y-91192606D01*
X153044709Y-91192610D01*
X152930585Y-91258500D01*
X152837400Y-91351685D01*
X152771510Y-91465809D01*
X152771506Y-91465818D01*
X152737400Y-91593105D01*
X144234148Y-91593105D01*
X144247092Y-91570686D01*
X144281200Y-91443392D01*
X144281200Y-91311608D01*
X144281200Y-91311606D01*
X144281199Y-91311605D01*
X144262251Y-91240891D01*
X144247092Y-91184314D01*
X144181200Y-91070186D01*
X144178019Y-91067005D01*
X160379900Y-91067005D01*
X160379900Y-91198794D01*
X160414006Y-91326081D01*
X160414010Y-91326090D01*
X160438317Y-91368190D01*
X160479900Y-91440214D01*
X160573086Y-91533400D01*
X160687214Y-91599292D01*
X160814505Y-91633399D01*
X160814506Y-91633400D01*
X160814508Y-91633400D01*
X160946294Y-91633400D01*
X160946294Y-91633399D01*
X161073586Y-91599292D01*
X161187714Y-91533400D01*
X161280900Y-91440214D01*
X161346792Y-91326086D01*
X161380899Y-91198794D01*
X161380900Y-91198794D01*
X161380900Y-91067006D01*
X161380899Y-91067005D01*
X161358072Y-90981814D01*
X161346792Y-90939714D01*
X161280900Y-90825586D01*
X161187714Y-90732400D01*
X161075985Y-90667893D01*
X161073590Y-90666510D01*
X161073581Y-90666506D01*
X160946294Y-90632400D01*
X160946292Y-90632400D01*
X160814508Y-90632400D01*
X160814506Y-90632400D01*
X160687218Y-90666506D01*
X160687209Y-90666510D01*
X160573085Y-90732400D01*
X160479900Y-90825585D01*
X160414010Y-90939709D01*
X160414006Y-90939718D01*
X160379900Y-91067005D01*
X144178019Y-91067005D01*
X144088014Y-90977000D01*
X144023433Y-90939714D01*
X143973890Y-90911110D01*
X143973881Y-90911106D01*
X143846594Y-90877000D01*
X143846592Y-90877000D01*
X143714808Y-90877000D01*
X143714806Y-90877000D01*
X143587518Y-90911106D01*
X143587509Y-90911110D01*
X143473385Y-90977000D01*
X143380200Y-91070185D01*
X143314310Y-91184309D01*
X143314306Y-91184318D01*
X143280200Y-91311605D01*
X123800500Y-91311605D01*
X123800500Y-90135605D01*
X145498500Y-90135605D01*
X145498500Y-90267394D01*
X145532606Y-90394681D01*
X145532607Y-90394684D01*
X145532608Y-90394686D01*
X145598500Y-90508814D01*
X145691686Y-90602000D01*
X145805814Y-90667892D01*
X145933105Y-90701999D01*
X145933106Y-90702000D01*
X145933108Y-90702000D01*
X146064894Y-90702000D01*
X146064894Y-90701999D01*
X146192186Y-90667892D01*
X146306314Y-90602000D01*
X146399500Y-90508814D01*
X146465392Y-90394686D01*
X146499499Y-90267394D01*
X146499500Y-90267394D01*
X146499500Y-90135606D01*
X146499499Y-90135605D01*
X146465393Y-90008318D01*
X146465392Y-90008314D01*
X146399500Y-89894186D01*
X146306314Y-89801000D01*
X146192190Y-89735110D01*
X146192181Y-89735106D01*
X146064894Y-89701000D01*
X146064892Y-89701000D01*
X145933108Y-89701000D01*
X145933106Y-89701000D01*
X145805818Y-89735106D01*
X145805809Y-89735110D01*
X145691685Y-89801000D01*
X145598500Y-89894185D01*
X145532610Y-90008309D01*
X145532606Y-90008318D01*
X145498500Y-90135605D01*
X123800500Y-90135605D01*
X123800500Y-89342605D01*
X148535800Y-89342605D01*
X148535800Y-89474394D01*
X148569906Y-89601681D01*
X148569907Y-89601684D01*
X148569908Y-89601686D01*
X148635800Y-89715814D01*
X148728986Y-89809000D01*
X148843114Y-89874892D01*
X148970405Y-89908999D01*
X148970406Y-89909000D01*
X148970408Y-89909000D01*
X149102194Y-89909000D01*
X149102194Y-89908999D01*
X149229486Y-89874892D01*
X149343614Y-89809000D01*
X149436800Y-89715814D01*
X149502692Y-89601686D01*
X149536799Y-89474394D01*
X149536800Y-89474394D01*
X149536800Y-89342606D01*
X149536799Y-89342605D01*
X149524200Y-89295586D01*
X149502692Y-89215314D01*
X149436800Y-89101186D01*
X149372119Y-89036505D01*
X164910000Y-89036505D01*
X164910000Y-89168294D01*
X164944106Y-89295581D01*
X164944110Y-89295590D01*
X164971255Y-89342606D01*
X165010000Y-89409714D01*
X165103186Y-89502900D01*
X165217314Y-89568792D01*
X165344605Y-89602899D01*
X165344606Y-89602900D01*
X165344608Y-89602900D01*
X165476394Y-89602900D01*
X165476394Y-89602899D01*
X165603686Y-89568792D01*
X165717814Y-89502900D01*
X165811000Y-89409714D01*
X165876892Y-89295586D01*
X165910999Y-89168294D01*
X165911000Y-89168294D01*
X165911000Y-89036506D01*
X165910999Y-89036505D01*
X165901713Y-89001850D01*
X165876892Y-88909214D01*
X165811000Y-88795086D01*
X165717814Y-88701900D01*
X165699421Y-88691281D01*
X165603690Y-88636010D01*
X165603681Y-88636006D01*
X165476394Y-88601900D01*
X165476392Y-88601900D01*
X165344608Y-88601900D01*
X165344606Y-88601900D01*
X165217318Y-88636006D01*
X165217309Y-88636010D01*
X165103185Y-88701900D01*
X165010000Y-88795085D01*
X164944110Y-88909209D01*
X164944106Y-88909218D01*
X164910000Y-89036505D01*
X149372119Y-89036505D01*
X149343614Y-89008000D01*
X149268251Y-88964489D01*
X149229490Y-88942110D01*
X149229481Y-88942106D01*
X149102194Y-88908000D01*
X149102192Y-88908000D01*
X148970408Y-88908000D01*
X148970406Y-88908000D01*
X148843118Y-88942106D01*
X148843109Y-88942110D01*
X148728985Y-89008000D01*
X148635800Y-89101185D01*
X148569910Y-89215309D01*
X148569906Y-89215318D01*
X148535800Y-89342605D01*
X123800500Y-89342605D01*
X123800500Y-86889776D01*
X125099500Y-86889776D01*
X125099500Y-87110223D01*
X125133984Y-87327948D01*
X125133987Y-87327961D01*
X125202103Y-87537602D01*
X125202104Y-87537605D01*
X125202105Y-87537606D01*
X125294785Y-87719499D01*
X125302186Y-87734023D01*
X125302186Y-87734024D01*
X125339505Y-87785389D01*
X125431758Y-87912365D01*
X125587635Y-88068242D01*
X125765978Y-88197815D01*
X125962394Y-88297895D01*
X125962397Y-88297896D01*
X125962396Y-88297896D01*
X126172038Y-88366012D01*
X126172044Y-88366013D01*
X126172049Y-88366015D01*
X126280913Y-88383257D01*
X126389776Y-88400500D01*
X126389778Y-88400500D01*
X126610224Y-88400500D01*
X126697313Y-88386706D01*
X126827951Y-88366015D01*
X126827958Y-88366012D01*
X126827961Y-88366012D01*
X126928617Y-88333307D01*
X127037606Y-88297895D01*
X127234022Y-88197815D01*
X127412365Y-88068242D01*
X127568242Y-87912365D01*
X127697815Y-87734022D01*
X127797895Y-87537606D01*
X127857188Y-87355118D01*
X127866012Y-87327961D01*
X127866012Y-87327958D01*
X127866015Y-87327951D01*
X127898030Y-87125818D01*
X127900500Y-87110223D01*
X127900500Y-86889776D01*
X127872232Y-86711300D01*
X127866015Y-86672049D01*
X127866013Y-86672044D01*
X127866012Y-86672038D01*
X127806971Y-86490325D01*
X127801115Y-86472305D01*
X148246000Y-86472305D01*
X148246000Y-86604094D01*
X148280106Y-86731381D01*
X148280107Y-86731384D01*
X148280108Y-86731386D01*
X148346000Y-86845514D01*
X148439186Y-86938700D01*
X148553314Y-87004592D01*
X148680605Y-87038699D01*
X148680606Y-87038700D01*
X148680608Y-87038700D01*
X148812394Y-87038700D01*
X148812394Y-87038699D01*
X148939686Y-87004592D01*
X149053814Y-86938700D01*
X149102738Y-86889776D01*
X157099500Y-86889776D01*
X157099500Y-87110223D01*
X157133984Y-87327948D01*
X157133987Y-87327961D01*
X157202103Y-87537602D01*
X157202104Y-87537605D01*
X157202105Y-87537606D01*
X157294785Y-87719499D01*
X157302186Y-87734023D01*
X157302186Y-87734024D01*
X157339505Y-87785389D01*
X157431758Y-87912365D01*
X157587635Y-88068242D01*
X157765978Y-88197815D01*
X157962394Y-88297895D01*
X157962397Y-88297896D01*
X157962396Y-88297896D01*
X158172038Y-88366012D01*
X158172044Y-88366013D01*
X158172049Y-88366015D01*
X158280913Y-88383257D01*
X158389776Y-88400500D01*
X158389778Y-88400500D01*
X158610224Y-88400500D01*
X158697313Y-88386706D01*
X158827951Y-88366015D01*
X158827958Y-88366012D01*
X158827961Y-88366012D01*
X158928617Y-88333307D01*
X159037606Y-88297895D01*
X159234022Y-88197815D01*
X159412365Y-88068242D01*
X159568242Y-87912365D01*
X159697815Y-87734022D01*
X159797895Y-87537606D01*
X159815830Y-87482408D01*
X159815831Y-87482405D01*
X160398600Y-87482405D01*
X160398600Y-87614194D01*
X160432706Y-87741481D01*
X160432710Y-87741490D01*
X160498600Y-87855614D01*
X160591786Y-87948800D01*
X160705914Y-88014692D01*
X160833205Y-88048799D01*
X160833206Y-88048800D01*
X160833208Y-88048800D01*
X160964994Y-88048800D01*
X160964994Y-88048799D01*
X161092286Y-88014692D01*
X161206414Y-87948800D01*
X161299600Y-87855614D01*
X161365492Y-87741486D01*
X161399599Y-87614194D01*
X161399600Y-87614194D01*
X161399600Y-87482406D01*
X161399599Y-87482405D01*
X161365493Y-87355118D01*
X161365492Y-87355114D01*
X161306597Y-87253105D01*
X171562400Y-87253105D01*
X171562400Y-87384894D01*
X171596506Y-87512181D01*
X171596507Y-87512184D01*
X171596508Y-87512186D01*
X171662400Y-87626314D01*
X171755586Y-87719500D01*
X171869714Y-87785392D01*
X171997005Y-87819499D01*
X171997006Y-87819500D01*
X171997008Y-87819500D01*
X172128794Y-87819500D01*
X172128794Y-87819499D01*
X172256086Y-87785392D01*
X172370214Y-87719500D01*
X172463400Y-87626314D01*
X172529292Y-87512186D01*
X172563399Y-87384894D01*
X172563400Y-87384894D01*
X172563400Y-87253106D01*
X172563399Y-87253105D01*
X172560151Y-87240985D01*
X172529292Y-87125814D01*
X172463400Y-87011686D01*
X172370214Y-86918500D01*
X172320463Y-86889776D01*
X172256090Y-86852610D01*
X172256081Y-86852606D01*
X172128794Y-86818500D01*
X172128792Y-86818500D01*
X171997008Y-86818500D01*
X171997006Y-86818500D01*
X171869718Y-86852606D01*
X171869709Y-86852610D01*
X171755585Y-86918500D01*
X171662400Y-87011685D01*
X171596510Y-87125809D01*
X171596506Y-87125818D01*
X171562400Y-87253105D01*
X161306597Y-87253105D01*
X161299600Y-87240986D01*
X161206414Y-87147800D01*
X161141327Y-87110222D01*
X161092290Y-87081910D01*
X161092281Y-87081906D01*
X160964994Y-87047800D01*
X160964992Y-87047800D01*
X160833208Y-87047800D01*
X160833206Y-87047800D01*
X160705918Y-87081906D01*
X160705909Y-87081910D01*
X160591785Y-87147800D01*
X160498600Y-87240985D01*
X160432710Y-87355109D01*
X160432706Y-87355118D01*
X160398600Y-87482405D01*
X159815831Y-87482405D01*
X159824836Y-87454691D01*
X159866012Y-87327961D01*
X159866012Y-87327958D01*
X159866015Y-87327951D01*
X159898030Y-87125818D01*
X159900500Y-87110223D01*
X159900500Y-86889776D01*
X159872232Y-86711300D01*
X159866015Y-86672049D01*
X159866013Y-86672044D01*
X159866012Y-86672038D01*
X159797896Y-86462397D01*
X159797895Y-86462395D01*
X159797895Y-86462394D01*
X159697815Y-86265978D01*
X159609851Y-86144905D01*
X166875500Y-86144905D01*
X166875500Y-86276694D01*
X166909606Y-86403981D01*
X166909610Y-86403990D01*
X166943332Y-86462397D01*
X166975500Y-86518114D01*
X167068686Y-86611300D01*
X167182814Y-86677192D01*
X167310105Y-86711299D01*
X167310106Y-86711300D01*
X167310108Y-86711300D01*
X167441894Y-86711300D01*
X167441894Y-86711299D01*
X167569186Y-86677192D01*
X167683314Y-86611300D01*
X167776500Y-86518114D01*
X167842392Y-86403986D01*
X167876499Y-86276694D01*
X167876500Y-86276694D01*
X167876500Y-86144906D01*
X167876499Y-86144905D01*
X167874568Y-86137700D01*
X167842392Y-86017614D01*
X167776500Y-85903486D01*
X167683314Y-85810300D01*
X167669260Y-85802186D01*
X167569190Y-85744410D01*
X167569181Y-85744406D01*
X167441894Y-85710300D01*
X167441892Y-85710300D01*
X167310108Y-85710300D01*
X167310106Y-85710300D01*
X167182818Y-85744406D01*
X167182809Y-85744410D01*
X167068685Y-85810300D01*
X166975500Y-85903485D01*
X166909610Y-86017609D01*
X166909606Y-86017618D01*
X166875500Y-86144905D01*
X159609851Y-86144905D01*
X159568242Y-86087635D01*
X159412365Y-85931758D01*
X159308441Y-85856253D01*
X159234024Y-85802186D01*
X159120629Y-85744408D01*
X159037606Y-85702105D01*
X159037605Y-85702104D01*
X159037602Y-85702103D01*
X159037603Y-85702103D01*
X158827961Y-85633987D01*
X158827948Y-85633984D01*
X158610224Y-85599500D01*
X158610222Y-85599500D01*
X158389778Y-85599500D01*
X158389776Y-85599500D01*
X158172051Y-85633984D01*
X158172038Y-85633987D01*
X157962397Y-85702103D01*
X157765976Y-85802186D01*
X157765975Y-85802186D01*
X157626548Y-85903486D01*
X157587635Y-85931758D01*
X157431758Y-86087635D01*
X157431755Y-86087638D01*
X157431755Y-86087639D01*
X157302186Y-86265975D01*
X157302186Y-86265976D01*
X157202103Y-86462397D01*
X157133987Y-86672038D01*
X157133984Y-86672051D01*
X157099500Y-86889776D01*
X149102738Y-86889776D01*
X149147000Y-86845514D01*
X149212892Y-86731386D01*
X149246999Y-86604094D01*
X149247000Y-86604094D01*
X149247000Y-86472306D01*
X149246999Y-86472305D01*
X149244343Y-86462394D01*
X149212892Y-86345014D01*
X149147000Y-86230886D01*
X149053814Y-86137700D01*
X148967106Y-86087639D01*
X148939690Y-86071810D01*
X148939681Y-86071806D01*
X148812394Y-86037700D01*
X148812392Y-86037700D01*
X148680608Y-86037700D01*
X148680606Y-86037700D01*
X148553318Y-86071806D01*
X148553309Y-86071810D01*
X148439185Y-86137700D01*
X148346000Y-86230885D01*
X148280110Y-86345009D01*
X148280106Y-86345018D01*
X148246000Y-86472305D01*
X127801115Y-86472305D01*
X127797895Y-86462395D01*
X127797895Y-86462394D01*
X127697815Y-86265978D01*
X127568242Y-86087635D01*
X127412365Y-85931758D01*
X127308441Y-85856253D01*
X127234024Y-85802186D01*
X127120629Y-85744408D01*
X127037606Y-85702105D01*
X127037605Y-85702104D01*
X127037602Y-85702103D01*
X127037603Y-85702103D01*
X126827961Y-85633987D01*
X126827948Y-85633984D01*
X126610224Y-85599500D01*
X126610222Y-85599500D01*
X126389778Y-85599500D01*
X126389776Y-85599500D01*
X126172051Y-85633984D01*
X126172038Y-85633987D01*
X125962397Y-85702103D01*
X125765976Y-85802186D01*
X125765975Y-85802186D01*
X125626548Y-85903486D01*
X125587635Y-85931758D01*
X125431758Y-86087635D01*
X125431755Y-86087638D01*
X125431755Y-86087639D01*
X125302186Y-86265975D01*
X125302186Y-86265976D01*
X125202103Y-86462397D01*
X125133987Y-86672038D01*
X125133984Y-86672051D01*
X125099500Y-86889776D01*
X123800500Y-86889776D01*
X123800500Y-84374000D01*
X123822174Y-84321674D01*
X123874500Y-84300000D01*
X150931048Y-84300000D01*
X150983374Y-84321674D01*
G37*
%TD.AperFunction*%
%TD*%
M02*
