%TF.GenerationSoftware,KiCad,Pcbnew,10.0.5*%
%TF.CreationDate,2026-08-23T10:11:59+08:00*%
%TF.ProjectId,receiver-effects,72656365-6976-4657-922d-656666656374,rev?*%
%TF.SameCoordinates,Original*%
%TF.FileFunction,Copper,L3,Inr*%
%TF.FilePolarity,Positive*%
%FSLAX46Y46*%
G04 Gerber Fmt 4.6, Leading zero omitted, Abs format (unit mm)*
G04 Created by KiCad (PCBNEW 10.0.5) date 2026-08-23 10:11:59*
%MOMM*%
%LPD*%
G01*
G04 APERTURE LIST*
%TA.AperFunction,ComponentPad*%
%ADD10O,2.300000X1.300000*%
%TD*%
%TA.AperFunction,ComponentPad*%
%ADD11O,2.600000X1.300000*%
%TD*%
%TA.AperFunction,ViaPad*%
%ADD12C,0.600000*%
%TD*%
G04 APERTURE END LIST*
D10*
%TO.N,USB_SHIELD*%
%TO.C,J1*%
X129625000Y-100680000D03*
D11*
X125800000Y-100680000D03*
D10*
X129625000Y-109320000D03*
D11*
X125800000Y-109320000D03*
%TD*%
D12*
%TO.N,I2S_BCLK*%
X154201800Y-107264200D03*
X160880400Y-91132900D03*
X159209400Y-110688500D03*
%TO.N,3V3*%
X151190000Y-99942100D03*
%TO.N,USB_VBUS_5V*%
X165410500Y-89102400D03*
X164711900Y-109181000D03*
%TO.N,GND*%
X161426300Y-99454400D03*
X166002900Y-87346200D03*
X161426300Y-94618200D03*
X171059900Y-89375000D03*
X169868600Y-92075000D03*
%TO.N,TFT_BL_GATE_CTRL*%
X153237900Y-91659000D03*
X172062900Y-87319000D03*
%TO.N,AUDIO_GAIN_SLOT*%
X155027900Y-112005800D03*
X151453500Y-116693200D03*
%TO.N,PWR_GOOD_N*%
X150594100Y-97357900D03*
X166546100Y-91557000D03*
%TO.N,I2S_DOUT*%
X157415500Y-111659100D03*
X163083200Y-91175000D03*
%TO.N,I2S_LRCLK*%
X162711800Y-91870600D03*
X162871700Y-110454900D03*
%TO.N,USB_CC1*%
X129488700Y-97198000D03*
X131042100Y-103250000D03*
%TO.N,AUDIO_SD_CTRL*%
X157967200Y-110415800D03*
X162289800Y-93380800D03*
%TO.N,TFT_BL_3V3*%
X143780700Y-91377500D03*
X152637500Y-93975300D03*
%TO.N,USB_DM_PROT*%
X149036300Y-89408500D03*
X135884200Y-108244000D03*
%TO.N,USB_DP_PROT*%
X134650000Y-105272200D03*
X160899100Y-87548300D03*
%TO.N,RESET_N*%
X152403800Y-111332100D03*
X173025500Y-88498100D03*
%TO.N,TFT_RESET_N*%
X151282900Y-84833600D03*
X148746500Y-86538200D03*
%TO.N,TFT_MOSI*%
X145999000Y-90201500D03*
X167376000Y-86210800D03*
%TO.N,USB_CC2*%
X131129400Y-106250000D03*
X131129400Y-111218300D03*
%TD*%
%TA.AperFunction,Conductor*%
%TO.N,USB_VBUS_5V*%
G36*
X130595384Y-106005629D02*
G01*
X130605796Y-106009942D01*
X130645845Y-106049984D01*
X130645851Y-106049998D01*
X130645852Y-106049999D01*
X130647768Y-106054626D01*
X130650876Y-106102090D01*
X130628900Y-106184102D01*
X130628900Y-106184105D01*
X130628900Y-106315894D01*
X130663006Y-106443181D01*
X130663007Y-106443184D01*
X130663008Y-106443186D01*
X130728900Y-106557314D01*
X130822086Y-106650500D01*
X130936214Y-106716392D01*
X131058824Y-106749244D01*
X131062522Y-106750500D01*
X131195294Y-106750500D01*
X131205557Y-106750500D01*
X131214445Y-106745367D01*
X131322586Y-106716392D01*
X131436714Y-106650500D01*
X131529900Y-106557314D01*
X131595792Y-106443186D01*
X131624767Y-106335045D01*
X131629900Y-106326156D01*
X131629900Y-106183121D01*
X131628644Y-106179424D01*
X131609337Y-106107368D01*
X131607450Y-106078562D01*
X131608920Y-106067392D01*
X131637234Y-106018343D01*
X131641226Y-106015280D01*
X131686260Y-106000000D01*
X173111281Y-106000000D01*
X173139591Y-106005629D01*
X173150003Y-106009942D01*
X173190053Y-106049985D01*
X173190056Y-106049992D01*
X173194367Y-106060400D01*
X173200000Y-106088718D01*
X173200000Y-125610781D01*
X173194367Y-125639099D01*
X173190056Y-125649507D01*
X173150008Y-125689555D01*
X173150007Y-125689556D01*
X173139599Y-125693867D01*
X173111281Y-125699500D01*
X123889219Y-125699500D01*
X123860904Y-125693868D01*
X123850495Y-125689557D01*
X123810446Y-125649513D01*
X123806129Y-125639091D01*
X123800500Y-125610781D01*
X123800500Y-122889775D01*
X125099500Y-122889775D01*
X125099500Y-123110223D01*
X125133985Y-123327953D01*
X125133991Y-123327977D01*
X125202100Y-123537594D01*
X125202313Y-123538234D01*
X125203490Y-123540325D01*
X125302185Y-123734022D01*
X125431758Y-123912365D01*
X125587635Y-124068242D01*
X125765978Y-124197815D01*
X125914492Y-124273487D01*
X125924947Y-124285728D01*
X125962394Y-124297895D01*
X125962397Y-124297896D01*
X125962396Y-124297896D01*
X126169720Y-124365259D01*
X126171284Y-124365825D01*
X126171456Y-124365876D01*
X126171896Y-124365991D01*
X126199557Y-124370371D01*
X126280913Y-124383257D01*
X126389775Y-124400500D01*
X126610224Y-124400500D01*
X126610225Y-124400500D01*
X126631996Y-124397051D01*
X126697313Y-124386706D01*
X126827951Y-124366015D01*
X126827952Y-124366014D01*
X126828094Y-124365992D01*
X126829149Y-124365669D01*
X126829819Y-124365475D01*
X126831134Y-124364981D01*
X126923133Y-124335088D01*
X127037606Y-124297895D01*
X127234022Y-124197815D01*
X127412365Y-124068242D01*
X127568242Y-123912365D01*
X127697815Y-123734022D01*
X127797895Y-123537606D01*
X127866015Y-123327951D01*
X127900500Y-123110222D01*
X127900500Y-122889778D01*
X127900500Y-122889775D01*
X153099500Y-122889775D01*
X153099500Y-123110223D01*
X153133985Y-123327953D01*
X153133991Y-123327977D01*
X153202100Y-123537594D01*
X153202313Y-123538234D01*
X153203490Y-123540325D01*
X153302185Y-123734022D01*
X153431758Y-123912365D01*
X153587635Y-124068242D01*
X153765978Y-124197815D01*
X153914492Y-124273487D01*
X153924947Y-124285728D01*
X153962394Y-124297895D01*
X153962397Y-124297896D01*
X153962396Y-124297896D01*
X154169720Y-124365259D01*
X154171284Y-124365825D01*
X154171456Y-124365876D01*
X154171896Y-124365991D01*
X154199557Y-124370371D01*
X154280913Y-124383257D01*
X154389775Y-124400500D01*
X154610224Y-124400500D01*
X154610225Y-124400500D01*
X154631996Y-124397051D01*
X154697313Y-124386706D01*
X154827951Y-124366015D01*
X154827952Y-124366014D01*
X154828094Y-124365992D01*
X154829149Y-124365669D01*
X154829819Y-124365475D01*
X154831134Y-124364981D01*
X154923133Y-124335088D01*
X155037606Y-124297895D01*
X155234022Y-124197815D01*
X155412365Y-124068242D01*
X155568242Y-123912365D01*
X155697815Y-123734022D01*
X155797895Y-123537606D01*
X155866015Y-123327951D01*
X155900500Y-123110222D01*
X155900500Y-122889778D01*
X155866015Y-122672049D01*
X155866013Y-122672046D01*
X155865990Y-122671895D01*
X155865876Y-122671456D01*
X155865825Y-122671284D01*
X155865257Y-122669715D01*
X155798794Y-122465159D01*
X155798001Y-122462350D01*
X155796581Y-122459814D01*
X155700458Y-122271166D01*
X155697815Y-122265978D01*
X155568242Y-122087635D01*
X155412365Y-121931758D01*
X155412362Y-121931755D01*
X155412360Y-121931754D01*
X155308441Y-121856253D01*
X155234026Y-121802187D01*
X155234025Y-121802186D01*
X155085506Y-121726511D01*
X155075051Y-121714270D01*
X154827977Y-121633991D01*
X154827953Y-121633985D01*
X154827950Y-121633984D01*
X154827948Y-121633984D01*
X154704326Y-121614404D01*
X154610225Y-121599500D01*
X154610224Y-121599500D01*
X154610222Y-121599500D01*
X154389778Y-121599500D01*
X154389776Y-121599500D01*
X154389775Y-121599500D01*
X154172045Y-121633985D01*
X154172021Y-121633991D01*
X153962400Y-121702101D01*
X153771166Y-121799541D01*
X153767559Y-121801035D01*
X153587639Y-121931753D01*
X153429073Y-122090319D01*
X153426605Y-122094727D01*
X153301035Y-122267559D01*
X153299541Y-122271166D01*
X153202101Y-122462400D01*
X153133991Y-122672021D01*
X153133985Y-122672045D01*
X153099500Y-122889775D01*
X127900500Y-122889775D01*
X127866015Y-122672049D01*
X127866013Y-122672046D01*
X127865990Y-122671895D01*
X127865876Y-122671456D01*
X127865825Y-122671284D01*
X127865257Y-122669715D01*
X127798794Y-122465159D01*
X127798001Y-122462350D01*
X127796581Y-122459814D01*
X127700458Y-122271166D01*
X127697815Y-122265978D01*
X127568242Y-122087635D01*
X127412365Y-121931758D01*
X127412362Y-121931755D01*
X127412360Y-121931754D01*
X127308441Y-121856253D01*
X127234026Y-121802187D01*
X127234025Y-121802186D01*
X127085506Y-121726511D01*
X127075051Y-121714270D01*
X126827977Y-121633991D01*
X126827953Y-121633985D01*
X126827950Y-121633984D01*
X126827948Y-121633984D01*
X126704326Y-121614404D01*
X126610225Y-121599500D01*
X126610224Y-121599500D01*
X126610222Y-121599500D01*
X126389778Y-121599500D01*
X126389776Y-121599500D01*
X126389775Y-121599500D01*
X126172045Y-121633985D01*
X126172021Y-121633991D01*
X125962400Y-121702101D01*
X125771166Y-121799541D01*
X125767559Y-121801035D01*
X125587639Y-121931753D01*
X125429073Y-122090319D01*
X125426605Y-122094727D01*
X125301035Y-122267559D01*
X125299541Y-122271166D01*
X125202101Y-122462400D01*
X125133991Y-122672021D01*
X125133985Y-122672045D01*
X125099500Y-122889775D01*
X123800500Y-122889775D01*
X123800500Y-116627305D01*
X150953000Y-116627305D01*
X150953000Y-116759094D01*
X150987106Y-116886381D01*
X150987107Y-116886384D01*
X150987108Y-116886386D01*
X151053000Y-117000514D01*
X151146186Y-117093700D01*
X151260314Y-117159592D01*
X151382924Y-117192444D01*
X151386622Y-117193700D01*
X151519394Y-117193700D01*
X151529657Y-117193700D01*
X151538545Y-117188567D01*
X151646686Y-117159592D01*
X151760814Y-117093700D01*
X151854000Y-117000514D01*
X151919892Y-116886386D01*
X151948867Y-116778245D01*
X151954000Y-116769356D01*
X151954000Y-116626321D01*
X151952744Y-116622624D01*
X151920042Y-116500577D01*
X151919905Y-116500047D01*
X151919893Y-116500016D01*
X151919889Y-116500009D01*
X151854000Y-116385886D01*
X151760814Y-116292700D01*
X151760811Y-116292698D01*
X151760810Y-116292697D01*
X151646702Y-116226816D01*
X151646693Y-116226811D01*
X151646690Y-116226810D01*
X151646683Y-116226807D01*
X151646684Y-116226807D01*
X151646682Y-116226806D01*
X151646681Y-116226806D01*
X151519394Y-116192700D01*
X151519393Y-116192700D01*
X151387607Y-116192700D01*
X151387606Y-116192700D01*
X151287207Y-116219601D01*
X151260314Y-116226807D01*
X151260296Y-116226816D01*
X151146188Y-116292697D01*
X151052997Y-116385888D01*
X150987116Y-116499996D01*
X150987108Y-116500014D01*
X150987106Y-116500018D01*
X150953000Y-116627305D01*
X123800500Y-116627305D01*
X123800500Y-111939905D01*
X154527400Y-111939905D01*
X154527400Y-112071694D01*
X154561506Y-112198981D01*
X154561507Y-112198984D01*
X154561508Y-112198986D01*
X154627400Y-112313114D01*
X154720586Y-112406300D01*
X154834714Y-112472192D01*
X154957324Y-112505044D01*
X154961022Y-112506300D01*
X155093794Y-112506300D01*
X155104057Y-112506300D01*
X155112945Y-112501167D01*
X155221086Y-112472192D01*
X155335214Y-112406300D01*
X155428400Y-112313114D01*
X155494292Y-112198986D01*
X155523267Y-112090845D01*
X155528400Y-112081956D01*
X155528400Y-111938921D01*
X155527144Y-111935224D01*
X155494442Y-111813177D01*
X155494305Y-111812647D01*
X155494293Y-111812616D01*
X155494289Y-111812609D01*
X155428400Y-111698486D01*
X155428399Y-111698485D01*
X155428398Y-111698483D01*
X155373070Y-111643156D01*
X155335214Y-111605300D01*
X155314265Y-111593205D01*
X156915000Y-111593205D01*
X156915000Y-111724994D01*
X156949106Y-111852281D01*
X156949110Y-111852290D01*
X156999697Y-111939908D01*
X157015000Y-111966414D01*
X157108186Y-112059600D01*
X157222314Y-112125492D01*
X157344924Y-112158344D01*
X157348622Y-112159600D01*
X157481394Y-112159600D01*
X157491657Y-112159600D01*
X157500545Y-112154467D01*
X157608686Y-112125492D01*
X157722814Y-112059600D01*
X157816000Y-111966414D01*
X157881892Y-111852286D01*
X157910867Y-111744145D01*
X157916000Y-111735256D01*
X157916000Y-111592223D01*
X157914747Y-111588532D01*
X157897801Y-111525290D01*
X157881892Y-111465914D01*
X157816000Y-111351786D01*
X157722814Y-111258600D01*
X157722811Y-111258598D01*
X157722810Y-111258597D01*
X157608702Y-111192716D01*
X157608693Y-111192711D01*
X157608690Y-111192710D01*
X157608683Y-111192707D01*
X157608684Y-111192707D01*
X157608682Y-111192706D01*
X157608681Y-111192706D01*
X157481394Y-111158600D01*
X157481393Y-111158600D01*
X157349607Y-111158600D01*
X157349606Y-111158600D01*
X157255310Y-111183866D01*
X157222314Y-111192707D01*
X157222296Y-111192716D01*
X157108188Y-111258597D01*
X157014997Y-111351788D01*
X156949116Y-111465896D01*
X156949108Y-111465914D01*
X156949106Y-111465918D01*
X156915000Y-111593205D01*
X155314265Y-111593205D01*
X155308899Y-111590107D01*
X155308898Y-111590106D01*
X155221102Y-111539416D01*
X155221093Y-111539411D01*
X155221090Y-111539410D01*
X155221083Y-111539407D01*
X155221084Y-111539407D01*
X155221082Y-111539406D01*
X155221081Y-111539406D01*
X155093794Y-111505300D01*
X155093793Y-111505300D01*
X154962007Y-111505300D01*
X154962006Y-111505300D01*
X154887423Y-111525284D01*
X154834714Y-111539407D01*
X154834696Y-111539416D01*
X154720588Y-111605297D01*
X154627397Y-111698488D01*
X154561516Y-111812596D01*
X154561508Y-111812614D01*
X154561506Y-111812618D01*
X154527400Y-111939905D01*
X123800500Y-111939905D01*
X123800500Y-111152405D01*
X130628900Y-111152405D01*
X130628900Y-111284194D01*
X130663006Y-111411481D01*
X130663007Y-111411484D01*
X130663008Y-111411486D01*
X130728900Y-111525614D01*
X130822086Y-111618800D01*
X130936214Y-111684692D01*
X131058824Y-111717544D01*
X131062522Y-111718800D01*
X131195294Y-111718800D01*
X131205557Y-111718800D01*
X131214445Y-111713667D01*
X131322586Y-111684692D01*
X131436714Y-111618800D01*
X131529900Y-111525614D01*
X131595792Y-111411486D01*
X131629899Y-111284194D01*
X131629900Y-111284194D01*
X131629900Y-111266205D01*
X151903300Y-111266205D01*
X151903300Y-111397994D01*
X151921499Y-111465914D01*
X151937407Y-111525284D01*
X151937408Y-111525286D01*
X151937410Y-111525291D01*
X151976621Y-111593205D01*
X152003297Y-111639410D01*
X152003298Y-111639411D01*
X152003300Y-111639414D01*
X152096486Y-111732600D01*
X152210614Y-111798492D01*
X152333224Y-111831344D01*
X152336922Y-111832600D01*
X152469694Y-111832600D01*
X152479957Y-111832600D01*
X152488845Y-111827467D01*
X152596986Y-111798492D01*
X152711114Y-111732600D01*
X152804300Y-111639414D01*
X152870192Y-111525286D01*
X152899167Y-111417145D01*
X152904300Y-111408256D01*
X152904300Y-111265220D01*
X152903043Y-111261518D01*
X152874473Y-111154892D01*
X152874473Y-111154891D01*
X152874472Y-111154889D01*
X152870192Y-111138914D01*
X152804300Y-111024786D01*
X152711114Y-110931600D01*
X152624652Y-110881681D01*
X152624651Y-110881679D01*
X152597002Y-110865716D01*
X152596993Y-110865711D01*
X152596990Y-110865710D01*
X152596983Y-110865707D01*
X152596984Y-110865707D01*
X152596982Y-110865706D01*
X152596981Y-110865706D01*
X152469694Y-110831600D01*
X152469693Y-110831600D01*
X152337907Y-110831600D01*
X152337906Y-110831600D01*
X152249085Y-110855399D01*
X152210614Y-110865707D01*
X152210596Y-110865716D01*
X152096488Y-110931597D01*
X152003297Y-111024788D01*
X151937416Y-111138896D01*
X151937408Y-111138914D01*
X151937406Y-111138918D01*
X151903300Y-111266205D01*
X131629900Y-111266205D01*
X131629900Y-111152406D01*
X131629900Y-111151421D01*
X131628644Y-111147724D01*
X131595942Y-111025677D01*
X131595805Y-111025147D01*
X131595793Y-111025116D01*
X131595789Y-111025109D01*
X131529900Y-110910986D01*
X131436714Y-110817800D01*
X131436713Y-110817799D01*
X131436710Y-110817797D01*
X131434116Y-110816300D01*
X131434112Y-110816298D01*
X131322602Y-110751916D01*
X131322593Y-110751911D01*
X131322590Y-110751910D01*
X131322581Y-110751906D01*
X131195294Y-110717800D01*
X131195293Y-110717800D01*
X131063507Y-110717800D01*
X131063506Y-110717800D01*
X130963107Y-110744701D01*
X130936214Y-110751907D01*
X130936196Y-110751916D01*
X130822088Y-110817797D01*
X130728897Y-110910988D01*
X130663016Y-111025096D01*
X130663008Y-111025114D01*
X130663006Y-111025118D01*
X130628900Y-111152405D01*
X123800500Y-111152405D01*
X123800500Y-110349905D01*
X157466700Y-110349905D01*
X157466700Y-110481694D01*
X157482309Y-110539948D01*
X157500807Y-110608984D01*
X157500808Y-110608986D01*
X157500810Y-110608991D01*
X157523382Y-110648086D01*
X157566697Y-110723110D01*
X157566698Y-110723111D01*
X157566700Y-110723114D01*
X157659886Y-110816300D01*
X157774014Y-110882192D01*
X157896624Y-110915044D01*
X157900322Y-110916300D01*
X158033094Y-110916300D01*
X158043357Y-110916300D01*
X158052245Y-110911167D01*
X158160386Y-110882192D01*
X158274514Y-110816300D01*
X158367700Y-110723114D01*
X158425729Y-110622605D01*
X158708900Y-110622605D01*
X158708900Y-110754394D01*
X158743006Y-110881681D01*
X158743007Y-110881683D01*
X158743019Y-110881708D01*
X158765874Y-110921292D01*
X158765875Y-110921293D01*
X158808897Y-110995810D01*
X158808898Y-110995811D01*
X158808900Y-110995814D01*
X158902086Y-111089000D01*
X159016214Y-111154892D01*
X159138824Y-111187744D01*
X159142522Y-111189000D01*
X159275294Y-111189000D01*
X159285557Y-111189000D01*
X159294445Y-111183867D01*
X159402586Y-111154892D01*
X159516714Y-111089000D01*
X159609900Y-110995814D01*
X159675792Y-110881686D01*
X159704767Y-110773545D01*
X159709900Y-110764656D01*
X159709900Y-110621621D01*
X159708644Y-110617924D01*
X159675793Y-110495318D01*
X159675792Y-110495314D01*
X159614414Y-110389005D01*
X162371200Y-110389005D01*
X162371200Y-110520794D01*
X162405306Y-110648081D01*
X162405310Y-110648090D01*
X162465249Y-110751906D01*
X162465250Y-110751908D01*
X162471197Y-110762210D01*
X162471199Y-110762213D01*
X162471200Y-110762214D01*
X162564386Y-110855400D01*
X162678514Y-110921292D01*
X162801124Y-110954144D01*
X162804822Y-110955400D01*
X162937594Y-110955400D01*
X162947857Y-110955400D01*
X162956745Y-110950267D01*
X163064886Y-110921292D01*
X163179014Y-110855400D01*
X163272200Y-110762214D01*
X163338092Y-110648086D01*
X163367067Y-110539945D01*
X163372200Y-110531056D01*
X163372200Y-110388021D01*
X163370944Y-110384324D01*
X163338242Y-110262277D01*
X163338105Y-110261747D01*
X163338093Y-110261716D01*
X163338089Y-110261709D01*
X163272200Y-110147586D01*
X163179014Y-110054400D01*
X163111291Y-110015300D01*
X163111290Y-110015299D01*
X163064908Y-109988519D01*
X163064893Y-109988512D01*
X163064890Y-109988510D01*
X163064883Y-109988507D01*
X163064884Y-109988507D01*
X163064882Y-109988506D01*
X163064881Y-109988506D01*
X162937594Y-109954400D01*
X162937593Y-109954400D01*
X162805807Y-109954400D01*
X162805806Y-109954400D01*
X162707927Y-109980626D01*
X162678514Y-109988507D01*
X162678496Y-109988516D01*
X162564388Y-110054397D01*
X162471197Y-110147588D01*
X162405316Y-110261696D01*
X162405308Y-110261714D01*
X162405306Y-110261718D01*
X162371200Y-110389005D01*
X159614414Y-110389005D01*
X159609900Y-110381186D01*
X159516714Y-110288000D01*
X159516711Y-110287998D01*
X159516710Y-110287997D01*
X159402602Y-110222116D01*
X159402593Y-110222111D01*
X159402590Y-110222110D01*
X159402583Y-110222107D01*
X159402584Y-110222107D01*
X159402582Y-110222106D01*
X159402581Y-110222106D01*
X159275294Y-110188000D01*
X159275293Y-110188000D01*
X159143507Y-110188000D01*
X159143506Y-110188000D01*
X159043107Y-110214901D01*
X159016214Y-110222107D01*
X159016196Y-110222116D01*
X158902088Y-110287997D01*
X158808897Y-110381188D01*
X158743016Y-110495296D01*
X158743008Y-110495314D01*
X158743006Y-110495318D01*
X158708900Y-110622605D01*
X158425729Y-110622605D01*
X158433592Y-110608986D01*
X158467699Y-110481694D01*
X158467700Y-110481694D01*
X158467700Y-110348921D01*
X158466444Y-110345224D01*
X158433742Y-110223177D01*
X158433605Y-110222647D01*
X158433593Y-110222616D01*
X158433589Y-110222609D01*
X158367700Y-110108486D01*
X158274514Y-110015300D01*
X158274511Y-110015298D01*
X158274510Y-110015297D01*
X158160402Y-109949416D01*
X158160393Y-109949411D01*
X158160390Y-109949410D01*
X158160383Y-109949407D01*
X158160384Y-109949407D01*
X158160382Y-109949406D01*
X158160381Y-109949406D01*
X158033094Y-109915300D01*
X158033093Y-109915300D01*
X157901307Y-109915300D01*
X157901306Y-109915300D01*
X157800907Y-109942201D01*
X157774014Y-109949407D01*
X157773996Y-109949416D01*
X157659888Y-110015297D01*
X157566697Y-110108488D01*
X157500816Y-110222596D01*
X157500808Y-110222614D01*
X157500806Y-110222618D01*
X157466700Y-110349905D01*
X123800500Y-110349905D01*
X123800500Y-109236233D01*
X124299500Y-109236233D01*
X124299500Y-109403765D01*
X124332182Y-109568074D01*
X124332183Y-109568080D01*
X124396295Y-109722861D01*
X124400346Y-109728923D01*
X124489374Y-109862162D01*
X124607838Y-109980626D01*
X124747137Y-110073703D01*
X124901918Y-110137816D01*
X125066233Y-110170500D01*
X125066234Y-110170500D01*
X126533766Y-110170500D01*
X126533767Y-110170500D01*
X126698082Y-110137816D01*
X126852863Y-110073703D01*
X126992162Y-109980626D01*
X127110626Y-109862162D01*
X127203703Y-109722863D01*
X127267816Y-109568082D01*
X127300500Y-109403767D01*
X127300500Y-109236233D01*
X127267816Y-109071918D01*
X127203703Y-108917137D01*
X127110626Y-108777838D01*
X126992162Y-108659374D01*
X126992158Y-108659371D01*
X126969901Y-108644499D01*
X126852861Y-108566295D01*
X126698082Y-108502184D01*
X126698075Y-108502182D01*
X126698066Y-108502180D01*
X126698061Y-108502179D01*
X126574288Y-108477560D01*
X126566264Y-108475964D01*
X126533767Y-108469500D01*
X126533766Y-108469500D01*
X125066233Y-108469500D01*
X125033727Y-108475964D01*
X125033728Y-108475965D01*
X124901937Y-108502179D01*
X124901916Y-108502184D01*
X124747137Y-108566295D01*
X124607844Y-108659368D01*
X124489368Y-108777844D01*
X124396295Y-108917137D01*
X124332183Y-109071918D01*
X124332182Y-109071924D01*
X124299500Y-109236233D01*
X123800500Y-109236233D01*
X123800500Y-107920937D01*
X128174500Y-107920937D01*
X128174500Y-108079061D01*
X128215421Y-108231781D01*
X128215423Y-108231784D01*
X128294480Y-108368716D01*
X128406284Y-108480520D01*
X128528904Y-108551314D01*
X128529604Y-108551718D01*
X128544930Y-108563478D01*
X128557856Y-108576404D01*
X128579530Y-108628730D01*
X128579530Y-108632030D01*
X128557856Y-108684356D01*
X128464368Y-108777844D01*
X128371295Y-108917137D01*
X128307183Y-109071918D01*
X128307182Y-109071924D01*
X128274500Y-109236233D01*
X128274500Y-109403765D01*
X128307182Y-109568074D01*
X128307183Y-109568080D01*
X128371295Y-109722861D01*
X128375346Y-109728923D01*
X128464374Y-109862162D01*
X128582838Y-109980626D01*
X128722137Y-110073703D01*
X128876918Y-110137816D01*
X129041233Y-110170500D01*
X129041234Y-110170500D01*
X130208766Y-110170500D01*
X130208767Y-110170500D01*
X130373082Y-110137816D01*
X130527863Y-110073703D01*
X130667162Y-109980626D01*
X130785626Y-109862162D01*
X130878703Y-109722863D01*
X130942816Y-109568082D01*
X130975500Y-109403767D01*
X130975500Y-109236233D01*
X130942816Y-109071918D01*
X130878703Y-108917137D01*
X130785626Y-108777838D01*
X130667162Y-108659374D01*
X130667158Y-108659371D01*
X130644901Y-108644499D01*
X130527861Y-108566295D01*
X130373082Y-108502184D01*
X130373075Y-108502182D01*
X130373066Y-108502180D01*
X130373061Y-108502179D01*
X130249288Y-108477560D01*
X130241264Y-108475964D01*
X130208767Y-108469500D01*
X130208766Y-108469500D01*
X129590223Y-108469500D01*
X129561908Y-108463868D01*
X129551499Y-108459557D01*
X129511450Y-108419513D01*
X129511104Y-108418678D01*
X129508006Y-108371233D01*
X129508899Y-108367899D01*
X129516285Y-108350068D01*
X129584577Y-108231784D01*
X129598960Y-108178105D01*
X135383700Y-108178105D01*
X135383700Y-108309894D01*
X135417806Y-108437181D01*
X135417807Y-108437183D01*
X135417816Y-108437202D01*
X135455332Y-108502180D01*
X135455335Y-108502184D01*
X135483700Y-108551314D01*
X135576886Y-108644500D01*
X135691014Y-108710392D01*
X135813624Y-108743244D01*
X135817322Y-108744500D01*
X135950094Y-108744500D01*
X135960357Y-108744500D01*
X135969245Y-108739367D01*
X136077386Y-108710392D01*
X136191514Y-108644500D01*
X136284700Y-108551314D01*
X136350592Y-108437186D01*
X136379567Y-108329045D01*
X136384700Y-108320156D01*
X136384700Y-108177121D01*
X136383444Y-108173424D01*
X136350742Y-108051377D01*
X136350605Y-108050847D01*
X136350593Y-108050816D01*
X136350589Y-108050809D01*
X136284700Y-107936686D01*
X136191514Y-107843500D01*
X136191511Y-107843498D01*
X136191510Y-107843497D01*
X136077402Y-107777616D01*
X136077393Y-107777611D01*
X136077390Y-107777610D01*
X136077383Y-107777607D01*
X136077384Y-107777607D01*
X136077382Y-107777606D01*
X136077381Y-107777606D01*
X135950094Y-107743500D01*
X135950093Y-107743500D01*
X135818307Y-107743500D01*
X135818306Y-107743500D01*
X135758346Y-107759566D01*
X135691014Y-107777607D01*
X135690996Y-107777616D01*
X135576888Y-107843497D01*
X135483697Y-107936688D01*
X135417816Y-108050796D01*
X135417808Y-108050814D01*
X135417806Y-108050818D01*
X135383700Y-108178105D01*
X129598960Y-108178105D01*
X129620367Y-108098210D01*
X129625500Y-108089321D01*
X129625500Y-107919956D01*
X129624243Y-107916254D01*
X129587093Y-107777608D01*
X129584577Y-107768216D01*
X129505520Y-107631284D01*
X129393716Y-107519480D01*
X129286162Y-107457384D01*
X129256781Y-107440421D01*
X129104061Y-107399500D01*
X129104059Y-107399500D01*
X129104057Y-107399500D01*
X128695943Y-107399500D01*
X128695941Y-107399500D01*
X128695939Y-107399500D01*
X128543226Y-107440419D01*
X128543221Y-107440420D01*
X128543220Y-107440421D01*
X128543218Y-107440421D01*
X128543215Y-107440423D01*
X128543210Y-107440425D01*
X128406282Y-107519480D01*
X128294480Y-107631282D01*
X128215425Y-107768210D01*
X128215420Y-107768221D01*
X128174500Y-107920937D01*
X123800500Y-107920937D01*
X123800500Y-107198305D01*
X153701300Y-107198305D01*
X153701300Y-107330094D01*
X153735406Y-107457381D01*
X153735407Y-107457384D01*
X153735408Y-107457386D01*
X153801300Y-107571514D01*
X153894486Y-107664700D01*
X154008614Y-107730592D01*
X154131224Y-107763444D01*
X154134922Y-107764700D01*
X154267694Y-107764700D01*
X154277957Y-107764700D01*
X154286845Y-107759567D01*
X154394986Y-107730592D01*
X154509114Y-107664700D01*
X154602300Y-107571514D01*
X154668192Y-107457386D01*
X154697167Y-107349245D01*
X154702300Y-107340356D01*
X154702300Y-107197321D01*
X154701044Y-107193624D01*
X154668342Y-107071577D01*
X154668205Y-107071047D01*
X154668193Y-107071016D01*
X154668189Y-107071009D01*
X154602300Y-106956886D01*
X154509114Y-106863700D01*
X154509111Y-106863698D01*
X154509110Y-106863697D01*
X154395002Y-106797816D01*
X154394993Y-106797811D01*
X154394990Y-106797810D01*
X154394983Y-106797807D01*
X154394984Y-106797807D01*
X154394982Y-106797806D01*
X154394981Y-106797806D01*
X154267694Y-106763700D01*
X154267693Y-106763700D01*
X154135907Y-106763700D01*
X154135906Y-106763700D01*
X154035507Y-106790601D01*
X154008614Y-106797807D01*
X154008596Y-106797816D01*
X153894488Y-106863697D01*
X153801297Y-106956888D01*
X153735416Y-107070996D01*
X153735408Y-107071014D01*
X153735406Y-107071018D01*
X153701300Y-107198305D01*
X123800500Y-107198305D01*
X123800500Y-106088718D01*
X123806129Y-106060409D01*
X123810443Y-106049994D01*
X123850482Y-106009948D01*
X123860911Y-106005628D01*
X123889219Y-106000000D01*
X130567074Y-106000000D01*
X130595384Y-106005629D01*
G37*
%TD.AperFunction*%
%TD*%
%TA.AperFunction,Conductor*%
%TO.N,3V3*%
G36*
X150983374Y-84321674D02*
G01*
X151005048Y-84374000D01*
X150983374Y-84426326D01*
X150976096Y-84432708D01*
X150975588Y-84433097D01*
X150882400Y-84526285D01*
X150816510Y-84640409D01*
X150816506Y-84640418D01*
X150782400Y-84767705D01*
X150782400Y-84899494D01*
X150816506Y-85026781D01*
X150816507Y-85026784D01*
X150816508Y-85026786D01*
X150882400Y-85140914D01*
X150975586Y-85234100D01*
X151089714Y-85299992D01*
X151217005Y-85334099D01*
X151217006Y-85334100D01*
X151217008Y-85334100D01*
X151348794Y-85334100D01*
X151348794Y-85334099D01*
X151476086Y-85299992D01*
X151590214Y-85234100D01*
X151683400Y-85140914D01*
X151749292Y-85026786D01*
X151783399Y-84899494D01*
X151783400Y-84899494D01*
X151783400Y-84767706D01*
X151783399Y-84767705D01*
X151749293Y-84640418D01*
X151749292Y-84640414D01*
X151683400Y-84526286D01*
X151590214Y-84433100D01*
X151590211Y-84433097D01*
X151589704Y-84432708D01*
X151589542Y-84432428D01*
X151586784Y-84429670D01*
X151587523Y-84428930D01*
X151561385Y-84383659D01*
X151576044Y-84328952D01*
X151625093Y-84300633D01*
X151634752Y-84300000D01*
X173126000Y-84300000D01*
X173178326Y-84321674D01*
X173200000Y-84374000D01*
X173200000Y-87930262D01*
X173178326Y-87982588D01*
X173126000Y-88004262D01*
X173106850Y-88001741D01*
X173091393Y-87997600D01*
X173091392Y-87997600D01*
X172959608Y-87997600D01*
X172959606Y-87997600D01*
X172832318Y-88031706D01*
X172832309Y-88031710D01*
X172718185Y-88097600D01*
X172625000Y-88190785D01*
X172559110Y-88304909D01*
X172559106Y-88304918D01*
X172525000Y-88432205D01*
X172525000Y-88563994D01*
X172559106Y-88691281D01*
X172559107Y-88691284D01*
X172559108Y-88691286D01*
X172625000Y-88805414D01*
X172718186Y-88898600D01*
X172832314Y-88964492D01*
X172959605Y-88998599D01*
X172959606Y-88998600D01*
X172959608Y-88998600D01*
X173091393Y-88998600D01*
X173101239Y-88995961D01*
X173106846Y-88994459D01*
X173162999Y-89001850D01*
X173197478Y-89046783D01*
X173200000Y-89065937D01*
X173200000Y-105426000D01*
X173178326Y-105478326D01*
X173126000Y-105500000D01*
X135203556Y-105500000D01*
X135151230Y-105478326D01*
X135129556Y-105426000D01*
X135132077Y-105406848D01*
X135150500Y-105338091D01*
X135150500Y-105206306D01*
X135150499Y-105206305D01*
X135116393Y-105079018D01*
X135116392Y-105079014D01*
X135050500Y-104964886D01*
X134957314Y-104871700D01*
X134843190Y-104805810D01*
X134843181Y-104805806D01*
X134715894Y-104771700D01*
X134715892Y-104771700D01*
X134584108Y-104771700D01*
X134584106Y-104771700D01*
X134456818Y-104805806D01*
X134456809Y-104805810D01*
X134342685Y-104871700D01*
X134249500Y-104964885D01*
X134183610Y-105079009D01*
X134183606Y-105079018D01*
X134149500Y-105206305D01*
X134149500Y-105338091D01*
X134167923Y-105406848D01*
X134160530Y-105463000D01*
X134115596Y-105497479D01*
X134096444Y-105500000D01*
X123874500Y-105500000D01*
X123822174Y-105478326D01*
X123800500Y-105426000D01*
X123800500Y-103184105D01*
X130541600Y-103184105D01*
X130541600Y-103315894D01*
X130575706Y-103443181D01*
X130575707Y-103443184D01*
X130575708Y-103443186D01*
X130641600Y-103557314D01*
X130734786Y-103650500D01*
X130848914Y-103716392D01*
X130976205Y-103750499D01*
X130976206Y-103750500D01*
X130976208Y-103750500D01*
X131107994Y-103750500D01*
X131107994Y-103750499D01*
X131235286Y-103716392D01*
X131349414Y-103650500D01*
X131442600Y-103557314D01*
X131508492Y-103443186D01*
X131542599Y-103315894D01*
X131542600Y-103315894D01*
X131542600Y-103184106D01*
X131542599Y-103184105D01*
X131508493Y-103056818D01*
X131508492Y-103056814D01*
X131442600Y-102942686D01*
X131349414Y-102849500D01*
X131235290Y-102783610D01*
X131235281Y-102783606D01*
X131107994Y-102749500D01*
X131107992Y-102749500D01*
X130976208Y-102749500D01*
X130976206Y-102749500D01*
X130848918Y-102783606D01*
X130848909Y-102783610D01*
X130734785Y-102849500D01*
X130641600Y-102942685D01*
X130575710Y-103056809D01*
X130575706Y-103056818D01*
X130541600Y-103184105D01*
X123800500Y-103184105D01*
X123800500Y-100596233D01*
X124299500Y-100596233D01*
X124299500Y-100763766D01*
X124332182Y-100928075D01*
X124332184Y-100928082D01*
X124396296Y-101082862D01*
X124396297Y-101082863D01*
X124489374Y-101222162D01*
X124607838Y-101340626D01*
X124747137Y-101433703D01*
X124901918Y-101497816D01*
X125066233Y-101530500D01*
X125066234Y-101530500D01*
X126533766Y-101530500D01*
X126533767Y-101530500D01*
X126698082Y-101497816D01*
X126852863Y-101433703D01*
X126992162Y-101340626D01*
X127110626Y-101222162D01*
X127203703Y-101082863D01*
X127267816Y-100928082D01*
X127300500Y-100763767D01*
X127300500Y-100596233D01*
X128274500Y-100596233D01*
X128274500Y-100763766D01*
X128307182Y-100928075D01*
X128307184Y-100928082D01*
X128371296Y-101082862D01*
X128371297Y-101082863D01*
X128464374Y-101222162D01*
X128582838Y-101340626D01*
X128582841Y-101340628D01*
X128696298Y-101416438D01*
X128727764Y-101463531D01*
X128716715Y-101519079D01*
X128692186Y-101542053D01*
X128592685Y-101599500D01*
X128499500Y-101692685D01*
X128433610Y-101806809D01*
X128433606Y-101806818D01*
X128399500Y-101934105D01*
X128399500Y-102065894D01*
X128433606Y-102193181D01*
X128433607Y-102193184D01*
X128433608Y-102193186D01*
X128499500Y-102307314D01*
X128592686Y-102400500D01*
X128706814Y-102466392D01*
X128834105Y-102500499D01*
X128834106Y-102500500D01*
X128834108Y-102500500D01*
X128965894Y-102500500D01*
X128965894Y-102500499D01*
X129093186Y-102466392D01*
X129207314Y-102400500D01*
X129300500Y-102307314D01*
X129366392Y-102193186D01*
X129400499Y-102065894D01*
X129400500Y-102065894D01*
X129400500Y-101934106D01*
X129400499Y-101934105D01*
X129366393Y-101806818D01*
X129366392Y-101806814D01*
X129300500Y-101692686D01*
X129264640Y-101656826D01*
X129242966Y-101604500D01*
X129264640Y-101552174D01*
X129316966Y-101530500D01*
X130208766Y-101530500D01*
X130208767Y-101530500D01*
X130373082Y-101497816D01*
X130527863Y-101433703D01*
X130667162Y-101340626D01*
X130785626Y-101222162D01*
X130878703Y-101082863D01*
X130942816Y-100928082D01*
X130975500Y-100763767D01*
X130975500Y-100596233D01*
X130942816Y-100431918D01*
X130878703Y-100277137D01*
X130785626Y-100137838D01*
X130667162Y-100019374D01*
X130667158Y-100019371D01*
X130527862Y-99926296D01*
X130373082Y-99862184D01*
X130373075Y-99862182D01*
X130249288Y-99837560D01*
X130208767Y-99829500D01*
X129041233Y-99829500D01*
X129008728Y-99835965D01*
X128876924Y-99862182D01*
X128876917Y-99862184D01*
X128722137Y-99926296D01*
X128582841Y-100019371D01*
X128464371Y-100137841D01*
X128371296Y-100277137D01*
X128307184Y-100431917D01*
X128307182Y-100431924D01*
X128274500Y-100596233D01*
X127300500Y-100596233D01*
X127267816Y-100431918D01*
X127203703Y-100277137D01*
X127110626Y-100137838D01*
X126992162Y-100019374D01*
X126992158Y-100019371D01*
X126852862Y-99926296D01*
X126698082Y-99862184D01*
X126698075Y-99862182D01*
X126574288Y-99837560D01*
X126533767Y-99829500D01*
X125066233Y-99829500D01*
X125033728Y-99835965D01*
X124901924Y-99862182D01*
X124901917Y-99862184D01*
X124747137Y-99926296D01*
X124607841Y-100019371D01*
X124489371Y-100137841D01*
X124396296Y-100277137D01*
X124332184Y-100431917D01*
X124332182Y-100431924D01*
X124299500Y-100596233D01*
X123800500Y-100596233D01*
X123800500Y-99388505D01*
X160925800Y-99388505D01*
X160925800Y-99520294D01*
X160959906Y-99647581D01*
X160959907Y-99647584D01*
X160959908Y-99647586D01*
X161025800Y-99761714D01*
X161118986Y-99854900D01*
X161233114Y-99920792D01*
X161360405Y-99954899D01*
X161360406Y-99954900D01*
X161360408Y-99954900D01*
X161492194Y-99954900D01*
X161492194Y-99954899D01*
X161619486Y-99920792D01*
X161733614Y-99854900D01*
X161826800Y-99761714D01*
X161892692Y-99647586D01*
X161926799Y-99520294D01*
X161926800Y-99520294D01*
X161926800Y-99388506D01*
X161926799Y-99388505D01*
X161892693Y-99261218D01*
X161892692Y-99261214D01*
X161826800Y-99147086D01*
X161733614Y-99053900D01*
X161619490Y-98988010D01*
X161619481Y-98988006D01*
X161492194Y-98953900D01*
X161492192Y-98953900D01*
X161360408Y-98953900D01*
X161360406Y-98953900D01*
X161233118Y-98988006D01*
X161233109Y-98988010D01*
X161118985Y-99053900D01*
X161025800Y-99147085D01*
X160959910Y-99261209D01*
X160959906Y-99261218D01*
X160925800Y-99388505D01*
X123800500Y-99388505D01*
X123800500Y-97132105D01*
X128988200Y-97132105D01*
X128988200Y-97263894D01*
X129022306Y-97391181D01*
X129022307Y-97391184D01*
X129022308Y-97391186D01*
X129088200Y-97505314D01*
X129181386Y-97598500D01*
X129295514Y-97664392D01*
X129422805Y-97698499D01*
X129422806Y-97698500D01*
X129422808Y-97698500D01*
X129554594Y-97698500D01*
X129554594Y-97698499D01*
X129681886Y-97664392D01*
X129796014Y-97598500D01*
X129889200Y-97505314D01*
X129955092Y-97391186D01*
X129963078Y-97361381D01*
X129981668Y-97292005D01*
X150093600Y-97292005D01*
X150093600Y-97423794D01*
X150127706Y-97551081D01*
X150127710Y-97551090D01*
X150193124Y-97664389D01*
X150193600Y-97665214D01*
X150286786Y-97758400D01*
X150400914Y-97824292D01*
X150528205Y-97858399D01*
X150528206Y-97858400D01*
X150528208Y-97858400D01*
X150659994Y-97858400D01*
X150659994Y-97858399D01*
X150787286Y-97824292D01*
X150901414Y-97758400D01*
X150994600Y-97665214D01*
X151060492Y-97551086D01*
X151094599Y-97423794D01*
X151094600Y-97423794D01*
X151094600Y-97292006D01*
X151094599Y-97292005D01*
X151060493Y-97164718D01*
X151060492Y-97164714D01*
X150994600Y-97050586D01*
X150901414Y-96957400D01*
X150787290Y-96891510D01*
X150787281Y-96891506D01*
X150659994Y-96857400D01*
X150659992Y-96857400D01*
X150528208Y-96857400D01*
X150528206Y-96857400D01*
X150400918Y-96891506D01*
X150400909Y-96891510D01*
X150286785Y-96957400D01*
X150193600Y-97050585D01*
X150127710Y-97164709D01*
X150127706Y-97164718D01*
X150093600Y-97292005D01*
X129981668Y-97292005D01*
X129988099Y-97268005D01*
X129988099Y-97268004D01*
X129989199Y-97263897D01*
X129989200Y-97263894D01*
X129989200Y-97132106D01*
X129989199Y-97132105D01*
X129955093Y-97004818D01*
X129955092Y-97004814D01*
X129889200Y-96890686D01*
X129796014Y-96797500D01*
X129681890Y-96731610D01*
X129681881Y-96731606D01*
X129554594Y-96697500D01*
X129554592Y-96697500D01*
X129422808Y-96697500D01*
X129422806Y-96697500D01*
X129295518Y-96731606D01*
X129295509Y-96731610D01*
X129181385Y-96797500D01*
X129088200Y-96890685D01*
X129022310Y-97004809D01*
X129022306Y-97004818D01*
X128988200Y-97132105D01*
X123800500Y-97132105D01*
X123800500Y-94552305D01*
X160925800Y-94552305D01*
X160925800Y-94684094D01*
X160959906Y-94811381D01*
X160959907Y-94811384D01*
X160959908Y-94811386D01*
X161025800Y-94925514D01*
X161118986Y-95018700D01*
X161233114Y-95084592D01*
X161360405Y-95118699D01*
X161360406Y-95118700D01*
X161360408Y-95118700D01*
X161492194Y-95118700D01*
X161492194Y-95118699D01*
X161619486Y-95084592D01*
X161733614Y-95018700D01*
X161826800Y-94925514D01*
X161892692Y-94811386D01*
X161926799Y-94684094D01*
X161926800Y-94684094D01*
X161926800Y-94552306D01*
X161926799Y-94552305D01*
X161892693Y-94425018D01*
X161892692Y-94425014D01*
X161826800Y-94310886D01*
X161733614Y-94217700D01*
X161648373Y-94168486D01*
X161619490Y-94151810D01*
X161619481Y-94151806D01*
X161492194Y-94117700D01*
X161492192Y-94117700D01*
X161360408Y-94117700D01*
X161360406Y-94117700D01*
X161233118Y-94151806D01*
X161233109Y-94151810D01*
X161118985Y-94217700D01*
X161025800Y-94310885D01*
X160959910Y-94425009D01*
X160959906Y-94425018D01*
X160925800Y-94552305D01*
X123800500Y-94552305D01*
X123800500Y-93909405D01*
X152137000Y-93909405D01*
X152137000Y-94041194D01*
X152171106Y-94168481D01*
X152171107Y-94168484D01*
X152171108Y-94168486D01*
X152237000Y-94282614D01*
X152330186Y-94375800D01*
X152444314Y-94441692D01*
X152571605Y-94475799D01*
X152571606Y-94475800D01*
X152571608Y-94475800D01*
X152703394Y-94475800D01*
X152703394Y-94475799D01*
X152830686Y-94441692D01*
X152944814Y-94375800D01*
X153038000Y-94282614D01*
X153103892Y-94168486D01*
X153137999Y-94041194D01*
X153138000Y-94041194D01*
X153138000Y-93909406D01*
X153137999Y-93909405D01*
X153130468Y-93881300D01*
X153103892Y-93782114D01*
X153038000Y-93667986D01*
X152944814Y-93574800D01*
X152943395Y-93573981D01*
X152830690Y-93508910D01*
X152830681Y-93508906D01*
X152703394Y-93474800D01*
X152703392Y-93474800D01*
X152571608Y-93474800D01*
X152571606Y-93474800D01*
X152444318Y-93508906D01*
X152444309Y-93508910D01*
X152330185Y-93574800D01*
X152237000Y-93667985D01*
X152171110Y-93782109D01*
X152171106Y-93782118D01*
X152137000Y-93909405D01*
X123800500Y-93909405D01*
X123800500Y-93314905D01*
X161789300Y-93314905D01*
X161789300Y-93446694D01*
X161823406Y-93573981D01*
X161823407Y-93573984D01*
X161823408Y-93573986D01*
X161889300Y-93688114D01*
X161982486Y-93781300D01*
X162096614Y-93847192D01*
X162223905Y-93881299D01*
X162223906Y-93881300D01*
X162223908Y-93881300D01*
X162355694Y-93881300D01*
X162355694Y-93881299D01*
X162482986Y-93847192D01*
X162597114Y-93781300D01*
X162690300Y-93688114D01*
X162756192Y-93573986D01*
X162790299Y-93446694D01*
X162790300Y-93446694D01*
X162790300Y-93314906D01*
X162790299Y-93314905D01*
X162756193Y-93187618D01*
X162756192Y-93187614D01*
X162690300Y-93073486D01*
X162597114Y-92980300D01*
X162482990Y-92914410D01*
X162482981Y-92914406D01*
X162355694Y-92880300D01*
X162355692Y-92880300D01*
X162223908Y-92880300D01*
X162223906Y-92880300D01*
X162096618Y-92914406D01*
X162096609Y-92914410D01*
X161982485Y-92980300D01*
X161889300Y-93073485D01*
X161823410Y-93187609D01*
X161823406Y-93187618D01*
X161789300Y-93314905D01*
X123800500Y-93314905D01*
X123800500Y-91311605D01*
X143280200Y-91311605D01*
X143280200Y-91443394D01*
X143314306Y-91570681D01*
X143314310Y-91570690D01*
X143330824Y-91599293D01*
X143380200Y-91684814D01*
X143473386Y-91778000D01*
X143587514Y-91843892D01*
X143714805Y-91877999D01*
X143714806Y-91878000D01*
X143714808Y-91878000D01*
X143846594Y-91878000D01*
X143846594Y-91877999D01*
X143973886Y-91843892D01*
X144088014Y-91778000D01*
X144181200Y-91684814D01*
X144234148Y-91593105D01*
X152737400Y-91593105D01*
X152737400Y-91724894D01*
X152771506Y-91852181D01*
X152771510Y-91852190D01*
X152832311Y-91957499D01*
X152837400Y-91966314D01*
X152930586Y-92059500D01*
X153044714Y-92125392D01*
X153172005Y-92159499D01*
X153172006Y-92159500D01*
X153172008Y-92159500D01*
X153303794Y-92159500D01*
X153303794Y-92159499D01*
X153431086Y-92125392D01*
X153545214Y-92059500D01*
X153638400Y-91966314D01*
X153704292Y-91852186D01*
X153717014Y-91804705D01*
X162211300Y-91804705D01*
X162211300Y-91936494D01*
X162245406Y-92063781D01*
X162245410Y-92063790D01*
X162280976Y-92125392D01*
X162311300Y-92177914D01*
X162404486Y-92271100D01*
X162518614Y-92336992D01*
X162645905Y-92371099D01*
X162645906Y-92371100D01*
X162645908Y-92371100D01*
X162777694Y-92371100D01*
X162777694Y-92371099D01*
X162904986Y-92336992D01*
X163019114Y-92271100D01*
X163112300Y-92177914D01*
X163178192Y-92063786D01*
X163212299Y-91936494D01*
X163212300Y-91936494D01*
X163212300Y-91804706D01*
X163212299Y-91804705D01*
X163194917Y-91739832D01*
X163202309Y-91683679D01*
X163247242Y-91649201D01*
X163247242Y-91649200D01*
X163276386Y-91641392D01*
X163390514Y-91575500D01*
X163474909Y-91491105D01*
X166045600Y-91491105D01*
X166045600Y-91622894D01*
X166079706Y-91750181D01*
X166079710Y-91750190D01*
X166111185Y-91804706D01*
X166145600Y-91864314D01*
X166238786Y-91957500D01*
X166352914Y-92023392D01*
X166480205Y-92057499D01*
X166480206Y-92057500D01*
X166480208Y-92057500D01*
X166611994Y-92057500D01*
X166611994Y-92057499D01*
X166739286Y-92023392D01*
X166764032Y-92009105D01*
X169368100Y-92009105D01*
X169368100Y-92140894D01*
X169402206Y-92268181D01*
X169402210Y-92268190D01*
X169441933Y-92336992D01*
X169468100Y-92382314D01*
X169561286Y-92475500D01*
X169675414Y-92541392D01*
X169802705Y-92575499D01*
X169802706Y-92575500D01*
X169802708Y-92575500D01*
X169934494Y-92575500D01*
X169934494Y-92575499D01*
X170061786Y-92541392D01*
X170175914Y-92475500D01*
X170269100Y-92382314D01*
X170334992Y-92268186D01*
X170369099Y-92140894D01*
X170369100Y-92140894D01*
X170369100Y-92009106D01*
X170369099Y-92009105D01*
X170355271Y-91957499D01*
X170334992Y-91881814D01*
X170269100Y-91767686D01*
X170175914Y-91674500D01*
X170132093Y-91649200D01*
X170061790Y-91608610D01*
X170061781Y-91608606D01*
X169934494Y-91574500D01*
X169934492Y-91574500D01*
X169802708Y-91574500D01*
X169802706Y-91574500D01*
X169675418Y-91608606D01*
X169675409Y-91608610D01*
X169561285Y-91674500D01*
X169468100Y-91767685D01*
X169402210Y-91881809D01*
X169402206Y-91881818D01*
X169368100Y-92009105D01*
X166764032Y-92009105D01*
X166853414Y-91957500D01*
X166946600Y-91864314D01*
X167012492Y-91750186D01*
X167046599Y-91622894D01*
X167046600Y-91622894D01*
X167046600Y-91491106D01*
X167046599Y-91491105D01*
X167044243Y-91482314D01*
X167012492Y-91363814D01*
X166946600Y-91249686D01*
X166853414Y-91156500D01*
X166771329Y-91109108D01*
X166739290Y-91090610D01*
X166739281Y-91090606D01*
X166611994Y-91056500D01*
X166611992Y-91056500D01*
X166480208Y-91056500D01*
X166480206Y-91056500D01*
X166352918Y-91090606D01*
X166352909Y-91090610D01*
X166238785Y-91156500D01*
X166145600Y-91249685D01*
X166079710Y-91363809D01*
X166079706Y-91363818D01*
X166045600Y-91491105D01*
X163474909Y-91491105D01*
X163483700Y-91482314D01*
X163549592Y-91368186D01*
X163583699Y-91240894D01*
X163583700Y-91240894D01*
X163583700Y-91109106D01*
X163583699Y-91109105D01*
X163578743Y-91090610D01*
X163549592Y-90981814D01*
X163483700Y-90867686D01*
X163390514Y-90774500D01*
X163317595Y-90732400D01*
X163276390Y-90708610D01*
X163276381Y-90708606D01*
X163149094Y-90674500D01*
X163149092Y-90674500D01*
X163017308Y-90674500D01*
X163017306Y-90674500D01*
X162890018Y-90708606D01*
X162890009Y-90708610D01*
X162775885Y-90774500D01*
X162682700Y-90867685D01*
X162616810Y-90981809D01*
X162616806Y-90981818D01*
X162582700Y-91109105D01*
X162582700Y-91109108D01*
X162582700Y-91240892D01*
X162587418Y-91258500D01*
X162600083Y-91305768D01*
X162592690Y-91361920D01*
X162547758Y-91396398D01*
X162518616Y-91404207D01*
X162518612Y-91404208D01*
X162404485Y-91470100D01*
X162311300Y-91563285D01*
X162245410Y-91677409D01*
X162245406Y-91677418D01*
X162211300Y-91804705D01*
X153717014Y-91804705D01*
X153738399Y-91724894D01*
X153738400Y-91724894D01*
X153738400Y-91593106D01*
X153738399Y-91593105D01*
X153704293Y-91465818D01*
X153704292Y-91465814D01*
X153638400Y-91351686D01*
X153545214Y-91258500D01*
X153514716Y-91240892D01*
X153431090Y-91192610D01*
X153431081Y-91192606D01*
X153303794Y-91158500D01*
X153303792Y-91158500D01*
X153172008Y-91158500D01*
X153172006Y-91158500D01*
X153044718Y-91192606D01*
X153044709Y-91192610D01*
X152930585Y-91258500D01*
X152837400Y-91351685D01*
X152771510Y-91465809D01*
X152771506Y-91465818D01*
X152737400Y-91593105D01*
X144234148Y-91593105D01*
X144247092Y-91570686D01*
X144281200Y-91443392D01*
X144281200Y-91311608D01*
X144281200Y-91311606D01*
X144281199Y-91311605D01*
X144262251Y-91240891D01*
X144247092Y-91184314D01*
X144181200Y-91070186D01*
X144178019Y-91067005D01*
X160379900Y-91067005D01*
X160379900Y-91198794D01*
X160414006Y-91326081D01*
X160414010Y-91326090D01*
X160438317Y-91368190D01*
X160479900Y-91440214D01*
X160573086Y-91533400D01*
X160687214Y-91599292D01*
X160814505Y-91633399D01*
X160814506Y-91633400D01*
X160814508Y-91633400D01*
X160946294Y-91633400D01*
X160946294Y-91633399D01*
X161073586Y-91599292D01*
X161187714Y-91533400D01*
X161280900Y-91440214D01*
X161346792Y-91326086D01*
X161380899Y-91198794D01*
X161380900Y-91198794D01*
X161380900Y-91067006D01*
X161380899Y-91067005D01*
X161358072Y-90981814D01*
X161346792Y-90939714D01*
X161280900Y-90825586D01*
X161187714Y-90732400D01*
X161075985Y-90667893D01*
X161073590Y-90666510D01*
X161073581Y-90666506D01*
X160946294Y-90632400D01*
X160946292Y-90632400D01*
X160814508Y-90632400D01*
X160814506Y-90632400D01*
X160687218Y-90666506D01*
X160687209Y-90666510D01*
X160573085Y-90732400D01*
X160479900Y-90825585D01*
X160414010Y-90939709D01*
X160414006Y-90939718D01*
X160379900Y-91067005D01*
X144178019Y-91067005D01*
X144088014Y-90977000D01*
X144023433Y-90939714D01*
X143973890Y-90911110D01*
X143973881Y-90911106D01*
X143846594Y-90877000D01*
X143846592Y-90877000D01*
X143714808Y-90877000D01*
X143714806Y-90877000D01*
X143587518Y-90911106D01*
X143587509Y-90911110D01*
X143473385Y-90977000D01*
X143380200Y-91070185D01*
X143314310Y-91184309D01*
X143314306Y-91184318D01*
X143280200Y-91311605D01*
X123800500Y-91311605D01*
X123800500Y-90135605D01*
X145498500Y-90135605D01*
X145498500Y-90267394D01*
X145532606Y-90394681D01*
X145532607Y-90394684D01*
X145532608Y-90394686D01*
X145598500Y-90508814D01*
X145691686Y-90602000D01*
X145805814Y-90667892D01*
X145933105Y-90701999D01*
X145933106Y-90702000D01*
X145933108Y-90702000D01*
X146064894Y-90702000D01*
X146064894Y-90701999D01*
X146192186Y-90667892D01*
X146306314Y-90602000D01*
X146399500Y-90508814D01*
X146465392Y-90394686D01*
X146499499Y-90267394D01*
X146499500Y-90267394D01*
X146499500Y-90135606D01*
X146499499Y-90135605D01*
X146465393Y-90008318D01*
X146465392Y-90008314D01*
X146399500Y-89894186D01*
X146306314Y-89801000D01*
X146262145Y-89775499D01*
X146192190Y-89735110D01*
X146192181Y-89735106D01*
X146064894Y-89701000D01*
X146064892Y-89701000D01*
X145933108Y-89701000D01*
X145933106Y-89701000D01*
X145805818Y-89735106D01*
X145805809Y-89735110D01*
X145691685Y-89801000D01*
X145598500Y-89894185D01*
X145532610Y-90008309D01*
X145532606Y-90008318D01*
X145498500Y-90135605D01*
X123800500Y-90135605D01*
X123800500Y-89342605D01*
X148535800Y-89342605D01*
X148535800Y-89474394D01*
X148569906Y-89601681D01*
X148569907Y-89601684D01*
X148569908Y-89601686D01*
X148635800Y-89715814D01*
X148728986Y-89809000D01*
X148843114Y-89874892D01*
X148970405Y-89908999D01*
X148970406Y-89909000D01*
X148970408Y-89909000D01*
X149102194Y-89909000D01*
X149102194Y-89908999D01*
X149229486Y-89874892D01*
X149343614Y-89809000D01*
X149436800Y-89715814D01*
X149502692Y-89601686D01*
X149536799Y-89474394D01*
X149536800Y-89474394D01*
X149536800Y-89342606D01*
X149536799Y-89342605D01*
X149524200Y-89295586D01*
X149502692Y-89215314D01*
X149436800Y-89101186D01*
X149372119Y-89036505D01*
X164910000Y-89036505D01*
X164910000Y-89168294D01*
X164944106Y-89295581D01*
X164944110Y-89295590D01*
X164971255Y-89342606D01*
X165010000Y-89409714D01*
X165103186Y-89502900D01*
X165217314Y-89568792D01*
X165344605Y-89602899D01*
X165344606Y-89602900D01*
X165344608Y-89602900D01*
X165476394Y-89602900D01*
X165476394Y-89602899D01*
X165603686Y-89568792D01*
X165717814Y-89502900D01*
X165811000Y-89409714D01*
X165869087Y-89309105D01*
X170559400Y-89309105D01*
X170559400Y-89440894D01*
X170593506Y-89568181D01*
X170593510Y-89568190D01*
X170613550Y-89602900D01*
X170659400Y-89682314D01*
X170752586Y-89775500D01*
X170866714Y-89841392D01*
X170994005Y-89875499D01*
X170994006Y-89875500D01*
X170994008Y-89875500D01*
X171125794Y-89875500D01*
X171125794Y-89875499D01*
X171253086Y-89841392D01*
X171367214Y-89775500D01*
X171460400Y-89682314D01*
X171526292Y-89568186D01*
X171560399Y-89440894D01*
X171560400Y-89440894D01*
X171560400Y-89309106D01*
X171560399Y-89309105D01*
X171556776Y-89295585D01*
X171526292Y-89181814D01*
X171460400Y-89067686D01*
X171367214Y-88974500D01*
X171349880Y-88964492D01*
X171253090Y-88908610D01*
X171253081Y-88908606D01*
X171125794Y-88874500D01*
X171125792Y-88874500D01*
X170994008Y-88874500D01*
X170994006Y-88874500D01*
X170866718Y-88908606D01*
X170866709Y-88908610D01*
X170752585Y-88974500D01*
X170659400Y-89067685D01*
X170593510Y-89181809D01*
X170593506Y-89181818D01*
X170559400Y-89309105D01*
X165869087Y-89309105D01*
X165876892Y-89295586D01*
X165910999Y-89168294D01*
X165911000Y-89168294D01*
X165911000Y-89036506D01*
X165910999Y-89036505D01*
X165901713Y-89001850D01*
X165876892Y-88909214D01*
X165811000Y-88795086D01*
X165717814Y-88701900D01*
X165699421Y-88691281D01*
X165603690Y-88636010D01*
X165603681Y-88636006D01*
X165476394Y-88601900D01*
X165476392Y-88601900D01*
X165344608Y-88601900D01*
X165344606Y-88601900D01*
X165217318Y-88636006D01*
X165217309Y-88636010D01*
X165103185Y-88701900D01*
X165010000Y-88795085D01*
X164944110Y-88909209D01*
X164944106Y-88909218D01*
X164910000Y-89036505D01*
X149372119Y-89036505D01*
X149343614Y-89008000D01*
X149320160Y-88994459D01*
X149229490Y-88942110D01*
X149229481Y-88942106D01*
X149102194Y-88908000D01*
X149102192Y-88908000D01*
X148970408Y-88908000D01*
X148970406Y-88908000D01*
X148843118Y-88942106D01*
X148843109Y-88942110D01*
X148728985Y-89008000D01*
X148635800Y-89101185D01*
X148569910Y-89215309D01*
X148569906Y-89215318D01*
X148535800Y-89342605D01*
X123800500Y-89342605D01*
X123800500Y-86889776D01*
X125099500Y-86889776D01*
X125099500Y-87110223D01*
X125133984Y-87327948D01*
X125133987Y-87327961D01*
X125202103Y-87537602D01*
X125202104Y-87537605D01*
X125202105Y-87537606D01*
X125294785Y-87719499D01*
X125302186Y-87734023D01*
X125302186Y-87734024D01*
X125311395Y-87746699D01*
X125431758Y-87912365D01*
X125587635Y-88068242D01*
X125765978Y-88197815D01*
X125962394Y-88297895D01*
X125962397Y-88297896D01*
X125962396Y-88297896D01*
X126172038Y-88366012D01*
X126172044Y-88366013D01*
X126172049Y-88366015D01*
X126280913Y-88383257D01*
X126389776Y-88400500D01*
X126389778Y-88400500D01*
X126610224Y-88400500D01*
X126697313Y-88386706D01*
X126827951Y-88366015D01*
X126827958Y-88366012D01*
X126827961Y-88366012D01*
X126928617Y-88333307D01*
X127037606Y-88297895D01*
X127234022Y-88197815D01*
X127412365Y-88068242D01*
X127568242Y-87912365D01*
X127697815Y-87734022D01*
X127797895Y-87537606D01*
X127857188Y-87355118D01*
X127866012Y-87327961D01*
X127866012Y-87327958D01*
X127866015Y-87327951D01*
X127898030Y-87125818D01*
X127900500Y-87110223D01*
X127900500Y-86889776D01*
X127872232Y-86711300D01*
X127866015Y-86672049D01*
X127866013Y-86672044D01*
X127866012Y-86672038D01*
X127806971Y-86490325D01*
X127801115Y-86472305D01*
X148246000Y-86472305D01*
X148246000Y-86604094D01*
X148280106Y-86731381D01*
X148280107Y-86731384D01*
X148280108Y-86731386D01*
X148346000Y-86845514D01*
X148439186Y-86938700D01*
X148553314Y-87004592D01*
X148680605Y-87038699D01*
X148680606Y-87038700D01*
X148680608Y-87038700D01*
X148812394Y-87038700D01*
X148812394Y-87038699D01*
X148939686Y-87004592D01*
X149053814Y-86938700D01*
X149102738Y-86889776D01*
X157099500Y-86889776D01*
X157099500Y-87110223D01*
X157133984Y-87327948D01*
X157133987Y-87327961D01*
X157202103Y-87537602D01*
X157202104Y-87537605D01*
X157202105Y-87537606D01*
X157294785Y-87719499D01*
X157302186Y-87734023D01*
X157302186Y-87734024D01*
X157311395Y-87746699D01*
X157431758Y-87912365D01*
X157587635Y-88068242D01*
X157765978Y-88197815D01*
X157962394Y-88297895D01*
X157962397Y-88297896D01*
X157962396Y-88297896D01*
X158172038Y-88366012D01*
X158172044Y-88366013D01*
X158172049Y-88366015D01*
X158280913Y-88383257D01*
X158389776Y-88400500D01*
X158389778Y-88400500D01*
X158610224Y-88400500D01*
X158697313Y-88386706D01*
X158827951Y-88366015D01*
X158827958Y-88366012D01*
X158827961Y-88366012D01*
X158928617Y-88333307D01*
X159037606Y-88297895D01*
X159234022Y-88197815D01*
X159412365Y-88068242D01*
X159568242Y-87912365D01*
X159697815Y-87734022D01*
X159797895Y-87537606D01*
X159815830Y-87482408D01*
X159815831Y-87482405D01*
X160398600Y-87482405D01*
X160398600Y-87614194D01*
X160432706Y-87741481D01*
X160432710Y-87741490D01*
X160493453Y-87846699D01*
X160498600Y-87855614D01*
X160591786Y-87948800D01*
X160705914Y-88014692D01*
X160833205Y-88048799D01*
X160833206Y-88048800D01*
X160833208Y-88048800D01*
X160964994Y-88048800D01*
X160964994Y-88048799D01*
X161092286Y-88014692D01*
X161206414Y-87948800D01*
X161299600Y-87855614D01*
X161365492Y-87741486D01*
X161399599Y-87614194D01*
X161399600Y-87614194D01*
X161399600Y-87482406D01*
X161399599Y-87482405D01*
X161380759Y-87412094D01*
X161365492Y-87355114D01*
X161349815Y-87327961D01*
X161340865Y-87312458D01*
X161322301Y-87280305D01*
X165502400Y-87280305D01*
X165502400Y-87412094D01*
X165536506Y-87539381D01*
X165536510Y-87539390D01*
X165586696Y-87626314D01*
X165602400Y-87653514D01*
X165695586Y-87746700D01*
X165809714Y-87812592D01*
X165937005Y-87846699D01*
X165937006Y-87846700D01*
X165937008Y-87846700D01*
X166068794Y-87846700D01*
X166068794Y-87846699D01*
X166196086Y-87812592D01*
X166310214Y-87746700D01*
X166403400Y-87653514D01*
X166469292Y-87539386D01*
X166503399Y-87412094D01*
X166503400Y-87412094D01*
X166503400Y-87280308D01*
X166499944Y-87267410D01*
X166499944Y-87267408D01*
X166496111Y-87253105D01*
X171562400Y-87253105D01*
X171562400Y-87384894D01*
X171596506Y-87512181D01*
X171596507Y-87512184D01*
X171596508Y-87512186D01*
X171662400Y-87626314D01*
X171755586Y-87719500D01*
X171869714Y-87785392D01*
X171997005Y-87819499D01*
X171997006Y-87819500D01*
X171997008Y-87819500D01*
X172128794Y-87819500D01*
X172128794Y-87819499D01*
X172256086Y-87785392D01*
X172370214Y-87719500D01*
X172463400Y-87626314D01*
X172529292Y-87512186D01*
X172563399Y-87384894D01*
X172563400Y-87384894D01*
X172563400Y-87253106D01*
X172563399Y-87253105D01*
X172560151Y-87240985D01*
X172529292Y-87125814D01*
X172463400Y-87011686D01*
X172370214Y-86918500D01*
X172303198Y-86879808D01*
X172256090Y-86852610D01*
X172256081Y-86852606D01*
X172128794Y-86818500D01*
X172128792Y-86818500D01*
X171997008Y-86818500D01*
X171997006Y-86818500D01*
X171869718Y-86852606D01*
X171869709Y-86852610D01*
X171755585Y-86918500D01*
X171662400Y-87011685D01*
X171596510Y-87125809D01*
X171596506Y-87125818D01*
X171562400Y-87253105D01*
X166496111Y-87253105D01*
X166469293Y-87153018D01*
X166469292Y-87153014D01*
X166403400Y-87038886D01*
X166310214Y-86945700D01*
X166298088Y-86938699D01*
X166196090Y-86879810D01*
X166196081Y-86879806D01*
X166068794Y-86845700D01*
X166068792Y-86845700D01*
X165937008Y-86845700D01*
X165937006Y-86845700D01*
X165809718Y-86879806D01*
X165809709Y-86879810D01*
X165695585Y-86945700D01*
X165602400Y-87038885D01*
X165536510Y-87153009D01*
X165536506Y-87153018D01*
X165502400Y-87280305D01*
X161322301Y-87280305D01*
X161314855Y-87267408D01*
X161299600Y-87240986D01*
X161206414Y-87147800D01*
X161141327Y-87110222D01*
X161092290Y-87081910D01*
X161092281Y-87081906D01*
X160964994Y-87047800D01*
X160964992Y-87047800D01*
X160833208Y-87047800D01*
X160833206Y-87047800D01*
X160705918Y-87081906D01*
X160705909Y-87081910D01*
X160591785Y-87147800D01*
X160498600Y-87240985D01*
X160432710Y-87355109D01*
X160432706Y-87355118D01*
X160398600Y-87482405D01*
X159815831Y-87482405D01*
X159824836Y-87454691D01*
X159866012Y-87327961D01*
X159866012Y-87327958D01*
X159866015Y-87327951D01*
X159898030Y-87125818D01*
X159900500Y-87110223D01*
X159900500Y-86889776D01*
X159872232Y-86711300D01*
X159866015Y-86672049D01*
X159866013Y-86672044D01*
X159866012Y-86672038D01*
X159797896Y-86462397D01*
X159797895Y-86462395D01*
X159797895Y-86462394D01*
X159697815Y-86265978D01*
X159609851Y-86144905D01*
X166875500Y-86144905D01*
X166875500Y-86276694D01*
X166909606Y-86403981D01*
X166909610Y-86403990D01*
X166943332Y-86462397D01*
X166975500Y-86518114D01*
X167068686Y-86611300D01*
X167182814Y-86677192D01*
X167310105Y-86711299D01*
X167310106Y-86711300D01*
X167310108Y-86711300D01*
X167441894Y-86711300D01*
X167441894Y-86711299D01*
X167569186Y-86677192D01*
X167683314Y-86611300D01*
X167776500Y-86518114D01*
X167842392Y-86403986D01*
X167876499Y-86276694D01*
X167876500Y-86276694D01*
X167876500Y-86144906D01*
X167876499Y-86144905D01*
X167874568Y-86137700D01*
X167842392Y-86017614D01*
X167776500Y-85903486D01*
X167683314Y-85810300D01*
X167669260Y-85802186D01*
X167569190Y-85744410D01*
X167569181Y-85744406D01*
X167441894Y-85710300D01*
X167441892Y-85710300D01*
X167310108Y-85710300D01*
X167310106Y-85710300D01*
X167182818Y-85744406D01*
X167182809Y-85744410D01*
X167068685Y-85810300D01*
X166975500Y-85903485D01*
X166909610Y-86017609D01*
X166909606Y-86017618D01*
X166875500Y-86144905D01*
X159609851Y-86144905D01*
X159568242Y-86087635D01*
X159412365Y-85931758D01*
X159308441Y-85856253D01*
X159234024Y-85802186D01*
X159120629Y-85744408D01*
X159037606Y-85702105D01*
X159037605Y-85702104D01*
X159037602Y-85702103D01*
X159037603Y-85702103D01*
X158827961Y-85633987D01*
X158827948Y-85633984D01*
X158610224Y-85599500D01*
X158610222Y-85599500D01*
X158389778Y-85599500D01*
X158389776Y-85599500D01*
X158172051Y-85633984D01*
X158172038Y-85633987D01*
X157962397Y-85702103D01*
X157765976Y-85802186D01*
X157765975Y-85802186D01*
X157626548Y-85903486D01*
X157587635Y-85931758D01*
X157431758Y-86087635D01*
X157431755Y-86087638D01*
X157431755Y-86087639D01*
X157302186Y-86265975D01*
X157302186Y-86265976D01*
X157202103Y-86462397D01*
X157133987Y-86672038D01*
X157133984Y-86672051D01*
X157099500Y-86889776D01*
X149102738Y-86889776D01*
X149147000Y-86845514D01*
X149212892Y-86731386D01*
X149246999Y-86604094D01*
X149247000Y-86604094D01*
X149247000Y-86472306D01*
X149246999Y-86472305D01*
X149244343Y-86462394D01*
X149212892Y-86345014D01*
X149147000Y-86230886D01*
X149053814Y-86137700D01*
X148967106Y-86087639D01*
X148939690Y-86071810D01*
X148939681Y-86071806D01*
X148812394Y-86037700D01*
X148812392Y-86037700D01*
X148680608Y-86037700D01*
X148680606Y-86037700D01*
X148553318Y-86071806D01*
X148553309Y-86071810D01*
X148439185Y-86137700D01*
X148346000Y-86230885D01*
X148280110Y-86345009D01*
X148280106Y-86345018D01*
X148246000Y-86472305D01*
X127801115Y-86472305D01*
X127797895Y-86462395D01*
X127797895Y-86462394D01*
X127697815Y-86265978D01*
X127568242Y-86087635D01*
X127412365Y-85931758D01*
X127308441Y-85856253D01*
X127234024Y-85802186D01*
X127120629Y-85744408D01*
X127037606Y-85702105D01*
X127037605Y-85702104D01*
X127037602Y-85702103D01*
X127037603Y-85702103D01*
X126827961Y-85633987D01*
X126827948Y-85633984D01*
X126610224Y-85599500D01*
X126610222Y-85599500D01*
X126389778Y-85599500D01*
X126389776Y-85599500D01*
X126172051Y-85633984D01*
X126172038Y-85633987D01*
X125962397Y-85702103D01*
X125765976Y-85802186D01*
X125765975Y-85802186D01*
X125626548Y-85903486D01*
X125587635Y-85931758D01*
X125431758Y-86087635D01*
X125431755Y-86087638D01*
X125431755Y-86087639D01*
X125302186Y-86265975D01*
X125302186Y-86265976D01*
X125202103Y-86462397D01*
X125133987Y-86672038D01*
X125133984Y-86672051D01*
X125099500Y-86889776D01*
X123800500Y-86889776D01*
X123800500Y-84374000D01*
X123822174Y-84321674D01*
X123874500Y-84300000D01*
X150931048Y-84300000D01*
X150983374Y-84321674D01*
G37*
%TD.AperFunction*%
%TD*%
M02*
